<svg width="20" height="20" viewBox="0 0 20 20" fill="none" xmlns="http://www.w3.org/2000/svg">
<circle cx="10" cy="10" r="9.5" fill="#FF2F66" stroke="#F7F7F8"/>
<path d="M7 15.283L7.007 14.163L11.48 10.138C11.8533 9.802 12.103 9.48467 12.229 9.186C12.3597 8.88267 12.425 8.57233 12.425 8.255C12.425 7.86767 12.3363 7.51767 12.159 7.205C11.9817 6.89233 11.739 6.645 11.431 6.463C11.1277 6.281 10.7823 6.19 10.395 6.19C9.99367 6.19 9.63667 6.28567 9.324 6.477C9.01133 6.66367 8.764 6.91333 8.582 7.226C8.40467 7.53867 8.31833 7.87933 8.323 8.248H7.049C7.049 7.61333 7.196 7.05333 7.49 6.568C7.784 6.078 8.183 5.69533 8.687 5.42C9.19567 5.14 9.772 5 10.416 5C11.0413 5 11.6013 5.14467 12.096 5.434C12.5907 5.71867 12.9803 6.10833 13.265 6.603C13.5543 7.093 13.699 7.64833 13.699 8.269C13.699 8.70767 13.643 9.088 13.531 9.41C13.4237 9.732 13.2557 10.0307 13.027 10.306C12.7983 10.5767 12.5113 10.866 12.166 11.174L8.449 14.513L8.288 14.093H13.699V15.283H7Z" fill="white"/>
</svg>
