<svg width="20" height="20" viewBox="0 0 20 20" fill="none" xmlns="http://www.w3.org/2000/svg">
<circle cx="10" cy="10" r="9.5" fill="#FF2F66" stroke="#F7F7F8"/>
<path d="M10.185 15.276C9.68567 15.276 9.22133 15.185 8.792 15.003C8.36267 14.8163 7.99167 14.555 7.679 14.219C7.371 13.8783 7.14467 13.4747 7 13.008L8.197 12.665C8.351 13.1317 8.60767 13.4863 8.967 13.729C9.32633 13.9717 9.73 14.0907 10.178 14.086C10.5887 14.0767 10.9433 13.9833 11.242 13.806C11.5453 13.624 11.7787 13.3767 11.942 13.064C12.11 12.7513 12.194 12.3897 12.194 11.979C12.194 11.3537 12.0073 10.8473 11.634 10.46C11.2607 10.068 10.7707 9.872 10.164 9.872C9.996 9.872 9.81867 9.89533 9.632 9.942C9.45 9.98867 9.27967 10.054 9.121 10.138L8.519 9.151L12.257 5.77L12.418 6.19H7.399V5H13.342V6.197L10.157 9.249L10.143 8.808C10.8103 8.76133 11.3937 8.871 11.893 9.137C12.3923 9.403 12.7797 9.78333 13.055 10.278C13.335 10.7727 13.475 11.3397 13.475 11.979C13.475 12.623 13.3303 13.1923 13.041 13.687C12.7517 14.1817 12.3597 14.5713 11.865 14.856C11.3703 15.136 10.8103 15.276 10.185 15.276Z" fill="white"/>
</svg>
