<svg width="379" height="250" viewBox="0 0 379 250" fill="none" xmlns="http://www.w3.org/2000/svg">
<g filter="url(#filter0_i_2002_2715)">
<path d="M82.9333 148.867L112.446 156.729C108.4 146.946 106.167 136.229 106.167 125C106.167 79.05 143.55 41.6667 189.5 41.6667L210.333 20.8333L189.5 0C156.108 0 124.721 13.0042 101.113 36.6125C77.5 60.2208 64.5 91.6125 64.5 125C64.5 143.058 68.3042 160.525 75.5333 176.496L82.9333 148.867Z" fill="url(#paint0_linear_2002_2715)"/>
</g>
<path d="M209.626 20.833L189.291 41.168C143.161 41.2811 105.667 78.8435 105.667 125C105.667 135.94 107.774 146.398 111.604 155.987L83.0625 148.384L82.5791 148.255L82.4502 148.737L75.416 175.001C68.5892 159.446 65 142.503 65 125C65 91.7451 77.9471 60.4804 101.466 36.9658C124.932 13.4998 156.112 0.554356 189.294 0.500977L209.626 20.833Z" stroke="url(#paint1_linear_2002_2715)"/>
<path d="M117.019 167.093C131.559 192.037 158.605 208.837 189.5 208.837C216.136 208.837 239.905 196.348 255.272 176.924L262.954 205.419V206.01L263.584 205.841L289.784 198.82C286.094 203.813 282.005 208.568 277.534 213.038C254.02 236.557 222.759 249.504 189.5 249.504C156.241 249.504 124.98 236.557 101.466 213.038C93.7131 205.286 87.109 196.689 81.7412 187.457L89.1826 159.678L117.019 167.093Z" fill="#F6F6F6" stroke="url(#paint2_linear_2002_2715)"/>
<path d="M203.236 1.24579C231.295 4.30391 257.289 16.7214 277.534 36.9665C301.048 60.4809 314 91.7451 314 125C314 147.154 308.254 168.414 297.466 187.094L269.685 194.537L262.189 166.726C269.276 154.431 273.333 140.182 273.333 125C273.333 82.8864 242.12 47.9295 201.613 42.0427L222.47 21.1872L222.823 20.8337L222.47 20.4802L203.236 1.24579Z" fill="#F6F6F6" stroke="url(#paint3_linear_2002_2715)"/>
<rect x="20" y="40" width="133" height="32" rx="8" fill="#F7F7F8"/>
<rect x="20.5" y="40.5" width="132" height="31" rx="7.5" stroke="#040213" stroke-opacity="0.1"/>
<path d="M28.84 61V52.36H34.3V53.374H29.908V56.08H33.58V57.094H29.908V59.986H34.3V61H28.84ZM35.8623 53.374V52.27H36.9303V53.374H35.8623ZM35.8623 61V54.52H36.9303V61H35.8623ZM43.3446 61V57.754C43.3446 57.446 43.3166 57.15 43.2606 56.866C43.2086 56.582 43.1146 56.328 42.9786 56.104C42.8466 55.876 42.6666 55.696 42.4386 55.564C42.2146 55.432 41.9306 55.366 41.5866 55.366C41.3186 55.366 41.0746 55.412 40.8546 55.504C40.6386 55.592 40.4526 55.728 40.2966 55.912C40.1406 56.096 40.0186 56.328 39.9306 56.608C39.8466 56.884 39.8046 57.21 39.8046 57.586L39.1026 57.37C39.1026 56.742 39.2146 56.204 39.4386 55.756C39.6666 55.304 39.9846 54.958 40.3926 54.718C40.8046 54.474 41.2886 54.352 41.8446 54.352C42.2646 54.352 42.6226 54.418 42.9186 54.55C43.2146 54.682 43.4606 54.858 43.6566 55.078C43.8526 55.294 44.0066 55.538 44.1186 55.81C44.2306 56.078 44.3086 56.352 44.3526 56.632C44.4006 56.908 44.4246 57.17 44.4246 57.418V61H43.3446ZM38.7246 61V54.52H39.6846V56.254H39.8046V61H38.7246ZM45.3845 61V60.808L49.3145 55.492H45.7085V54.52H51.0365V54.724L47.1125 60.028H50.8325V61H45.3845ZM54.6871 61.18C54.0511 61.18 53.4951 61.04 53.0191 60.76C52.5471 60.476 52.1791 60.082 51.9151 59.578C51.6511 59.07 51.5191 58.478 51.5191 57.802C51.5191 57.094 51.6491 56.482 51.9091 55.966C52.1691 55.446 52.5311 55.046 52.9951 54.766C53.4631 54.482 54.0111 54.34 54.6391 54.34C55.2911 54.34 55.8451 54.49 56.3011 54.79C56.7611 55.09 57.1051 55.518 57.3331 56.074C57.5651 56.63 57.6651 57.292 57.6331 58.06H56.5531V57.676C56.5411 56.88 56.3791 56.286 56.0671 55.894C55.7551 55.498 55.2911 55.3 54.6751 55.3C54.0151 55.3 53.5131 55.512 53.1691 55.936C52.8251 56.36 52.6531 56.968 52.6531 57.76C52.6531 58.524 52.8251 59.116 53.1691 59.536C53.5131 59.956 54.0031 60.166 54.6391 60.166C55.0671 60.166 55.4391 60.068 55.7551 59.872C56.0711 59.676 56.3191 59.394 56.4991 59.026L57.5251 59.38C57.2731 59.952 56.8931 60.396 56.3851 60.712C55.8811 61.024 55.3151 61.18 54.6871 61.18ZM52.2931 58.06V57.202H57.0811V58.06H52.2931ZM59.0889 61V52.18H60.1569V61H59.0889ZM63.7092 61L61.3572 54.52H62.4372L64.2552 59.638L66.0672 54.52H67.1532L64.8012 61H63.7092ZM70.8121 61.18C70.1761 61.18 69.6201 61.04 69.1441 60.76C68.6721 60.476 68.3041 60.082 68.0401 59.578C67.7761 59.07 67.6441 58.478 67.6441 57.802C67.6441 57.094 67.7741 56.482 68.0341 55.966C68.2941 55.446 68.6561 55.046 69.1201 54.766C69.5881 54.482 70.1361 54.34 70.7641 54.34C71.4161 54.34 71.9701 54.49 72.4261 54.79C72.8861 55.09 73.2301 55.518 73.4581 56.074C73.6901 56.63 73.7901 57.292 73.7581 58.06H72.6781V57.676C72.6661 56.88 72.5041 56.286 72.1921 55.894C71.8801 55.498 71.4161 55.3 70.8001 55.3C70.1401 55.3 69.6381 55.512 69.2941 55.936C68.9501 56.36 68.7781 56.968 68.7781 57.76C68.7781 58.524 68.9501 59.116 69.2941 59.536C69.6381 59.956 70.1281 60.166 70.7641 60.166C71.1921 60.166 71.5641 60.068 71.8801 59.872C72.1961 59.676 72.4441 59.394 72.6241 59.026L73.6501 59.38C73.3981 59.952 73.0181 60.396 72.5101 60.712C72.0061 61.024 71.4401 61.18 70.8121 61.18ZM68.4181 58.06V57.202H73.2061V58.06H68.4181ZM75.0939 61V54.52H76.0479V56.086L75.8919 55.882C75.9679 55.682 76.0659 55.498 76.1859 55.33C76.3099 55.162 76.4479 55.024 76.5999 54.916C76.7679 54.78 76.9579 54.676 77.1699 54.604C77.3819 54.532 77.5979 54.49 77.8179 54.478C78.0379 54.462 78.2439 54.476 78.4359 54.52V55.522C78.2119 55.462 77.9659 55.446 77.6979 55.474C77.4299 55.502 77.1819 55.6 76.9539 55.768C76.7459 55.916 76.5839 56.096 76.4679 56.308C76.3559 56.52 76.2779 56.75 76.2339 56.998C76.1899 57.242 76.1679 57.492 76.1679 57.748V61H75.0939ZM81.2015 61.18C80.7175 61.18 80.3115 61.092 79.9835 60.916C79.6595 60.736 79.4135 60.5 79.2455 60.208C79.0815 59.916 78.9995 59.596 78.9995 59.248C78.9995 58.908 79.0635 58.614 79.1915 58.366C79.3235 58.114 79.5075 57.906 79.7435 57.742C79.9795 57.574 80.2615 57.442 80.5895 57.346C80.8975 57.262 81.2415 57.19 81.6215 57.13C82.0055 57.066 82.3935 57.008 82.7855 56.956C83.1775 56.904 83.5435 56.854 83.8835 56.806L83.4995 57.028C83.5115 56.452 83.3955 56.026 83.1515 55.75C82.9115 55.474 82.4955 55.336 81.9035 55.336C81.5115 55.336 81.1675 55.426 80.8715 55.606C80.5795 55.782 80.3735 56.07 80.2535 56.47L79.2395 56.164C79.3955 55.596 79.6975 55.15 80.1455 54.826C80.5935 54.502 81.1835 54.34 81.9155 54.34C82.5035 54.34 83.0075 54.446 83.4275 54.658C83.8515 54.866 84.1555 55.182 84.3395 55.606C84.4315 55.806 84.4895 56.024 84.5135 56.26C84.5375 56.492 84.5495 56.736 84.5495 56.992V61H83.6015V59.446L83.8235 59.59C83.5795 60.114 83.2375 60.51 82.7975 60.778C82.3615 61.046 81.8295 61.18 81.2015 61.18ZM81.3635 60.286C81.7475 60.286 82.0795 60.218 82.3595 60.082C82.6435 59.942 82.8715 59.76 83.0435 59.536C83.2155 59.308 83.3275 59.06 83.3795 58.792C83.4395 58.592 83.4715 58.37 83.4755 58.126C83.4835 57.878 83.4875 57.688 83.4875 57.556L83.8595 57.718C83.5115 57.766 83.1695 57.812 82.8335 57.856C82.4975 57.9 82.1795 57.948 81.8795 58C81.5795 58.048 81.3095 58.106 81.0695 58.174C80.8935 58.23 80.7275 58.302 80.5715 58.39C80.4195 58.478 80.2955 58.592 80.1995 58.732C80.1075 58.868 80.0615 59.038 80.0615 59.242C80.0615 59.418 80.1055 59.586 80.1935 59.746C80.2855 59.906 80.4255 60.036 80.6135 60.136C80.8055 60.236 81.0555 60.286 81.3635 60.286ZM90.7235 61V57.754C90.7235 57.446 90.6955 57.15 90.6395 56.866C90.5875 56.582 90.4935 56.328 90.3575 56.104C90.2255 55.876 90.0455 55.696 89.8175 55.564C89.5935 55.432 89.3095 55.366 88.9655 55.366C88.6975 55.366 88.4535 55.412 88.2335 55.504C88.0175 55.592 87.8315 55.728 87.6755 55.912C87.5195 56.096 87.3975 56.328 87.3095 56.608C87.2255 56.884 87.1835 57.21 87.1835 57.586L86.4815 57.37C86.4815 56.742 86.5935 56.204 86.8175 55.756C87.0455 55.304 87.3635 54.958 87.7715 54.718C88.1835 54.474 88.6675 54.352 89.2235 54.352C89.6435 54.352 90.0015 54.418 90.2975 54.55C90.5935 54.682 90.8395 54.858 91.0355 55.078C91.2315 55.294 91.3855 55.538 91.4975 55.81C91.6095 56.078 91.6875 56.352 91.7315 56.632C91.7795 56.908 91.8035 57.17 91.8035 57.418V61H90.7235ZM86.1035 61V54.52H87.0635V56.254H87.1835V61H86.1035ZM96.9814 61C96.5974 61.076 96.2174 61.106 95.8414 61.09C95.4694 61.078 95.1374 61.004 94.8454 60.868C94.5534 60.728 94.3314 60.512 94.1794 60.22C94.0514 59.964 93.9814 59.706 93.9694 59.446C93.9614 59.182 93.9574 58.884 93.9574 58.552V52.72H95.0254V58.504C95.0254 58.768 95.0274 58.994 95.0314 59.182C95.0394 59.37 95.0814 59.532 95.1574 59.668C95.3014 59.924 95.5294 60.074 95.8414 60.118C96.1574 60.162 96.5374 60.15 96.9814 60.082V61ZM92.6434 55.402V54.52H96.9814V55.402H92.6434ZM99.677 61L97.697 54.514L98.759 54.52L100.205 59.26L101.663 54.52H102.605L104.057 59.26L105.509 54.52H106.565L104.585 61H103.697L102.131 56.074L100.565 61H99.677ZM110.174 61.18C109.53 61.18 108.974 61.034 108.506 60.742C108.042 60.45 107.684 60.046 107.432 59.53C107.18 59.014 107.054 58.422 107.054 57.754C107.054 57.074 107.182 56.478 107.438 55.966C107.694 55.454 108.056 55.056 108.524 54.772C108.992 54.484 109.542 54.34 110.174 54.34C110.822 54.34 111.38 54.486 111.848 54.778C112.316 55.066 112.674 55.468 112.922 55.984C113.174 56.496 113.3 57.086 113.3 57.754C113.3 58.43 113.174 59.026 112.922 59.542C112.67 60.054 112.31 60.456 111.842 60.748C111.374 61.036 110.818 61.18 110.174 61.18ZM110.174 60.166C110.846 60.166 111.346 59.942 111.674 59.494C112.002 59.046 112.166 58.466 112.166 57.754C112.166 57.022 112 56.44 111.668 56.008C111.336 55.572 110.838 55.354 110.174 55.354C109.722 55.354 109.35 55.456 109.058 55.66C108.766 55.864 108.548 56.146 108.404 56.506C108.26 56.866 108.188 57.282 108.188 57.754C108.188 58.482 108.356 59.066 108.692 59.506C109.028 59.946 109.522 60.166 110.174 60.166ZM114.621 61V54.52H115.575V56.086L115.419 55.882C115.495 55.682 115.593 55.498 115.713 55.33C115.837 55.162 115.975 55.024 116.127 54.916C116.295 54.78 116.485 54.676 116.697 54.604C116.909 54.532 117.125 54.49 117.345 54.478C117.565 54.462 117.771 54.476 117.963 54.52V55.522C117.739 55.462 117.493 55.446 117.225 55.474C116.957 55.502 116.709 55.6 116.481 55.768C116.273 55.916 116.111 56.096 115.995 56.308C115.883 56.52 115.805 56.75 115.761 56.998C115.717 57.242 115.695 57.492 115.695 57.748V61H114.621ZM122.716 61C122.332 61.076 121.952 61.106 121.576 61.09C121.204 61.078 120.872 61.004 120.58 60.868C120.288 60.728 120.066 60.512 119.914 60.22C119.786 59.964 119.716 59.706 119.704 59.446C119.696 59.182 119.692 58.884 119.692 58.552V52.72H120.76V58.504C120.76 58.768 120.762 58.994 120.766 59.182C120.774 59.37 120.816 59.532 120.892 59.668C121.036 59.924 121.264 60.074 121.576 60.118C121.892 60.162 122.272 60.15 122.716 60.082V61ZM118.378 55.402V54.52H122.716V55.402H118.378ZM126.491 61.168C126.075 61.168 125.717 61.102 125.417 60.97C125.121 60.838 124.875 60.662 124.679 60.442C124.483 60.222 124.329 59.978 124.217 59.71C124.105 59.442 124.025 59.168 123.977 58.888C123.933 58.608 123.911 58.346 123.911 58.102V54.52H124.991V57.766C124.991 58.07 125.019 58.364 125.075 58.648C125.131 58.932 125.225 59.188 125.357 59.416C125.493 59.644 125.673 59.824 125.897 59.956C126.125 60.088 126.409 60.154 126.749 60.154C127.017 60.154 127.261 60.108 127.481 60.016C127.701 59.924 127.889 59.788 128.045 59.608C128.201 59.424 128.321 59.192 128.405 58.912C128.489 58.632 128.531 58.306 128.531 57.934L129.233 58.15C129.233 58.774 129.119 59.312 128.891 59.764C128.667 60.216 128.349 60.564 127.937 60.808C127.529 61.048 127.047 61.168 126.491 61.168ZM128.651 61V59.266H128.531V54.52H129.605V61H128.651ZM135.899 61V57.754C135.899 57.446 135.871 57.15 135.815 56.866C135.763 56.582 135.669 56.328 135.533 56.104C135.401 55.876 135.221 55.696 134.993 55.564C134.769 55.432 134.485 55.366 134.141 55.366C133.873 55.366 133.629 55.412 133.409 55.504C133.193 55.592 133.007 55.728 132.851 55.912C132.695 56.096 132.573 56.328 132.485 56.608C132.401 56.884 132.359 57.21 132.359 57.586L131.657 57.37C131.657 56.742 131.769 56.204 131.993 55.756C132.221 55.304 132.539 54.958 132.947 54.718C133.359 54.474 133.843 54.352 134.399 54.352C134.819 54.352 135.177 54.418 135.473 54.55C135.769 54.682 136.015 54.858 136.211 55.078C136.407 55.294 136.561 55.538 136.673 55.81C136.785 56.078 136.863 56.352 136.907 56.632C136.955 56.908 136.979 57.17 136.979 57.418V61H135.899ZM131.279 61V54.52H132.239V56.254H132.359V61H131.279ZM141.161 64.06C140.821 64.06 140.489 64.008 140.165 63.904C139.841 63.8 139.543 63.642 139.271 63.43C139.003 63.222 138.779 62.958 138.599 62.638L139.577 62.122C139.737 62.438 139.963 62.668 140.255 62.812C140.551 62.956 140.855 63.028 141.167 63.028C141.579 63.028 141.921 62.952 142.193 62.8C142.465 62.652 142.665 62.43 142.793 62.134C142.925 61.838 142.989 61.47 142.985 61.03V59.26H143.111V54.52H144.059V61.042C144.059 61.218 144.053 61.388 144.041 61.552C144.033 61.716 144.013 61.878 143.981 62.038C143.897 62.498 143.731 62.876 143.483 63.172C143.235 63.472 142.915 63.694 142.523 63.838C142.131 63.986 141.677 64.06 141.161 64.06ZM141.083 61.18C140.479 61.18 139.961 61.03 139.529 60.73C139.097 60.426 138.763 60.016 138.527 59.5C138.295 58.984 138.179 58.402 138.179 57.754C138.179 57.106 138.295 56.524 138.527 56.008C138.763 55.492 139.097 55.086 139.529 54.79C139.961 54.49 140.477 54.34 141.077 54.34C141.689 54.34 142.203 54.488 142.619 54.784C143.035 55.08 143.349 55.486 143.561 56.002C143.777 56.518 143.885 57.102 143.885 57.754C143.885 58.398 143.777 58.98 143.561 59.5C143.349 60.016 143.035 60.426 142.619 60.73C142.203 61.03 141.691 61.18 141.083 61.18ZM141.215 60.202C141.651 60.202 142.009 60.098 142.289 59.89C142.569 59.678 142.775 59.388 142.907 59.02C143.043 58.648 143.111 58.226 143.111 57.754C143.111 57.274 143.043 56.852 142.907 56.488C142.775 56.12 142.571 55.834 142.295 55.63C142.019 55.422 141.669 55.318 141.245 55.318C140.805 55.318 140.441 55.426 140.153 55.642C139.869 55.858 139.657 56.15 139.517 56.518C139.381 56.886 139.313 57.298 139.313 57.754C139.313 58.214 139.383 58.63 139.523 59.002C139.663 59.37 139.873 59.662 140.153 59.878C140.437 60.094 140.791 60.202 141.215 60.202Z" fill="#040213"/>
<rect x="216" y="72" width="140" height="32" rx="8" fill="#F7F7F8"/>
<rect x="216.5" y="72.5" width="139" height="31" rx="7.5" stroke="#040213" stroke-opacity="0.1"/>
<path d="M227.906 93.18C227.294 93.18 226.742 93.076 226.25 92.868C225.762 92.66 225.358 92.364 225.038 91.98C224.722 91.592 224.516 91.134 224.42 90.606L225.524 90.432C225.664 90.976 225.954 91.402 226.394 91.71C226.838 92.014 227.36 92.166 227.96 92.166C228.348 92.166 228.698 92.106 229.01 91.986C229.326 91.862 229.576 91.686 229.76 91.458C229.944 91.23 230.036 90.96 230.036 90.648C230.036 90.456 230.002 90.292 229.934 90.156C229.87 90.016 229.78 89.898 229.664 89.802C229.552 89.702 229.424 89.618 229.28 89.55C229.136 89.482 228.986 89.426 228.83 89.382L226.628 88.728C226.388 88.656 226.156 88.566 225.932 88.458C225.708 88.346 225.508 88.208 225.332 88.044C225.156 87.876 225.016 87.676 224.912 87.444C224.808 87.208 224.756 86.93 224.756 86.61C224.756 86.098 224.888 85.662 225.152 85.302C225.42 84.938 225.782 84.66 226.238 84.468C226.694 84.276 227.208 84.182 227.78 84.186C228.36 84.19 228.878 84.294 229.334 84.498C229.794 84.698 230.174 84.986 230.474 85.362C230.778 85.738 230.982 86.188 231.086 86.712L229.952 86.91C229.892 86.558 229.758 86.256 229.55 86.004C229.346 85.748 229.09 85.552 228.782 85.416C228.474 85.276 228.136 85.204 227.768 85.2C227.416 85.196 227.098 85.252 226.814 85.368C226.53 85.484 226.304 85.646 226.136 85.854C225.968 86.058 225.884 86.294 225.884 86.562C225.884 86.826 225.96 87.04 226.112 87.204C226.264 87.364 226.45 87.492 226.67 87.588C226.894 87.68 227.112 87.756 227.324 87.816L228.968 88.29C229.156 88.342 229.372 88.414 229.616 88.506C229.864 88.598 230.104 88.728 230.336 88.896C230.568 89.06 230.76 89.28 230.912 89.556C231.064 89.828 231.14 90.172 231.14 90.588C231.14 91.004 231.056 91.374 230.888 91.698C230.724 92.022 230.494 92.294 230.198 92.514C229.902 92.73 229.558 92.894 229.166 93.006C228.774 93.122 228.354 93.18 227.906 93.18ZM235.375 93.18C234.767 93.18 234.255 93.03 233.839 92.73C233.423 92.426 233.107 92.016 232.891 91.5C232.679 90.98 232.573 90.398 232.573 89.754C232.573 89.102 232.679 88.518 232.891 88.002C233.107 87.486 233.423 87.08 233.839 86.784C234.259 86.488 234.773 86.34 235.381 86.34C235.981 86.34 236.497 86.49 236.929 86.79C237.365 87.086 237.699 87.492 237.931 88.008C238.163 88.524 238.279 89.106 238.279 89.754C238.279 90.402 238.163 90.984 237.931 91.5C237.699 92.016 237.365 92.426 236.929 92.73C236.497 93.03 235.979 93.18 235.375 93.18ZM232.393 95.88V86.52H233.347V91.29H233.467V95.88H232.393ZM235.243 92.202C235.671 92.202 236.025 92.094 236.305 91.878C236.585 91.662 236.795 91.37 236.935 91.002C237.075 90.63 237.145 90.214 237.145 89.754C237.145 89.298 237.075 88.886 236.935 88.518C236.799 88.15 236.587 87.858 236.299 87.642C236.015 87.426 235.653 87.318 235.213 87.318C234.793 87.318 234.445 87.422 234.169 87.63C233.893 87.834 233.687 88.12 233.551 88.488C233.415 88.852 233.347 89.274 233.347 89.754C233.347 90.226 233.413 90.648 233.545 91.02C233.681 91.388 233.889 91.678 234.169 91.89C234.449 92.098 234.807 92.202 235.243 92.202ZM242.402 93.18C241.766 93.18 241.21 93.04 240.734 92.76C240.262 92.476 239.894 92.082 239.63 91.578C239.366 91.07 239.234 90.478 239.234 89.802C239.234 89.094 239.364 88.482 239.624 87.966C239.884 87.446 240.246 87.046 240.71 86.766C241.178 86.482 241.726 86.34 242.354 86.34C243.006 86.34 243.56 86.49 244.016 86.79C244.476 87.09 244.82 87.518 245.048 88.074C245.28 88.63 245.38 89.292 245.348 90.06H244.268V89.676C244.256 88.88 244.094 88.286 243.782 87.894C243.47 87.498 243.006 87.3 242.39 87.3C241.73 87.3 241.228 87.512 240.884 87.936C240.54 88.36 240.368 88.968 240.368 89.76C240.368 90.524 240.54 91.116 240.884 91.536C241.228 91.956 241.718 92.166 242.354 92.166C242.782 92.166 243.154 92.068 243.47 91.872C243.786 91.676 244.034 91.394 244.214 91.026L245.24 91.38C244.988 91.952 244.608 92.396 244.1 92.712C243.596 93.024 243.03 93.18 242.402 93.18ZM240.008 90.06V89.202H244.796V90.06H240.008ZM246.084 93V92.808L250.014 87.492H246.408V86.52H251.736V86.724L247.812 92.028H251.532V93H246.084ZM253.179 85.374V84.27H254.247V85.374H253.179ZM253.179 93V86.52H254.247V93H253.179ZM257.889 93.18C257.405 93.18 256.999 93.092 256.671 92.916C256.347 92.736 256.101 92.5 255.933 92.208C255.769 91.916 255.687 91.596 255.687 91.248C255.687 90.908 255.751 90.614 255.879 90.366C256.011 90.114 256.195 89.906 256.431 89.742C256.667 89.574 256.949 89.442 257.277 89.346C257.585 89.262 257.929 89.19 258.309 89.13C258.693 89.066 259.081 89.008 259.473 88.956C259.865 88.904 260.231 88.854 260.571 88.806L260.187 89.028C260.199 88.452 260.083 88.026 259.839 87.75C259.599 87.474 259.183 87.336 258.591 87.336C258.199 87.336 257.855 87.426 257.559 87.606C257.267 87.782 257.061 88.07 256.941 88.47L255.927 88.164C256.083 87.596 256.385 87.15 256.833 86.826C257.281 86.502 257.871 86.34 258.603 86.34C259.191 86.34 259.695 86.446 260.115 86.658C260.539 86.866 260.843 87.182 261.027 87.606C261.119 87.806 261.177 88.024 261.201 88.26C261.225 88.492 261.237 88.736 261.237 88.992V93H260.289V91.446L260.511 91.59C260.267 92.114 259.925 92.51 259.485 92.778C259.049 93.046 258.517 93.18 257.889 93.18ZM258.051 92.286C258.435 92.286 258.767 92.218 259.047 92.082C259.331 91.942 259.559 91.76 259.731 91.536C259.903 91.308 260.015 91.06 260.067 90.792C260.127 90.592 260.159 90.37 260.163 90.126C260.171 89.878 260.175 89.688 260.175 89.556L260.547 89.718C260.199 89.766 259.857 89.812 259.521 89.856C259.185 89.9 258.867 89.948 258.567 90C258.267 90.048 257.997 90.106 257.757 90.174C257.581 90.23 257.415 90.302 257.259 90.39C257.107 90.478 256.983 90.592 256.887 90.732C256.795 90.868 256.749 91.038 256.749 91.242C256.749 91.418 256.793 91.586 256.881 91.746C256.973 91.906 257.113 92.036 257.301 92.136C257.493 92.236 257.743 92.286 258.051 92.286ZM262.917 93V84.18H263.985V93H262.917ZM265.905 85.374V84.27H266.973V85.374H265.905ZM265.905 93V86.52H266.973V93H265.905ZM271.222 93.174C270.45 93.174 269.816 93.006 269.32 92.67C268.828 92.33 268.526 91.856 268.414 91.248L269.506 91.074C269.594 91.426 269.796 91.706 270.112 91.914C270.428 92.118 270.82 92.22 271.288 92.22C271.732 92.22 272.08 92.128 272.332 91.944C272.584 91.76 272.71 91.51 272.71 91.194C272.71 91.01 272.668 90.862 272.584 90.75C272.5 90.634 272.326 90.526 272.062 90.426C271.802 90.326 271.408 90.206 270.88 90.066C270.308 89.914 269.858 89.756 269.53 89.592C269.202 89.428 268.968 89.238 268.828 89.022C268.688 88.806 268.618 88.544 268.618 88.236C268.618 87.856 268.722 87.524 268.93 87.24C269.138 86.952 269.428 86.73 269.8 86.574C270.176 86.418 270.612 86.34 271.108 86.34C271.6 86.34 272.04 86.418 272.428 86.574C272.816 86.73 273.128 86.952 273.364 87.24C273.604 87.524 273.746 87.856 273.79 88.236L272.698 88.434C272.646 88.086 272.478 87.812 272.194 87.612C271.914 87.412 271.552 87.306 271.108 87.294C270.688 87.278 270.346 87.352 270.082 87.516C269.822 87.68 269.692 87.902 269.692 88.182C269.692 88.338 269.74 88.472 269.836 88.584C269.936 88.696 270.118 88.802 270.382 88.902C270.65 89.002 271.038 89.116 271.546 89.244C272.118 89.388 272.568 89.546 272.896 89.718C273.228 89.886 273.464 90.086 273.604 90.318C273.744 90.546 273.814 90.828 273.814 91.164C273.814 91.788 273.584 92.28 273.124 92.64C272.664 92.996 272.03 93.174 271.222 93.174ZM278.755 93C278.371 93.076 277.991 93.106 277.615 93.09C277.243 93.078 276.911 93.004 276.619 92.868C276.327 92.728 276.105 92.512 275.953 92.22C275.825 91.964 275.755 91.706 275.743 91.446C275.735 91.182 275.731 90.884 275.731 90.552V84.72H276.799V90.504C276.799 90.768 276.801 90.994 276.805 91.182C276.813 91.37 276.855 91.532 276.931 91.668C277.075 91.924 277.303 92.074 277.615 92.118C277.931 92.162 278.311 92.15 278.755 92.082V93ZM274.417 87.402V86.52H278.755V87.402H274.417ZM282.609 93.18C281.973 93.18 281.417 93.04 280.941 92.76C280.469 92.476 280.101 92.082 279.837 91.578C279.573 91.07 279.441 90.478 279.441 89.802C279.441 89.094 279.571 88.482 279.831 87.966C280.091 87.446 280.453 87.046 280.917 86.766C281.385 86.482 281.933 86.34 282.561 86.34C283.213 86.34 283.767 86.49 284.223 86.79C284.683 87.09 285.027 87.518 285.255 88.074C285.487 88.63 285.587 89.292 285.555 90.06H284.475V89.676C284.463 88.88 284.301 88.286 283.989 87.894C283.677 87.498 283.213 87.3 282.597 87.3C281.937 87.3 281.435 87.512 281.091 87.936C280.747 88.36 280.575 88.968 280.575 89.76C280.575 90.524 280.747 91.116 281.091 91.536C281.435 91.956 281.925 92.166 282.561 92.166C282.989 92.166 283.361 92.068 283.677 91.872C283.993 91.676 284.241 91.394 284.421 91.026L285.447 91.38C285.195 91.952 284.815 92.396 284.307 92.712C283.803 93.024 283.237 93.18 282.609 93.18ZM280.215 90.06V89.202H285.003V90.06H280.215ZM291.329 93V89.754C291.329 89.446 291.301 89.15 291.245 88.866C291.193 88.582 291.099 88.328 290.963 88.104C290.831 87.876 290.651 87.696 290.423 87.564C290.199 87.432 289.915 87.366 289.571 87.366C289.303 87.366 289.059 87.412 288.839 87.504C288.623 87.592 288.437 87.728 288.281 87.912C288.125 88.096 288.003 88.328 287.915 88.608C287.831 88.884 287.789 89.21 287.789 89.586L287.087 89.37C287.087 88.742 287.199 88.204 287.423 87.756C287.651 87.304 287.969 86.958 288.377 86.718C288.789 86.474 289.273 86.352 289.829 86.352C290.249 86.352 290.607 86.418 290.903 86.55C291.199 86.682 291.445 86.858 291.641 87.078C291.837 87.294 291.991 87.538 292.103 87.81C292.215 88.078 292.293 88.352 292.337 88.632C292.385 88.908 292.409 89.17 292.409 89.418V93H291.329ZM286.709 93V86.52H287.669V88.254H287.789V93H286.709ZM298.213 93.18C297.729 93.18 297.323 93.092 296.995 92.916C296.671 92.736 296.425 92.5 296.257 92.208C296.093 91.916 296.011 91.596 296.011 91.248C296.011 90.908 296.075 90.614 296.203 90.366C296.335 90.114 296.519 89.906 296.755 89.742C296.991 89.574 297.273 89.442 297.601 89.346C297.909 89.262 298.253 89.19 298.633 89.13C299.017 89.066 299.405 89.008 299.797 88.956C300.189 88.904 300.555 88.854 300.895 88.806L300.511 89.028C300.523 88.452 300.407 88.026 300.163 87.75C299.923 87.474 299.507 87.336 298.915 87.336C298.523 87.336 298.179 87.426 297.883 87.606C297.591 87.782 297.385 88.07 297.265 88.47L296.251 88.164C296.407 87.596 296.709 87.15 297.157 86.826C297.605 86.502 298.195 86.34 298.927 86.34C299.515 86.34 300.019 86.446 300.439 86.658C300.863 86.866 301.167 87.182 301.351 87.606C301.443 87.806 301.501 88.024 301.525 88.26C301.549 88.492 301.561 88.736 301.561 88.992V93H300.613V91.446L300.835 91.59C300.591 92.114 300.249 92.51 299.809 92.778C299.373 93.046 298.841 93.18 298.213 93.18ZM298.375 92.286C298.759 92.286 299.091 92.218 299.371 92.082C299.655 91.942 299.883 91.76 300.055 91.536C300.227 91.308 300.339 91.06 300.391 90.792C300.451 90.592 300.483 90.37 300.487 90.126C300.495 89.878 300.499 89.688 300.499 89.556L300.871 89.718C300.523 89.766 300.181 89.812 299.845 89.856C299.509 89.9 299.191 89.948 298.891 90C298.591 90.048 298.321 90.106 298.081 90.174C297.905 90.23 297.739 90.302 297.583 90.39C297.431 90.478 297.307 90.592 297.211 90.732C297.119 90.868 297.073 91.038 297.073 91.242C297.073 91.418 297.117 91.586 297.205 91.746C297.297 91.906 297.437 92.036 297.625 92.136C297.817 92.236 298.067 92.286 298.375 92.286ZM305.581 93.168C305.165 93.168 304.807 93.102 304.507 92.97C304.211 92.838 303.965 92.662 303.769 92.442C303.573 92.222 303.419 91.978 303.307 91.71C303.195 91.442 303.115 91.168 303.067 90.888C303.023 90.608 303.001 90.346 303.001 90.102V86.52H304.081V89.766C304.081 90.07 304.109 90.364 304.165 90.648C304.221 90.932 304.315 91.188 304.447 91.416C304.583 91.644 304.763 91.824 304.987 91.956C305.215 92.088 305.499 92.154 305.839 92.154C306.107 92.154 306.351 92.108 306.571 92.016C306.791 91.924 306.979 91.788 307.135 91.608C307.291 91.424 307.411 91.192 307.495 90.912C307.579 90.632 307.621 90.306 307.621 89.934L308.323 90.15C308.323 90.774 308.209 91.312 307.981 91.764C307.757 92.216 307.439 92.564 307.027 92.808C306.619 93.048 306.137 93.168 305.581 93.168ZM307.741 93V91.266H307.621V86.52H308.695V93H307.741ZM310.993 93V86.166C310.993 85.998 311.001 85.828 311.017 85.656C311.033 85.48 311.069 85.31 311.125 85.146C311.181 84.978 311.273 84.824 311.401 84.684C311.549 84.52 311.711 84.404 311.887 84.336C312.063 84.264 312.241 84.22 312.421 84.204C312.605 84.188 312.779 84.18 312.943 84.18H313.765V85.068H313.003C312.687 85.068 312.451 85.146 312.295 85.302C312.139 85.454 312.061 85.686 312.061 85.998V93H310.993ZM309.895 87.402V86.52H313.765V87.402H309.895ZM316.525 93L319.417 84.36H320.905L323.797 93H322.687L319.981 84.984H320.317L317.635 93H316.525ZM317.917 90.978V89.976H322.405V90.978H317.917ZM327.847 93.18C327.239 93.18 326.727 93.03 326.311 92.73C325.895 92.426 325.579 92.016 325.363 91.5C325.151 90.98 325.045 90.398 325.045 89.754C325.045 89.102 325.151 88.518 325.363 88.002C325.579 87.486 325.895 87.08 326.311 86.784C326.731 86.488 327.245 86.34 327.853 86.34C328.453 86.34 328.969 86.49 329.401 86.79C329.837 87.086 330.171 87.492 330.403 88.008C330.635 88.524 330.751 89.106 330.751 89.754C330.751 90.402 330.635 90.984 330.403 91.5C330.171 92.016 329.837 92.426 329.401 92.73C328.969 93.03 328.451 93.18 327.847 93.18ZM324.865 93V84.36H325.939V88.23H325.819V93H324.865ZM327.715 92.202C328.143 92.202 328.497 92.094 328.777 91.878C329.057 91.662 329.267 91.37 329.407 91.002C329.547 90.63 329.617 90.214 329.617 89.754C329.617 89.298 329.547 88.886 329.407 88.518C329.271 88.15 329.059 87.858 328.771 87.642C328.487 87.426 328.125 87.318 327.685 87.318C327.265 87.318 326.917 87.422 326.641 87.63C326.365 87.834 326.159 88.12 326.023 88.488C325.887 88.852 325.819 89.274 325.819 89.754C325.819 90.226 325.885 90.648 326.017 91.02C326.153 91.388 326.361 91.678 326.641 91.89C326.921 92.098 327.279 92.202 327.715 92.202ZM332.067 93V86.52H333.021V88.086L332.865 87.882C332.941 87.682 333.039 87.498 333.159 87.33C333.283 87.162 333.421 87.024 333.573 86.916C333.741 86.78 333.931 86.676 334.143 86.604C334.355 86.532 334.571 86.49 334.791 86.478C335.011 86.462 335.217 86.476 335.409 86.52V87.522C335.185 87.462 334.939 87.446 334.671 87.474C334.403 87.502 334.155 87.6 333.927 87.768C333.719 87.916 333.557 88.096 333.441 88.308C333.329 88.52 333.251 88.75 333.207 88.998C333.163 89.242 333.141 89.492 333.141 89.748V93H332.067ZM339.003 93.168C338.587 93.168 338.229 93.102 337.929 92.97C337.633 92.838 337.387 92.662 337.191 92.442C336.995 92.222 336.841 91.978 336.729 91.71C336.617 91.442 336.537 91.168 336.489 90.888C336.445 90.608 336.423 90.346 336.423 90.102V86.52H337.503V89.766C337.503 90.07 337.531 90.364 337.587 90.648C337.643 90.932 337.737 91.188 337.869 91.416C338.005 91.644 338.185 91.824 338.409 91.956C338.637 92.088 338.921 92.154 339.261 92.154C339.529 92.154 339.773 92.108 339.993 92.016C340.213 91.924 340.401 91.788 340.557 91.608C340.713 91.424 340.833 91.192 340.917 90.912C341.001 90.632 341.043 90.306 341.043 89.934L341.745 90.15C341.745 90.774 341.631 91.312 341.403 91.764C341.179 92.216 340.861 92.564 340.449 92.808C340.041 93.048 339.559 93.168 339.003 93.168ZM341.163 93V91.266H341.043V86.52H342.117V93H341.163ZM344.415 93V86.166C344.415 85.998 344.423 85.828 344.439 85.656C344.455 85.48 344.491 85.31 344.547 85.146C344.603 84.978 344.695 84.824 344.823 84.684C344.971 84.52 345.133 84.404 345.309 84.336C345.485 84.264 345.663 84.22 345.843 84.204C346.027 84.188 346.201 84.18 346.365 84.18H347.187V85.068H346.425C346.109 85.068 345.873 85.146 345.717 85.302C345.561 85.454 345.483 85.686 345.483 85.998V93H344.415ZM343.317 87.402V86.52H347.187V87.402H343.317Z" fill="#040213"/>
<rect x="70" y="205" width="148" height="32" rx="8" fill="#F7F7F8"/>
<rect x="70.5" y="205.5" width="147" height="31" rx="7.5" stroke="#040213" stroke-opacity="0.1"/>
<path d="M82.338 226.18C81.746 226.18 81.206 226.076 80.718 225.868C80.23 225.66 79.81 225.362 79.458 224.974C79.106 224.582 78.834 224.11 78.642 223.558C78.454 223.002 78.36 222.376 78.36 221.68C78.36 220.76 78.524 219.964 78.852 219.292C79.18 218.62 79.642 218.102 80.238 217.738C80.834 217.37 81.534 217.186 82.338 217.186C83.306 217.186 84.086 217.412 84.678 217.864C85.27 218.312 85.678 218.926 85.902 219.706L84.822 219.928C84.642 219.404 84.346 218.986 83.934 218.674C83.522 218.362 83.008 218.206 82.392 218.206C81.748 218.202 81.212 218.346 80.784 218.638C80.36 218.926 80.04 219.332 79.824 219.856C79.608 220.38 79.498 220.988 79.494 221.68C79.49 222.368 79.596 222.972 79.812 223.492C80.028 224.012 80.35 224.42 80.778 224.716C81.21 225.008 81.748 225.156 82.392 225.16C82.948 225.164 83.416 225.058 83.796 224.842C84.176 224.626 84.47 224.314 84.678 223.906C84.886 223.498 85.012 223.008 85.056 222.436H83.22V221.554H86.184C86.196 221.634 86.202 221.73 86.202 221.842C86.206 221.95 86.208 222.024 86.208 222.064C86.208 222.852 86.06 223.558 85.764 224.182C85.472 224.802 85.038 225.29 84.462 225.646C83.89 226.002 83.182 226.18 82.338 226.18ZM90.2144 226.18C89.5784 226.18 89.0224 226.04 88.5464 225.76C88.0744 225.476 87.7064 225.082 87.4424 224.578C87.1784 224.07 87.0464 223.478 87.0464 222.802C87.0464 222.094 87.1764 221.482 87.4364 220.966C87.6964 220.446 88.0584 220.046 88.5224 219.766C88.9904 219.482 89.5384 219.34 90.1664 219.34C90.8184 219.34 91.3724 219.49 91.8284 219.79C92.2884 220.09 92.6324 220.518 92.8604 221.074C93.0924 221.63 93.1924 222.292 93.1604 223.06H92.0804V222.676C92.0684 221.88 91.9064 221.286 91.5944 220.894C91.2824 220.498 90.8184 220.3 90.2024 220.3C89.5424 220.3 89.0404 220.512 88.6964 220.936C88.3524 221.36 88.1804 221.968 88.1804 222.76C88.1804 223.524 88.3524 224.116 88.6964 224.536C89.0404 224.956 89.5304 225.166 90.1664 225.166C90.5944 225.166 90.9664 225.068 91.2824 224.872C91.5984 224.676 91.8464 224.394 92.0264 224.026L93.0524 224.38C92.8004 224.952 92.4204 225.396 91.9124 225.712C91.4084 226.024 90.8424 226.18 90.2144 226.18ZM87.8204 223.06V222.202H92.6084V223.06H87.8204ZM102.066 226L102.072 221.854C102.072 221.37 101.942 220.992 101.682 220.72C101.426 220.444 101.092 220.306 100.68 220.306C100.44 220.306 100.212 220.362 99.9965 220.474C99.7805 220.582 99.6045 220.754 99.4685 220.99C99.3325 221.222 99.2645 221.52 99.2645 221.884L98.7005 221.656C98.6925 221.196 98.7865 220.794 98.9825 220.45C99.1825 220.102 99.4545 219.832 99.7985 219.64C100.142 219.448 100.53 219.352 100.962 219.352C101.638 219.352 102.17 219.558 102.558 219.97C102.946 220.378 103.14 220.928 103.14 221.62L103.134 226H102.066ZM94.3145 226V219.52H95.2685V221.254H95.3885V226H94.3145ZM98.1965 226L98.2025 221.896C98.2025 221.4 98.0745 221.012 97.8185 220.732C97.5625 220.448 97.2225 220.306 96.7985 220.306C96.3785 220.306 96.0385 220.45 95.7785 220.738C95.5185 221.026 95.3885 221.408 95.3885 221.884L94.8245 221.548C94.8245 221.128 94.9245 220.752 95.1245 220.42C95.3245 220.088 95.5965 219.828 95.9405 219.64C96.2845 219.448 96.6745 219.352 97.1105 219.352C97.5465 219.352 97.9265 219.444 98.2505 219.628C98.5745 219.812 98.8245 220.076 99.0005 220.42C99.1765 220.76 99.2645 221.166 99.2645 221.638L99.2585 226H98.1965ZM107.453 226.18C106.817 226.18 106.261 226.04 105.785 225.76C105.313 225.476 104.945 225.082 104.681 224.578C104.417 224.07 104.285 223.478 104.285 222.802C104.285 222.094 104.415 221.482 104.675 220.966C104.935 220.446 105.297 220.046 105.761 219.766C106.229 219.482 106.777 219.34 107.405 219.34C108.057 219.34 108.611 219.49 109.067 219.79C109.527 220.09 109.871 220.518 110.099 221.074C110.331 221.63 110.431 222.292 110.399 223.06H109.319V222.676C109.307 221.88 109.145 221.286 108.833 220.894C108.521 220.498 108.057 220.3 107.441 220.3C106.781 220.3 106.279 220.512 105.935 220.936C105.591 221.36 105.419 221.968 105.419 222.76C105.419 223.524 105.591 224.116 105.935 224.536C106.279 224.956 106.769 225.166 107.405 225.166C107.833 225.166 108.205 225.068 108.521 224.872C108.837 224.676 109.085 224.394 109.265 224.026L110.291 224.38C110.039 224.952 109.659 225.396 109.151 225.712C108.647 226.024 108.081 226.18 107.453 226.18ZM105.059 223.06V222.202H109.847V223.06H105.059ZM114.183 226.174C113.411 226.174 112.777 226.006 112.281 225.67C111.789 225.33 111.487 224.856 111.375 224.248L112.467 224.074C112.555 224.426 112.757 224.706 113.073 224.914C113.389 225.118 113.781 225.22 114.249 225.22C114.693 225.22 115.041 225.128 115.293 224.944C115.545 224.76 115.671 224.51 115.671 224.194C115.671 224.01 115.629 223.862 115.545 223.75C115.461 223.634 115.287 223.526 115.023 223.426C114.763 223.326 114.369 223.206 113.841 223.066C113.269 222.914 112.819 222.756 112.491 222.592C112.163 222.428 111.929 222.238 111.789 222.022C111.649 221.806 111.579 221.544 111.579 221.236C111.579 220.856 111.683 220.524 111.891 220.24C112.099 219.952 112.389 219.73 112.761 219.574C113.137 219.418 113.573 219.34 114.069 219.34C114.561 219.34 115.001 219.418 115.389 219.574C115.777 219.73 116.089 219.952 116.325 220.24C116.565 220.524 116.707 220.856 116.751 221.236L115.659 221.434C115.607 221.086 115.439 220.812 115.155 220.612C114.875 220.412 114.513 220.306 114.069 220.294C113.649 220.278 113.307 220.352 113.043 220.516C112.783 220.68 112.653 220.902 112.653 221.182C112.653 221.338 112.701 221.472 112.797 221.584C112.897 221.696 113.079 221.802 113.343 221.902C113.611 222.002 113.999 222.116 114.507 222.244C115.079 222.388 115.529 222.546 115.857 222.718C116.189 222.886 116.425 223.086 116.565 223.318C116.705 223.546 116.775 223.828 116.775 224.164C116.775 224.788 116.545 225.28 116.085 225.64C115.625 225.996 114.991 226.174 114.183 226.174ZM120.546 226.174C119.774 226.174 119.14 226.006 118.644 225.67C118.152 225.33 117.85 224.856 117.738 224.248L118.83 224.074C118.918 224.426 119.12 224.706 119.436 224.914C119.752 225.118 120.144 225.22 120.612 225.22C121.056 225.22 121.404 225.128 121.656 224.944C121.908 224.76 122.034 224.51 122.034 224.194C122.034 224.01 121.992 223.862 121.908 223.75C121.824 223.634 121.65 223.526 121.386 223.426C121.126 223.326 120.732 223.206 120.204 223.066C119.632 222.914 119.182 222.756 118.854 222.592C118.526 222.428 118.292 222.238 118.152 222.022C118.012 221.806 117.942 221.544 117.942 221.236C117.942 220.856 118.046 220.524 118.254 220.24C118.462 219.952 118.752 219.73 119.124 219.574C119.5 219.418 119.936 219.34 120.432 219.34C120.924 219.34 121.364 219.418 121.752 219.574C122.14 219.73 122.452 219.952 122.688 220.24C122.928 220.524 123.07 220.856 123.114 221.236L122.022 221.434C121.97 221.086 121.802 220.812 121.518 220.612C121.238 220.412 120.876 220.306 120.432 220.294C120.012 220.278 119.67 220.352 119.406 220.516C119.146 220.68 119.016 220.902 119.016 221.182C119.016 221.338 119.064 221.472 119.16 221.584C119.26 221.696 119.442 221.802 119.706 221.902C119.974 222.002 120.362 222.116 120.87 222.244C121.442 222.388 121.892 222.546 122.22 222.718C122.552 222.886 122.788 223.086 122.928 223.318C123.068 223.546 123.138 223.828 123.138 224.164C123.138 224.788 122.908 225.28 122.448 225.64C121.988 225.996 121.354 226.174 120.546 226.174ZM127.269 226.18C126.633 226.18 126.077 226.04 125.601 225.76C125.129 225.476 124.761 225.082 124.497 224.578C124.233 224.07 124.101 223.478 124.101 222.802C124.101 222.094 124.231 221.482 124.491 220.966C124.751 220.446 125.113 220.046 125.577 219.766C126.045 219.482 126.593 219.34 127.221 219.34C127.873 219.34 128.427 219.49 128.883 219.79C129.343 220.09 129.687 220.518 129.915 221.074C130.147 221.63 130.247 222.292 130.215 223.06H129.135V222.676C129.123 221.88 128.961 221.286 128.649 220.894C128.337 220.498 127.873 220.3 127.257 220.3C126.597 220.3 126.095 220.512 125.751 220.936C125.407 221.36 125.235 221.968 125.235 222.76C125.235 223.524 125.407 224.116 125.751 224.536C126.095 224.956 126.585 225.166 127.221 225.166C127.649 225.166 128.021 225.068 128.337 224.872C128.653 224.676 128.901 224.394 129.081 224.026L130.107 224.38C129.855 224.952 129.475 225.396 128.967 225.712C128.463 226.024 127.897 226.18 127.269 226.18ZM124.875 223.06V222.202H129.663V223.06H124.875ZM135.989 226V222.754C135.989 222.446 135.961 222.15 135.905 221.866C135.853 221.582 135.759 221.328 135.623 221.104C135.491 220.876 135.311 220.696 135.083 220.564C134.859 220.432 134.575 220.366 134.231 220.366C133.963 220.366 133.719 220.412 133.499 220.504C133.283 220.592 133.097 220.728 132.941 220.912C132.785 221.096 132.663 221.328 132.575 221.608C132.491 221.884 132.449 222.21 132.449 222.586L131.747 222.37C131.747 221.742 131.859 221.204 132.083 220.756C132.311 220.304 132.629 219.958 133.037 219.718C133.449 219.474 133.933 219.352 134.489 219.352C134.909 219.352 135.267 219.418 135.563 219.55C135.859 219.682 136.105 219.858 136.301 220.078C136.497 220.294 136.651 220.538 136.763 220.81C136.875 221.078 136.953 221.352 136.997 221.632C137.045 221.908 137.069 222.17 137.069 222.418V226H135.989ZM131.369 226V219.52H132.329V221.254H132.449V226H131.369ZM141.378 226.18C140.742 226.18 140.186 226.04 139.71 225.76C139.238 225.476 138.87 225.082 138.606 224.578C138.342 224.07 138.21 223.478 138.21 222.802C138.21 222.094 138.34 221.482 138.6 220.966C138.86 220.446 139.222 220.046 139.686 219.766C140.154 219.482 140.702 219.34 141.33 219.34C141.982 219.34 142.536 219.49 142.992 219.79C143.452 220.09 143.796 220.518 144.024 221.074C144.256 221.63 144.356 222.292 144.324 223.06H143.244V222.676C143.232 221.88 143.07 221.286 142.758 220.894C142.446 220.498 141.982 220.3 141.366 220.3C140.706 220.3 140.204 220.512 139.86 220.936C139.516 221.36 139.344 221.968 139.344 222.76C139.344 223.524 139.516 224.116 139.86 224.536C140.204 224.956 140.694 225.166 141.33 225.166C141.758 225.166 142.13 225.068 142.446 224.872C142.762 224.676 143.01 224.394 143.19 224.026L144.216 224.38C143.964 224.952 143.584 225.396 143.076 225.712C142.572 226.024 142.006 226.18 141.378 226.18ZM138.984 223.06V222.202H143.772V223.06H138.984ZM148.063 226V217.36H153.523V218.374H149.131V221.08H152.803V222.094H149.131V224.986H153.523V226H148.063ZM154.965 226V219.52H155.919V221.086L155.763 220.882C155.839 220.682 155.937 220.498 156.057 220.33C156.181 220.162 156.319 220.024 156.471 219.916C156.639 219.78 156.829 219.676 157.041 219.604C157.253 219.532 157.469 219.49 157.689 219.478C157.909 219.462 158.115 219.476 158.307 219.52V220.522C158.083 220.462 157.837 220.446 157.569 220.474C157.301 220.502 157.053 220.6 156.825 220.768C156.617 220.916 156.455 221.096 156.339 221.308C156.227 221.52 156.149 221.75 156.105 221.998C156.061 222.242 156.039 222.492 156.039 222.748V226H154.965ZM161.829 229.06C161.489 229.06 161.157 229.008 160.833 228.904C160.509 228.8 160.211 228.642 159.939 228.43C159.671 228.222 159.447 227.958 159.267 227.638L160.245 227.122C160.405 227.438 160.631 227.668 160.923 227.812C161.219 227.956 161.523 228.028 161.835 228.028C162.247 228.028 162.589 227.952 162.861 227.8C163.133 227.652 163.333 227.43 163.461 227.134C163.593 226.838 163.657 226.47 163.653 226.03V224.26H163.779V219.52H164.727V226.042C164.727 226.218 164.721 226.388 164.709 226.552C164.701 226.716 164.681 226.878 164.649 227.038C164.565 227.498 164.399 227.876 164.151 228.172C163.903 228.472 163.583 228.694 163.191 228.838C162.799 228.986 162.345 229.06 161.829 229.06ZM161.751 226.18C161.147 226.18 160.629 226.03 160.197 225.73C159.765 225.426 159.431 225.016 159.195 224.5C158.963 223.984 158.847 223.402 158.847 222.754C158.847 222.106 158.963 221.524 159.195 221.008C159.431 220.492 159.765 220.086 160.197 219.79C160.629 219.49 161.145 219.34 161.745 219.34C162.357 219.34 162.871 219.488 163.287 219.784C163.703 220.08 164.017 220.486 164.229 221.002C164.445 221.518 164.553 222.102 164.553 222.754C164.553 223.398 164.445 223.98 164.229 224.5C164.017 225.016 163.703 225.426 163.287 225.73C162.871 226.03 162.359 226.18 161.751 226.18ZM161.883 225.202C162.319 225.202 162.677 225.098 162.957 224.89C163.237 224.678 163.443 224.388 163.575 224.02C163.711 223.648 163.779 223.226 163.779 222.754C163.779 222.274 163.711 221.852 163.575 221.488C163.443 221.12 163.239 220.834 162.963 220.63C162.687 220.422 162.337 220.318 161.913 220.318C161.473 220.318 161.109 220.426 160.821 220.642C160.537 220.858 160.325 221.15 160.185 221.518C160.049 221.886 159.981 222.298 159.981 222.754C159.981 223.214 160.051 223.63 160.191 224.002C160.331 224.37 160.541 224.662 160.821 224.878C161.105 225.094 161.459 225.202 161.883 225.202ZM169.211 226.18C168.575 226.18 168.019 226.04 167.543 225.76C167.071 225.476 166.703 225.082 166.439 224.578C166.175 224.07 166.043 223.478 166.043 222.802C166.043 222.094 166.173 221.482 166.433 220.966C166.693 220.446 167.055 220.046 167.519 219.766C167.987 219.482 168.535 219.34 169.163 219.34C169.815 219.34 170.369 219.49 170.825 219.79C171.285 220.09 171.629 220.518 171.857 221.074C172.089 221.63 172.189 222.292 172.157 223.06H171.077V222.676C171.065 221.88 170.903 221.286 170.591 220.894C170.279 220.498 169.815 220.3 169.199 220.3C168.539 220.3 168.037 220.512 167.693 220.936C167.349 221.36 167.177 221.968 167.177 222.76C167.177 223.524 167.349 224.116 167.693 224.536C168.037 224.956 168.527 225.166 169.163 225.166C169.591 225.166 169.963 225.068 170.279 224.872C170.595 224.676 170.843 224.394 171.023 224.026L172.049 224.38C171.797 224.952 171.417 225.396 170.909 225.712C170.405 226.024 169.839 226.18 169.211 226.18ZM166.817 223.06V222.202H171.605V223.06H166.817ZM176.468 226.18C175.86 226.18 175.348 226.03 174.932 225.73C174.516 225.426 174.2 225.016 173.984 224.5C173.772 223.98 173.666 223.398 173.666 222.754C173.666 222.102 173.772 221.518 173.984 221.002C174.2 220.486 174.516 220.08 174.932 219.784C175.352 219.488 175.866 219.34 176.474 219.34C177.074 219.34 177.59 219.49 178.022 219.79C178.458 220.086 178.792 220.492 179.024 221.008C179.256 221.524 179.372 222.106 179.372 222.754C179.372 223.402 179.256 223.984 179.024 224.5C178.792 225.016 178.458 225.426 178.022 225.73C177.59 226.03 177.072 226.18 176.468 226.18ZM173.486 226V217.36H174.56V221.23H174.44V226H173.486ZM176.336 225.202C176.764 225.202 177.118 225.094 177.398 224.878C177.678 224.662 177.888 224.37 178.028 224.002C178.168 223.63 178.238 223.214 178.238 222.754C178.238 222.298 178.168 221.886 178.028 221.518C177.892 221.15 177.68 220.858 177.392 220.642C177.108 220.426 176.746 220.318 176.306 220.318C175.886 220.318 175.538 220.422 175.262 220.63C174.986 220.834 174.78 221.12 174.644 221.488C174.508 221.852 174.44 222.274 174.44 222.754C174.44 223.226 174.506 223.648 174.638 224.02C174.774 224.388 174.982 224.678 175.262 224.89C175.542 225.098 175.9 225.202 176.336 225.202ZM185.302 226V222.754C185.302 222.446 185.274 222.15 185.218 221.866C185.166 221.582 185.072 221.328 184.936 221.104C184.804 220.876 184.624 220.696 184.396 220.564C184.172 220.432 183.888 220.366 183.544 220.366C183.276 220.366 183.032 220.412 182.812 220.504C182.596 220.592 182.41 220.728 182.254 220.912C182.098 221.096 181.976 221.328 181.888 221.608C181.804 221.884 181.762 222.21 181.762 222.586L181.06 222.37C181.06 221.742 181.172 221.204 181.396 220.756C181.624 220.304 181.942 219.958 182.35 219.718C182.762 219.474 183.246 219.352 183.802 219.352C184.222 219.352 184.58 219.418 184.876 219.55C185.172 219.682 185.418 219.858 185.614 220.078C185.81 220.294 185.964 220.538 186.076 220.81C186.188 221.078 186.266 221.352 186.31 221.632C186.358 221.908 186.382 222.17 186.382 222.418V226H185.302ZM180.682 226V219.52H181.642V221.254H181.762V226H180.682ZM188.062 218.374V217.27H189.13V218.374H188.062ZM188.062 226V219.52H189.13V226H188.062ZM193.378 226.174C192.606 226.174 191.972 226.006 191.476 225.67C190.984 225.33 190.682 224.856 190.57 224.248L191.662 224.074C191.75 224.426 191.952 224.706 192.268 224.914C192.584 225.118 192.976 225.22 193.444 225.22C193.888 225.22 194.236 225.128 194.488 224.944C194.74 224.76 194.866 224.51 194.866 224.194C194.866 224.01 194.824 223.862 194.74 223.75C194.656 223.634 194.482 223.526 194.218 223.426C193.958 223.326 193.564 223.206 193.036 223.066C192.464 222.914 192.014 222.756 191.686 222.592C191.358 222.428 191.124 222.238 190.984 222.022C190.844 221.806 190.774 221.544 190.774 221.236C190.774 220.856 190.878 220.524 191.086 220.24C191.294 219.952 191.584 219.73 191.956 219.574C192.332 219.418 192.768 219.34 193.264 219.34C193.756 219.34 194.196 219.418 194.584 219.574C194.972 219.73 195.284 219.952 195.52 220.24C195.76 220.524 195.902 220.856 195.946 221.236L194.854 221.434C194.802 221.086 194.634 220.812 194.35 220.612C194.07 220.412 193.708 220.306 193.264 220.294C192.844 220.278 192.502 220.352 192.238 220.516C191.978 220.68 191.848 220.902 191.848 221.182C191.848 221.338 191.896 221.472 191.992 221.584C192.092 221.696 192.274 221.802 192.538 221.902C192.806 222.002 193.194 222.116 193.702 222.244C194.274 222.388 194.724 222.546 195.052 222.718C195.384 222.886 195.62 223.086 195.76 223.318C195.9 223.546 195.97 223.828 195.97 224.164C195.97 224.788 195.74 225.28 195.28 225.64C194.82 225.996 194.186 226.174 193.378 226.174ZM199.741 226.174C198.969 226.174 198.335 226.006 197.839 225.67C197.347 225.33 197.045 224.856 196.933 224.248L198.025 224.074C198.113 224.426 198.315 224.706 198.631 224.914C198.947 225.118 199.339 225.22 199.807 225.22C200.251 225.22 200.599 225.128 200.851 224.944C201.103 224.76 201.229 224.51 201.229 224.194C201.229 224.01 201.187 223.862 201.103 223.75C201.019 223.634 200.845 223.526 200.581 223.426C200.321 223.326 199.927 223.206 199.399 223.066C198.827 222.914 198.377 222.756 198.049 222.592C197.721 222.428 197.487 222.238 197.347 222.022C197.207 221.806 197.137 221.544 197.137 221.236C197.137 220.856 197.241 220.524 197.449 220.24C197.657 219.952 197.947 219.73 198.319 219.574C198.695 219.418 199.131 219.34 199.627 219.34C200.119 219.34 200.559 219.418 200.947 219.574C201.335 219.73 201.647 219.952 201.883 220.24C202.123 220.524 202.265 220.856 202.309 221.236L201.217 221.434C201.165 221.086 200.997 220.812 200.713 220.612C200.433 220.412 200.071 220.306 199.627 220.294C199.207 220.278 198.865 220.352 198.601 220.516C198.341 220.68 198.211 220.902 198.211 221.182C198.211 221.338 198.259 221.472 198.355 221.584C198.455 221.696 198.637 221.802 198.901 221.902C199.169 222.002 199.557 222.116 200.065 222.244C200.637 222.388 201.087 222.546 201.415 222.718C201.747 222.886 201.983 223.086 202.123 223.318C202.263 223.546 202.333 223.828 202.333 224.164C202.333 224.788 202.103 225.28 201.643 225.64C201.183 225.996 200.549 226.174 199.741 226.174ZM206.464 226.18C205.828 226.18 205.272 226.04 204.796 225.76C204.324 225.476 203.956 225.082 203.692 224.578C203.428 224.07 203.296 223.478 203.296 222.802C203.296 222.094 203.426 221.482 203.686 220.966C203.946 220.446 204.308 220.046 204.772 219.766C205.24 219.482 205.788 219.34 206.416 219.34C207.068 219.34 207.622 219.49 208.078 219.79C208.538 220.09 208.882 220.518 209.11 221.074C209.342 221.63 209.442 222.292 209.41 223.06H208.33V222.676C208.318 221.88 208.156 221.286 207.844 220.894C207.532 220.498 207.068 220.3 206.452 220.3C205.792 220.3 205.29 220.512 204.946 220.936C204.602 221.36 204.43 221.968 204.43 222.76C204.43 223.524 204.602 224.116 204.946 224.536C205.29 224.956 205.78 225.166 206.416 225.166C206.844 225.166 207.216 225.068 207.532 224.872C207.848 224.676 208.096 224.394 208.276 224.026L209.302 224.38C209.05 224.952 208.67 225.396 208.162 225.712C207.658 226.024 207.092 226.18 206.464 226.18ZM204.07 223.06V222.202H208.858V223.06H204.07Z" fill="#040213"/>
<defs>
<filter id="filter0_i_2002_2715" x="64.5" y="0" width="145.833" height="181.496" filterUnits="userSpaceOnUse" color-interpolation-filters="sRGB">
<feFlood flood-opacity="0" result="BackgroundImageFix"/>
<feBlend mode="normal" in="SourceGraphic" in2="BackgroundImageFix" result="shape"/>
<feColorMatrix in="SourceAlpha" type="matrix" values="0 0 0 0 0 0 0 0 0 0 0 0 0 0 0 0 0 0 127 0" result="hardAlpha"/>
<feOffset dy="5"/>
<feGaussianBlur stdDeviation="5"/>
<feComposite in2="hardAlpha" operator="arithmetic" k2="-1" k3="1"/>
<feColorMatrix type="matrix" values="0 0 0 0 1 0 0 0 0 1 0 0 0 0 1 0 0 0 0.1 0"/>
<feBlend mode="normal" in2="shape" result="effect1_innerShadow_2002_2715"/>
</filter>
<linearGradient id="paint0_linear_2002_2715" x1="90.5" y1="43" x2="131.5" y2="74.5" gradientUnits="userSpaceOnUse">
<stop stop-color="#FF2F66"/>
<stop offset="1" stop-color="#F12359"/>
</linearGradient>
<linearGradient id="paint1_linear_2002_2715" x1="137.417" y1="0" x2="137.417" y2="176.496" gradientUnits="userSpaceOnUse">
<stop stop-color="#040213" stop-opacity="0.15"/>
<stop offset="1" stop-color="#040213" stop-opacity="0.3"/>
</linearGradient>
<linearGradient id="paint2_linear_2002_2715" x1="186.115" y1="159.067" x2="186.115" y2="250.004" gradientUnits="userSpaceOnUse">
<stop stop-color="#040213" stop-opacity="0.05"/>
<stop offset="1" stop-color="#040213" stop-opacity="0.1"/>
</linearGradient>
<linearGradient id="paint3_linear_2002_2715" x1="257.525" y1="0.604187" x2="257.525" y2="195.15" gradientUnits="userSpaceOnUse">
<stop stop-color="#040213" stop-opacity="0.05"/>
<stop offset="1" stop-color="#040213" stop-opacity="0.1"/>
</linearGradient>
</defs>
</svg>
