<svg width="379" height="250" viewBox="0 0 379 250" fill="none" xmlns="http://www.w3.org/2000/svg">
<g filter="url(#filter0_i_2002_2726)">
<path d="M82.9333 148.867L112.446 156.729C108.4 146.946 106.167 136.229 106.167 125C106.167 79.05 143.55 41.6667 189.5 41.6667L210.333 20.8333L189.5 0C156.108 0 124.721 13.0042 101.113 36.6125C77.5 60.2208 64.5 91.6125 64.5 125C64.5 143.058 68.3042 160.525 75.5333 176.496L82.9333 148.867Z" fill="url(#paint0_linear_2002_2726)"/>
</g>
<path d="M209.626 20.833L189.291 41.168C143.161 41.2811 105.667 78.8435 105.667 125C105.667 135.94 107.774 146.398 111.604 155.987L83.0625 148.384L82.5791 148.255L82.4502 148.737L75.416 175.001C68.5892 159.446 65 142.503 65 125C65 91.7451 77.9471 60.4804 101.466 36.9658C124.932 13.4998 156.112 0.554356 189.294 0.500977L209.626 20.833Z" stroke="url(#paint1_linear_2002_2726)"/>
<path d="M117.019 167.093C131.559 192.037 158.605 208.837 189.5 208.837C216.136 208.837 239.905 196.348 255.272 176.924L262.954 205.419V206.01L263.584 205.841L289.784 198.82C286.094 203.813 282.005 208.568 277.534 213.038C254.02 236.557 222.759 249.504 189.5 249.504C156.241 249.504 124.98 236.557 101.466 213.038C93.7131 205.286 87.109 196.689 81.7412 187.457L89.1826 159.678L117.019 167.093Z" fill="#F6F6F6" stroke="url(#paint2_linear_2002_2726)"/>
<path d="M203.236 1.24579C231.295 4.30391 257.289 16.7214 277.534 36.9665C301.048 60.4809 314 91.7451 314 125C314 147.154 308.254 168.414 297.466 187.094L269.685 194.537L262.189 166.726C269.276 154.431 273.333 140.182 273.333 125C273.333 82.8864 242.12 47.9295 201.613 42.0427L222.47 21.1872L222.823 20.8337L222.47 20.4802L203.236 1.24579Z" fill="#F6F6F6" stroke="url(#paint3_linear_2002_2726)"/>
<rect x="14" y="40" width="145" height="32" rx="8" fill="#F7F7F8"/>
<rect x="14.5" y="40.5" width="144" height="31" rx="7.5" stroke="#040213" stroke-opacity="0.1"/>
<path d="M22.84 61V52.36H26.254C26.338 52.36 26.438 52.364 26.554 52.372C26.67 52.376 26.782 52.388 26.89 52.408C27.358 52.48 27.75 52.64 28.066 52.888C28.386 53.136 28.626 53.45 28.786 53.83C28.946 54.206 29.026 54.624 29.026 55.084C29.026 55.752 28.852 56.332 28.504 56.824C28.156 57.312 27.646 57.618 26.974 57.742L26.566 57.808H23.908V61H22.84ZM27.982 61L26.278 57.484L27.334 57.16L29.206 61H27.982ZM23.908 56.794H26.218C26.294 56.794 26.38 56.79 26.476 56.782C26.576 56.774 26.67 56.76 26.758 56.74C27.034 56.676 27.258 56.56 27.43 56.392C27.606 56.22 27.734 56.02 27.814 55.792C27.894 55.56 27.934 55.324 27.934 55.084C27.934 54.844 27.894 54.61 27.814 54.382C27.734 54.15 27.606 53.948 27.43 53.776C27.258 53.604 27.034 53.488 26.758 53.428C26.67 53.404 26.576 53.39 26.476 53.386C26.38 53.378 26.294 53.374 26.218 53.374H23.908V56.794ZM33.3355 61.18C32.6995 61.18 32.1435 61.04 31.6675 60.76C31.1955 60.476 30.8275 60.082 30.5635 59.578C30.2995 59.07 30.1675 58.478 30.1675 57.802C30.1675 57.094 30.2975 56.482 30.5575 55.966C30.8175 55.446 31.1795 55.046 31.6435 54.766C32.1115 54.482 32.6595 54.34 33.2875 54.34C33.9395 54.34 34.4935 54.49 34.9495 54.79C35.4095 55.09 35.7535 55.518 35.9815 56.074C36.2135 56.63 36.3135 57.292 36.2815 58.06H35.2015V57.676C35.1895 56.88 35.0275 56.286 34.7155 55.894C34.4035 55.498 33.9395 55.3 33.3235 55.3C32.6635 55.3 32.1615 55.512 31.8175 55.936C31.4735 56.36 31.3015 56.968 31.3015 57.76C31.3015 58.524 31.4735 59.116 31.8175 59.536C32.1615 59.956 32.6515 60.166 33.2875 60.166C33.7155 60.166 34.0875 60.068 34.4035 59.872C34.7195 59.676 34.9675 59.394 35.1475 59.026L36.1735 59.38C35.9215 59.952 35.5415 60.396 35.0335 60.712C34.5295 61.024 33.9635 61.18 33.3355 61.18ZM30.9415 58.06V57.202H35.7295V58.06H30.9415ZM40.0653 61.174C39.2933 61.174 38.6593 61.006 38.1633 60.67C37.6713 60.33 37.3693 59.856 37.2573 59.248L38.3493 59.074C38.4373 59.426 38.6393 59.706 38.9553 59.914C39.2713 60.118 39.6633 60.22 40.1313 60.22C40.5753 60.22 40.9233 60.128 41.1753 59.944C41.4273 59.76 41.5533 59.51 41.5533 59.194C41.5533 59.01 41.5113 58.862 41.4273 58.75C41.3433 58.634 41.1693 58.526 40.9053 58.426C40.6453 58.326 40.2513 58.206 39.7233 58.066C39.1513 57.914 38.7013 57.756 38.3733 57.592C38.0453 57.428 37.8113 57.238 37.6713 57.022C37.5313 56.806 37.4613 56.544 37.4613 56.236C37.4613 55.856 37.5653 55.524 37.7733 55.24C37.9813 54.952 38.2713 54.73 38.6433 54.574C39.0193 54.418 39.4553 54.34 39.9513 54.34C40.4433 54.34 40.8833 54.418 41.2713 54.574C41.6593 54.73 41.9713 54.952 42.2073 55.24C42.4473 55.524 42.5893 55.856 42.6333 56.236L41.5413 56.434C41.4893 56.086 41.3213 55.812 41.0373 55.612C40.7573 55.412 40.3953 55.306 39.9513 55.294C39.5313 55.278 39.1893 55.352 38.9253 55.516C38.6653 55.68 38.5353 55.902 38.5353 56.182C38.5353 56.338 38.5833 56.472 38.6793 56.584C38.7793 56.696 38.9613 56.802 39.2253 56.902C39.4933 57.002 39.8813 57.116 40.3893 57.244C40.9613 57.388 41.4113 57.546 41.7393 57.718C42.0713 57.886 42.3073 58.086 42.4473 58.318C42.5873 58.546 42.6573 58.828 42.6573 59.164C42.6573 59.788 42.4273 60.28 41.9673 60.64C41.5073 60.996 40.8733 61.174 40.0653 61.174ZM46.9566 61.18C46.3486 61.18 45.8366 61.03 45.4206 60.73C45.0046 60.426 44.6886 60.016 44.4726 59.5C44.2606 58.98 44.1546 58.398 44.1546 57.754C44.1546 57.102 44.2606 56.518 44.4726 56.002C44.6886 55.486 45.0046 55.08 45.4206 54.784C45.8406 54.488 46.3546 54.34 46.9626 54.34C47.5626 54.34 48.0786 54.49 48.5106 54.79C48.9466 55.086 49.2806 55.492 49.5126 56.008C49.7446 56.524 49.8606 57.106 49.8606 57.754C49.8606 58.402 49.7446 58.984 49.5126 59.5C49.2806 60.016 48.9466 60.426 48.5106 60.73C48.0786 61.03 47.5606 61.18 46.9566 61.18ZM43.9746 63.88V54.52H44.9286V59.29H45.0486V63.88H43.9746ZM46.8246 60.202C47.2526 60.202 47.6066 60.094 47.8866 59.878C48.1666 59.662 48.3766 59.37 48.5166 59.002C48.6566 58.63 48.7266 58.214 48.7266 57.754C48.7266 57.298 48.6566 56.886 48.5166 56.518C48.3806 56.15 48.1686 55.858 47.8806 55.642C47.5966 55.426 47.2346 55.318 46.7946 55.318C46.3746 55.318 46.0266 55.422 45.7506 55.63C45.4746 55.834 45.2686 56.12 45.1326 56.488C44.9966 56.852 44.9286 57.274 44.9286 57.754C44.9286 58.226 44.9946 58.648 45.1266 59.02C45.2626 59.388 45.4706 59.678 45.7506 59.89C46.0306 60.098 46.3886 60.202 46.8246 60.202ZM53.9359 61.18C53.2919 61.18 52.7359 61.034 52.2679 60.742C51.8039 60.45 51.4459 60.046 51.1939 59.53C50.9419 59.014 50.8159 58.422 50.8159 57.754C50.8159 57.074 50.9439 56.478 51.1999 55.966C51.4559 55.454 51.8179 55.056 52.2859 54.772C52.7539 54.484 53.3039 54.34 53.9359 54.34C54.5839 54.34 55.1419 54.486 55.6099 54.778C56.0779 55.066 56.4359 55.468 56.6839 55.984C56.9359 56.496 57.0619 57.086 57.0619 57.754C57.0619 58.43 56.9359 59.026 56.6839 59.542C56.4319 60.054 56.0719 60.456 55.6039 60.748C55.1359 61.036 54.5799 61.18 53.9359 61.18ZM53.9359 60.166C54.6079 60.166 55.1079 59.942 55.4359 59.494C55.7639 59.046 55.9279 58.466 55.9279 57.754C55.9279 57.022 55.7619 56.44 55.4299 56.008C55.0979 55.572 54.5999 55.354 53.9359 55.354C53.4839 55.354 53.1119 55.456 52.8199 55.66C52.5279 55.864 52.3099 56.146 52.1659 56.506C52.0219 56.866 51.9499 57.282 51.9499 57.754C51.9499 58.482 52.1179 59.066 52.4539 59.506C52.7899 59.946 53.2839 60.166 53.9359 60.166ZM62.997 61V57.754C62.997 57.446 62.969 57.15 62.913 56.866C62.861 56.582 62.767 56.328 62.631 56.104C62.499 55.876 62.319 55.696 62.091 55.564C61.867 55.432 61.583 55.366 61.239 55.366C60.971 55.366 60.727 55.412 60.507 55.504C60.291 55.592 60.105 55.728 59.949 55.912C59.793 56.096 59.671 56.328 59.583 56.608C59.499 56.884 59.457 57.21 59.457 57.586L58.755 57.37C58.755 56.742 58.867 56.204 59.091 55.756C59.319 55.304 59.637 54.958 60.045 54.718C60.457 54.474 60.941 54.352 61.497 54.352C61.917 54.352 62.275 54.418 62.571 54.55C62.867 54.682 63.113 54.858 63.309 55.078C63.505 55.294 63.659 55.538 63.771 55.81C63.883 56.078 63.961 56.352 64.005 56.632C64.053 56.908 64.077 57.17 64.077 57.418V61H62.997ZM58.377 61V54.52H59.337V56.254H59.457V61H58.377ZM68.0849 61.174C67.3129 61.174 66.6789 61.006 66.1829 60.67C65.6909 60.33 65.3889 59.856 65.2769 59.248L66.3689 59.074C66.4569 59.426 66.6589 59.706 66.9749 59.914C67.2909 60.118 67.6829 60.22 68.1509 60.22C68.5949 60.22 68.9429 60.128 69.1949 59.944C69.4469 59.76 69.5729 59.51 69.5729 59.194C69.5729 59.01 69.5309 58.862 69.4469 58.75C69.3629 58.634 69.1889 58.526 68.9249 58.426C68.6649 58.326 68.2709 58.206 67.7429 58.066C67.1709 57.914 66.7209 57.756 66.3929 57.592C66.0649 57.428 65.8309 57.238 65.6909 57.022C65.5509 56.806 65.4809 56.544 65.4809 56.236C65.4809 55.856 65.5849 55.524 65.7929 55.24C66.0009 54.952 66.2909 54.73 66.6629 54.574C67.0389 54.418 67.4749 54.34 67.9709 54.34C68.4629 54.34 68.9029 54.418 69.2909 54.574C69.6789 54.73 69.9909 54.952 70.2269 55.24C70.4669 55.524 70.6089 55.856 70.6529 56.236L69.5609 56.434C69.5089 56.086 69.3409 55.812 69.0569 55.612C68.7769 55.412 68.4149 55.306 67.9709 55.294C67.5509 55.278 67.2089 55.352 66.9449 55.516C66.6849 55.68 66.5549 55.902 66.5549 56.182C66.5549 56.338 66.6029 56.472 66.6989 56.584C66.7989 56.696 66.9809 56.802 67.2449 56.902C67.5129 57.002 67.9009 57.116 68.4089 57.244C68.9809 57.388 69.4309 57.546 69.7589 57.718C70.0909 57.886 70.3269 58.086 70.4669 58.318C70.6069 58.546 70.6769 58.828 70.6769 59.164C70.6769 59.788 70.4469 60.28 69.9869 60.64C69.5269 60.996 68.8929 61.174 68.0849 61.174ZM73.8422 61.18C73.3582 61.18 72.9522 61.092 72.6242 60.916C72.3002 60.736 72.0542 60.5 71.8862 60.208C71.7222 59.916 71.6402 59.596 71.6402 59.248C71.6402 58.908 71.7042 58.614 71.8322 58.366C71.9642 58.114 72.1482 57.906 72.3842 57.742C72.6202 57.574 72.9022 57.442 73.2302 57.346C73.5382 57.262 73.8822 57.19 74.2622 57.13C74.6462 57.066 75.0342 57.008 75.4262 56.956C75.8182 56.904 76.1842 56.854 76.5242 56.806L76.1402 57.028C76.1522 56.452 76.0362 56.026 75.7922 55.75C75.5522 55.474 75.1362 55.336 74.5442 55.336C74.1522 55.336 73.8082 55.426 73.5122 55.606C73.2202 55.782 73.0142 56.07 72.8942 56.47L71.8802 56.164C72.0362 55.596 72.3382 55.15 72.7862 54.826C73.2342 54.502 73.8242 54.34 74.5562 54.34C75.1442 54.34 75.6482 54.446 76.0682 54.658C76.4922 54.866 76.7962 55.182 76.9802 55.606C77.0722 55.806 77.1302 56.024 77.1542 56.26C77.1782 56.492 77.1902 56.736 77.1902 56.992V61H76.2422V59.446L76.4642 59.59C76.2202 60.114 75.8782 60.51 75.4382 60.778C75.0022 61.046 74.4702 61.18 73.8422 61.18ZM74.0042 60.286C74.3882 60.286 74.7202 60.218 75.0002 60.082C75.2842 59.942 75.5122 59.76 75.6842 59.536C75.8562 59.308 75.9682 59.06 76.0202 58.792C76.0802 58.592 76.1122 58.37 76.1162 58.126C76.1242 57.878 76.1282 57.688 76.1282 57.556L76.5002 57.718C76.1522 57.766 75.8102 57.812 75.4742 57.856C75.1382 57.9 74.8202 57.948 74.5202 58C74.2202 58.048 73.9502 58.106 73.7102 58.174C73.5342 58.23 73.3682 58.302 73.2122 58.39C73.0602 58.478 72.9362 58.592 72.8402 58.732C72.7482 58.868 72.7022 59.038 72.7022 59.242C72.7022 59.418 72.7462 59.586 72.8342 59.746C72.9262 59.906 73.0662 60.036 73.2542 60.136C73.4462 60.236 73.6962 60.286 74.0042 60.286ZM81.7262 61.18C81.1182 61.18 80.6062 61.03 80.1902 60.73C79.7742 60.426 79.4582 60.016 79.2422 59.5C79.0302 58.98 78.9242 58.398 78.9242 57.754C78.9242 57.102 79.0302 56.518 79.2422 56.002C79.4582 55.486 79.7742 55.08 80.1902 54.784C80.6102 54.488 81.1242 54.34 81.7322 54.34C82.3322 54.34 82.8482 54.49 83.2802 54.79C83.7162 55.086 84.0502 55.492 84.2822 56.008C84.5142 56.524 84.6302 57.106 84.6302 57.754C84.6302 58.402 84.5142 58.984 84.2822 59.5C84.0502 60.016 83.7162 60.426 83.2802 60.73C82.8482 61.03 82.3302 61.18 81.7262 61.18ZM78.7442 61V52.36H79.8182V56.23H79.6982V61H78.7442ZM81.5942 60.202C82.0222 60.202 82.3762 60.094 82.6562 59.878C82.9362 59.662 83.1462 59.37 83.2862 59.002C83.4262 58.63 83.4962 58.214 83.4962 57.754C83.4962 57.298 83.4262 56.886 83.2862 56.518C83.1502 56.15 82.9382 55.858 82.6502 55.642C82.3662 55.426 82.0042 55.318 81.5642 55.318C81.1442 55.318 80.7962 55.422 80.5202 55.63C80.2442 55.834 80.0382 56.12 79.9022 56.488C79.7662 56.852 79.6982 57.274 79.6982 57.754C79.6982 58.226 79.7642 58.648 79.8962 59.02C80.0322 59.388 80.2402 59.678 80.5202 59.89C80.8002 60.098 81.1582 60.202 81.5942 60.202ZM86.0655 53.374V52.27H87.1335V53.374H86.0655ZM86.0655 61V54.52H87.1335V61H86.0655ZM89.0538 61V52.18H90.1218V61H89.0538ZM92.042 53.374V52.27H93.11V53.374H92.042ZM92.042 61V54.52H93.11V61H92.042ZM98.5283 61C98.1443 61.076 97.7643 61.106 97.3883 61.09C97.0163 61.078 96.6843 61.004 96.3923 60.868C96.1003 60.728 95.8783 60.512 95.7263 60.22C95.5983 59.964 95.5283 59.706 95.5163 59.446C95.5083 59.182 95.5043 58.884 95.5043 58.552V52.72H96.5723V58.504C96.5723 58.768 96.5743 58.994 96.5783 59.182C96.5863 59.37 96.6283 59.532 96.7043 59.668C96.8483 59.924 97.0763 60.074 97.3883 60.118C97.7043 60.162 98.0843 60.15 98.5283 60.082V61ZM94.1903 55.402V54.52H98.5283V55.402H94.1903ZM101.686 61.18C101.202 61.18 100.796 61.092 100.468 60.916C100.144 60.736 99.8979 60.5 99.7299 60.208C99.5659 59.916 99.4839 59.596 99.4839 59.248C99.4839 58.908 99.5479 58.614 99.6759 58.366C99.8079 58.114 99.9919 57.906 100.228 57.742C100.464 57.574 100.746 57.442 101.074 57.346C101.382 57.262 101.726 57.19 102.106 57.13C102.49 57.066 102.878 57.008 103.27 56.956C103.662 56.904 104.028 56.854 104.368 56.806L103.984 57.028C103.996 56.452 103.88 56.026 103.636 55.75C103.396 55.474 102.98 55.336 102.388 55.336C101.996 55.336 101.652 55.426 101.356 55.606C101.064 55.782 100.858 56.07 100.738 56.47L99.7239 56.164C99.8799 55.596 100.182 55.15 100.63 54.826C101.078 54.502 101.668 54.34 102.4 54.34C102.988 54.34 103.492 54.446 103.912 54.658C104.336 54.866 104.64 55.182 104.824 55.606C104.916 55.806 104.974 56.024 104.998 56.26C105.022 56.492 105.034 56.736 105.034 56.992V61H104.086V59.446L104.308 59.59C104.064 60.114 103.722 60.51 103.282 60.778C102.846 61.046 102.314 61.18 101.686 61.18ZM101.848 60.286C102.232 60.286 102.564 60.218 102.844 60.082C103.128 59.942 103.356 59.76 103.528 59.536C103.7 59.308 103.812 59.06 103.864 58.792C103.924 58.592 103.956 58.37 103.96 58.126C103.968 57.878 103.972 57.688 103.972 57.556L104.344 57.718C103.996 57.766 103.654 57.812 103.318 57.856C102.982 57.9 102.664 57.948 102.364 58C102.064 58.048 101.794 58.106 101.554 58.174C101.378 58.23 101.212 58.302 101.056 58.39C100.904 58.478 100.78 58.592 100.684 58.732C100.592 58.868 100.546 59.038 100.546 59.242C100.546 59.418 100.59 59.586 100.678 59.746C100.77 59.906 100.91 60.036 101.098 60.136C101.29 60.236 101.54 60.286 101.848 60.286ZM110.212 61C109.828 61.076 109.448 61.106 109.072 61.09C108.7 61.078 108.368 61.004 108.076 60.868C107.784 60.728 107.562 60.512 107.41 60.22C107.282 59.964 107.212 59.706 107.2 59.446C107.192 59.182 107.188 58.884 107.188 58.552V52.72H108.256V58.504C108.256 58.768 108.258 58.994 108.262 59.182C108.27 59.37 108.312 59.532 108.388 59.668C108.532 59.924 108.76 60.074 109.072 60.118C109.388 60.162 109.768 60.15 110.212 60.082V61ZM105.874 55.402V54.52H110.212V55.402H105.874ZM114.066 61.18C113.43 61.18 112.874 61.04 112.398 60.76C111.926 60.476 111.558 60.082 111.294 59.578C111.03 59.07 110.898 58.478 110.898 57.802C110.898 57.094 111.028 56.482 111.288 55.966C111.548 55.446 111.91 55.046 112.374 54.766C112.842 54.482 113.39 54.34 114.018 54.34C114.67 54.34 115.224 54.49 115.68 54.79C116.14 55.09 116.484 55.518 116.712 56.074C116.944 56.63 117.044 57.292 117.012 58.06H115.932V57.676C115.92 56.88 115.758 56.286 115.446 55.894C115.134 55.498 114.67 55.3 114.054 55.3C113.394 55.3 112.892 55.512 112.548 55.936C112.204 56.36 112.032 56.968 112.032 57.76C112.032 58.524 112.204 59.116 112.548 59.536C112.892 59.956 113.382 60.166 114.018 60.166C114.446 60.166 114.818 60.068 115.134 59.872C115.45 59.676 115.698 59.394 115.878 59.026L116.904 59.38C116.652 59.952 116.272 60.396 115.764 60.712C115.26 61.024 114.694 61.18 114.066 61.18ZM111.672 58.06V57.202H116.46V58.06H111.672ZM123.21 61.168C122.794 61.168 122.436 61.102 122.136 60.97C121.84 60.838 121.594 60.662 121.398 60.442C121.202 60.222 121.048 59.978 120.936 59.71C120.824 59.442 120.744 59.168 120.696 58.888C120.652 58.608 120.63 58.346 120.63 58.102V54.52H121.71V57.766C121.71 58.07 121.738 58.364 121.794 58.648C121.85 58.932 121.944 59.188 122.076 59.416C122.212 59.644 122.392 59.824 122.616 59.956C122.844 60.088 123.128 60.154 123.468 60.154C123.736 60.154 123.98 60.108 124.2 60.016C124.42 59.924 124.608 59.788 124.764 59.608C124.92 59.424 125.04 59.192 125.124 58.912C125.208 58.632 125.25 58.306 125.25 57.934L125.952 58.15C125.952 58.774 125.838 59.312 125.61 59.764C125.386 60.216 125.068 60.564 124.656 60.808C124.248 61.048 123.766 61.168 123.21 61.168ZM125.37 61V59.266H125.25V54.52H126.324V61H125.37ZM132.618 61V57.754C132.618 57.446 132.59 57.15 132.534 56.866C132.482 56.582 132.388 56.328 132.252 56.104C132.12 55.876 131.94 55.696 131.712 55.564C131.488 55.432 131.204 55.366 130.86 55.366C130.592 55.366 130.348 55.412 130.128 55.504C129.912 55.592 129.726 55.728 129.57 55.912C129.414 56.096 129.292 56.328 129.204 56.608C129.12 56.884 129.078 57.21 129.078 57.586L128.376 57.37C128.376 56.742 128.488 56.204 128.712 55.756C128.94 55.304 129.258 54.958 129.666 54.718C130.078 54.474 130.562 54.352 131.118 54.352C131.538 54.352 131.896 54.418 132.192 54.55C132.488 54.682 132.734 54.858 132.93 55.078C133.126 55.294 133.28 55.538 133.392 55.81C133.504 56.078 133.582 56.352 133.626 56.632C133.674 56.908 133.698 57.17 133.698 57.418V61H132.618ZM127.998 61V54.52H128.958V56.254H129.078V61H127.998ZM135.378 53.374V52.27H136.446V53.374H135.378ZM135.378 61V54.52H136.446V61H135.378ZM140.976 61.18C140.32 61.18 139.762 61.034 139.302 60.742C138.846 60.446 138.498 60.04 138.258 59.524C138.018 59.008 137.894 58.42 137.886 57.76C137.894 57.084 138.02 56.49 138.264 55.978C138.512 55.462 138.866 55.06 139.326 54.772C139.786 54.484 140.34 54.34 140.988 54.34C141.672 54.34 142.26 54.508 142.752 54.844C143.248 55.18 143.58 55.64 143.748 56.224L142.692 56.542C142.556 56.166 142.334 55.874 142.026 55.666C141.722 55.458 141.372 55.354 140.976 55.354C140.532 55.354 140.166 55.458 139.878 55.666C139.59 55.87 139.376 56.154 139.236 56.518C139.096 56.878 139.024 57.292 139.02 57.76C139.028 58.48 139.194 59.062 139.518 59.506C139.846 59.946 140.332 60.166 140.976 60.166C141.4 60.166 141.752 60.07 142.032 59.878C142.312 59.682 142.524 59.4 142.668 59.032L143.748 59.314C143.524 59.918 143.174 60.38 142.698 60.7C142.222 61.02 141.648 61.18 140.976 61.18ZM147.53 53.764C147.23 53.764 146.956 53.69 146.708 53.542C146.46 53.394 146.262 53.196 146.114 52.948C145.966 52.7 145.892 52.426 145.892 52.126H146.756C146.756 52.338 146.832 52.52 146.984 52.672C147.136 52.824 147.318 52.9 147.53 52.9C147.746 52.9 147.928 52.824 148.076 52.672C148.228 52.52 148.304 52.338 148.304 52.126H149.168C149.168 52.426 149.094 52.7 148.946 52.948C148.802 53.196 148.606 53.394 148.358 53.542C148.11 53.69 147.834 53.764 147.53 53.764ZM146.756 61.18C146.272 61.18 145.866 61.092 145.538 60.916C145.214 60.736 144.968 60.5 144.8 60.208C144.636 59.916 144.554 59.596 144.554 59.248C144.554 58.908 144.618 58.614 144.746 58.366C144.878 58.114 145.062 57.906 145.298 57.742C145.534 57.574 145.816 57.442 146.144 57.346C146.452 57.262 146.796 57.19 147.176 57.13C147.56 57.066 147.948 57.008 148.34 56.956C148.732 56.904 149.098 56.854 149.438 56.806L149.054 57.028C149.066 56.452 148.95 56.026 148.706 55.75C148.466 55.474 148.05 55.336 147.458 55.336C147.066 55.336 146.722 55.426 146.426 55.606C146.134 55.782 145.928 56.07 145.808 56.47L144.794 56.164C144.95 55.596 145.252 55.15 145.7 54.826C146.148 54.502 146.738 54.34 147.47 54.34C148.058 54.34 148.562 54.446 148.982 54.658C149.406 54.866 149.71 55.182 149.894 55.606C149.986 55.806 150.044 56.024 150.068 56.26C150.092 56.492 150.104 56.736 150.104 56.992V61H149.156V59.446L149.378 59.59C149.134 60.114 148.792 60.51 148.352 60.778C147.916 61.046 147.384 61.18 146.756 61.18ZM146.918 60.286C147.302 60.286 147.634 60.218 147.914 60.082C148.198 59.942 148.426 59.76 148.598 59.536C148.77 59.308 148.882 59.06 148.934 58.792C148.994 58.592 149.026 58.37 149.03 58.126C149.038 57.878 149.042 57.688 149.042 57.556L149.414 57.718C149.066 57.766 148.724 57.812 148.388 57.856C148.052 57.9 147.734 57.948 147.434 58C147.134 58.048 146.864 58.106 146.624 58.174C146.448 58.23 146.282 58.302 146.126 58.39C145.974 58.478 145.85 58.592 145.754 58.732C145.662 58.868 145.616 59.038 145.616 59.242C145.616 59.418 145.66 59.586 145.748 59.746C145.84 59.906 145.98 60.036 146.168 60.136C146.36 60.236 146.61 60.286 146.918 60.286Z" fill="#040213"/>
<rect x="223" y="72" width="126" height="32" rx="8" fill="#F7F7F8"/>
<rect x="223.5" y="72.5" width="125" height="31" rx="7.5" stroke="#040213" stroke-opacity="0.1"/>
<path d="M234.906 93.18C234.294 93.18 233.742 93.076 233.25 92.868C232.762 92.66 232.358 92.364 232.038 91.98C231.722 91.592 231.516 91.134 231.42 90.606L232.524 90.432C232.664 90.976 232.954 91.402 233.394 91.71C233.838 92.014 234.36 92.166 234.96 92.166C235.348 92.166 235.698 92.106 236.01 91.986C236.326 91.862 236.576 91.686 236.76 91.458C236.944 91.23 237.036 90.96 237.036 90.648C237.036 90.456 237.002 90.292 236.934 90.156C236.87 90.016 236.78 89.898 236.664 89.802C236.552 89.702 236.424 89.618 236.28 89.55C236.136 89.482 235.986 89.426 235.83 89.382L233.628 88.728C233.388 88.656 233.156 88.566 232.932 88.458C232.708 88.346 232.508 88.208 232.332 88.044C232.156 87.876 232.016 87.676 231.912 87.444C231.808 87.208 231.756 86.93 231.756 86.61C231.756 86.098 231.888 85.662 232.152 85.302C232.42 84.938 232.782 84.66 233.238 84.468C233.694 84.276 234.208 84.182 234.78 84.186C235.36 84.19 235.878 84.294 236.334 84.498C236.794 84.698 237.174 84.986 237.474 85.362C237.778 85.738 237.982 86.188 238.086 86.712L236.952 86.91C236.892 86.558 236.758 86.256 236.55 86.004C236.346 85.748 236.09 85.552 235.782 85.416C235.474 85.276 235.136 85.204 234.768 85.2C234.416 85.196 234.098 85.252 233.814 85.368C233.53 85.484 233.304 85.646 233.136 85.854C232.968 86.058 232.884 86.294 232.884 86.562C232.884 86.826 232.96 87.04 233.112 87.204C233.264 87.364 233.45 87.492 233.67 87.588C233.894 87.68 234.112 87.756 234.324 87.816L235.968 88.29C236.156 88.342 236.372 88.414 236.616 88.506C236.864 88.598 237.104 88.728 237.336 88.896C237.568 89.06 237.76 89.28 237.912 89.556C238.064 89.828 238.14 90.172 238.14 90.588C238.14 91.004 238.056 91.374 237.888 91.698C237.724 92.022 237.494 92.294 237.198 92.514C236.902 92.73 236.558 92.894 236.166 93.006C235.774 93.122 235.354 93.18 234.906 93.18ZM242.375 93.18C241.767 93.18 241.255 93.03 240.839 92.73C240.423 92.426 240.107 92.016 239.891 91.5C239.679 90.98 239.573 90.398 239.573 89.754C239.573 89.102 239.679 88.518 239.891 88.002C240.107 87.486 240.423 87.08 240.839 86.784C241.259 86.488 241.773 86.34 242.381 86.34C242.981 86.34 243.497 86.49 243.929 86.79C244.365 87.086 244.699 87.492 244.931 88.008C245.163 88.524 245.279 89.106 245.279 89.754C245.279 90.402 245.163 90.984 244.931 91.5C244.699 92.016 244.365 92.426 243.929 92.73C243.497 93.03 242.979 93.18 242.375 93.18ZM239.393 95.88V86.52H240.347V91.29H240.467V95.88H239.393ZM242.243 92.202C242.671 92.202 243.025 92.094 243.305 91.878C243.585 91.662 243.795 91.37 243.935 91.002C244.075 90.63 244.145 90.214 244.145 89.754C244.145 89.298 244.075 88.886 243.935 88.518C243.799 88.15 243.587 87.858 243.299 87.642C243.015 87.426 242.653 87.318 242.213 87.318C241.793 87.318 241.445 87.422 241.169 87.63C240.893 87.834 240.687 88.12 240.551 88.488C240.415 88.852 240.347 89.274 240.347 89.754C240.347 90.226 240.413 90.648 240.545 91.02C240.681 91.388 240.889 91.678 241.169 91.89C241.449 92.098 241.807 92.202 242.243 92.202ZM249.402 93.18C248.766 93.18 248.21 93.04 247.734 92.76C247.262 92.476 246.894 92.082 246.63 91.578C246.366 91.07 246.234 90.478 246.234 89.802C246.234 89.094 246.364 88.482 246.624 87.966C246.884 87.446 247.246 87.046 247.71 86.766C248.178 86.482 248.726 86.34 249.354 86.34C250.006 86.34 250.56 86.49 251.016 86.79C251.476 87.09 251.82 87.518 252.048 88.074C252.28 88.63 252.38 89.292 252.348 90.06H251.268V89.676C251.256 88.88 251.094 88.286 250.782 87.894C250.47 87.498 250.006 87.3 249.39 87.3C248.73 87.3 248.228 87.512 247.884 87.936C247.54 88.36 247.368 88.968 247.368 89.76C247.368 90.524 247.54 91.116 247.884 91.536C248.228 91.956 248.718 92.166 249.354 92.166C249.782 92.166 250.154 92.068 250.47 91.872C250.786 91.676 251.034 91.394 251.214 91.026L252.24 91.38C251.988 91.952 251.608 92.396 251.1 92.712C250.596 93.024 250.03 93.18 249.402 93.18ZM247.008 90.06V89.202H251.796V90.06H247.008ZM256.414 93.18C255.758 93.18 255.2 93.034 254.74 92.742C254.284 92.446 253.936 92.04 253.696 91.524C253.456 91.008 253.332 90.42 253.324 89.76C253.332 89.084 253.458 88.49 253.702 87.978C253.95 87.462 254.304 87.06 254.764 86.772C255.224 86.484 255.778 86.34 256.426 86.34C257.11 86.34 257.698 86.508 258.19 86.844C258.686 87.18 259.018 87.64 259.186 88.224L258.13 88.542C257.994 88.166 257.772 87.874 257.464 87.666C257.16 87.458 256.81 87.354 256.414 87.354C255.97 87.354 255.604 87.458 255.316 87.666C255.028 87.87 254.814 88.154 254.674 88.518C254.534 88.878 254.462 89.292 254.458 89.76C254.466 90.48 254.632 91.062 254.956 91.506C255.284 91.946 255.77 92.166 256.414 92.166C256.838 92.166 257.19 92.07 257.47 91.878C257.75 91.682 257.962 91.4 258.106 91.032L259.186 91.314C258.962 91.918 258.612 92.38 258.136 92.7C257.66 93.02 257.086 93.18 256.414 93.18ZM260.355 85.374V84.27H261.423V85.374H260.355ZM260.355 93V86.52H261.423V93H260.355ZM265.065 93.18C264.581 93.18 264.175 93.092 263.847 92.916C263.523 92.736 263.277 92.5 263.109 92.208C262.945 91.916 262.863 91.596 262.863 91.248C262.863 90.908 262.927 90.614 263.055 90.366C263.187 90.114 263.371 89.906 263.607 89.742C263.843 89.574 264.125 89.442 264.453 89.346C264.761 89.262 265.105 89.19 265.485 89.13C265.869 89.066 266.257 89.008 266.649 88.956C267.041 88.904 267.407 88.854 267.747 88.806L267.363 89.028C267.375 88.452 267.259 88.026 267.015 87.75C266.775 87.474 266.359 87.336 265.767 87.336C265.375 87.336 265.031 87.426 264.735 87.606C264.443 87.782 264.237 88.07 264.117 88.47L263.103 88.164C263.259 87.596 263.561 87.15 264.009 86.826C264.457 86.502 265.047 86.34 265.779 86.34C266.367 86.34 266.871 86.446 267.291 86.658C267.715 86.866 268.019 87.182 268.203 87.606C268.295 87.806 268.353 88.024 268.377 88.26C268.401 88.492 268.413 88.736 268.413 88.992V93H267.465V91.446L267.687 91.59C267.443 92.114 267.101 92.51 266.661 92.778C266.225 93.046 265.693 93.18 265.065 93.18ZM265.227 92.286C265.611 92.286 265.943 92.218 266.223 92.082C266.507 91.942 266.735 91.76 266.907 91.536C267.079 91.308 267.191 91.06 267.243 90.792C267.303 90.592 267.335 90.37 267.339 90.126C267.347 89.878 267.351 89.688 267.351 89.556L267.723 89.718C267.375 89.766 267.033 89.812 266.697 89.856C266.361 89.9 266.043 89.948 265.743 90C265.443 90.048 265.173 90.106 264.933 90.174C264.757 90.23 264.591 90.302 264.435 90.39C264.283 90.478 264.159 90.592 264.063 90.732C263.971 90.868 263.925 91.038 263.925 91.242C263.925 91.418 263.969 91.586 264.057 91.746C264.149 91.906 264.289 92.036 264.477 92.136C264.669 92.236 264.919 92.286 265.227 92.286ZM270.093 93V84.18H271.161V93H270.093ZM273.081 85.374V84.27H274.149V85.374H273.081ZM273.081 93V86.52H274.149V93H273.081ZM277.791 96.42V95.898C277.843 95.898 277.919 95.884 278.019 95.856C278.119 95.828 278.209 95.772 278.289 95.688C278.373 95.608 278.411 95.49 278.403 95.334H277.791V94.206H278.919V95.334C278.919 95.682 278.805 95.95 278.577 96.138C278.353 96.326 278.091 96.42 277.791 96.42ZM278.397 93.174C277.625 93.174 276.991 93.006 276.495 92.67C276.003 92.33 275.701 91.856 275.589 91.248L276.681 91.074C276.769 91.426 276.971 91.706 277.287 91.914C277.603 92.118 277.995 92.22 278.463 92.22C278.907 92.22 279.255 92.128 279.507 91.944C279.759 91.76 279.885 91.51 279.885 91.194C279.885 91.01 279.843 90.862 279.759 90.75C279.675 90.634 279.501 90.526 279.237 90.426C278.977 90.326 278.583 90.206 278.055 90.066C277.483 89.914 277.033 89.756 276.705 89.592C276.377 89.428 276.143 89.238 276.003 89.022C275.863 88.806 275.793 88.544 275.793 88.236C275.793 87.856 275.897 87.524 276.105 87.24C276.313 86.952 276.603 86.73 276.975 86.574C277.351 86.418 277.787 86.34 278.283 86.34C278.775 86.34 279.215 86.418 279.603 86.574C279.991 86.73 280.303 86.952 280.539 87.24C280.779 87.524 280.921 87.856 280.965 88.236L279.873 88.434C279.821 88.086 279.653 87.812 279.369 87.612C279.089 87.412 278.727 87.306 278.283 87.294C277.863 87.278 277.521 87.352 277.257 87.516C276.997 87.68 276.867 87.902 276.867 88.182C276.867 88.338 276.915 88.472 277.011 88.584C277.111 88.696 277.293 88.802 277.557 88.902C277.825 89.002 278.213 89.116 278.721 89.244C279.293 89.388 279.743 89.546 280.071 89.718C280.403 89.886 280.639 90.086 280.779 90.318C280.919 90.546 280.989 90.828 280.989 91.164C280.989 91.788 280.759 92.28 280.299 92.64C279.839 92.996 279.205 93.174 278.397 93.174ZM285.931 93C285.547 93.076 285.167 93.106 284.791 93.09C284.419 93.078 284.087 93.004 283.795 92.868C283.503 92.728 283.281 92.512 283.129 92.22C283.001 91.964 282.931 91.706 282.919 91.446C282.911 91.182 282.907 90.884 282.907 90.552V84.72H283.975V90.504C283.975 90.768 283.977 90.994 283.981 91.182C283.989 91.37 284.031 91.532 284.107 91.668C284.251 91.924 284.479 92.074 284.791 92.118C285.107 92.162 285.487 92.15 285.931 92.082V93ZM281.593 87.402V86.52H285.931V87.402H281.593ZM287.366 85.374V84.27H288.434V85.374H287.366ZM287.366 93V86.52H288.434V93H287.366ZM292.757 93V84.18H293.825V93H292.757ZM297.467 93.18C296.983 93.18 296.577 93.092 296.249 92.916C295.925 92.736 295.679 92.5 295.511 92.208C295.347 91.916 295.265 91.596 295.265 91.248C295.265 90.908 295.329 90.614 295.457 90.366C295.589 90.114 295.773 89.906 296.009 89.742C296.245 89.574 296.527 89.442 296.855 89.346C297.163 89.262 297.507 89.19 297.887 89.13C298.271 89.066 298.659 89.008 299.051 88.956C299.443 88.904 299.809 88.854 300.149 88.806L299.765 89.028C299.777 88.452 299.661 88.026 299.417 87.75C299.177 87.474 298.761 87.336 298.169 87.336C297.777 87.336 297.433 87.426 297.137 87.606C296.845 87.782 296.639 88.07 296.519 88.47L295.505 88.164C295.661 87.596 295.963 87.15 296.411 86.826C296.859 86.502 297.449 86.34 298.181 86.34C298.769 86.34 299.273 86.446 299.693 86.658C300.117 86.866 300.421 87.182 300.605 87.606C300.697 87.806 300.755 88.024 300.779 88.26C300.803 88.492 300.815 88.736 300.815 88.992V93H299.867V91.446L300.089 91.59C299.845 92.114 299.503 92.51 299.063 92.778C298.627 93.046 298.095 93.18 297.467 93.18ZM297.629 92.286C298.013 92.286 298.345 92.218 298.625 92.082C298.909 91.942 299.137 91.76 299.309 91.536C299.481 91.308 299.593 91.06 299.645 90.792C299.705 90.592 299.737 90.37 299.741 90.126C299.749 89.878 299.753 89.688 299.753 89.556L300.125 89.718C299.777 89.766 299.435 89.812 299.099 89.856C298.763 89.9 298.445 89.948 298.145 90C297.845 90.048 297.575 90.106 297.335 90.174C297.159 90.23 296.993 90.302 296.837 90.39C296.685 90.478 296.561 90.592 296.465 90.732C296.373 90.868 296.327 91.038 296.327 91.242C296.327 91.418 296.371 91.586 296.459 91.746C296.551 91.906 296.691 92.036 296.879 92.136C297.071 92.236 297.321 92.286 297.629 92.286ZM307.508 93.18C306.852 93.18 306.294 93.034 305.834 92.742C305.378 92.446 305.03 92.04 304.79 91.524C304.55 91.008 304.426 90.42 304.418 89.76C304.426 89.084 304.552 88.49 304.796 87.978C305.044 87.462 305.398 87.06 305.858 86.772C306.318 86.484 306.872 86.34 307.52 86.34C308.204 86.34 308.792 86.508 309.284 86.844C309.78 87.18 310.112 87.64 310.28 88.224L309.224 88.542C309.088 88.166 308.866 87.874 308.558 87.666C308.254 87.458 307.904 87.354 307.508 87.354C307.064 87.354 306.698 87.458 306.41 87.666C306.122 87.87 305.908 88.154 305.768 88.518C305.628 88.878 305.556 89.292 305.552 89.76C305.56 90.48 305.726 91.062 306.05 91.506C306.378 91.946 306.864 92.166 307.508 92.166C307.932 92.166 308.284 92.07 308.564 91.878C308.844 91.682 309.056 91.4 309.2 91.032L310.28 91.314C310.056 91.918 309.706 92.38 309.23 92.7C308.754 93.02 308.18 93.18 307.508 93.18ZM314.136 93.18C313.5 93.18 312.944 93.04 312.468 92.76C311.996 92.476 311.628 92.082 311.364 91.578C311.1 91.07 310.968 90.478 310.968 89.802C310.968 89.094 311.098 88.482 311.358 87.966C311.618 87.446 311.98 87.046 312.444 86.766C312.912 86.482 313.46 86.34 314.088 86.34C314.74 86.34 315.294 86.49 315.75 86.79C316.21 87.09 316.554 87.518 316.782 88.074C317.014 88.63 317.114 89.292 317.082 90.06H316.002V89.676C315.99 88.88 315.828 88.286 315.516 87.894C315.204 87.498 314.74 87.3 314.124 87.3C313.464 87.3 312.962 87.512 312.618 87.936C312.274 88.36 312.102 88.968 312.102 89.76C312.102 90.524 312.274 91.116 312.618 91.536C312.962 91.956 313.452 92.166 314.088 92.166C314.516 92.166 314.888 92.068 315.204 91.872C315.52 91.676 315.768 91.394 315.948 91.026L316.974 91.38C316.722 91.952 316.342 92.396 315.834 92.712C315.33 93.024 314.764 93.18 314.136 93.18ZM311.742 90.06V89.202H316.53V90.06H311.742ZM318.418 93V86.52H319.372V88.086L319.216 87.882C319.292 87.682 319.39 87.498 319.51 87.33C319.634 87.162 319.772 87.024 319.924 86.916C320.092 86.78 320.282 86.676 320.494 86.604C320.706 86.532 320.922 86.49 321.142 86.478C321.362 86.462 321.568 86.476 321.76 86.52V87.522C321.536 87.462 321.29 87.446 321.022 87.474C320.754 87.502 320.506 87.6 320.278 87.768C320.07 87.916 319.908 88.096 319.792 88.308C319.68 88.52 319.602 88.75 319.558 88.998C319.514 89.242 319.492 89.492 319.492 89.748V93H318.418ZM325.586 93.18C324.95 93.18 324.394 93.04 323.918 92.76C323.446 92.476 323.078 92.082 322.814 91.578C322.55 91.07 322.418 90.478 322.418 89.802C322.418 89.094 322.548 88.482 322.808 87.966C323.068 87.446 323.43 87.046 323.894 86.766C324.362 86.482 324.91 86.34 325.538 86.34C326.19 86.34 326.744 86.49 327.2 86.79C327.66 87.09 328.004 87.518 328.232 88.074C328.464 88.63 328.564 89.292 328.532 90.06H327.452V89.676C327.44 88.88 327.278 88.286 326.966 87.894C326.654 87.498 326.19 87.3 325.574 87.3C324.914 87.3 324.412 87.512 324.068 87.936C323.724 88.36 323.552 88.968 323.552 89.76C323.552 90.524 323.724 91.116 324.068 91.536C324.412 91.956 324.902 92.166 325.538 92.166C325.966 92.166 326.338 92.068 326.654 91.872C326.97 91.676 327.218 91.394 327.398 91.026L328.424 91.38C328.172 91.952 327.792 92.396 327.284 92.712C326.78 93.024 326.214 93.18 325.586 93.18ZM323.192 90.06V89.202H327.98V90.06H323.192ZM329.867 93V86.52H330.821V88.086L330.665 87.882C330.741 87.682 330.839 87.498 330.959 87.33C331.083 87.162 331.221 87.024 331.373 86.916C331.541 86.78 331.731 86.676 331.943 86.604C332.155 86.532 332.371 86.49 332.591 86.478C332.811 86.462 333.017 86.476 333.209 86.52V87.522C332.985 87.462 332.739 87.446 332.471 87.474C332.203 87.502 331.955 87.6 331.727 87.768C331.519 87.916 331.357 88.096 331.241 88.308C331.129 88.52 331.051 88.75 331.007 88.998C330.963 89.242 330.941 89.492 330.941 89.748V93H329.867ZM337.035 93.18C336.399 93.18 335.843 93.04 335.367 92.76C334.895 92.476 334.527 92.082 334.263 91.578C333.999 91.07 333.867 90.478 333.867 89.802C333.867 89.094 333.997 88.482 334.257 87.966C334.517 87.446 334.879 87.046 335.343 86.766C335.811 86.482 336.359 86.34 336.987 86.34C337.639 86.34 338.193 86.49 338.649 86.79C339.109 87.09 339.453 87.518 339.681 88.074C339.913 88.63 340.013 89.292 339.981 90.06H338.901V89.676C338.889 88.88 338.727 88.286 338.415 87.894C338.103 87.498 337.639 87.3 337.023 87.3C336.363 87.3 335.861 87.512 335.517 87.936C335.173 88.36 335.001 88.968 335.001 89.76C335.001 90.524 335.173 91.116 335.517 91.536C335.861 91.956 336.351 92.166 336.987 92.166C337.415 92.166 337.787 92.068 338.103 91.872C338.419 91.676 338.667 91.394 338.847 91.026L339.873 91.38C339.621 91.952 339.241 92.396 338.733 92.712C338.229 93.024 337.663 93.18 337.035 93.18ZM334.641 90.06V89.202H339.429V90.06H334.641Z" fill="#040213"/>
<rect x="80.5" y="205" width="127" height="32" rx="8" fill="#F7F7F8"/>
<rect x="81" y="205.5" width="126" height="31" rx="7.5" stroke="#040213" stroke-opacity="0.1"/>
<path d="M89.34 226V217.36H92.754C92.838 217.36 92.938 217.364 93.054 217.372C93.17 217.376 93.282 217.388 93.39 217.408C93.858 217.48 94.25 217.64 94.566 217.888C94.886 218.136 95.126 218.45 95.286 218.83C95.446 219.206 95.526 219.624 95.526 220.084C95.526 220.752 95.352 221.332 95.004 221.824C94.656 222.312 94.146 222.618 93.474 222.742L93.066 222.808H90.408V226H89.34ZM94.482 226L92.778 222.484L93.834 222.16L95.706 226H94.482ZM90.408 221.794H92.718C92.794 221.794 92.88 221.79 92.976 221.782C93.076 221.774 93.17 221.76 93.258 221.74C93.534 221.676 93.758 221.56 93.93 221.392C94.106 221.22 94.234 221.02 94.314 220.792C94.394 220.56 94.434 220.324 94.434 220.084C94.434 219.844 94.394 219.61 94.314 219.382C94.234 219.15 94.106 218.948 93.93 218.776C93.758 218.604 93.534 218.488 93.258 218.428C93.17 218.404 93.076 218.39 92.976 218.386C92.88 218.378 92.794 218.374 92.718 218.374H90.408V221.794ZM99.8355 226.18C99.1995 226.18 98.6435 226.04 98.1675 225.76C97.6955 225.476 97.3275 225.082 97.0635 224.578C96.7995 224.07 96.6675 223.478 96.6675 222.802C96.6675 222.094 96.7975 221.482 97.0575 220.966C97.3175 220.446 97.6795 220.046 98.1435 219.766C98.6115 219.482 99.1595 219.34 99.7875 219.34C100.44 219.34 100.994 219.49 101.45 219.79C101.91 220.09 102.254 220.518 102.482 221.074C102.714 221.63 102.814 222.292 102.782 223.06H101.702V222.676C101.69 221.88 101.528 221.286 101.216 220.894C100.904 220.498 100.44 220.3 99.8235 220.3C99.1635 220.3 98.6615 220.512 98.3175 220.936C97.9735 221.36 97.8015 221.968 97.8015 222.76C97.8015 223.524 97.9735 224.116 98.3175 224.536C98.6615 224.956 99.1515 225.166 99.7875 225.166C100.216 225.166 100.588 225.068 100.904 224.872C101.22 224.676 101.468 224.394 101.648 224.026L102.674 224.38C102.422 224.952 102.042 225.396 101.534 225.712C101.03 226.024 100.464 226.18 99.8355 226.18ZM97.4415 223.06V222.202H102.23V223.06H97.4415ZM103.517 226V225.808L107.447 220.492H103.841V219.52H109.169V219.724L105.245 225.028H108.965V226H103.517ZM112.952 226.168C112.536 226.168 112.178 226.102 111.878 225.97C111.582 225.838 111.336 225.662 111.14 225.442C110.944 225.222 110.79 224.978 110.678 224.71C110.566 224.442 110.486 224.168 110.438 223.888C110.394 223.608 110.372 223.346 110.372 223.102V219.52H111.452V222.766C111.452 223.07 111.48 223.364 111.536 223.648C111.592 223.932 111.686 224.188 111.818 224.416C111.954 224.644 112.134 224.824 112.358 224.956C112.586 225.088 112.87 225.154 113.21 225.154C113.478 225.154 113.722 225.108 113.942 225.016C114.162 224.924 114.35 224.788 114.506 224.608C114.662 224.424 114.782 224.192 114.866 223.912C114.95 223.632 114.992 223.306 114.992 222.934L115.694 223.15C115.694 223.774 115.58 224.312 115.352 224.764C115.128 225.216 114.81 225.564 114.398 225.808C113.99 226.048 113.508 226.168 112.952 226.168ZM115.112 226V224.266H114.992V219.52H116.066V226H115.112ZM117.866 226V217.18H118.934V226H117.866ZM124.353 226C123.969 226.076 123.589 226.106 123.213 226.09C122.841 226.078 122.509 226.004 122.217 225.868C121.925 225.728 121.703 225.512 121.551 225.22C121.423 224.964 121.353 224.706 121.341 224.446C121.333 224.182 121.329 223.884 121.329 223.552V217.72H122.397V223.504C122.397 223.768 122.399 223.994 122.403 224.182C122.411 224.37 122.453 224.532 122.529 224.668C122.673 224.924 122.901 225.074 123.213 225.118C123.529 225.162 123.909 225.15 124.353 225.082V226ZM120.015 220.402V219.52H124.353V220.402H120.015ZM127.51 226.18C127.026 226.18 126.62 226.092 126.292 225.916C125.968 225.736 125.722 225.5 125.554 225.208C125.39 224.916 125.308 224.596 125.308 224.248C125.308 223.908 125.372 223.614 125.5 223.366C125.632 223.114 125.816 222.906 126.052 222.742C126.288 222.574 126.57 222.442 126.898 222.346C127.206 222.262 127.55 222.19 127.93 222.13C128.314 222.066 128.702 222.008 129.094 221.956C129.486 221.904 129.852 221.854 130.192 221.806L129.808 222.028C129.82 221.452 129.704 221.026 129.46 220.75C129.22 220.474 128.804 220.336 128.212 220.336C127.82 220.336 127.476 220.426 127.18 220.606C126.888 220.782 126.682 221.07 126.562 221.47L125.548 221.164C125.704 220.596 126.006 220.15 126.454 219.826C126.902 219.502 127.492 219.34 128.224 219.34C128.812 219.34 129.316 219.446 129.736 219.658C130.16 219.866 130.464 220.182 130.648 220.606C130.74 220.806 130.798 221.024 130.822 221.26C130.846 221.492 130.858 221.736 130.858 221.992V226H129.91V224.446L130.132 224.59C129.888 225.114 129.546 225.51 129.106 225.778C128.67 226.046 128.138 226.18 127.51 226.18ZM127.672 225.286C128.056 225.286 128.388 225.218 128.668 225.082C128.952 224.942 129.18 224.76 129.352 224.536C129.524 224.308 129.636 224.06 129.688 223.792C129.748 223.592 129.78 223.37 129.784 223.126C129.792 222.878 129.796 222.688 129.796 222.556L130.168 222.718C129.82 222.766 129.478 222.812 129.142 222.856C128.806 222.9 128.488 222.948 128.188 223C127.888 223.048 127.618 223.106 127.378 223.174C127.202 223.23 127.036 223.302 126.88 223.39C126.728 223.478 126.604 223.592 126.508 223.732C126.416 223.868 126.37 224.038 126.37 224.242C126.37 224.418 126.414 224.586 126.502 224.746C126.594 224.906 126.734 225.036 126.922 225.136C127.114 225.236 127.364 225.286 127.672 225.286ZM136.036 226C135.652 226.076 135.272 226.106 134.896 226.09C134.524 226.078 134.192 226.004 133.9 225.868C133.608 225.728 133.386 225.512 133.234 225.22C133.106 224.964 133.036 224.706 133.024 224.446C133.016 224.182 133.012 223.884 133.012 223.552V217.72H134.08V223.504C134.08 223.768 134.082 223.994 134.086 224.182C134.094 224.37 134.136 224.532 134.212 224.668C134.356 224.924 134.584 225.074 134.896 225.118C135.212 225.162 135.592 225.15 136.036 225.082V226ZM131.698 220.402V219.52H136.036V220.402H131.698ZM139.89 226.18C139.254 226.18 138.698 226.04 138.222 225.76C137.75 225.476 137.382 225.082 137.118 224.578C136.854 224.07 136.722 223.478 136.722 222.802C136.722 222.094 136.852 221.482 137.112 220.966C137.372 220.446 137.734 220.046 138.198 219.766C138.666 219.482 139.214 219.34 139.842 219.34C140.494 219.34 141.048 219.49 141.504 219.79C141.964 220.09 142.308 220.518 142.536 221.074C142.768 221.63 142.868 222.292 142.836 223.06H141.756V222.676C141.744 221.88 141.582 221.286 141.27 220.894C140.958 220.498 140.494 220.3 139.878 220.3C139.218 220.3 138.716 220.512 138.372 220.936C138.028 221.36 137.856 221.968 137.856 222.76C137.856 223.524 138.028 224.116 138.372 224.536C138.716 224.956 139.206 225.166 139.842 225.166C140.27 225.166 140.642 225.068 140.958 224.872C141.274 224.676 141.522 224.394 141.702 224.026L142.728 224.38C142.476 224.952 142.096 225.396 141.588 225.712C141.084 226.024 140.518 226.18 139.89 226.18ZM137.496 223.06V222.202H142.284V223.06H137.496ZM154.32 226L154.326 221.854C154.326 221.37 154.196 220.992 153.936 220.72C153.68 220.444 153.346 220.306 152.934 220.306C152.694 220.306 152.466 220.362 152.25 220.474C152.034 220.582 151.858 220.754 151.722 220.99C151.586 221.222 151.518 221.52 151.518 221.884L150.954 221.656C150.946 221.196 151.04 220.794 151.236 220.45C151.436 220.102 151.708 219.832 152.052 219.64C152.396 219.448 152.784 219.352 153.216 219.352C153.892 219.352 154.424 219.558 154.812 219.97C155.2 220.378 155.394 220.928 155.394 221.62L155.388 226H154.32ZM146.568 226V219.52H147.522V221.254H147.642V226H146.568ZM150.45 226L150.456 221.896C150.456 221.4 150.328 221.012 150.072 220.732C149.816 220.448 149.476 220.306 149.052 220.306C148.632 220.306 148.292 220.45 148.032 220.738C147.772 221.026 147.642 221.408 147.642 221.884L147.078 221.548C147.078 221.128 147.178 220.752 147.378 220.42C147.578 220.088 147.85 219.828 148.194 219.64C148.538 219.448 148.928 219.352 149.364 219.352C149.8 219.352 150.18 219.444 150.504 219.628C150.828 219.812 151.078 220.076 151.254 220.42C151.43 220.76 151.518 221.166 151.518 221.638L151.512 226H150.45ZM159.573 218.764C159.273 218.764 158.999 218.69 158.751 218.542C158.503 218.394 158.305 218.196 158.157 217.948C158.009 217.7 157.935 217.426 157.935 217.126H158.799C158.799 217.338 158.875 217.52 159.027 217.672C159.179 217.824 159.361 217.9 159.573 217.9C159.789 217.9 159.971 217.824 160.119 217.672C160.271 217.52 160.347 217.338 160.347 217.126H161.211C161.211 217.426 161.137 217.7 160.989 217.948C160.845 218.196 160.649 218.394 160.401 218.542C160.153 218.69 159.877 218.764 159.573 218.764ZM158.799 226.18C158.315 226.18 157.909 226.092 157.581 225.916C157.257 225.736 157.011 225.5 156.843 225.208C156.679 224.916 156.597 224.596 156.597 224.248C156.597 223.908 156.661 223.614 156.789 223.366C156.921 223.114 157.105 222.906 157.341 222.742C157.577 222.574 157.859 222.442 158.187 222.346C158.495 222.262 158.839 222.19 159.219 222.13C159.603 222.066 159.991 222.008 160.383 221.956C160.775 221.904 161.141 221.854 161.481 221.806L161.097 222.028C161.109 221.452 160.993 221.026 160.749 220.75C160.509 220.474 160.093 220.336 159.501 220.336C159.109 220.336 158.765 220.426 158.469 220.606C158.177 220.782 157.971 221.07 157.851 221.47L156.837 221.164C156.993 220.596 157.295 220.15 157.743 219.826C158.191 219.502 158.781 219.34 159.513 219.34C160.101 219.34 160.605 219.446 161.025 219.658C161.449 219.866 161.753 220.182 161.937 220.606C162.029 220.806 162.087 221.024 162.111 221.26C162.135 221.492 162.147 221.736 162.147 221.992V226H161.199V224.446L161.421 224.59C161.177 225.114 160.835 225.51 160.395 225.778C159.959 226.046 159.427 226.18 158.799 226.18ZM158.961 225.286C159.345 225.286 159.677 225.218 159.957 225.082C160.241 224.942 160.469 224.76 160.641 224.536C160.813 224.308 160.925 224.06 160.977 223.792C161.037 223.592 161.069 223.37 161.073 223.126C161.081 222.878 161.085 222.688 161.085 222.556L161.457 222.718C161.109 222.766 160.767 222.812 160.431 222.856C160.095 222.9 159.777 222.948 159.477 223C159.177 223.048 158.907 223.106 158.667 223.174C158.491 223.23 158.325 223.302 158.169 223.39C158.017 223.478 157.893 223.592 157.797 223.732C157.705 223.868 157.659 224.038 157.659 224.242C157.659 224.418 157.703 224.586 157.791 224.746C157.883 224.906 158.023 225.036 158.211 225.136C158.403 225.236 158.653 225.286 158.961 225.286ZM166.155 226.174C165.383 226.174 164.749 226.006 164.253 225.67C163.761 225.33 163.459 224.856 163.347 224.248L164.439 224.074C164.527 224.426 164.729 224.706 165.045 224.914C165.361 225.118 165.753 225.22 166.221 225.22C166.665 225.22 167.013 225.128 167.265 224.944C167.517 224.76 167.643 224.51 167.643 224.194C167.643 224.01 167.601 223.862 167.517 223.75C167.433 223.634 167.259 223.526 166.995 223.426C166.735 223.326 166.341 223.206 165.813 223.066C165.241 222.914 164.791 222.756 164.463 222.592C164.135 222.428 163.901 222.238 163.761 222.022C163.621 221.806 163.551 221.544 163.551 221.236C163.551 220.856 163.655 220.524 163.863 220.24C164.071 219.952 164.361 219.73 164.733 219.574C165.109 219.418 165.545 219.34 166.041 219.34C166.533 219.34 166.973 219.418 167.361 219.574C167.749 219.73 168.061 219.952 168.297 220.24C168.537 220.524 168.679 220.856 168.723 221.236L167.631 221.434C167.579 221.086 167.411 220.812 167.127 220.612C166.847 220.412 166.485 220.306 166.041 220.294C165.621 220.278 165.279 220.352 165.015 220.516C164.755 220.68 164.625 220.902 164.625 221.182C164.625 221.338 164.673 221.472 164.769 221.584C164.869 221.696 165.051 221.802 165.315 221.902C165.583 222.002 165.971 222.116 166.479 222.244C167.051 222.388 167.501 222.546 167.829 222.718C168.161 222.886 168.397 223.086 168.537 223.318C168.677 223.546 168.747 223.828 168.747 224.164C168.747 224.788 168.517 225.28 168.057 225.64C167.597 225.996 166.963 226.174 166.155 226.174ZM172.53 226.168C172.114 226.168 171.756 226.102 171.456 225.97C171.16 225.838 170.914 225.662 170.718 225.442C170.522 225.222 170.368 224.978 170.256 224.71C170.144 224.442 170.064 224.168 170.016 223.888C169.972 223.608 169.95 223.346 169.95 223.102V219.52H171.03V222.766C171.03 223.07 171.058 223.364 171.114 223.648C171.17 223.932 171.264 224.188 171.396 224.416C171.532 224.644 171.712 224.824 171.936 224.956C172.164 225.088 172.448 225.154 172.788 225.154C173.056 225.154 173.3 225.108 173.52 225.016C173.74 224.924 173.928 224.788 174.084 224.608C174.24 224.424 174.36 224.192 174.444 223.912C174.528 223.632 174.57 223.306 174.57 222.934L175.272 223.15C175.272 223.774 175.158 224.312 174.93 224.764C174.706 225.216 174.388 225.564 173.976 225.808C173.568 226.048 173.086 226.168 172.53 226.168ZM174.69 226V224.266H174.57V219.52H175.644V226H174.69ZM177.324 226V219.52H178.278V221.086L178.122 220.882C178.198 220.682 178.296 220.498 178.416 220.33C178.54 220.162 178.678 220.024 178.83 219.916C178.998 219.78 179.188 219.676 179.4 219.604C179.612 219.532 179.828 219.49 180.048 219.478C180.268 219.462 180.474 219.476 180.666 219.52V220.522C180.442 220.462 180.196 220.446 179.928 220.474C179.66 220.502 179.412 220.6 179.184 220.768C178.976 220.916 178.814 221.096 178.698 221.308C178.586 221.52 178.508 221.75 178.464 221.998C178.42 222.242 178.398 222.492 178.398 222.748V226H177.324ZM183.432 226.18C182.948 226.18 182.542 226.092 182.214 225.916C181.89 225.736 181.644 225.5 181.476 225.208C181.312 224.916 181.23 224.596 181.23 224.248C181.23 223.908 181.294 223.614 181.422 223.366C181.554 223.114 181.738 222.906 181.974 222.742C182.21 222.574 182.492 222.442 182.82 222.346C183.128 222.262 183.472 222.19 183.852 222.13C184.236 222.066 184.624 222.008 185.016 221.956C185.408 221.904 185.774 221.854 186.114 221.806L185.73 222.028C185.742 221.452 185.626 221.026 185.382 220.75C185.142 220.474 184.726 220.336 184.134 220.336C183.742 220.336 183.398 220.426 183.102 220.606C182.81 220.782 182.604 221.07 182.484 221.47L181.47 221.164C181.626 220.596 181.928 220.15 182.376 219.826C182.824 219.502 183.414 219.34 184.146 219.34C184.734 219.34 185.238 219.446 185.658 219.658C186.082 219.866 186.386 220.182 186.57 220.606C186.662 220.806 186.72 221.024 186.744 221.26C186.768 221.492 186.78 221.736 186.78 221.992V226H185.832V224.446L186.054 224.59C185.81 225.114 185.468 225.51 185.028 225.778C184.592 226.046 184.06 226.18 183.432 226.18ZM183.594 225.286C183.978 225.286 184.31 225.218 184.59 225.082C184.874 224.942 185.102 224.76 185.274 224.536C185.446 224.308 185.558 224.06 185.61 223.792C185.67 223.592 185.702 223.37 185.706 223.126C185.714 222.878 185.718 222.688 185.718 222.556L186.09 222.718C185.742 222.766 185.4 222.812 185.064 222.856C184.728 222.9 184.41 222.948 184.11 223C183.81 223.048 183.54 223.106 183.3 223.174C183.124 223.23 182.958 223.302 182.802 223.39C182.65 223.478 182.526 223.592 182.43 223.732C182.338 223.868 182.292 224.038 182.292 224.242C182.292 224.418 182.336 224.586 182.424 224.746C182.516 224.906 182.656 225.036 182.844 225.136C183.036 225.236 183.286 225.286 183.594 225.286ZM191.958 226C191.574 226.076 191.194 226.106 190.818 226.09C190.446 226.078 190.114 226.004 189.822 225.868C189.53 225.728 189.308 225.512 189.156 225.22C189.028 224.964 188.958 224.706 188.946 224.446C188.938 224.182 188.934 223.884 188.934 223.552V217.72H190.002V223.504C190.002 223.768 190.004 223.994 190.008 224.182C190.016 224.37 190.058 224.532 190.134 224.668C190.278 224.924 190.506 225.074 190.818 225.118C191.134 225.162 191.514 225.15 191.958 225.082V226ZM187.62 220.402V219.52H191.958V220.402H187.62ZM195.812 226.18C195.176 226.18 194.62 226.04 194.144 225.76C193.672 225.476 193.304 225.082 193.04 224.578C192.776 224.07 192.644 223.478 192.644 222.802C192.644 222.094 192.774 221.482 193.034 220.966C193.294 220.446 193.656 220.046 194.12 219.766C194.588 219.482 195.136 219.34 195.764 219.34C196.416 219.34 196.97 219.49 197.426 219.79C197.886 220.09 198.23 220.518 198.458 221.074C198.69 221.63 198.79 222.292 198.758 223.06H197.678V222.676C197.666 221.88 197.504 221.286 197.192 220.894C196.88 220.498 196.416 220.3 195.8 220.3C195.14 220.3 194.638 220.512 194.294 220.936C193.95 221.36 193.778 221.968 193.778 222.76C193.778 223.524 193.95 224.116 194.294 224.536C194.638 224.956 195.128 225.166 195.764 225.166C196.192 225.166 196.564 225.068 196.88 224.872C197.196 224.676 197.444 224.394 197.624 224.026L198.65 224.38C198.398 224.952 198.018 225.396 197.51 225.712C197.006 226.024 196.44 226.18 195.812 226.18ZM193.418 223.06V222.202H198.206V223.06H193.418Z" fill="#040213"/>
<defs>
<filter id="filter0_i_2002_2726" x="64.5" y="0" width="145.833" height="181.496" filterUnits="userSpaceOnUse" color-interpolation-filters="sRGB">
<feFlood flood-opacity="0" result="BackgroundImageFix"/>
<feBlend mode="normal" in="SourceGraphic" in2="BackgroundImageFix" result="shape"/>
<feColorMatrix in="SourceAlpha" type="matrix" values="0 0 0 0 0 0 0 0 0 0 0 0 0 0 0 0 0 0 127 0" result="hardAlpha"/>
<feOffset dy="5"/>
<feGaussianBlur stdDeviation="5"/>
<feComposite in2="hardAlpha" operator="arithmetic" k2="-1" k3="1"/>
<feColorMatrix type="matrix" values="0 0 0 0 1 0 0 0 0 1 0 0 0 0 1 0 0 0 0.1 0"/>
<feBlend mode="normal" in2="shape" result="effect1_innerShadow_2002_2726"/>
</filter>
<linearGradient id="paint0_linear_2002_2726" x1="90.5" y1="43" x2="131.5" y2="74.5" gradientUnits="userSpaceOnUse">
<stop stop-color="#FF2F66"/>
<stop offset="1" stop-color="#F12359"/>
</linearGradient>
<linearGradient id="paint1_linear_2002_2726" x1="137.417" y1="0" x2="137.417" y2="176.496" gradientUnits="userSpaceOnUse">
<stop stop-color="#040213" stop-opacity="0.15"/>
<stop offset="1" stop-color="#040213" stop-opacity="0.3"/>
</linearGradient>
<linearGradient id="paint2_linear_2002_2726" x1="186.115" y1="159.067" x2="186.115" y2="250.004" gradientUnits="userSpaceOnUse">
<stop stop-color="#040213" stop-opacity="0.05"/>
<stop offset="1" stop-color="#040213" stop-opacity="0.1"/>
</linearGradient>
<linearGradient id="paint3_linear_2002_2726" x1="257.525" y1="0.604187" x2="257.525" y2="195.15" gradientUnits="userSpaceOnUse">
<stop stop-color="#040213" stop-opacity="0.05"/>
<stop offset="1" stop-color="#040213" stop-opacity="0.1"/>
</linearGradient>
</defs>
</svg>
