<svg width="379" height="250" viewBox="0 0 379 250" fill="none" xmlns="http://www.w3.org/2000/svg">
<g filter="url(#filter0_i_176_4721)">
<path d="M82.9333 148.867L112.446 156.729C108.4 146.946 106.167 136.229 106.167 125C106.167 79.05 143.55 41.6667 189.5 41.6667L210.333 20.8333L189.5 0C156.108 0 124.721 13.0042 101.112 36.6125C77.5 60.2208 64.5 91.6125 64.5 125C64.5 143.058 68.3042 160.525 75.5333 176.496L82.9333 148.867Z" fill="url(#paint0_linear_176_4721)"/>
</g>
<path d="M209.626 20.833L189.291 41.168C143.161 41.2811 105.667 78.8435 105.667 125C105.667 135.94 107.774 146.398 111.604 155.987L83.0625 148.384L82.5791 148.255L82.4502 148.737L75.416 175.001C68.5892 159.446 65 142.503 65 125C65 91.7451 77.9471 60.4804 101.466 36.9658C124.932 13.4998 156.112 0.554357 189.294 0.500977L209.626 20.833Z" stroke="url(#paint1_linear_176_4721)"/>
<path d="M117.019 167.093C131.559 192.037 158.605 208.837 189.5 208.837C216.136 208.837 239.905 196.348 255.272 176.924L262.954 205.419V206.01L263.584 205.841L289.784 198.82C286.094 203.813 282.005 208.568 277.534 213.038C254.02 236.557 222.759 249.504 189.5 249.504C156.241 249.504 124.98 236.557 101.466 213.038C93.7131 205.286 87.109 196.689 81.7412 187.457L89.1826 159.678L117.019 167.093Z" fill="#F6F6F6" stroke="url(#paint2_linear_176_4721)"/>
<path d="M203.236 1.24579C231.295 4.30391 257.289 16.7214 277.534 36.9665C301.048 60.4809 314 91.7451 314 125C314 147.154 308.254 168.414 297.466 187.094L269.685 194.537L262.189 166.726C269.276 154.431 273.333 140.182 273.333 125C273.333 82.8864 242.12 47.9295 201.613 42.0427L222.47 21.1872L222.823 20.8337L222.47 20.4802L203.236 1.24579Z" fill="#F6F6F6" stroke="url(#paint3_linear_176_4721)"/>
<rect x="19" y="40" width="135" height="32" rx="8" fill="#F7F7F8"/>
<rect x="19.5" y="40.5" width="134" height="31" rx="7.5" stroke="#040213" stroke-opacity="0.1"/>
<path d="M30.906 61.18C30.294 61.18 29.742 61.076 29.25 60.868C28.762 60.66 28.358 60.364 28.038 59.98C27.722 59.592 27.516 59.134 27.42 58.606L28.524 58.432C28.664 58.976 28.954 59.402 29.394 59.71C29.838 60.014 30.36 60.166 30.96 60.166C31.348 60.166 31.698 60.106 32.01 59.986C32.326 59.862 32.576 59.686 32.76 59.458C32.944 59.23 33.036 58.96 33.036 58.648C33.036 58.456 33.002 58.292 32.934 58.156C32.87 58.016 32.78 57.898 32.664 57.802C32.552 57.702 32.424 57.618 32.28 57.55C32.136 57.482 31.986 57.426 31.83 57.382L29.628 56.728C29.388 56.656 29.156 56.566 28.932 56.458C28.708 56.346 28.508 56.208 28.332 56.044C28.156 55.876 28.016 55.676 27.912 55.444C27.808 55.208 27.756 54.93 27.756 54.61C27.756 54.098 27.888 53.662 28.152 53.302C28.42 52.938 28.782 52.66 29.238 52.468C29.694 52.276 30.208 52.182 30.78 52.186C31.36 52.19 31.878 52.294 32.334 52.498C32.794 52.698 33.174 52.986 33.474 53.362C33.778 53.738 33.982 54.188 34.086 54.712L32.952 54.91C32.892 54.558 32.758 54.256 32.55 54.004C32.346 53.748 32.09 53.552 31.782 53.416C31.474 53.276 31.136 53.204 30.768 53.2C30.416 53.196 30.098 53.252 29.814 53.368C29.53 53.484 29.304 53.646 29.136 53.854C28.968 54.058 28.884 54.294 28.884 54.562C28.884 54.826 28.96 55.04 29.112 55.204C29.264 55.364 29.45 55.492 29.67 55.588C29.894 55.68 30.112 55.756 30.324 55.816L31.968 56.29C32.156 56.342 32.372 56.414 32.616 56.506C32.864 56.598 33.104 56.728 33.336 56.896C33.568 57.06 33.76 57.28 33.912 57.556C34.064 57.828 34.14 58.172 34.14 58.588C34.14 59.004 34.056 59.374 33.888 59.698C33.724 60.022 33.494 60.294 33.198 60.514C32.902 60.73 32.558 60.894 32.166 61.006C31.774 61.122 31.354 61.18 30.906 61.18ZM35.5186 53.374V52.27H36.5866V53.374H35.5186ZM35.5186 61V54.52H36.5866V61H35.5186ZM43.0009 61V57.754C43.0009 57.446 42.9729 57.15 42.9169 56.866C42.8649 56.582 42.7709 56.328 42.6349 56.104C42.5029 55.876 42.3229 55.696 42.0949 55.564C41.8709 55.432 41.5869 55.366 41.2429 55.366C40.9749 55.366 40.7309 55.412 40.5109 55.504C40.2949 55.592 40.1089 55.728 39.9529 55.912C39.7969 56.096 39.6749 56.328 39.5869 56.608C39.5029 56.884 39.4609 57.21 39.4609 57.586L38.7589 57.37C38.7589 56.742 38.8709 56.204 39.0949 55.756C39.3229 55.304 39.6409 54.958 40.0489 54.718C40.4609 54.474 40.9449 54.352 41.5009 54.352C41.9209 54.352 42.2789 54.418 42.5749 54.55C42.8709 54.682 43.1169 54.858 43.3129 55.078C43.5089 55.294 43.6629 55.538 43.7749 55.81C43.8869 56.078 43.9649 56.352 44.0089 56.632C44.0569 56.908 44.0809 57.17 44.0809 57.418V61H43.0009ZM38.3809 61V54.52H39.3409V56.254H39.4609V61H38.3809ZM48.2628 64.06C47.9228 64.06 47.5908 64.008 47.2668 63.904C46.9428 63.8 46.6448 63.642 46.3728 63.43C46.1048 63.222 45.8808 62.958 45.7008 62.638L46.6788 62.122C46.8388 62.438 47.0648 62.668 47.3568 62.812C47.6528 62.956 47.9568 63.028 48.2688 63.028C48.6808 63.028 49.0228 62.952 49.2948 62.8C49.5668 62.652 49.7668 62.43 49.8948 62.134C50.0268 61.838 50.0908 61.47 50.0868 61.03V59.26H50.2128V54.52H51.1608V61.042C51.1608 61.218 51.1548 61.388 51.1428 61.552C51.1348 61.716 51.1148 61.878 51.0828 62.038C50.9988 62.498 50.8328 62.876 50.5848 63.172C50.3368 63.472 50.0168 63.694 49.6248 63.838C49.2328 63.986 48.7788 64.06 48.2628 64.06ZM48.1848 61.18C47.5808 61.18 47.0628 61.03 46.6308 60.73C46.1988 60.426 45.8648 60.016 45.6288 59.5C45.3968 58.984 45.2808 58.402 45.2808 57.754C45.2808 57.106 45.3968 56.524 45.6288 56.008C45.8648 55.492 46.1988 55.086 46.6308 54.79C47.0628 54.49 47.5788 54.34 48.1788 54.34C48.7908 54.34 49.3048 54.488 49.7208 54.784C50.1368 55.08 50.4508 55.486 50.6628 56.002C50.8788 56.518 50.9868 57.102 50.9868 57.754C50.9868 58.398 50.8788 58.98 50.6628 59.5C50.4508 60.016 50.1368 60.426 49.7208 60.73C49.3048 61.03 48.7928 61.18 48.1848 61.18ZM48.3168 60.202C48.7528 60.202 49.1108 60.098 49.3908 59.89C49.6708 59.678 49.8768 59.388 50.0088 59.02C50.1448 58.648 50.2128 58.226 50.2128 57.754C50.2128 57.274 50.1448 56.852 50.0088 56.488C49.8768 56.12 49.6728 55.834 49.3968 55.63C49.1208 55.422 48.7708 55.318 48.3468 55.318C47.9068 55.318 47.5428 55.426 47.2548 55.642C46.9708 55.858 46.7588 56.15 46.6188 56.518C46.4828 56.886 46.4148 57.298 46.4148 57.754C46.4148 58.214 46.4848 58.63 46.6248 59.002C46.7648 59.37 46.9748 59.662 47.2548 59.878C47.5388 60.094 47.8928 60.202 48.3168 60.202ZM52.9561 61V52.18H54.0241V61H52.9561ZM58.6324 61.18C57.9964 61.18 57.4404 61.04 56.9644 60.76C56.4924 60.476 56.1244 60.082 55.8604 59.578C55.5964 59.07 55.4644 58.478 55.4644 57.802C55.4644 57.094 55.5944 56.482 55.8544 55.966C56.1144 55.446 56.4764 55.046 56.9404 54.766C57.4084 54.482 57.9564 54.34 58.5844 54.34C59.2364 54.34 59.7904 54.49 60.2464 54.79C60.7064 55.09 61.0504 55.518 61.2784 56.074C61.5104 56.63 61.6104 57.292 61.5784 58.06H60.4984V57.676C60.4864 56.88 60.3244 56.286 60.0124 55.894C59.7004 55.498 59.2364 55.3 58.6204 55.3C57.9604 55.3 57.4584 55.512 57.1144 55.936C56.7704 56.36 56.5984 56.968 56.5984 57.76C56.5984 58.524 56.7704 59.116 57.1144 59.536C57.4584 59.956 57.9484 60.166 58.5844 60.166C59.0124 60.166 59.3844 60.068 59.7004 59.872C60.0164 59.676 60.2644 59.394 60.4444 59.026L61.4704 59.38C61.2184 59.952 60.8384 60.396 60.3304 60.712C59.8264 61.024 59.2604 61.18 58.6324 61.18ZM56.2384 58.06V57.202H61.0264V58.06H56.2384ZM67.1586 61.18C66.6746 61.18 66.2686 61.092 65.9406 60.916C65.6166 60.736 65.3706 60.5 65.2026 60.208C65.0386 59.916 64.9566 59.596 64.9566 59.248C64.9566 58.908 65.0206 58.614 65.1486 58.366C65.2806 58.114 65.4646 57.906 65.7006 57.742C65.9366 57.574 66.2186 57.442 66.5466 57.346C66.8546 57.262 67.1986 57.19 67.5786 57.13C67.9626 57.066 68.3506 57.008 68.7426 56.956C69.1346 56.904 69.5006 56.854 69.8406 56.806L69.4566 57.028C69.4686 56.452 69.3526 56.026 69.1086 55.75C68.8686 55.474 68.4526 55.336 67.8606 55.336C67.4686 55.336 67.1246 55.426 66.8286 55.606C66.5366 55.782 66.3306 56.07 66.2106 56.47L65.1966 56.164C65.3526 55.596 65.6546 55.15 66.1026 54.826C66.5506 54.502 67.1406 54.34 67.8726 54.34C68.4606 54.34 68.9646 54.446 69.3846 54.658C69.8086 54.866 70.1126 55.182 70.2966 55.606C70.3886 55.806 70.4466 56.024 70.4706 56.26C70.4946 56.492 70.5066 56.736 70.5066 56.992V61H69.5586V59.446L69.7806 59.59C69.5366 60.114 69.1946 60.51 68.7546 60.778C68.3186 61.046 67.7866 61.18 67.1586 61.18ZM67.3206 60.286C67.7046 60.286 68.0366 60.218 68.3166 60.082C68.6006 59.942 68.8286 59.76 69.0006 59.536C69.1726 59.308 69.2846 59.06 69.3366 58.792C69.3966 58.592 69.4286 58.37 69.4326 58.126C69.4406 57.878 69.4446 57.688 69.4446 57.556L69.8166 57.718C69.4686 57.766 69.1266 57.812 68.7906 57.856C68.4546 57.9 68.1366 57.948 67.8366 58C67.5366 58.048 67.2666 58.106 67.0266 58.174C66.8506 58.23 66.6846 58.302 66.5286 58.39C66.3766 58.478 66.2526 58.592 66.1566 58.732C66.0646 58.868 66.0186 59.038 66.0186 59.242C66.0186 59.418 66.0626 59.586 66.1506 59.746C66.2426 59.906 66.3826 60.036 66.5706 60.136C66.7626 60.236 67.0126 60.286 67.3206 60.286ZM74.7966 61.18C74.1406 61.18 73.5826 61.034 73.1226 60.742C72.6666 60.446 72.3186 60.04 72.0786 59.524C71.8386 59.008 71.7146 58.42 71.7066 57.76C71.7146 57.084 71.8406 56.49 72.0846 55.978C72.3326 55.462 72.6866 55.06 73.1466 54.772C73.6066 54.484 74.1606 54.34 74.8086 54.34C75.4926 54.34 76.0806 54.508 76.5726 54.844C77.0686 55.18 77.4006 55.64 77.5686 56.224L76.5126 56.542C76.3766 56.166 76.1546 55.874 75.8466 55.666C75.5426 55.458 75.1926 55.354 74.7966 55.354C74.3526 55.354 73.9866 55.458 73.6986 55.666C73.4106 55.87 73.1966 56.154 73.0566 56.518C72.9166 56.878 72.8446 57.292 72.8406 57.76C72.8486 58.48 73.0146 59.062 73.3386 59.506C73.6666 59.946 74.1526 60.166 74.7966 60.166C75.2206 60.166 75.5726 60.07 75.8526 59.878C76.1326 59.682 76.3446 59.4 76.4886 59.032L77.5686 59.314C77.3446 59.918 76.9946 60.38 76.5186 60.7C76.0426 61.02 75.4686 61.18 74.7966 61.18ZM81.3473 61.18C80.6913 61.18 80.1333 61.034 79.6733 60.742C79.2173 60.446 78.8693 60.04 78.6293 59.524C78.3893 59.008 78.2653 58.42 78.2573 57.76C78.2653 57.084 78.3913 56.49 78.6353 55.978C78.8833 55.462 79.2373 55.06 79.6973 54.772C80.1573 54.484 80.7113 54.34 81.3593 54.34C82.0433 54.34 82.6313 54.508 83.1233 54.844C83.6193 55.18 83.9513 55.64 84.1193 56.224L83.0633 56.542C82.9273 56.166 82.7053 55.874 82.3973 55.666C82.0933 55.458 81.7433 55.354 81.3473 55.354C80.9033 55.354 80.5373 55.458 80.2493 55.666C79.9613 55.87 79.7473 56.154 79.6073 56.518C79.4673 56.878 79.3953 57.292 79.3913 57.76C79.3993 58.48 79.5653 59.062 79.8893 59.506C80.2173 59.946 80.7033 60.166 81.3473 60.166C81.7713 60.166 82.1233 60.07 82.4033 59.878C82.6833 59.682 82.8953 59.4 83.0393 59.032L84.1193 59.314C83.8953 59.918 83.5453 60.38 83.0693 60.7C82.5933 61.02 82.0193 61.18 81.3473 61.18ZM87.9281 61.18C87.2841 61.18 86.7281 61.034 86.2601 60.742C85.7961 60.45 85.4381 60.046 85.1861 59.53C84.9341 59.014 84.8081 58.422 84.8081 57.754C84.8081 57.074 84.9361 56.478 85.1921 55.966C85.4481 55.454 85.8101 55.056 86.2781 54.772C86.7461 54.484 87.2961 54.34 87.9281 54.34C88.5761 54.34 89.1341 54.486 89.6021 54.778C90.0701 55.066 90.4281 55.468 90.6761 55.984C90.9281 56.496 91.0541 57.086 91.0541 57.754C91.0541 58.43 90.9281 59.026 90.6761 59.542C90.4241 60.054 90.0641 60.456 89.5961 60.748C89.1281 61.036 88.5721 61.18 87.9281 61.18ZM87.9281 60.166C88.6001 60.166 89.1001 59.942 89.4281 59.494C89.7561 59.046 89.9201 58.466 89.9201 57.754C89.9201 57.022 89.7541 56.44 89.4221 56.008C89.0901 55.572 88.5921 55.354 87.9281 55.354C87.4761 55.354 87.1041 55.456 86.8121 55.66C86.5201 55.864 86.3021 56.146 86.1581 56.506C86.0141 56.866 85.9421 57.282 85.9421 57.754C85.9421 58.482 86.1101 59.066 86.4461 59.506C86.7821 59.946 87.2761 60.166 87.9281 60.166ZM94.8352 61.168C94.4192 61.168 94.0612 61.102 93.7612 60.97C93.4652 60.838 93.2192 60.662 93.0232 60.442C92.8272 60.222 92.6732 59.978 92.5612 59.71C92.4492 59.442 92.3692 59.168 92.3212 58.888C92.2772 58.608 92.2552 58.346 92.2552 58.102V54.52H93.3352V57.766C93.3352 58.07 93.3632 58.364 93.4192 58.648C93.4752 58.932 93.5692 59.188 93.7012 59.416C93.8372 59.644 94.0172 59.824 94.2412 59.956C94.4692 60.088 94.7532 60.154 95.0932 60.154C95.3612 60.154 95.6052 60.108 95.8252 60.016C96.0452 59.924 96.2332 59.788 96.3892 59.608C96.5452 59.424 96.6652 59.192 96.7492 58.912C96.8332 58.632 96.8752 58.306 96.8752 57.934L97.5772 58.15C97.5772 58.774 97.4632 59.312 97.2352 59.764C97.0112 60.216 96.6932 60.564 96.2812 60.808C95.8732 61.048 95.3912 61.168 94.8352 61.168ZM96.9952 61V59.266H96.8752V54.52H97.9492V61H96.9952ZM104.243 61V57.754C104.243 57.446 104.215 57.15 104.159 56.866C104.107 56.582 104.013 56.328 103.877 56.104C103.745 55.876 103.565 55.696 103.337 55.564C103.113 55.432 102.829 55.366 102.485 55.366C102.217 55.366 101.973 55.412 101.753 55.504C101.537 55.592 101.351 55.728 101.195 55.912C101.039 56.096 100.917 56.328 100.829 56.608C100.745 56.884 100.703 57.21 100.703 57.586L100.001 57.37C100.001 56.742 100.113 56.204 100.337 55.756C100.565 55.304 100.883 54.958 101.291 54.718C101.703 54.474 102.187 54.352 102.743 54.352C103.163 54.352 103.521 54.418 103.817 54.55C104.113 54.682 104.359 54.858 104.555 55.078C104.751 55.294 104.905 55.538 105.017 55.81C105.129 56.078 105.207 56.352 105.251 56.632C105.299 56.908 105.323 57.17 105.323 57.418V61H104.243ZM99.6231 61V54.52H100.583V56.254H100.703V61H99.6231ZM110.501 61C110.117 61.076 109.737 61.106 109.361 61.09C108.989 61.078 108.657 61.004 108.365 60.868C108.073 60.728 107.851 60.512 107.699 60.22C107.571 59.964 107.501 59.706 107.489 59.446C107.481 59.182 107.477 58.884 107.477 58.552V52.72H108.545V58.504C108.545 58.768 108.547 58.994 108.551 59.182C108.559 59.37 108.601 59.532 108.677 59.668C108.821 59.924 109.049 60.074 109.361 60.118C109.677 60.162 110.057 60.15 110.501 60.082V61ZM106.163 55.402V54.52H110.501V55.402H106.163ZM113.659 61.18C113.175 61.18 112.769 61.092 112.441 60.916C112.117 60.736 111.871 60.5 111.703 60.208C111.539 59.916 111.457 59.596 111.457 59.248C111.457 58.908 111.521 58.614 111.649 58.366C111.781 58.114 111.965 57.906 112.201 57.742C112.437 57.574 112.719 57.442 113.047 57.346C113.355 57.262 113.699 57.19 114.079 57.13C114.463 57.066 114.851 57.008 115.243 56.956C115.635 56.904 116.001 56.854 116.341 56.806L115.957 57.028C115.969 56.452 115.853 56.026 115.609 55.75C115.369 55.474 114.953 55.336 114.361 55.336C113.969 55.336 113.625 55.426 113.329 55.606C113.037 55.782 112.831 56.07 112.711 56.47L111.697 56.164C111.853 55.596 112.155 55.15 112.603 54.826C113.051 54.502 113.641 54.34 114.373 54.34C114.961 54.34 115.465 54.446 115.885 54.658C116.309 54.866 116.613 55.182 116.797 55.606C116.889 55.806 116.947 56.024 116.971 56.26C116.995 56.492 117.007 56.736 117.007 56.992V61H116.059V59.446L116.281 59.59C116.037 60.114 115.695 60.51 115.255 60.778C114.819 61.046 114.287 61.18 113.659 61.18ZM113.821 60.286C114.205 60.286 114.537 60.218 114.817 60.082C115.101 59.942 115.329 59.76 115.501 59.536C115.673 59.308 115.785 59.06 115.837 58.792C115.897 58.592 115.929 58.37 115.933 58.126C115.941 57.878 115.945 57.688 115.945 57.556L116.317 57.718C115.969 57.766 115.627 57.812 115.291 57.856C114.955 57.9 114.637 57.948 114.337 58C114.037 58.048 113.767 58.106 113.527 58.174C113.351 58.23 113.185 58.302 113.029 58.39C112.877 58.478 112.753 58.592 112.657 58.732C112.565 58.868 112.519 59.038 112.519 59.242C112.519 59.418 112.563 59.586 112.651 59.746C112.743 59.906 112.883 60.036 113.071 60.136C113.263 60.236 113.513 60.286 113.821 60.286ZM121.543 61.18C120.935 61.18 120.423 61.03 120.007 60.73C119.591 60.426 119.275 60.016 119.059 59.5C118.847 58.98 118.741 58.398 118.741 57.754C118.741 57.102 118.847 56.518 119.059 56.002C119.275 55.486 119.591 55.08 120.007 54.784C120.427 54.488 120.941 54.34 121.549 54.34C122.149 54.34 122.665 54.49 123.097 54.79C123.533 55.086 123.867 55.492 124.099 56.008C124.331 56.524 124.447 57.106 124.447 57.754C124.447 58.402 124.331 58.984 124.099 59.5C123.867 60.016 123.533 60.426 123.097 60.73C122.665 61.03 122.147 61.18 121.543 61.18ZM118.561 61V52.36H119.635V56.23H119.515V61H118.561ZM121.411 60.202C121.839 60.202 122.193 60.094 122.473 59.878C122.753 59.662 122.963 59.37 123.103 59.002C123.243 58.63 123.313 58.214 123.313 57.754C123.313 57.298 123.243 56.886 123.103 56.518C122.967 56.15 122.755 55.858 122.467 55.642C122.183 55.426 121.821 55.318 121.381 55.318C120.961 55.318 120.613 55.422 120.337 55.63C120.061 55.834 119.855 56.12 119.719 56.488C119.583 56.852 119.515 57.274 119.515 57.754C119.515 58.226 119.581 58.648 119.713 59.02C119.849 59.388 120.057 59.678 120.337 59.89C120.617 60.098 120.975 60.202 121.411 60.202ZM125.882 53.374V52.27H126.95V53.374H125.882ZM125.882 61V54.52H126.95V61H125.882ZM128.87 61V52.18H129.938V61H128.87ZM131.858 53.374V52.27H132.926V53.374H131.858ZM131.858 61V54.52H132.926V61H131.858ZM138.345 61C137.961 61.076 137.581 61.106 137.205 61.09C136.833 61.078 136.501 61.004 136.209 60.868C135.917 60.728 135.695 60.512 135.543 60.22C135.415 59.964 135.345 59.706 135.333 59.446C135.325 59.182 135.321 58.884 135.321 58.552V52.72H136.389V58.504C136.389 58.768 136.391 58.994 136.395 59.182C136.403 59.37 136.445 59.532 136.521 59.668C136.665 59.924 136.893 60.074 137.205 60.118C137.521 60.162 137.901 60.15 138.345 60.082V61ZM134.007 55.402V54.52H138.345V55.402H134.007ZM140.385 63.88L141.639 60.472L141.657 61.48L138.825 54.52H139.947L142.167 60.118H141.783L143.865 54.52H144.951L141.423 63.88H140.385Z" fill="#040213"/>
<rect x="214.5" y="72" width="143" height="32" rx="8" fill="#F7F7F8"/>
<rect x="215" y="72.5" width="142" height="31" rx="7.5" stroke="#040213" stroke-opacity="0.1"/>
<path d="M226.406 93.18C225.794 93.18 225.242 93.076 224.75 92.868C224.262 92.66 223.858 92.364 223.538 91.98C223.222 91.592 223.016 91.134 222.92 90.606L224.024 90.432C224.164 90.976 224.454 91.402 224.894 91.71C225.338 92.014 225.86 92.166 226.46 92.166C226.848 92.166 227.198 92.106 227.51 91.986C227.826 91.862 228.076 91.686 228.26 91.458C228.444 91.23 228.536 90.96 228.536 90.648C228.536 90.456 228.502 90.292 228.434 90.156C228.37 90.016 228.28 89.898 228.164 89.802C228.052 89.702 227.924 89.618 227.78 89.55C227.636 89.482 227.486 89.426 227.33 89.382L225.128 88.728C224.888 88.656 224.656 88.566 224.432 88.458C224.208 88.346 224.008 88.208 223.832 88.044C223.656 87.876 223.516 87.676 223.412 87.444C223.308 87.208 223.256 86.93 223.256 86.61C223.256 86.098 223.388 85.662 223.652 85.302C223.92 84.938 224.282 84.66 224.738 84.468C225.194 84.276 225.708 84.182 226.28 84.186C226.86 84.19 227.378 84.294 227.834 84.498C228.294 84.698 228.674 84.986 228.974 85.362C229.278 85.738 229.482 86.188 229.586 86.712L228.452 86.91C228.392 86.558 228.258 86.256 228.05 86.004C227.846 85.748 227.59 85.552 227.282 85.416C226.974 85.276 226.636 85.204 226.268 85.2C225.916 85.196 225.598 85.252 225.314 85.368C225.03 85.484 224.804 85.646 224.636 85.854C224.468 86.058 224.384 86.294 224.384 86.562C224.384 86.826 224.46 87.04 224.612 87.204C224.764 87.364 224.95 87.492 225.17 87.588C225.394 87.68 225.612 87.756 225.824 87.816L227.468 88.29C227.656 88.342 227.872 88.414 228.116 88.506C228.364 88.598 228.604 88.728 228.836 88.896C229.068 89.06 229.26 89.28 229.412 89.556C229.564 89.828 229.64 90.172 229.64 90.588C229.64 91.004 229.556 91.374 229.388 91.698C229.224 92.022 228.994 92.294 228.698 92.514C228.402 92.73 228.058 92.894 227.666 93.006C227.274 93.122 226.854 93.18 226.406 93.18ZM233.875 93.18C233.267 93.18 232.755 93.03 232.339 92.73C231.923 92.426 231.607 92.016 231.391 91.5C231.179 90.98 231.073 90.398 231.073 89.754C231.073 89.102 231.179 88.518 231.391 88.002C231.607 87.486 231.923 87.08 232.339 86.784C232.759 86.488 233.273 86.34 233.881 86.34C234.481 86.34 234.997 86.49 235.429 86.79C235.865 87.086 236.199 87.492 236.431 88.008C236.663 88.524 236.779 89.106 236.779 89.754C236.779 90.402 236.663 90.984 236.431 91.5C236.199 92.016 235.865 92.426 235.429 92.73C234.997 93.03 234.479 93.18 233.875 93.18ZM230.893 95.88V86.52H231.847V91.29H231.967V95.88H230.893ZM233.743 92.202C234.171 92.202 234.525 92.094 234.805 91.878C235.085 91.662 235.295 91.37 235.435 91.002C235.575 90.63 235.645 90.214 235.645 89.754C235.645 89.298 235.575 88.886 235.435 88.518C235.299 88.15 235.087 87.858 234.799 87.642C234.515 87.426 234.153 87.318 233.713 87.318C233.293 87.318 232.945 87.422 232.669 87.63C232.393 87.834 232.187 88.12 232.051 88.488C231.915 88.852 231.847 89.274 231.847 89.754C231.847 90.226 231.913 90.648 232.045 91.02C232.181 91.388 232.389 91.678 232.669 91.89C232.949 92.098 233.307 92.202 233.743 92.202ZM240.902 93.18C240.266 93.18 239.71 93.04 239.234 92.76C238.762 92.476 238.394 92.082 238.13 91.578C237.866 91.07 237.734 90.478 237.734 89.802C237.734 89.094 237.864 88.482 238.124 87.966C238.384 87.446 238.746 87.046 239.21 86.766C239.678 86.482 240.226 86.34 240.854 86.34C241.506 86.34 242.06 86.49 242.516 86.79C242.976 87.09 243.32 87.518 243.548 88.074C243.78 88.63 243.88 89.292 243.848 90.06H242.768V89.676C242.756 88.88 242.594 88.286 242.282 87.894C241.97 87.498 241.506 87.3 240.89 87.3C240.23 87.3 239.728 87.512 239.384 87.936C239.04 88.36 238.868 88.968 238.868 89.76C238.868 90.524 239.04 91.116 239.384 91.536C239.728 91.956 240.218 92.166 240.854 92.166C241.282 92.166 241.654 92.068 241.97 91.872C242.286 91.676 242.534 91.394 242.714 91.026L243.74 91.38C243.488 91.952 243.108 92.396 242.6 92.712C242.096 93.024 241.53 93.18 240.902 93.18ZM238.508 90.06V89.202H243.296V90.06H238.508ZM247.914 93.18C247.258 93.18 246.7 93.034 246.24 92.742C245.784 92.446 245.436 92.04 245.196 91.524C244.956 91.008 244.832 90.42 244.824 89.76C244.832 89.084 244.958 88.49 245.202 87.978C245.45 87.462 245.804 87.06 246.264 86.772C246.724 86.484 247.278 86.34 247.926 86.34C248.61 86.34 249.198 86.508 249.69 86.844C250.186 87.18 250.518 87.64 250.686 88.224L249.63 88.542C249.494 88.166 249.272 87.874 248.964 87.666C248.66 87.458 248.31 87.354 247.914 87.354C247.47 87.354 247.104 87.458 246.816 87.666C246.528 87.87 246.314 88.154 246.174 88.518C246.034 88.878 245.962 89.292 245.958 89.76C245.966 90.48 246.132 91.062 246.456 91.506C246.784 91.946 247.27 92.166 247.914 92.166C248.338 92.166 248.69 92.07 248.97 91.878C249.25 91.682 249.462 91.4 249.606 91.032L250.686 91.314C250.462 91.918 250.112 92.38 249.636 92.7C249.16 93.02 248.586 93.18 247.914 93.18ZM251.855 85.374V84.27H252.923V85.374H251.855ZM251.855 93V86.52H252.923V93H251.855ZM256.565 93.18C256.081 93.18 255.675 93.092 255.347 92.916C255.023 92.736 254.777 92.5 254.609 92.208C254.445 91.916 254.363 91.596 254.363 91.248C254.363 90.908 254.427 90.614 254.555 90.366C254.687 90.114 254.871 89.906 255.107 89.742C255.343 89.574 255.625 89.442 255.953 89.346C256.261 89.262 256.605 89.19 256.985 89.13C257.369 89.066 257.757 89.008 258.149 88.956C258.541 88.904 258.907 88.854 259.247 88.806L258.863 89.028C258.875 88.452 258.759 88.026 258.515 87.75C258.275 87.474 257.859 87.336 257.267 87.336C256.875 87.336 256.531 87.426 256.235 87.606C255.943 87.782 255.737 88.07 255.617 88.47L254.603 88.164C254.759 87.596 255.061 87.15 255.509 86.826C255.957 86.502 256.547 86.34 257.279 86.34C257.867 86.34 258.371 86.446 258.791 86.658C259.215 86.866 259.519 87.182 259.703 87.606C259.795 87.806 259.853 88.024 259.877 88.26C259.901 88.492 259.913 88.736 259.913 88.992V93H258.965V91.446L259.187 91.59C258.943 92.114 258.601 92.51 258.161 92.778C257.725 93.046 257.193 93.18 256.565 93.18ZM256.727 92.286C257.111 92.286 257.443 92.218 257.723 92.082C258.007 91.942 258.235 91.76 258.407 91.536C258.579 91.308 258.691 91.06 258.743 90.792C258.803 90.592 258.835 90.37 258.839 90.126C258.847 89.878 258.851 89.688 258.851 89.556L259.223 89.718C258.875 89.766 258.533 89.812 258.197 89.856C257.861 89.9 257.543 89.948 257.243 90C256.943 90.048 256.673 90.106 256.433 90.174C256.257 90.23 256.091 90.302 255.935 90.39C255.783 90.478 255.659 90.592 255.563 90.732C255.471 90.868 255.425 91.038 255.425 91.242C255.425 91.418 255.469 91.586 255.557 91.746C255.649 91.906 255.789 92.036 255.977 92.136C256.169 92.236 256.419 92.286 256.727 92.286ZM261.593 93V84.18H262.661V93H261.593ZM264.581 85.374V84.27H265.649V85.374H264.581ZM264.581 93V86.52H265.649V93H264.581ZM269.897 93.174C269.125 93.174 268.491 93.006 267.995 92.67C267.503 92.33 267.201 91.856 267.089 91.248L268.181 91.074C268.269 91.426 268.471 91.706 268.787 91.914C269.103 92.118 269.495 92.22 269.963 92.22C270.407 92.22 270.755 92.128 271.007 91.944C271.259 91.76 271.385 91.51 271.385 91.194C271.385 91.01 271.343 90.862 271.259 90.75C271.175 90.634 271.001 90.526 270.737 90.426C270.477 90.326 270.083 90.206 269.555 90.066C268.983 89.914 268.533 89.756 268.205 89.592C267.877 89.428 267.643 89.238 267.503 89.022C267.363 88.806 267.293 88.544 267.293 88.236C267.293 87.856 267.397 87.524 267.605 87.24C267.813 86.952 268.103 86.73 268.475 86.574C268.851 86.418 269.287 86.34 269.783 86.34C270.275 86.34 270.715 86.418 271.103 86.574C271.491 86.73 271.803 86.952 272.039 87.24C272.279 87.524 272.421 87.856 272.465 88.236L271.373 88.434C271.321 88.086 271.153 87.812 270.869 87.612C270.589 87.412 270.227 87.306 269.783 87.294C269.363 87.278 269.021 87.352 268.757 87.516C268.497 87.68 268.367 87.902 268.367 88.182C268.367 88.338 268.415 88.472 268.511 88.584C268.611 88.696 268.793 88.802 269.057 88.902C269.325 89.002 269.713 89.116 270.221 89.244C270.793 89.388 271.243 89.546 271.571 89.718C271.903 89.886 272.139 90.086 272.279 90.318C272.419 90.546 272.489 90.828 272.489 91.164C272.489 91.788 272.259 92.28 271.799 92.64C271.339 92.996 270.705 93.174 269.897 93.174ZM277.431 93C277.047 93.076 276.667 93.106 276.291 93.09C275.919 93.078 275.587 93.004 275.295 92.868C275.003 92.728 274.781 92.512 274.629 92.22C274.501 91.964 274.431 91.706 274.419 91.446C274.411 91.182 274.407 90.884 274.407 90.552V84.72H275.475V90.504C275.475 90.768 275.477 90.994 275.481 91.182C275.489 91.37 275.531 91.532 275.607 91.668C275.751 91.924 275.979 92.074 276.291 92.118C276.607 92.162 276.987 92.15 277.431 92.082V93ZM273.093 87.402V86.52H277.431V87.402H273.093ZM281.194 93.174C280.422 93.174 279.788 93.006 279.292 92.67C278.8 92.33 278.498 91.856 278.386 91.248L279.478 91.074C279.566 91.426 279.768 91.706 280.084 91.914C280.4 92.118 280.792 92.22 281.26 92.22C281.704 92.22 282.052 92.128 282.304 91.944C282.556 91.76 282.682 91.51 282.682 91.194C282.682 91.01 282.64 90.862 282.556 90.75C282.472 90.634 282.298 90.526 282.034 90.426C281.774 90.326 281.38 90.206 280.852 90.066C280.28 89.914 279.83 89.756 279.502 89.592C279.174 89.428 278.94 89.238 278.8 89.022C278.66 88.806 278.59 88.544 278.59 88.236C278.59 87.856 278.694 87.524 278.902 87.24C279.11 86.952 279.4 86.73 279.772 86.574C280.148 86.418 280.584 86.34 281.08 86.34C281.572 86.34 282.012 86.418 282.4 86.574C282.788 86.73 283.1 86.952 283.336 87.24C283.576 87.524 283.718 87.856 283.762 88.236L282.67 88.434C282.618 88.086 282.45 87.812 282.166 87.612C281.886 87.412 281.524 87.306 281.08 87.294C280.66 87.278 280.318 87.352 280.054 87.516C279.794 87.68 279.664 87.902 279.664 88.182C279.664 88.338 279.712 88.472 279.808 88.584C279.908 88.696 280.09 88.802 280.354 88.902C280.622 89.002 281.01 89.116 281.518 89.244C282.09 89.388 282.54 89.546 282.868 89.718C283.2 89.886 283.436 90.086 283.576 90.318C283.716 90.546 283.786 90.828 283.786 91.164C283.786 91.788 283.556 92.28 283.096 92.64C282.636 92.996 282.002 93.174 281.194 93.174ZM290.272 93.18C289.628 93.18 289.072 93.034 288.604 92.742C288.14 92.45 287.782 92.046 287.53 91.53C287.278 91.014 287.152 90.422 287.152 89.754C287.152 89.074 287.28 88.478 287.536 87.966C287.792 87.454 288.154 87.056 288.622 86.772C289.09 86.484 289.64 86.34 290.272 86.34C290.92 86.34 291.478 86.486 291.946 86.778C292.414 87.066 292.772 87.468 293.02 87.984C293.272 88.496 293.398 89.086 293.398 89.754C293.398 90.43 293.272 91.026 293.02 91.542C292.768 92.054 292.408 92.456 291.94 92.748C291.472 93.036 290.916 93.18 290.272 93.18ZM290.272 92.166C290.944 92.166 291.444 91.942 291.772 91.494C292.1 91.046 292.264 90.466 292.264 89.754C292.264 89.022 292.098 88.44 291.766 88.008C291.434 87.572 290.936 87.354 290.272 87.354C289.82 87.354 289.448 87.456 289.156 87.66C288.864 87.864 288.646 88.146 288.502 88.506C288.358 88.866 288.286 89.282 288.286 89.754C288.286 90.482 288.454 91.066 288.79 91.506C289.126 91.946 289.62 92.166 290.272 92.166ZM299.333 93V89.754C299.333 89.446 299.305 89.15 299.249 88.866C299.197 88.582 299.103 88.328 298.967 88.104C298.835 87.876 298.655 87.696 298.427 87.564C298.203 87.432 297.919 87.366 297.575 87.366C297.307 87.366 297.063 87.412 296.843 87.504C296.627 87.592 296.441 87.728 296.285 87.912C296.129 88.096 296.007 88.328 295.919 88.608C295.835 88.884 295.793 89.21 295.793 89.586L295.091 89.37C295.091 88.742 295.203 88.204 295.427 87.756C295.655 87.304 295.973 86.958 296.381 86.718C296.793 86.474 297.277 86.352 297.833 86.352C298.253 86.352 298.611 86.418 298.907 86.55C299.203 86.682 299.449 86.858 299.645 87.078C299.841 87.294 299.995 87.538 300.107 87.81C300.219 88.078 300.297 88.352 300.341 88.632C300.389 88.908 300.413 89.17 300.413 89.418V93H299.333ZM294.713 93V86.52H295.673V88.254H295.793V93H294.713ZM306.919 93.18C306.315 93.18 305.797 93.03 305.365 92.73C304.933 92.426 304.599 92.016 304.363 91.5C304.131 90.984 304.015 90.402 304.015 89.754C304.015 89.106 304.131 88.524 304.363 88.008C304.599 87.492 304.933 87.086 305.365 86.79C305.797 86.49 306.313 86.34 306.913 86.34C307.525 86.34 308.039 86.488 308.455 86.784C308.871 87.08 309.185 87.486 309.397 88.002C309.613 88.518 309.721 89.102 309.721 89.754C309.721 90.398 309.613 90.98 309.397 91.5C309.185 92.016 308.871 92.426 308.455 92.73C308.039 93.03 307.527 93.18 306.919 93.18ZM307.051 92.202C307.487 92.202 307.845 92.098 308.125 91.89C308.405 91.678 308.611 91.388 308.743 91.02C308.879 90.648 308.947 90.226 308.947 89.754C308.947 89.274 308.879 88.852 308.743 88.488C308.611 88.12 308.407 87.834 308.131 87.63C307.855 87.422 307.505 87.318 307.081 87.318C306.641 87.318 306.277 87.426 305.989 87.642C305.705 87.858 305.493 88.15 305.353 88.518C305.217 88.886 305.149 89.298 305.149 89.754C305.149 90.214 305.219 90.63 305.359 91.002C305.499 91.37 305.709 91.662 305.989 91.878C306.273 92.094 306.627 92.202 307.051 92.202ZM308.947 93V88.23H308.827V84.36H309.901V93H308.947ZM314.39 93.18C313.754 93.18 313.198 93.04 312.722 92.76C312.25 92.476 311.882 92.082 311.618 91.578C311.354 91.07 311.222 90.478 311.222 89.802C311.222 89.094 311.352 88.482 311.612 87.966C311.872 87.446 312.234 87.046 312.698 86.766C313.166 86.482 313.714 86.34 314.342 86.34C314.994 86.34 315.548 86.49 316.004 86.79C316.464 87.09 316.808 87.518 317.036 88.074C317.268 88.63 317.368 89.292 317.336 90.06H316.256V89.676C316.244 88.88 316.082 88.286 315.77 87.894C315.458 87.498 314.994 87.3 314.378 87.3C313.718 87.3 313.216 87.512 312.872 87.936C312.528 88.36 312.356 88.968 312.356 89.76C312.356 90.524 312.528 91.116 312.872 91.536C313.216 91.956 313.706 92.166 314.342 92.166C314.77 92.166 315.142 92.068 315.458 91.872C315.774 91.676 316.022 91.394 316.202 91.026L317.228 91.38C316.976 91.952 316.596 92.396 316.088 92.712C315.584 93.024 315.018 93.18 314.39 93.18ZM311.996 90.06V89.202H316.784V90.06H311.996ZM326.242 93L326.248 88.854C326.248 88.37 326.118 87.992 325.858 87.72C325.602 87.444 325.268 87.306 324.856 87.306C324.616 87.306 324.388 87.362 324.172 87.474C323.956 87.582 323.78 87.754 323.644 87.99C323.508 88.222 323.44 88.52 323.44 88.884L322.876 88.656C322.868 88.196 322.962 87.794 323.158 87.45C323.358 87.102 323.63 86.832 323.974 86.64C324.318 86.448 324.706 86.352 325.138 86.352C325.814 86.352 326.346 86.558 326.734 86.97C327.122 87.378 327.316 87.928 327.316 88.62L327.31 93H326.242ZM318.49 93V86.52H319.444V88.254H319.564V93H318.49ZM322.372 93L322.378 88.896C322.378 88.4 322.25 88.012 321.994 87.732C321.738 87.448 321.398 87.306 320.974 87.306C320.554 87.306 320.214 87.45 319.954 87.738C319.694 88.026 319.564 88.408 319.564 88.884L319 88.548C319 88.128 319.1 87.752 319.3 87.42C319.5 87.088 319.772 86.828 320.116 86.64C320.46 86.448 320.85 86.352 321.286 86.352C321.722 86.352 322.102 86.444 322.426 86.628C322.75 86.812 323 87.076 323.176 87.42C323.352 87.76 323.44 88.166 323.44 88.638L323.434 93H322.372ZM330.721 93.18C330.237 93.18 329.831 93.092 329.503 92.916C329.179 92.736 328.933 92.5 328.765 92.208C328.601 91.916 328.519 91.596 328.519 91.248C328.519 90.908 328.583 90.614 328.711 90.366C328.843 90.114 329.027 89.906 329.263 89.742C329.499 89.574 329.781 89.442 330.109 89.346C330.417 89.262 330.761 89.19 331.141 89.13C331.525 89.066 331.913 89.008 332.305 88.956C332.697 88.904 333.063 88.854 333.403 88.806L333.019 89.028C333.031 88.452 332.915 88.026 332.671 87.75C332.431 87.474 332.015 87.336 331.423 87.336C331.031 87.336 330.687 87.426 330.391 87.606C330.099 87.782 329.893 88.07 329.773 88.47L328.759 88.164C328.915 87.596 329.217 87.15 329.665 86.826C330.113 86.502 330.703 86.34 331.435 86.34C332.023 86.34 332.527 86.446 332.947 86.658C333.371 86.866 333.675 87.182 333.859 87.606C333.951 87.806 334.009 88.024 334.033 88.26C334.057 88.492 334.069 88.736 334.069 88.992V93H333.121V91.446L333.343 91.59C333.099 92.114 332.757 92.51 332.317 92.778C331.881 93.046 331.349 93.18 330.721 93.18ZM330.883 92.286C331.267 92.286 331.599 92.218 331.879 92.082C332.163 91.942 332.391 91.76 332.563 91.536C332.735 91.308 332.847 91.06 332.899 90.792C332.959 90.592 332.991 90.37 332.995 90.126C333.003 89.878 333.007 89.688 333.007 89.556L333.379 89.718C333.031 89.766 332.689 89.812 332.353 89.856C332.017 89.9 331.699 89.948 331.399 90C331.099 90.048 330.829 90.106 330.589 90.174C330.413 90.23 330.247 90.302 330.091 90.39C329.939 90.478 329.815 90.592 329.719 90.732C329.627 90.868 329.581 91.038 329.581 91.242C329.581 91.418 329.625 91.586 329.713 91.746C329.805 91.906 329.945 92.036 330.133 92.136C330.325 92.236 330.575 92.286 330.883 92.286ZM340.243 93V89.754C340.243 89.446 340.215 89.15 340.159 88.866C340.107 88.582 340.013 88.328 339.877 88.104C339.745 87.876 339.565 87.696 339.337 87.564C339.113 87.432 338.829 87.366 338.485 87.366C338.217 87.366 337.973 87.412 337.753 87.504C337.537 87.592 337.351 87.728 337.195 87.912C337.039 88.096 336.917 88.328 336.829 88.608C336.745 88.884 336.703 89.21 336.703 89.586L336.001 89.37C336.001 88.742 336.113 88.204 336.337 87.756C336.565 87.304 336.883 86.958 337.291 86.718C337.703 86.474 338.187 86.352 338.743 86.352C339.163 86.352 339.521 86.418 339.817 86.55C340.113 86.682 340.359 86.858 340.555 87.078C340.751 87.294 340.905 87.538 341.017 87.81C341.129 88.078 341.207 88.352 341.251 88.632C341.299 88.908 341.323 89.17 341.323 89.418V93H340.243ZM335.623 93V86.52H336.583V88.254H336.703V93H335.623ZM345.368 93.18C344.764 93.18 344.246 93.03 343.814 92.73C343.382 92.426 343.048 92.016 342.812 91.5C342.58 90.984 342.464 90.402 342.464 89.754C342.464 89.106 342.58 88.524 342.812 88.008C343.048 87.492 343.382 87.086 343.814 86.79C344.246 86.49 344.762 86.34 345.362 86.34C345.974 86.34 346.488 86.488 346.904 86.784C347.32 87.08 347.634 87.486 347.846 88.002C348.062 88.518 348.17 89.102 348.17 89.754C348.17 90.398 348.062 90.98 347.846 91.5C347.634 92.016 347.32 92.426 346.904 92.73C346.488 93.03 345.976 93.18 345.368 93.18ZM345.5 92.202C345.936 92.202 346.294 92.098 346.574 91.89C346.854 91.678 347.06 91.388 347.192 91.02C347.328 90.648 347.396 90.226 347.396 89.754C347.396 89.274 347.328 88.852 347.192 88.488C347.06 88.12 346.856 87.834 346.58 87.63C346.304 87.422 345.954 87.318 345.53 87.318C345.09 87.318 344.726 87.426 344.438 87.642C344.154 87.858 343.942 88.15 343.802 88.518C343.666 88.886 343.598 89.298 343.598 89.754C343.598 90.214 343.668 90.63 343.808 91.002C343.948 91.37 344.158 91.662 344.438 91.878C344.722 92.094 345.076 92.202 345.5 92.202ZM347.396 93V88.23H347.276V84.36H348.35V93H347.396Z" fill="#040213"/>
<rect x="78" y="205" width="132" height="32" rx="8" fill="#F7F7F8"/>
<rect x="78.5" y="205.5" width="131" height="31" rx="7.5" stroke="#040213" stroke-opacity="0.1"/>
<path d="M86.84 226V217.36H87.812L91.076 224.242L94.322 217.36H95.306V225.994H94.292V219.706L91.358 226H90.788L87.854 219.706V226H86.84ZM99.7964 226.18C99.1604 226.18 98.6044 226.04 98.1284 225.76C97.6564 225.476 97.2884 225.082 97.0244 224.578C96.7604 224.07 96.6284 223.478 96.6284 222.802C96.6284 222.094 96.7584 221.482 97.0184 220.966C97.2784 220.446 97.6404 220.046 98.1044 219.766C98.5724 219.482 99.1204 219.34 99.7484 219.34C100.4 219.34 100.954 219.49 101.41 219.79C101.87 220.09 102.214 220.518 102.442 221.074C102.674 221.63 102.774 222.292 102.742 223.06H101.662V222.676C101.65 221.88 101.488 221.286 101.176 220.894C100.864 220.498 100.4 220.3 99.7844 220.3C99.1244 220.3 98.6224 220.512 98.2784 220.936C97.9344 221.36 97.7624 221.968 97.7624 222.76C97.7624 223.524 97.9344 224.116 98.2784 224.536C98.6224 224.956 99.1124 225.166 99.7484 225.166C100.176 225.166 100.548 225.068 100.864 224.872C101.18 224.676 101.428 224.394 101.608 224.026L102.634 224.38C102.382 224.952 102.002 225.396 101.494 225.712C100.99 226.024 100.424 226.18 99.7964 226.18ZM97.4024 223.06V222.202H102.19V223.06H97.4024ZM105.803 226.18C105.319 226.18 104.913 226.092 104.585 225.916C104.261 225.736 104.015 225.5 103.847 225.208C103.683 224.916 103.601 224.596 103.601 224.248C103.601 223.908 103.665 223.614 103.793 223.366C103.925 223.114 104.109 222.906 104.345 222.742C104.581 222.574 104.863 222.442 105.191 222.346C105.499 222.262 105.843 222.19 106.223 222.13C106.607 222.066 106.995 222.008 107.387 221.956C107.779 221.904 108.145 221.854 108.485 221.806L108.101 222.028C108.113 221.452 107.997 221.026 107.753 220.75C107.513 220.474 107.097 220.336 106.505 220.336C106.113 220.336 105.769 220.426 105.473 220.606C105.181 220.782 104.975 221.07 104.855 221.47L103.841 221.164C103.997 220.596 104.299 220.15 104.747 219.826C105.195 219.502 105.785 219.34 106.517 219.34C107.105 219.34 107.609 219.446 108.029 219.658C108.453 219.866 108.757 220.182 108.941 220.606C109.033 220.806 109.091 221.024 109.115 221.26C109.139 221.492 109.151 221.736 109.151 221.992V226H108.203V224.446L108.425 224.59C108.181 225.114 107.839 225.51 107.399 225.778C106.963 226.046 106.431 226.18 105.803 226.18ZM105.965 225.286C106.349 225.286 106.681 225.218 106.961 225.082C107.245 224.942 107.473 224.76 107.645 224.536C107.817 224.308 107.929 224.06 107.981 223.792C108.041 223.592 108.073 223.37 108.077 223.126C108.085 222.878 108.089 222.688 108.089 222.556L108.461 222.718C108.113 222.766 107.771 222.812 107.435 222.856C107.099 222.9 106.781 222.948 106.481 223C106.181 223.048 105.911 223.106 105.671 223.174C105.495 223.23 105.329 223.302 105.173 223.39C105.021 223.478 104.897 223.592 104.801 223.732C104.709 223.868 104.663 224.038 104.663 224.242C104.663 224.418 104.707 224.586 104.795 224.746C104.887 224.906 105.027 225.036 105.215 225.136C105.407 225.236 105.657 225.286 105.965 225.286ZM113.159 226.174C112.387 226.174 111.753 226.006 111.257 225.67C110.765 225.33 110.463 224.856 110.351 224.248L111.443 224.074C111.531 224.426 111.733 224.706 112.049 224.914C112.365 225.118 112.757 225.22 113.225 225.22C113.669 225.22 114.017 225.128 114.269 224.944C114.521 224.76 114.647 224.51 114.647 224.194C114.647 224.01 114.605 223.862 114.521 223.75C114.437 223.634 114.263 223.526 113.999 223.426C113.739 223.326 113.345 223.206 112.817 223.066C112.245 222.914 111.795 222.756 111.467 222.592C111.139 222.428 110.905 222.238 110.765 222.022C110.625 221.806 110.555 221.544 110.555 221.236C110.555 220.856 110.659 220.524 110.867 220.24C111.075 219.952 111.365 219.73 111.737 219.574C112.113 219.418 112.549 219.34 113.045 219.34C113.537 219.34 113.977 219.418 114.365 219.574C114.753 219.73 115.065 219.952 115.301 220.24C115.541 220.524 115.683 220.856 115.727 221.236L114.635 221.434C114.583 221.086 114.415 220.812 114.131 220.612C113.851 220.412 113.489 220.306 113.045 220.294C112.625 220.278 112.283 220.352 112.019 220.516C111.759 220.68 111.629 220.902 111.629 221.182C111.629 221.338 111.677 221.472 111.773 221.584C111.873 221.696 112.055 221.802 112.319 221.902C112.587 222.002 112.975 222.116 113.483 222.244C114.055 222.388 114.505 222.546 114.833 222.718C115.165 222.886 115.401 223.086 115.541 223.318C115.681 223.546 115.751 223.828 115.751 224.164C115.751 224.788 115.521 225.28 115.061 225.64C114.601 225.996 113.967 226.174 113.159 226.174ZM119.534 226.168C119.118 226.168 118.76 226.102 118.46 225.97C118.164 225.838 117.918 225.662 117.722 225.442C117.526 225.222 117.372 224.978 117.26 224.71C117.148 224.442 117.068 224.168 117.02 223.888C116.976 223.608 116.954 223.346 116.954 223.102V219.52H118.034V222.766C118.034 223.07 118.062 223.364 118.118 223.648C118.174 223.932 118.268 224.188 118.4 224.416C118.536 224.644 118.716 224.824 118.94 224.956C119.168 225.088 119.452 225.154 119.792 225.154C120.06 225.154 120.304 225.108 120.524 225.016C120.744 224.924 120.932 224.788 121.088 224.608C121.244 224.424 121.364 224.192 121.448 223.912C121.532 223.632 121.574 223.306 121.574 222.934L122.276 223.15C122.276 223.774 122.162 224.312 121.934 224.764C121.71 225.216 121.392 225.564 120.98 225.808C120.572 226.048 120.09 226.168 119.534 226.168ZM121.694 226V224.266H121.574V219.52H122.648V226H121.694ZM124.328 226V219.52H125.282V221.086L125.126 220.882C125.202 220.682 125.3 220.498 125.42 220.33C125.544 220.162 125.682 220.024 125.834 219.916C126.002 219.78 126.192 219.676 126.404 219.604C126.616 219.532 126.832 219.49 127.052 219.478C127.272 219.462 127.478 219.476 127.67 219.52V220.522C127.446 220.462 127.2 220.446 126.932 220.474C126.664 220.502 126.416 220.6 126.188 220.768C125.98 220.916 125.818 221.096 125.702 221.308C125.59 221.52 125.512 221.75 125.468 221.998C125.424 222.242 125.402 222.492 125.402 222.748V226H124.328ZM131.496 226.18C130.86 226.18 130.304 226.04 129.828 225.76C129.356 225.476 128.988 225.082 128.724 224.578C128.46 224.07 128.328 223.478 128.328 222.802C128.328 222.094 128.458 221.482 128.718 220.966C128.978 220.446 129.34 220.046 129.804 219.766C130.272 219.482 130.82 219.34 131.448 219.34C132.1 219.34 132.654 219.49 133.11 219.79C133.57 220.09 133.914 220.518 134.142 221.074C134.374 221.63 134.474 222.292 134.442 223.06H133.362V222.676C133.35 221.88 133.188 221.286 132.876 220.894C132.564 220.498 132.1 220.3 131.484 220.3C130.824 220.3 130.322 220.512 129.978 220.936C129.634 221.36 129.462 221.968 129.462 222.76C129.462 223.524 129.634 224.116 129.978 224.536C130.322 224.956 130.812 225.166 131.448 225.166C131.876 225.166 132.248 225.068 132.564 224.872C132.88 224.676 133.128 224.394 133.308 224.026L134.334 224.38C134.082 224.952 133.702 225.396 133.194 225.712C132.69 226.024 132.124 226.18 131.496 226.18ZM129.102 223.06V222.202H133.89V223.06H129.102ZM138.322 226.18C137.718 226.18 137.2 226.03 136.768 225.73C136.336 225.426 136.002 225.016 135.766 224.5C135.534 223.984 135.418 223.402 135.418 222.754C135.418 222.106 135.534 221.524 135.766 221.008C136.002 220.492 136.336 220.086 136.768 219.79C137.2 219.49 137.716 219.34 138.316 219.34C138.928 219.34 139.442 219.488 139.858 219.784C140.274 220.08 140.588 220.486 140.8 221.002C141.016 221.518 141.124 222.102 141.124 222.754C141.124 223.398 141.016 223.98 140.8 224.5C140.588 225.016 140.274 225.426 139.858 225.73C139.442 226.03 138.93 226.18 138.322 226.18ZM138.454 225.202C138.89 225.202 139.248 225.098 139.528 224.89C139.808 224.678 140.014 224.388 140.146 224.02C140.282 223.648 140.35 223.226 140.35 222.754C140.35 222.274 140.282 221.852 140.146 221.488C140.014 221.12 139.81 220.834 139.534 220.63C139.258 220.422 138.908 220.318 138.484 220.318C138.044 220.318 137.68 220.426 137.392 220.642C137.108 220.858 136.896 221.15 136.756 221.518C136.62 221.886 136.552 222.298 136.552 222.754C136.552 223.214 136.622 223.63 136.762 224.002C136.902 224.37 137.112 224.662 137.392 224.878C137.676 225.094 138.03 225.202 138.454 225.202ZM140.35 226V221.23H140.23V217.36H141.304V226H140.35ZM148.147 226.18C147.503 226.18 146.947 226.034 146.479 225.742C146.015 225.45 145.657 225.046 145.405 224.53C145.153 224.014 145.027 223.422 145.027 222.754C145.027 222.074 145.155 221.478 145.411 220.966C145.667 220.454 146.029 220.056 146.497 219.772C146.965 219.484 147.515 219.34 148.147 219.34C148.795 219.34 149.353 219.486 149.821 219.778C150.289 220.066 150.647 220.468 150.895 220.984C151.147 221.496 151.273 222.086 151.273 222.754C151.273 223.43 151.147 224.026 150.895 224.542C150.643 225.054 150.283 225.456 149.815 225.748C149.347 226.036 148.791 226.18 148.147 226.18ZM148.147 225.166C148.819 225.166 149.319 224.942 149.647 224.494C149.975 224.046 150.139 223.466 150.139 222.754C150.139 222.022 149.973 221.44 149.641 221.008C149.309 220.572 148.811 220.354 148.147 220.354C147.695 220.354 147.323 220.456 147.031 220.66C146.739 220.864 146.521 221.146 146.377 221.506C146.233 221.866 146.161 222.282 146.161 222.754C146.161 223.482 146.329 224.066 146.665 224.506C147.001 224.946 147.495 225.166 148.147 225.166ZM155.054 226.168C154.638 226.168 154.28 226.102 153.98 225.97C153.684 225.838 153.438 225.662 153.242 225.442C153.046 225.222 152.892 224.978 152.78 224.71C152.668 224.442 152.588 224.168 152.54 223.888C152.496 223.608 152.474 223.346 152.474 223.102V219.52H153.554V222.766C153.554 223.07 153.582 223.364 153.638 223.648C153.694 223.932 153.788 224.188 153.92 224.416C154.056 224.644 154.236 224.824 154.46 224.956C154.688 225.088 154.972 225.154 155.312 225.154C155.58 225.154 155.824 225.108 156.044 225.016C156.264 224.924 156.452 224.788 156.608 224.608C156.764 224.424 156.884 224.192 156.968 223.912C157.052 223.632 157.094 223.306 157.094 222.934L157.796 223.15C157.796 223.774 157.682 224.312 157.454 224.764C157.23 225.216 156.912 225.564 156.5 225.808C156.092 226.048 155.61 226.168 155.054 226.168ZM157.214 226V224.266H157.094V219.52H158.168V226H157.214ZM163.466 226C163.082 226.076 162.702 226.106 162.326 226.09C161.954 226.078 161.622 226.004 161.33 225.868C161.038 225.728 160.816 225.512 160.664 225.22C160.536 224.964 160.466 224.706 160.454 224.446C160.446 224.182 160.442 223.884 160.442 223.552V217.72H161.51V223.504C161.51 223.768 161.512 223.994 161.516 224.182C161.524 224.37 161.566 224.532 161.642 224.668C161.786 224.924 162.014 225.074 162.326 225.118C162.642 225.162 163.022 225.15 163.466 225.082V226ZM159.128 220.402V219.52H163.466V220.402H159.128ZM167.242 226.18C166.586 226.18 166.028 226.034 165.568 225.742C165.112 225.446 164.764 225.04 164.524 224.524C164.284 224.008 164.16 223.42 164.152 222.76C164.16 222.084 164.286 221.49 164.53 220.978C164.778 220.462 165.132 220.06 165.592 219.772C166.052 219.484 166.606 219.34 167.254 219.34C167.938 219.34 168.526 219.508 169.018 219.844C169.514 220.18 169.846 220.64 170.014 221.224L168.958 221.542C168.822 221.166 168.6 220.874 168.292 220.666C167.988 220.458 167.638 220.354 167.242 220.354C166.798 220.354 166.432 220.458 166.144 220.666C165.856 220.87 165.642 221.154 165.502 221.518C165.362 221.878 165.29 222.292 165.286 222.76C165.294 223.48 165.46 224.062 165.784 224.506C166.112 224.946 166.598 225.166 167.242 225.166C167.666 225.166 168.018 225.07 168.298 224.878C168.578 224.682 168.79 224.4 168.934 224.032L170.014 224.314C169.79 224.918 169.44 225.38 168.964 225.7C168.488 226.02 167.914 226.18 167.242 226.18ZM173.823 226.18C173.179 226.18 172.623 226.034 172.155 225.742C171.691 225.45 171.333 225.046 171.081 224.53C170.829 224.014 170.703 223.422 170.703 222.754C170.703 222.074 170.831 221.478 171.087 220.966C171.343 220.454 171.705 220.056 172.173 219.772C172.641 219.484 173.191 219.34 173.823 219.34C174.471 219.34 175.029 219.486 175.497 219.778C175.965 220.066 176.323 220.468 176.571 220.984C176.823 221.496 176.949 222.086 176.949 222.754C176.949 223.43 176.823 224.026 176.571 224.542C176.319 225.054 175.959 225.456 175.491 225.748C175.023 226.036 174.467 226.18 173.823 226.18ZM173.823 225.166C174.495 225.166 174.995 224.942 175.323 224.494C175.651 224.046 175.815 223.466 175.815 222.754C175.815 222.022 175.649 221.44 175.317 221.008C174.985 220.572 174.487 220.354 173.823 220.354C173.371 220.354 172.999 220.456 172.707 220.66C172.415 220.864 172.197 221.146 172.053 221.506C171.909 221.866 171.837 222.282 171.837 222.754C171.837 223.482 172.005 224.066 172.341 224.506C172.677 224.946 173.171 225.166 173.823 225.166ZM186.016 226L186.022 221.854C186.022 221.37 185.892 220.992 185.632 220.72C185.376 220.444 185.042 220.306 184.63 220.306C184.39 220.306 184.162 220.362 183.946 220.474C183.73 220.582 183.554 220.754 183.418 220.99C183.282 221.222 183.214 221.52 183.214 221.884L182.65 221.656C182.642 221.196 182.736 220.794 182.932 220.45C183.132 220.102 183.404 219.832 183.748 219.64C184.092 219.448 184.48 219.352 184.912 219.352C185.588 219.352 186.12 219.558 186.508 219.97C186.896 220.378 187.09 220.928 187.09 221.62L187.084 226H186.016ZM178.264 226V219.52H179.218V221.254H179.338V226H178.264ZM182.146 226L182.152 221.896C182.152 221.4 182.024 221.012 181.768 220.732C181.512 220.448 181.172 220.306 180.748 220.306C180.328 220.306 179.988 220.45 179.728 220.738C179.468 221.026 179.338 221.408 179.338 221.884L178.774 221.548C178.774 221.128 178.874 220.752 179.074 220.42C179.274 220.088 179.546 219.828 179.89 219.64C180.234 219.448 180.624 219.352 181.06 219.352C181.496 219.352 181.876 219.444 182.2 219.628C182.524 219.812 182.774 220.076 182.95 220.42C183.126 220.76 183.214 221.166 183.214 221.638L183.208 226H182.146ZM191.402 226.18C190.766 226.18 190.21 226.04 189.734 225.76C189.262 225.476 188.894 225.082 188.63 224.578C188.366 224.07 188.234 223.478 188.234 222.802C188.234 222.094 188.364 221.482 188.624 220.966C188.884 220.446 189.246 220.046 189.71 219.766C190.178 219.482 190.726 219.34 191.354 219.34C192.006 219.34 192.56 219.49 193.016 219.79C193.476 220.09 193.82 220.518 194.048 221.074C194.28 221.63 194.38 222.292 194.348 223.06H193.268V222.676C193.256 221.88 193.094 221.286 192.782 220.894C192.47 220.498 192.006 220.3 191.39 220.3C190.73 220.3 190.228 220.512 189.884 220.936C189.54 221.36 189.368 221.968 189.368 222.76C189.368 223.524 189.54 224.116 189.884 224.536C190.228 224.956 190.718 225.166 191.354 225.166C191.782 225.166 192.154 225.068 192.47 224.872C192.786 224.676 193.034 224.394 193.214 224.026L194.24 224.38C193.988 224.952 193.608 225.396 193.1 225.712C192.596 226.024 192.03 226.18 191.402 226.18ZM189.008 223.06V222.202H193.796V223.06H189.008ZM198.132 226.174C197.36 226.174 196.726 226.006 196.23 225.67C195.738 225.33 195.436 224.856 195.324 224.248L196.416 224.074C196.504 224.426 196.706 224.706 197.022 224.914C197.338 225.118 197.73 225.22 198.198 225.22C198.642 225.22 198.99 225.128 199.242 224.944C199.494 224.76 199.62 224.51 199.62 224.194C199.62 224.01 199.578 223.862 199.494 223.75C199.41 223.634 199.236 223.526 198.972 223.426C198.712 223.326 198.318 223.206 197.79 223.066C197.218 222.914 196.768 222.756 196.44 222.592C196.112 222.428 195.878 222.238 195.738 222.022C195.598 221.806 195.528 221.544 195.528 221.236C195.528 220.856 195.632 220.524 195.84 220.24C196.048 219.952 196.338 219.73 196.71 219.574C197.086 219.418 197.522 219.34 198.018 219.34C198.51 219.34 198.95 219.418 199.338 219.574C199.726 219.73 200.038 219.952 200.274 220.24C200.514 220.524 200.656 220.856 200.7 221.236L199.608 221.434C199.556 221.086 199.388 220.812 199.104 220.612C198.824 220.412 198.462 220.306 198.018 220.294C197.598 220.278 197.256 220.352 196.992 220.516C196.732 220.68 196.602 220.902 196.602 221.182C196.602 221.338 196.65 221.472 196.746 221.584C196.846 221.696 197.028 221.802 197.292 221.902C197.56 222.002 197.948 222.116 198.456 222.244C199.028 222.388 199.478 222.546 199.806 222.718C200.138 222.886 200.374 223.086 200.514 223.318C200.654 223.546 200.724 223.828 200.724 224.164C200.724 224.788 200.494 225.28 200.034 225.64C199.574 225.996 198.94 226.174 198.132 226.174Z" fill="#040213"/>
<defs>
<filter id="filter0_i_176_4721" x="64.5" y="0" width="145.833" height="181.496" filterUnits="userSpaceOnUse" color-interpolation-filters="sRGB">
<feFlood flood-opacity="0" result="BackgroundImageFix"/>
<feBlend mode="normal" in="SourceGraphic" in2="BackgroundImageFix" result="shape"/>
<feColorMatrix in="SourceAlpha" type="matrix" values="0 0 0 0 0 0 0 0 0 0 0 0 0 0 0 0 0 0 127 0" result="hardAlpha"/>
<feOffset dy="5"/>
<feGaussianBlur stdDeviation="5"/>
<feComposite in2="hardAlpha" operator="arithmetic" k2="-1" k3="1"/>
<feColorMatrix type="matrix" values="0 0 0 0 1 0 0 0 0 1 0 0 0 0 1 0 0 0 0.1 0"/>
<feBlend mode="normal" in2="shape" result="effect1_innerShadow_176_4721"/>
</filter>
<linearGradient id="paint0_linear_176_4721" x1="90.5" y1="43" x2="131.5" y2="74.5" gradientUnits="userSpaceOnUse">
<stop stop-color="#FF2F66"/>
<stop offset="1" stop-color="#F12359"/>
</linearGradient>
<linearGradient id="paint1_linear_176_4721" x1="137.417" y1="0" x2="137.417" y2="176.496" gradientUnits="userSpaceOnUse">
<stop stop-color="#040213" stop-opacity="0.15"/>
<stop offset="1" stop-color="#040213" stop-opacity="0.3"/>
</linearGradient>
<linearGradient id="paint2_linear_176_4721" x1="186.115" y1="159.067" x2="186.115" y2="250.004" gradientUnits="userSpaceOnUse">
<stop stop-color="#040213" stop-opacity="0.05"/>
<stop offset="1" stop-color="#040213" stop-opacity="0.1"/>
</linearGradient>
<linearGradient id="paint3_linear_176_4721" x1="257.525" y1="0.604187" x2="257.525" y2="195.15" gradientUnits="userSpaceOnUse">
<stop stop-color="#040213" stop-opacity="0.05"/>
<stop offset="1" stop-color="#040213" stop-opacity="0.1"/>
</linearGradient>
</defs>
</svg>
