<svg width="32" height="32" viewBox="0 0 32 32" fill="none" xmlns="http://www.w3.org/2000/svg">
<path d="M15.9998 13.3334C17.4143 13.3334 18.7709 12.7715 19.7711 11.7713C20.7713 10.7711 21.3332 9.41457 21.3332 8.00008C21.3332 6.58559 20.7713 5.22904 19.7711 4.22885C18.7709 3.22865 17.4143 2.66675 15.9998 2.66675C14.5854 2.66675 13.2288 3.22865 12.2286 4.22885C11.2284 5.22904 10.6665 6.58559 10.6665 8.00008C10.6665 9.41457 11.2284 10.7711 12.2286 11.7713C13.2288 12.7715 14.5854 13.3334 15.9998 13.3334ZM7.33317 17.3334C8.21723 17.3334 9.06507 16.9822 9.69019 16.3571C10.3153 15.732 10.6665 14.8841 10.6665 14.0001C10.6665 13.116 10.3153 12.2682 9.69019 11.6431C9.06507 11.0179 8.21723 10.6667 7.33317 10.6667C6.44912 10.6667 5.60127 11.0179 4.97615 11.6431C4.35103 12.2682 3.99984 13.116 3.99984 14.0001C3.99984 14.8841 4.35103 15.732 4.97615 16.3571C5.60127 16.9822 6.44912 17.3334 7.33317 17.3334ZM27.9998 14.0001C27.9998 14.8841 27.6486 15.732 27.0235 16.3571C26.3984 16.9822 25.5506 17.3334 24.6665 17.3334C23.7824 17.3334 22.9346 16.9822 22.3095 16.3571C21.6844 15.732 21.3332 14.8841 21.3332 14.0001C21.3332 13.116 21.6844 12.2682 22.3095 11.6431C22.9346 11.0179 23.7824 10.6667 24.6665 10.6667C25.5506 10.6667 26.3984 11.0179 27.0235 11.6431C27.6486 12.2682 27.9998 13.116 27.9998 14.0001ZM15.9998 14.6667C17.7679 14.6667 19.4636 15.3691 20.7139 16.6194C21.9641 17.8696 22.6665 19.5653 22.6665 21.3334V29.3334H9.33317V21.3334C9.33317 19.5653 10.0355 17.8696 11.2858 16.6194C12.536 15.3691 14.2317 14.6667 15.9998 14.6667ZM6.6665 21.3334C6.6665 20.4094 6.79984 19.5174 7.0505 18.6747L6.82384 18.6934C5.68101 18.8189 4.62472 19.3618 3.85752 20.2181C3.09032 21.0744 2.66621 22.1837 2.6665 23.3334V29.3334H6.6665V21.3334ZM29.3332 29.3334V23.3334C29.3333 22.1446 28.8797 21.0005 28.065 20.1347C27.2503 19.2689 26.1358 18.7468 24.9492 18.6747C25.1985 19.5174 25.3332 20.4094 25.3332 21.3334V29.3334H29.3332Z" fill="#FF2F66"/>
</svg>
