<svg width="32" height="32" viewBox="0 0 32 32" fill="none" xmlns="http://www.w3.org/2000/svg">
<path d="M17.2188 13.125C20.8373 13.125 23.7812 10.1811 23.7812 6.5625C23.7812 2.94394 20.8373 0 17.2188 0C13.6002 0 10.6562 2.94394 10.6562 6.5625C10.6562 10.1811 13.6001 13.125 17.2188 13.125ZM15.3438 5.625H16.2812V4.6875C16.2812 4.16975 16.701 3.75 17.2188 3.75C17.7365 3.75 18.1562 4.16975 18.1562 4.6875V6.5625C18.1562 7.08025 17.7365 7.5 17.2188 7.5H15.3438C14.826 7.5 14.4062 7.08025 14.4062 6.5625C14.4062 6.04475 14.826 5.625 15.3438 5.625Z" fill="#FF2F66"/>
<path d="M2.21875 5.625H7.84375C8.3615 5.625 8.78125 5.20525 8.78125 4.6875C8.78125 4.16975 8.3615 3.75 7.84375 3.75H2.21875C1.701 3.75 1.28125 4.16975 1.28125 4.6875C1.28125 5.20525 1.701 5.625 2.21875 5.625Z" fill="#FF2F66"/>
<path d="M5.65625 8.4375C5.65625 7.91975 5.2365 7.5 4.71875 7.5H2.21875C1.701 7.5 1.28125 7.91975 1.28125 8.4375C1.28125 8.95525 1.701 9.375 2.21875 9.375H4.71875C5.2365 9.375 5.65625 8.95525 5.65625 8.4375Z" fill="#FF2F66"/>
<path d="M11.9385 24.774C12.3896 24.8935 12.8697 24.7518 13.1835 24.4065L15.8214 21.5049L6.07335 18.9226L3.96254 21.2444C3.74235 21.4867 3.66441 21.8264 3.7571 22.1404C3.84979 22.4545 4.09966 22.6974 4.41623 22.7812L11.7833 24.7328L11.9385 24.774Z" fill="#FF2F66"/>
<path d="M12.2585 26.6907C11.9887 26.6907 11.7194 26.6556 11.4584 26.5865L6.84375 25.3641V28.7786C6.84375 29.2039 7.13006 29.5759 7.54119 29.6848L16.2812 32.0001V23.7864L14.5709 25.6678C13.9801 26.3178 13.1371 26.6907 12.2585 26.6907Z" fill="#FF2F66"/>
<path d="M22.1791 26.6907H22.1789C21.3003 26.6906 20.4574 26.3178 19.8666 25.6676L18.1562 23.7864V32.0001L26.8963 29.6848C27.3074 29.5759 27.5938 29.2039 27.5938 28.7786V25.3641L22.9794 26.5864C22.7181 26.6556 22.4489 26.6907 22.1791 26.6907Z" fill="#FF2F66"/>
<path d="M30.475 21.2444L28.3643 18.9226L18.6162 21.5049L21.254 24.4065C21.5679 24.7517 22.048 24.8935 22.499 24.774L22.6543 24.7329L30.0213 22.7813C30.3378 22.6974 30.5877 22.4545 30.6805 22.1405C30.7731 21.8264 30.6952 21.4867 30.475 21.2444Z" fill="#FF2F66"/>
<path d="M16.7386 15.0948L7.84229 17.4514L17.2187 19.9352L26.5952 17.4514L17.6988 15.0948C17.3842 15.0114 17.0532 15.0114 16.7386 15.0948Z" fill="#FF2F66"/>
</svg>
