<svg width="32" height="32" viewBox="0 0 32 32" fill="none" xmlns="http://www.w3.org/2000/svg">
<path d="M15.9372 3C12.8478 3 10.4465 3 8.57717 3.2C6.6865 3.404 5.18917 3.82667 3.9945 4.78133C2.76784 5.76267 2.1945 7.03867 1.92384 8.648C1.6665 10.184 1.6665 12.1387 1.6665 14.576V14.82C1.6665 17.196 1.6665 18.84 1.93317 20.0653C2.07717 20.7253 2.30384 21.2987 2.65984 21.8293C3.01184 22.352 3.45984 22.792 3.9945 23.2187C4.83584 23.892 5.82784 24.2987 6.99984 24.552V28C6.99999 28.1752 7.04618 28.3473 7.13376 28.499C7.22135 28.6508 7.34726 28.7768 7.49889 28.8646C7.65052 28.9524 7.82255 28.9987 7.99775 28.9991C8.17295 28.9995 8.34517 28.9538 8.49717 28.8667C9.2785 28.42 9.9705 27.9333 10.6038 27.4747L11.0092 27.18C11.4602 26.8424 11.9208 26.5178 12.3905 26.2067C13.5158 25.476 14.5905 25 15.9998 25H16.0625C19.1518 25 21.5532 25 23.4225 24.8C25.3132 24.596 26.8105 24.1733 28.0052 23.2187C28.5385 22.792 28.9878 22.352 29.3385 21.8293C29.6958 21.2987 29.9225 20.7253 30.0665 20.0653C30.3332 18.84 30.3332 17.196 30.3332 14.82V14.576C30.3332 12.1387 30.3332 10.184 30.0758 8.64933C29.8052 7.03867 29.2318 5.76267 28.0052 4.78133C26.8105 3.82533 25.3132 3.404 23.4225 3.20133C21.5532 3 19.1518 3 16.0625 3H15.9372Z" fill="#FF2F66"/>
</svg>
