<svg width="32" height="32" viewBox="0 0 32 32" fill="none" xmlns="http://www.w3.org/2000/svg">
<path d="M15.9891 19.5334C15.289 19.534 14.6045 19.3267 14.0225 18.9376C13.4405 18.5486 12.9871 17.9954 12.72 17.3483C12.4528 16.7012 12.384 15.9893 12.5221 15.303C12.6602 14.6166 12.9991 13.9868 13.4958 13.4934C13.5895 13.4006 13.7005 13.3272 13.8226 13.2773C13.9446 13.2274 14.0753 13.202 14.2072 13.2026C14.339 13.2033 14.4695 13.2299 14.5911 13.2809C14.7126 13.3319 14.823 13.4064 14.9158 13.5001C15.0086 13.5937 15.082 13.7048 15.1319 13.8268C15.1818 13.9489 15.2072 14.0796 15.2065 14.2115C15.2059 14.3433 15.1793 14.4738 15.1283 14.5953C15.0773 14.7169 15.0028 14.8273 14.9091 14.9201C14.7653 15.0607 14.6511 15.2287 14.5732 15.4142C14.4953 15.5997 14.4554 15.7989 14.4558 16.0001C14.4381 16.3167 14.5198 16.631 14.6897 16.8989C14.8595 17.1668 15.1088 17.3748 15.4028 17.4939C15.6968 17.6129 16.0207 17.6371 16.329 17.5629C16.6374 17.4886 16.9148 17.3198 17.1224 17.0801C17.3122 16.892 17.5686 16.7865 17.8358 16.7865C18.103 16.7865 18.3593 16.892 18.5491 17.0801C18.734 17.2715 18.8374 17.5272 18.8374 17.7934C18.8374 18.0596 18.734 18.3153 18.5491 18.5067C18.2121 18.8396 17.8122 19.1018 17.3726 19.2781C16.933 19.4544 16.4627 19.5412 15.9891 19.5334Z" fill="#FF2F66"/>
<path d="M29.6561 15.9999C29.6561 19.6245 28.2162 23.1007 25.6532 25.6637C23.0902 28.2267 19.614 29.6666 15.9894 29.6666C12.3648 29.6666 8.88863 28.2267 6.32563 25.6637C3.76263 23.1007 2.32275 19.6245 2.32275 15.9999C2.32275 12.3753 3.76263 8.89912 6.32563 6.33613C8.88863 3.77313 12.3648 2.33325 15.9894 2.33325C16.2546 2.33325 16.509 2.43861 16.6965 2.62615C16.8841 2.81368 16.9894 3.06804 16.9894 3.33325V8.39992C16.986 8.66406 16.8795 8.91641 16.6927 9.10321C16.5059 9.29 16.2536 9.39647 15.9894 9.39992C14.6836 9.39093 13.4056 9.77667 12.3228 10.5066C11.2339 11.2283 10.3847 12.258 9.88359 13.4644C9.38251 14.6708 9.25224 15.9992 9.50942 17.2799C9.92767 18.7994 10.8707 20.1215 12.1711 21.0117C13.4715 21.902 15.0453 22.3028 16.6131 22.1429C18.1809 21.9831 19.6414 21.273 20.7355 20.1387C21.8295 19.0044 22.4864 17.5192 22.5894 15.9466C22.5876 15.8148 22.6123 15.6839 22.6619 15.5618C22.7115 15.4397 22.7851 15.3287 22.8783 15.2355C22.9715 15.1423 23.0825 15.0687 23.2046 15.0191C23.3268 14.9694 23.4576 14.9448 23.5894 14.9466H28.6561C28.792 14.9464 28.9266 14.9739 29.0515 15.0275C29.1764 15.081 29.2891 15.1595 29.3827 15.2581C29.4763 15.3567 29.5488 15.4733 29.5958 15.6008C29.6428 15.7284 29.6633 15.8642 29.6561 15.9999Z" fill="#FF2F66"/>
<path d="M29.1762 8.17341C29.1414 8.43282 29.0352 8.67746 28.8696 8.88008L25.9762 11.7734C25.5648 12.1865 25.0557 12.4892 24.4962 12.6534C24.168 12.7542 23.8262 12.8037 23.4829 12.8001C23.2478 12.8209 23.0113 12.8209 22.7762 12.8001L21.0029 12.4534L17.9629 15.5067C17.7717 15.6885 17.52 15.7931 17.2562 15.8001C16.9911 15.7998 16.7369 15.6943 16.5496 15.5067C16.4552 15.4148 16.3802 15.3049 16.329 15.1836C16.2778 15.0622 16.2515 14.9318 16.2515 14.8001C16.2515 14.6684 16.2778 14.538 16.329 14.4166C16.3802 14.2952 16.4552 14.1853 16.5496 14.0934L19.6029 11.0267L19.2429 9.26674C19.1353 8.69946 19.1627 8.11481 19.3229 7.56008C19.4871 7.00059 19.7898 6.49155 20.2029 6.08008L23.0696 3.21341C23.2665 3.03423 23.5127 2.91813 23.7762 2.88008C24.0229 2.84434 24.2745 2.88628 24.4962 3.00008C24.7162 3.11198 24.9009 3.28277 25.0296 3.49341C25.1598 3.72912 25.2155 3.99872 25.1896 4.26674L24.7629 7.28008L27.7629 6.86674C28.014 6.8421 28.2667 6.89382 28.488 7.01515C28.7092 7.13647 28.8887 7.32175 29.0029 7.54674C29.1115 7.73813 29.171 7.95342 29.1762 8.17341Z" fill="#FF2F66"/>
</svg>
