<svg width="76" height="137" viewBox="0 0 76 137" fill="none" xmlns="http://www.w3.org/2000/svg">
<path d="M2 1C2 0.447715 1.55228 0 1 0C0.447715 0 0 0.447715 0 1H1H2ZM67.7929 136.707C68.1834 137.098 68.8166 137.098 69.2071 136.707L75.5711 130.343C75.9616 129.953 75.9616 129.319 75.5711 128.929C75.1805 128.538 74.5474 128.538 74.1569 128.929L68.5 134.586L62.8431 128.929C62.4526 128.538 61.8195 128.538 61.4289 128.929C61.0384 129.319 61.0384 129.953 61.4289 130.343L67.7929 136.707ZM1 1H0C0 33.2269 17.157 51.342 34.0232 69.1869C50.907 87.0503 67.5 104.644 67.5 136H68.5H69.5C69.5 103.773 52.343 85.658 35.4768 67.8131C18.593 49.9497 2 32.3565 2 1H1Z" fill="#E2E2E2"/>
</svg>
