<svg width="65" height="136" viewBox="0 0 65 136" fill="none" xmlns="http://www.w3.org/2000/svg">
<path d="M64.8638 1C64.8638 0.447715 64.4161 0 63.8638 0C63.3115 0 62.8638 0.447715 62.8638 1H63.8638H64.8638ZM6.65666 135.707C7.04719 136.098 7.68035 136.098 8.07088 135.707L14.4348 129.343C14.8254 128.953 14.8254 128.319 14.4348 127.929C14.0443 127.538 13.4111 127.538 13.0206 127.929L7.36377 133.586L1.70692 127.929C1.31639 127.538 0.683226 127.538 0.292702 127.929C-0.0978227 128.319 -0.0978227 128.953 0.292702 129.343L6.65666 135.707ZM63.8638 1H62.8638C62.8638 31.2837 48.9478 49.2157 34.8242 67.3863C20.6978 85.5606 6.36377 103.973 6.36377 135H7.36377H8.36377C8.36377 104.716 22.2798 86.7843 36.4033 68.6137C50.5298 50.4394 64.8638 32.0265 64.8638 1H63.8638Z" fill="#E2E2E2"/>
</svg>
