<svg width="59" height="131" viewBox="0 0 59 131" fill="none" xmlns="http://www.w3.org/2000/svg">
<path d="M2 1C2 0.447715 1.55228 0 1 0C0.447715 0 0 0.447715 0 1H1H2ZM50.2929 130.707C50.6834 131.098 51.3166 131.098 51.7071 130.707L58.0711 124.343C58.4616 123.953 58.4616 123.319 58.0711 122.929C57.6805 122.538 57.0474 122.538 56.6569 122.929L51 128.586L45.3431 122.929C44.9526 122.538 44.3195 122.538 43.9289 122.929C43.5384 123.319 43.5384 123.953 43.9289 124.343L50.2929 130.707ZM1 1H0C0 30.505 12.6795 48.4027 25.1836 66.0775C37.6795 83.7407 50 101.181 50 130H51H52C52 100.495 39.3205 82.5973 26.8164 64.9225C14.3205 47.2593 2 29.819 2 1H1Z" fill="#E2E2E2"/>
</svg>
