<svg width="33" height="60" viewBox="0 0 33 60" fill="none" xmlns="http://www.w3.org/2000/svg">
<path d="M33 1C33 0.447715 32.5523 0 32 0C31.4477 0 31 0.447715 31 1H32H33ZM0.292893 51.2929C-0.0976311 51.6834 -0.0976311 52.3166 0.292893 52.7071L6.65685 59.0711C7.04738 59.4616 7.68054 59.4616 8.07107 59.0711C8.46159 58.6805 8.46159 58.0474 8.07107 57.6569L2.41421 52L8.07107 46.3431C8.46159 45.9526 8.46159 45.3195 8.07107 44.9289C7.68054 44.5384 7.04738 44.5384 6.65685 44.9289L0.292893 51.2929ZM32 1H31C31 12.9413 29.2612 25.5176 24.6088 35.0699C19.9815 44.5708 12.5304 51 1 51V52V53C13.4904 53 21.5394 45.9396 26.4068 35.9457C31.2493 26.0032 33 13.0796 33 1H32Z" fill="#E2E2E2"/>
</svg>
