<svg width="38" height="75" viewBox="0 0 38 75" fill="none" xmlns="http://www.w3.org/2000/svg">
<path d="M38 1C38 0.447715 37.5523 0 37 0C36.4477 0 36 0.447715 36 1H37H38ZM0.292893 66.2929C-0.0976311 66.6834 -0.0976311 67.3166 0.292893 67.7071L6.65685 74.0711C7.04738 74.4616 7.68054 74.4616 8.07107 74.0711C8.46159 73.6805 8.46159 73.0474 8.07107 72.6569L2.41421 67L8.07107 61.3431C8.46159 60.9526 8.46159 60.3195 8.07107 59.9289C7.68054 59.5384 7.04738 59.5384 6.65685 59.9289L0.292893 66.2929ZM37 1H36C36 16.2781 34.6492 32.6146 29.5522 45.1C27.0086 51.3306 23.5534 56.5483 18.9182 60.2068C14.2977 63.8536 8.44406 66 1 66V67V68C8.85993 68 15.1583 65.7224 20.1573 61.7767C25.1416 57.8427 28.7734 52.2994 31.4038 45.856C36.6548 32.9934 38 16.3299 38 1H37Z" fill="#E2E2E2"/>
</svg>
