<svg width="59" height="56" viewBox="0 0 59 56" fill="none" xmlns="http://www.w3.org/2000/svg">
<path d="M0 55C0 55.5523 0.447715 56 1 56C1.55228 56 2 55.5523 2 55H1H0ZM52.2071 0.292893C51.8166 -0.0976311 51.1834 -0.0976311 50.7929 0.292893L44.4289 6.65685C44.0384 7.04738 44.0384 7.68054 44.4289 8.07107C44.8195 8.46159 45.4526 8.46159 45.8431 8.07107L51.5 2.41421L57.1569 8.07107C57.5474 8.46159 58.1805 8.46159 58.5711 8.07107C58.9616 7.68054 58.9616 7.04738 58.5711 6.65685L52.2071 0.292893ZM1 55H2C2 47.765 4.99215 42.7583 9.54673 38.7986C14.1559 34.7915 20.3305 31.8842 26.675 28.9052C32.9555 25.9562 39.4059 22.9356 44.2655 18.7107C49.1796 14.4384 52.5 8.90911 52.5 1H51.5H50.5C50.5 8.23502 47.5079 13.2417 42.9533 17.2014C38.3441 21.2085 32.1695 24.1158 25.825 27.0948C19.5445 30.0438 13.0941 33.0644 8.23452 37.2893C3.32035 41.5616 0 47.0909 0 55H1Z" fill="#E2E2E2"/>
</svg>
