<svg width="78" height="77" viewBox="0 0 78 77" fill="none" xmlns="http://www.w3.org/2000/svg">
<path d="M0 76C0 76.5523 0.447715 77 1 77C1.55228 77 2 76.5523 2 76H1H0ZM71.2071 0.292893C70.8166 -0.0976311 70.1834 -0.0976311 69.7929 0.292893L63.4289 6.65685C63.0384 7.04738 63.0384 7.68054 63.4289 8.07107C63.8195 8.46159 64.4526 8.46159 64.8431 8.07107L70.5 2.41421L76.1569 8.07107C76.5474 8.46159 77.1805 8.46159 77.5711 8.07107C77.9616 7.68054 77.9616 7.04738 77.5711 6.65685L71.2071 0.292893ZM1 76H2C2 65.7408 6.18455 58.6671 12.5183 53.119C18.9075 47.5223 27.4554 43.4999 36.1751 39.4052C44.8304 35.3406 53.6575 31.2037 60.2995 25.3855C66.997 19.5187 71.5 11.9222 71.5 1H70.5H69.5C69.5 11.2592 65.3155 18.3329 58.9817 23.881C52.5925 29.4777 44.0446 33.5001 35.3249 37.5948C26.6696 41.6594 17.8425 45.7963 11.2005 51.6145C4.50295 57.4813 0 65.0778 0 76H1Z" fill="#E2E2E2"/>
</svg>
