<svg width="46" height="48" viewBox="0 0 46 48" fill="none" xmlns="http://www.w3.org/2000/svg">
<path d="M2 1C2 0.447715 1.55228 0 1 0C0.447715 0 0 0.447715 0 1H1H2ZM45.2071 40.7071C45.5976 40.3166 45.5976 39.6834 45.2071 39.2929L38.8431 32.9289C38.4526 32.5384 37.8195 32.5384 37.4289 32.9289C37.0384 33.3195 37.0384 33.9526 37.4289 34.3431L43.0858 40L37.4289 45.6569C37.0384 46.0474 37.0384 46.6805 37.4289 47.0711C37.8195 47.4616 38.4526 47.4616 38.8431 47.0711L45.2071 40.7071ZM1 1H0C0 25.2265 20.5605 41 44.5 41V40V39C21.3672 39 2 23.8459 2 1H1Z" fill="#E2E2E2"/>
</svg>
