<svg width="113" height="131" viewBox="0 0 113 131" fill="none" xmlns="http://www.w3.org/2000/svg">
<path d="M2 1C2 0.447715 1.55228 0 1 0C0.447715 0 0 0.447715 0 1H1H2ZM104.293 130.707C104.683 131.098 105.317 131.098 105.707 130.707L112.071 124.343C112.462 123.953 112.462 123.319 112.071 122.929C111.681 122.538 111.047 122.538 110.657 122.929L105 128.586L99.3431 122.929C98.9526 122.538 98.3195 122.538 97.9289 122.929C97.5384 123.319 97.5384 123.953 97.9289 124.343L104.293 130.707ZM1 1H0C0 36.4327 26.5969 51.5586 52.5037 66.3682C78.5969 81.2843 104 95.8841 104 130H105H106C106 94.5673 79.4031 79.4415 53.4963 64.6318C27.4031 49.7157 2 35.1159 2 1H1Z" fill="#E2E2E2"/>
</svg>
