<svg width="99" height="48" viewBox="0 0 99 48" fill="none" xmlns="http://www.w3.org/2000/svg">
<path d="M2 1C2 0.447715 1.55228 0 1 0C0.447715 0 0 0.447715 0 1H1H2ZM98.2071 40.7071C98.5976 40.3166 98.5976 39.6834 98.2071 39.2929L91.8431 32.9289C91.4526 32.5384 90.8195 32.5384 90.4289 32.9289C90.0384 33.3195 90.0384 33.9526 90.4289 34.3431L96.0858 40L90.4289 45.6569C90.0384 46.0474 90.0384 46.6805 90.4289 47.0711C90.8195 47.4616 91.4526 47.4616 91.8431 47.0711L98.2071 40.7071ZM1 1H0C0 11.9455 3.43472 20.0077 9.34587 25.8845C15.228 31.7325 23.4739 35.3285 32.9496 37.5462C51.8625 41.9728 76.1541 41 97.5 41V40V39C75.9858 39 52.0273 39.9573 33.4053 35.5989C24.1135 33.4241 16.2707 29.9489 10.756 24.4662C5.27026 19.0124 2 11.4846 2 1H1Z" fill="#E2E2E2"/>
</svg>
