<svg width="124" height="20" viewBox="0 0 124 20" fill="none" xmlns="http://www.w3.org/2000/svg">
<path d="M6.89 15C5.45 15 4.21667 14.6867 3.19 14.06C2.16333 13.4267 1.37333 12.5467 0.82 11.42C0.273333 10.2933 0 8.98667 0 7.5C0 6.01333 0.273333 4.70667 0.82 3.58C1.37333 2.45333 2.16333 1.57667 3.19 0.949999C4.21667 0.316666 5.45 0 6.89 0C8.55 0 9.93333 0.416667 11.04 1.25C12.1467 2.07667 12.9233 3.19333 13.37 4.6L10.94 5.27C10.66 4.33 10.1833 3.59667 9.51 3.07C8.83667 2.53667 7.96333 2.27 6.89 2.27C5.92333 2.27 5.11667 2.48667 4.47 2.92C3.83 3.35333 3.34667 3.96333 3.02 4.75C2.7 5.53 2.53667 6.44667 2.53 7.5C2.53 8.55333 2.69 9.47333 3.01 10.26C3.33667 11.04 3.82333 11.6467 4.47 12.08C5.11667 12.5133 5.92333 12.73 6.89 12.73C7.96333 12.73 8.83667 12.4633 9.51 11.93C10.1833 11.3967 10.66 10.6633 10.94 9.73L13.37 10.4C12.9233 11.8067 12.1467 12.9267 11.04 13.76C9.93333 14.5867 8.55 15 6.89 15Z" fill="#FF2F66"/>
<path d="M15.5656 14.7V3.9H17.6956V6.53L17.4356 6.19C17.569 5.83 17.7456 5.50333 17.9656 5.21C18.1923 4.91 18.4623 4.66333 18.7756 4.47C19.0423 4.29 19.3356 4.15 19.6556 4.05C19.9823 3.94333 20.3156 3.88 20.6556 3.86C20.9956 3.83333 21.3256 3.84667 21.6456 3.9V6.15C21.3256 6.05667 20.9556 6.02667 20.5356 6.06C20.1223 6.09333 19.749 6.21 19.4156 6.41C19.0823 6.59 18.809 6.82 18.5956 7.1C18.389 7.38 18.2356 7.7 18.1356 8.06C18.0356 8.41333 17.9856 8.79667 17.9856 9.21V14.7H15.5656Z" fill="#FF2F66"/>
<path d="M26.32 15C25.54 15 24.88 14.8533 24.34 14.56C23.8 14.26 23.39 13.8633 23.11 13.37C22.8367 12.8767 22.7 12.3333 22.7 11.74C22.7 11.22 22.7867 10.7533 22.96 10.34C23.1333 9.92 23.4 9.56 23.76 9.26C24.12 8.95333 24.5867 8.70333 25.16 8.51C25.5933 8.37 26.1 8.24333 26.68 8.13C27.2667 8.01667 27.9 7.91333 28.58 7.82C29.2667 7.72 29.9833 7.61333 30.73 7.5L29.87 7.99C29.8767 7.24333 29.71 6.69333 29.37 6.34C29.03 5.98667 28.4567 5.81 27.65 5.81C27.1633 5.81 26.6933 5.92333 26.24 6.15C25.7867 6.37667 25.47 6.76667 25.29 7.32L23.09 6.63C23.3567 5.71667 23.8633 4.98333 24.61 4.43C25.3633 3.87667 26.3767 3.6 27.65 3.6C28.61 3.6 29.4533 3.75667 30.18 4.07C30.9133 4.38333 31.4567 4.89667 31.81 5.61C32.0033 5.99 32.12 6.38 32.16 6.78C32.2 7.17333 32.22 7.60333 32.22 8.07V14.7H30.11V12.36L30.46 12.74C29.9733 13.52 29.4033 14.0933 28.75 14.46C28.1033 14.82 27.2933 15 26.32 15ZM26.8 13.08C27.3467 13.08 27.8133 12.9833 28.2 12.79C28.5867 12.5967 28.8933 12.36 29.12 12.08C29.3533 11.8 29.51 11.5367 29.59 11.29C29.7167 10.9833 29.7867 10.6333 29.8 10.24C29.82 9.84 29.83 9.51667 29.83 9.27L30.57 9.49C29.8433 9.60333 29.22 9.70333 28.7 9.79C28.18 9.87667 27.7333 9.96 27.36 10.04C26.9867 10.1133 26.6567 10.1967 26.37 10.29C26.09 10.39 25.8533 10.5067 25.66 10.64C25.4667 10.7733 25.3167 10.9267 25.21 11.1C25.11 11.2733 25.06 11.4767 25.06 11.71C25.06 11.9767 25.1267 12.2133 25.26 12.42C25.3933 12.62 25.5867 12.78 25.84 12.9C26.1 13.02 26.42 13.08 26.8 13.08Z" fill="#FF2F66"/>
<path d="M35.7634 14.7V3.73C35.7634 3.45667 35.7734 3.15667 35.7934 2.83C35.8134 2.49667 35.8701 2.16667 35.9634 1.84C36.0568 1.51333 36.2268 1.21667 36.4734 0.949999C36.7801 0.609999 37.1101 0.376666 37.4634 0.25C37.8234 0.116667 38.1768 0.043333 38.5234 0.029999C38.8701 0.00999967 39.1734 0 39.4334 0H40.7834V1.96H39.5334C39.0734 1.96 38.7301 2.07667 38.5034 2.31C38.2834 2.53667 38.1734 2.83667 38.1734 3.21V14.7H35.7634ZM34.0234 5.79V3.9H40.7834V5.79H34.0234Z" fill="#FF2F66"/>
<path d="M48.712 14.7C47.9987 14.8333 47.2987 14.89 46.612 14.87C45.932 14.8567 45.322 14.7333 44.782 14.5C44.242 14.26 43.832 13.8833 43.552 13.37C43.3054 12.9033 43.1754 12.4267 43.162 11.94C43.1487 11.4533 43.142 10.9033 43.142 10.29V0.899999H45.542V10.15C45.542 10.5833 45.5454 10.9633 45.552 11.29C45.5654 11.6167 45.6354 11.8833 45.762 12.09C46.002 12.49 46.3854 12.7133 46.912 12.76C47.4387 12.8067 48.0387 12.78 48.712 12.68V14.7ZM41.182 5.79V3.9H48.712V5.79H41.182Z" fill="#FF2F66"/>
<path d="M51.2344 2.26V0.05H53.6444V2.26H51.2344ZM51.2344 14.7V3.9H53.6444V14.7H51.2344Z" fill="#FF2F66"/>
<path d="M57.5798 14.7V3.73C57.5798 3.45667 57.5898 3.15667 57.6098 2.83C57.6298 2.49667 57.6865 2.16667 57.7798 1.84C57.8732 1.51333 58.0432 1.21667 58.2898 0.949999C58.5965 0.609999 58.9265 0.376666 59.2798 0.25C59.6398 0.116667 59.9932 0.043333 60.3398 0.029999C60.6865 0.00999967 60.9898 0 61.2498 0H62.5998V1.96H61.3498C60.8898 1.96 60.5465 2.07667 60.3198 2.31C60.0998 2.53667 59.9898 2.83667 59.9898 3.21V14.7H57.5798ZM55.8398 5.79V3.9H62.5998V5.79H55.8398Z" fill="#FF2F66"/>
<path d="M65.6184 19.5L67.6984 13.79L67.7384 15.47L63.0284 3.9H65.5384L68.8784 12.46H68.2384L71.4884 3.9H73.8984L67.8784 19.5H65.6184Z" fill="#FF2F66"/>
<path d="M82.8538 14.7V2.56H78.1937V0.3H89.9238V2.56H85.2637V14.7H82.8538Z" fill="white"/>
<path d="M94.8311 15C93.7378 15 92.7778 14.7633 91.9511 14.29C91.1244 13.8167 90.4778 13.16 90.0111 12.32C89.5511 11.48 89.3211 10.5133 89.3211 9.42C89.3211 8.24 89.5478 7.21667 90.0011 6.35C90.4544 5.47667 91.0844 4.8 91.8911 4.32C92.6978 3.84 93.6311 3.6 94.6911 3.6C95.8111 3.6 96.7611 3.86333 97.5411 4.39C98.3278 4.91 98.9111 5.64667 99.2911 6.6C99.6711 7.55333 99.8144 8.67667 99.7211 9.97H97.3311V9.09C97.3244 7.91667 97.1178 7.06 96.7111 6.52C96.3044 5.98 95.6644 5.71 94.7911 5.71C93.8044 5.71 93.0711 6.01667 92.5911 6.63C92.1111 7.23667 91.8711 8.12667 91.8711 9.3C91.8711 10.3933 92.1111 11.24 92.5911 11.84C93.0711 12.44 93.7711 12.74 94.6911 12.74C95.2844 12.74 95.7944 12.61 96.2211 12.35C96.6544 12.0833 96.9878 11.7 97.2211 11.2L99.6011 11.92C99.1878 12.8933 98.5478 13.65 97.6811 14.19C96.8211 14.73 95.8711 15 94.8311 15ZM91.1111 9.97V8.15H98.5411V9.97H91.1111Z" fill="white"/>
<path d="M106.642 15C105.529 15 104.579 14.7533 103.792 14.26C103.006 13.76 102.402 13.08 101.982 12.22C101.569 11.36 101.359 10.3867 101.352 9.3C101.359 8.19333 101.576 7.21333 102.002 6.36C102.436 5.5 103.049 4.82667 103.842 4.34C104.636 3.84667 105.579 3.6 106.672 3.6C107.899 3.6 108.936 3.91 109.782 4.53C110.636 5.14333 111.192 5.98333 111.452 7.05L109.052 7.7C108.866 7.12 108.556 6.67 108.122 6.35C107.689 6.02333 107.196 5.86 106.642 5.86C106.016 5.86 105.499 6.01 105.092 6.31C104.686 6.60333 104.386 7.01 104.192 7.53C103.999 8.05 103.902 8.64 103.902 9.3C103.902 10.3267 104.132 11.1567 104.592 11.79C105.052 12.4233 105.736 12.74 106.642 12.74C107.282 12.74 107.786 12.5933 108.152 12.3C108.526 12.0067 108.806 11.5833 108.992 11.03L111.452 11.58C111.119 12.68 110.536 13.5267 109.702 14.12C108.869 14.7067 107.849 15 106.642 15Z" fill="white"/>
<path d="M120.926 14.7V9.5C120.926 9.16 120.903 8.78333 120.856 8.37C120.81 7.95667 120.7 7.56 120.526 7.18C120.36 6.79333 120.106 6.47667 119.766 6.23C119.433 5.98333 118.98 5.86 118.406 5.86C118.1 5.86 117.796 5.91 117.496 6.01C117.196 6.11 116.923 6.28333 116.676 6.53C116.436 6.77 116.243 7.10333 116.096 7.53C115.95 7.95 115.876 8.49 115.876 9.15L114.446 8.54C114.446 7.62 114.623 6.78667 114.976 6.04C115.336 5.29333 115.863 4.7 116.556 4.26C117.25 3.81333 118.103 3.59 119.116 3.59C119.916 3.59 120.576 3.72333 121.096 3.99C121.616 4.25667 122.03 4.59667 122.336 5.01C122.643 5.42333 122.87 5.86333 123.016 6.33C123.163 6.79667 123.256 7.24 123.296 7.66C123.343 8.07333 123.366 8.41 123.366 8.67V14.7H120.926ZM113.436 14.7V0.3H115.586V7.88H115.876V14.7H113.436Z" fill="white"/>
</svg>
