<svg width="24" height="24" viewBox="0 0 24 24" fill="none" xmlns="http://www.w3.org/2000/svg">
<path fill-rule="evenodd" clip-rule="evenodd" d="M3.85564 6.96004C3.87364 7.87084 3.37804 9.10204 2.73364 9.74524C2.13568 10.3438 1.7998 11.1552 1.7998 12.0012C1.7998 12.8473 2.13568 13.6587 2.73364 14.2572C3.36964 14.8908 3.83764 15.99 3.85564 16.8876C3.87244 17.682 4.18324 18.4716 4.78924 19.0764C5.34833 19.6367 6.09626 19.9683 6.88684 20.0064C7.83604 20.0544 9.07924 20.6064 9.75124 21.2784C10.3497 21.876 11.1609 22.2117 12.0066 22.2117C12.8524 22.2117 13.6636 21.876 14.262 21.2784C14.934 20.6064 16.1772 20.0544 17.1264 20.0064C17.917 19.9683 18.6649 19.6367 19.224 19.0764C19.8069 18.4944 20.1412 17.7088 20.1564 16.8852C20.1744 15.99 20.6364 14.898 21.2712 14.2644C21.8715 13.6661 22.2094 12.8538 22.2108 12.0063C22.2121 11.1588 21.8768 10.3455 21.2784 9.74524C20.6352 9.10324 20.1384 7.87084 20.1576 6.96124C20.1667 6.53177 20.0886 6.10493 19.9282 5.70647C19.7677 5.30801 19.5282 4.94619 19.224 4.64284C18.9088 4.3268 18.5306 4.08067 18.114 3.92044C17.6974 3.76021 17.2518 3.68947 16.806 3.71284C15.9492 3.75604 14.868 3.34084 14.262 2.73364C13.6635 2.13568 12.8521 1.7998 12.006 1.7998C11.16 1.7998 10.3486 2.13568 9.75004 2.73364C9.14524 3.33964 8.06284 3.75604 7.20604 3.71284C6.7605 3.68964 6.31506 3.76046 5.89868 3.92069C5.4823 4.08091 5.1043 4.32696 4.78924 4.64284C4.48525 4.94605 4.24581 5.30767 4.08536 5.70592C3.92491 6.10416 3.84676 6.53078 3.85564 6.96004ZM15.6492 7.95124C15.7871 8.02772 15.9085 8.13061 16.0065 8.25402C16.1046 8.37744 16.1774 8.51897 16.2207 8.67053C16.2641 8.82208 16.2772 8.98069 16.2592 9.1373C16.2412 9.2939 16.1926 9.44544 16.116 9.58324L12.7944 15.5616C12.7084 15.7245 12.586 15.8653 12.4368 15.9732C12.22 16.1301 11.957 16.21 11.6895 16.2002C11.4221 16.1904 11.1656 16.0915 10.9608 15.9192L7.65004 13.2708C7.52696 13.1723 7.42449 13.0506 7.34847 12.9125C7.27246 12.7744 7.22439 12.6227 7.20701 12.466C7.18962 12.3093 7.20327 12.1508 7.24716 11.9994C7.29106 11.848 7.36434 11.7067 7.46284 11.5836C7.56133 11.4606 7.6831 11.3581 7.82119 11.2821C7.95928 11.2061 8.11099 11.158 8.26767 11.1406C8.42434 11.1232 8.5829 11.1369 8.73429 11.1808C8.88569 11.2247 9.02696 11.2979 9.15004 11.3964L11.3736 13.176L14.0172 8.41684C14.0938 8.2791 14.1968 8.1578 14.3202 8.05986C14.4437 7.96192 14.5853 7.88926 14.7368 7.84602C14.8883 7.80279 15.0469 7.78982 15.2035 7.80788C15.36 7.82593 15.5115 7.87464 15.6492 7.95124Z" fill="white"/>
</svg>
