<svg width="24" height="24" viewBox="0 0 24 24" fill="none" xmlns="http://www.w3.org/2000/svg">
<path d="M12 2C6.477 2 2 6.477 2 12C2 17.523 6.477 22 12 22C17.523 22 22 17.523 22 12C22 6.477 17.523 2 12 2ZM18.918 8L15.703 8C15.5536 6.87479 15.3652 5.75512 15.138 4.643C16.7258 5.32706 18.0512 6.50412 18.918 8ZM13.014 4.072C13.082 4.424 13.401 6.11 13.659 8H10.341C10.599 6.11 10.918 4.424 10.986 4.072C11.319 4.029 11.656 4 12 4C12.344 4 12.681 4.029 13.014 4.072ZM14 12C14 12.598 13.957 13.286 13.891 14H10.109C10.043 13.286 10 12.598 10 12C10 11.402 10.043 10.714 10.109 10H13.891C13.957 10.714 14 11.402 14 12ZM8.862 4.643C8.63484 5.75512 8.44639 6.87479 8.297 8H5.082C5.94882 6.50412 7.2742 5.32706 8.862 4.643ZM4.263 10H8.084C8.033 10.668 8 11.344 8 12C8 12.656 8.033 13.332 8.085 14H4.263C4.097 13.359 4 12.692 4 12C4 11.308 4.098 10.641 4.263 10ZM5.082 16H8.297C8.485 17.424 8.717 18.65 8.862 19.357C7.2742 18.6729 5.94882 17.4959 5.082 16ZM10.986 19.928C10.7372 18.6244 10.5221 17.3147 10.341 16H13.659C13.4775 17.3146 13.2624 18.6244 13.014 19.928C12.681 19.971 12.344 20 12 20C11.656 20 11.319 19.971 10.986 19.928ZM15.138 19.357C15.283 18.65 15.515 17.424 15.703 16H18.918C18.0512 17.4959 16.7258 18.6729 15.138 19.357ZM19.737 14H15.916C15.967 13.332 16 12.656 16 12C16 11.344 15.967 10.668 15.915 10H19.736C19.902 10.641 20 11.308 20 12C20 12.692 19.903 13.359 19.737 14Z" fill="white"/>
</svg>
