<svg width="15" height="108" viewBox="0 0 15 108" fill="none" xmlns="http://www.w3.org/2000/svg">
<path d="M8.36426 1C8.36426 0.447715 7.91654 0 7.36426 0C6.81197 0 6.36426 0.447715 6.36426 1H7.36426H8.36426ZM6.65715 107.207C7.04768 107.598 7.68084 107.598 8.07136 107.207L14.4353 100.843C14.8259 100.453 14.8259 99.8195 14.4353 99.4289C14.0448 99.0384 13.4116 99.0384 13.0211 99.4289L7.36426 105.086L1.7074 99.4289C1.31688 99.0384 0.683714 99.0384 0.29319 99.4289C-0.0973344 99.8195 -0.0973344 100.453 0.29319 100.843L6.65715 107.207ZM7.36426 1H6.36426V106.5H7.36426H8.36426V1H7.36426Z" fill="#E2E2E2"/>
</svg>
