<svg width="32" height="32" viewBox="0 0 32 32" fill="none" xmlns="http://www.w3.org/2000/svg">
<path d="M8.66659 2.66663C6.83354 2.66663 5.33325 4.16692 5.33325 5.99996V26C5.33325 27.833 6.83354 29.3333 8.66659 29.3333H23.3333C25.1663 29.3333 26.6666 27.833 26.6666 26L26.6647 11.2453C26.6629 11.1572 26.5945 10.9878 26.4713 10.8619L18.4713 2.86194C18.3463 2.73691 18.1767 2.66666 17.9999 2.66663H8.66659ZM18.6666 4.94267L24.3905 10.6666H20.6666C19.5541 10.6666 18.6666 9.77909 18.6666 8.66663V4.94267ZM9.99992 10.6666H15.3333C15.7014 10.6666 15.9999 10.9651 15.9999 11.3333C15.9999 11.7015 15.7014 12 15.3333 12H9.99992C9.63173 12 9.33325 11.7015 9.33325 11.3333C9.33325 10.9651 9.63173 10.6666 9.99992 10.6666ZM9.99992 14.6666H21.9999C22.3681 14.6666 22.6666 14.9651 22.6666 15.3333C22.6666 15.7015 22.3681 16 21.9999 16H9.99992C9.63173 16 9.33325 15.7015 9.33325 15.3333C9.33325 14.9651 9.63173 14.6666 9.99992 14.6666ZM12.6666 18.6666C13.7633 18.6666 14.6666 19.57 14.6666 20.6666C14.6666 21.2865 14.3902 21.8766 13.914 22.2734L13.8124 22.3593L13.8671 22.401C14.098 22.5742 14.378 22.6666 14.6666 22.6666H15.9999C16.6033 22.6666 17.1826 22.9066 17.6093 23.3333L17.9999 23.7239C18.1769 23.9009 18.4163 24 18.6666 24C19.0015 24 19.3305 23.9232 19.6301 23.7734L21.703 22.7369C22.0324 22.5733 22.4321 22.7073 22.5963 23.0364C22.7599 23.3658 22.6259 23.7655 22.2968 23.9296L20.2265 24.9635C19.7418 25.2058 19.2085 25.3333 18.6666 25.3333C18.0632 25.3333 17.4839 25.0933 17.0572 24.6666L16.6666 24.276C16.4896 24.099 16.2502 24 15.9999 24H14.6666C14.0897 24 13.5291 23.8122 13.0676 23.4661L12.7603 23.2343L10.427 25.1796C10.1438 25.416 9.72253 25.3775 9.4869 25.0937C9.25054 24.8105 9.28905 24.3892 9.57284 24.1536L11.6614 22.4114L11.4661 22.2656C10.9629 21.8882 10.6666 21.2956 10.6666 20.6666C10.6666 19.57 11.5699 18.6666 12.6666 18.6666ZM12.6666 20C12.2905 20 11.9999 20.2905 11.9999 20.6666C11.9999 20.877 12.0972 21.0742 12.2655 21.2005L12.7135 21.5364L13.0598 21.2474C13.2327 21.1033 13.3333 20.8916 13.3333 20.6666C13.3333 20.2905 13.0427 20 12.6666 20Z" fill="#FF2F66"/>
</svg>
