<svg width="30" height="30" viewBox="0 0 30 30" fill="none" xmlns="http://www.w3.org/2000/svg">
<path fill-rule="evenodd" clip-rule="evenodd" d="M17.9867 2.48575C19.3111 2.80094 20.5761 3.326 21.7353 4.03981L24.1712 2.95794L27.0421 5.82881L25.9606 8.26388C26.6746 9.42331 27.1997 10.6887 27.5149 12.0134L30 12.97V17.03L27.5142 17.9868C27.1991 19.3113 26.674 20.5761 25.9603 21.7354L27.0421 24.1712L24.1712 27.0421L21.7362 25.9606C20.5767 26.6746 19.3114 27.1997 17.9866 27.5149L17.0301 30H12.9701L12.0389 27.5809C12.7494 26.4986 13.1639 25.2046 13.1663 23.8136C13.7583 23.9361 14.3716 24.0007 15 24.0007C19.9714 24.0007 24.0007 19.9714 24.0007 15.0001C24.0007 10.0286 19.9714 5.99925 15 5.99925C10.0287 5.99925 5.99931 10.0286 5.99931 15.0001C5.99931 15.6546 6.06981 16.2926 6.20244 16.9074C4.83488 16.9207 3.56281 17.3327 2.49612 18.032L2.48519 17.9866L0 17.0301V12.9701L2.4855 12.0133C2.80063 10.6888 3.32575 9.42369 4.03963 8.2645L2.95788 5.82888L5.82875 2.95794L8.26462 4.03981C9.42387 3.32606 10.6888 2.80094 12.0132 2.48575L12.97 0H17.0299L17.9867 2.48575ZM6.27131 17.907C3.01563 17.907 0.376312 20.5463 0.376312 23.802C0.376312 27.0577 3.01563 29.697 6.27131 29.697C9.52706 29.697 12.1663 27.0577 12.1663 23.802C12.1663 20.5463 9.527 17.907 6.27131 17.907ZM10.1211 22.6198L8.16131 24.195C8.10238 24.2423 8.07856 24.3158 8.09838 24.3887L8.758 26.8149C8.80288 26.9799 8.61987 27.1129 8.47681 27.0193L6.37313 25.6422C6.30988 25.6008 6.23269 25.6008 6.16944 25.6422L4.06575 27.0193C3.92269 27.1129 3.73963 26.9799 3.7845 26.8149L4.44413 24.3886C4.46394 24.3157 4.44012 24.2422 4.38119 24.1949L2.42138 22.6198C2.28813 22.5127 2.358 22.2975 2.52881 22.2892L5.04019 22.1668C5.11569 22.1631 5.17812 22.1178 5.20494 22.0471L6.09744 19.6964C6.15775 19.5375 6.38475 19.5375 6.44506 19.6964L7.3375 22.0471C7.36431 22.1178 7.42675 22.1631 7.50225 22.1668L10.0136 22.2892C10.1845 22.2975 10.2544 22.5126 10.1211 22.6198ZM15 8.33856C13.4129 8.33856 12.1263 9.62519 12.1263 11.2123C12.1263 12.7994 13.4129 14.0861 15 14.0861C16.5871 14.0861 17.8738 12.7994 17.8738 11.2123C17.8738 9.62519 16.5871 8.33856 15 8.33856ZM11.8743 19.7833H19.9064C20.3155 19.7833 20.6122 19.4028 20.5126 19.006C19.8929 16.5383 17.6599 14.7111 15 14.7111C12.7458 14.7111 10.7984 16.0235 9.8795 17.9258C10.6614 18.407 11.34 19.0397 11.8743 19.7833Z" fill="#FF2F66"/>
</svg>
