<svg width="427" height="328" viewBox="0 0 427 328" fill="none" xmlns="http://www.w3.org/2000/svg">
<path d="M222.205 55.4717C223.572 54.1052 225.788 54.1052 227.155 55.4717L333.498 161.815C334.865 163.182 334.865 165.398 333.498 166.765L227.155 273.108C225.788 274.475 223.572 274.475 222.205 273.108L115.862 166.765C114.495 165.398 114.495 163.182 115.862 161.815L222.205 55.4717Z" stroke="#040213" stroke-opacity="0.1"/>
<path d="M222.705 23.4717C224.072 22.1052 226.288 22.1052 227.655 23.4717L365.998 161.815C367.365 163.182 367.365 165.398 365.998 166.765L227.655 305.108C226.288 306.475 224.072 306.475 222.705 305.108L84.3616 166.765C82.9952 165.398 82.9952 163.182 84.3616 161.815L222.705 23.4717Z" stroke="#040213" stroke-opacity="0.1"/>
<path d="M222.205 87.4717C223.572 86.1052 225.788 86.1052 227.155 87.4717L301.498 161.815C302.865 163.182 302.865 165.398 301.498 166.765L227.155 241.108C225.788 242.475 223.572 242.475 222.205 241.108L147.862 166.765C146.495 165.398 146.495 163.182 147.862 161.815L222.205 87.4717Z" stroke="#040213" stroke-opacity="0.1"/>
<path d="M216.548 125.129C221.039 120.638 228.321 120.638 232.812 125.129L263.841 156.158C268.332 160.649 268.332 167.931 263.841 172.422L232.812 203.451C228.321 207.942 221.039 207.942 216.548 203.451L185.519 172.422C181.028 167.931 181.028 160.649 185.519 156.158L216.548 125.129Z" stroke="#040213" stroke-opacity="0.1"/>
<path d="M232.326 156.644C228.103 152.421 221.256 152.421 217.033 156.644C212.81 160.867 212.81 167.714 217.033 171.937C221.256 176.16 228.103 176.16 232.326 171.937C236.549 167.714 236.549 160.867 232.326 156.644Z" stroke="#040213" stroke-opacity="0.1"/>
<path d="M119.561 163.314L224.242 142.378C224.53 142.32 224.828 142.327 225.114 142.397L309.705 163.308C311.322 163.707 311.771 165.792 310.462 166.821L225.794 233.414C225.127 233.939 224.2 233.985 223.484 233.529L118.879 166.962C117.359 165.995 117.793 163.667 119.561 163.314Z" fill="#FF1525" fill-opacity="0.2" stroke="#FF1525"/>
<path d="M166.635 163.336L223.263 126.219C224.081 125.683 225.166 125.817 225.829 126.535L259.918 163.464C260.391 163.977 260.563 164.699 260.371 165.37L226.141 285.177C225.634 286.952 223.198 287.151 222.409 285.482L165.923 165.863C165.497 164.961 165.801 163.883 166.635 163.336Z" fill="#FF2F66" fill-opacity="0.2" stroke="#FF2F66"/>
<path d="M143.316 161.86L222.915 71.2985C223.796 70.2954 225.395 70.4217 226.108 71.5509L283.358 162.197C284.038 163.274 283.551 164.704 282.355 165.142L225.27 186.074C224.886 186.215 224.468 186.234 224.072 186.13L144.309 165.114C142.871 164.736 142.334 162.977 143.316 161.86Z" fill="#FF54A7" fill-opacity="0.2" stroke="#FF54A7"/>
<path d="M201.253 10.29L197.781 0.210039H198.852L201.925 9.12104L205.019 0.210039H206.09L202.618 10.29H201.253ZM207.007 1.29504V0.140039H208.036V1.29504H207.007ZM207.007 10.29V2.73004H208.036V10.29H207.007ZM212.956 10.493C212.069 10.493 211.339 10.3017 210.765 9.91904C210.195 9.53637 209.845 9.00437 209.715 8.32304L210.765 8.14804C210.877 8.57737 211.131 8.92037 211.528 9.17704C211.929 9.42904 212.424 9.55504 213.012 9.55504C213.586 9.55504 214.038 9.43604 214.37 9.19804C214.701 8.95537 214.867 8.62637 214.867 8.21104C214.867 7.97771 214.813 7.78871 214.706 7.64404C214.603 7.49471 214.391 7.35704 214.069 7.23104C213.747 7.10504 213.266 6.95571 212.627 6.78304C211.941 6.59637 211.404 6.40971 211.017 6.22304C210.629 6.03637 210.354 5.82171 210.191 5.57904C210.027 5.33171 209.946 5.03071 209.946 4.67604C209.946 4.24671 210.067 3.87104 210.31 3.54904C210.552 3.22237 210.888 2.97037 211.318 2.79304C211.747 2.61104 212.246 2.52004 212.816 2.52004C213.385 2.52004 213.894 2.61337 214.342 2.80004C214.794 2.98204 215.158 3.23871 215.434 3.57004C215.709 3.90137 215.872 4.28637 215.924 4.72504L214.874 4.91404C214.804 4.47071 214.582 4.12071 214.209 3.86404C213.84 3.60271 213.371 3.46737 212.802 3.45804C212.265 3.44404 211.829 3.54671 211.493 3.76604C211.157 3.98071 210.989 4.26771 210.989 4.62704C210.989 4.82771 211.049 5.00037 211.171 5.14504C211.292 5.28504 211.511 5.41804 211.829 5.54404C212.151 5.67004 212.608 5.80771 213.201 5.95704C213.896 6.13437 214.442 6.32104 214.839 6.51704C215.235 6.71304 215.518 6.94404 215.686 7.21004C215.854 7.47604 215.938 7.80504 215.938 8.19704C215.938 8.91104 215.672 9.47337 215.14 9.88404C214.612 10.29 213.884 10.493 212.956 10.493ZM217.63 1.29504V0.140039H218.659V1.29504H217.63ZM217.63 10.29V2.73004H218.659V10.29H217.63ZM224.153 10.5C223.457 10.5 222.869 10.325 222.389 9.97504C221.908 9.62037 221.544 9.14204 221.297 8.54004C221.049 7.93337 220.926 7.25437 220.926 6.50304C220.926 5.73771 221.049 5.05637 221.297 4.45904C221.549 3.85704 221.917 3.38337 222.403 3.03804C222.888 2.69271 223.485 2.52004 224.195 2.52004C224.885 2.52004 225.478 2.69504 225.973 3.04504C226.467 3.39504 226.845 3.87104 227.107 4.47304C227.373 5.07504 227.506 5.75171 227.506 6.50304C227.506 7.25904 227.373 7.93804 227.107 8.54004C226.841 9.14204 226.458 9.62037 225.959 9.97504C225.459 10.325 224.857 10.5 224.153 10.5ZM220.751 10.29V0.210039H221.787V4.59904H221.675V10.29H220.751ZM224.048 9.54104C224.575 9.54104 225.014 9.40804 225.364 9.14204C225.714 8.87604 225.975 8.51437 226.148 8.05704C226.325 7.59504 226.414 7.07704 226.414 6.50304C226.414 5.93371 226.327 5.42037 226.155 4.96304C225.982 4.50571 225.718 4.14404 225.364 3.87804C225.014 3.61204 224.568 3.47904 224.027 3.47904C223.499 3.47904 223.061 3.60737 222.711 3.86404C222.365 4.12071 222.106 4.47771 221.934 4.93504C221.761 5.38771 221.675 5.91037 221.675 6.50304C221.675 7.08637 221.761 7.60904 221.934 8.07104C222.106 8.52837 222.368 8.88771 222.718 9.14904C223.068 9.41037 223.511 9.54104 224.048 9.54104ZM229.183 1.29504V0.140039H230.212V1.29504H229.183ZM229.183 10.29V2.73004H230.212V10.29H229.183ZM232.45 10.29V3.88622e-05H233.479V10.29H232.45ZM235.718 1.29504V0.140039H236.747V1.29504H235.718ZM235.718 10.29V2.73004H236.747V10.29H235.718ZM242.962 10.29C242.537 10.3787 242.117 10.4137 241.702 10.395C241.291 10.3764 240.922 10.2877 240.596 10.129C240.274 9.97037 240.029 9.72304 239.861 9.38704C239.725 9.10704 239.651 8.82471 239.637 8.54004C239.627 8.25071 239.623 7.92171 239.623 7.55304V0.630038H240.645V7.51104C240.645 7.82837 240.647 8.09437 240.652 8.30904C240.661 8.51904 240.71 8.70571 240.799 8.86904C240.967 9.18171 241.233 9.36837 241.597 9.42904C241.965 9.48971 242.42 9.47571 242.962 9.38704V10.29ZM238.006 3.61204V2.73004H242.962V3.61204H238.006ZM245.324 13.65L246.787 9.68104L246.808 10.857L243.497 2.73004H244.589L247.305 9.52704H246.857L249.363 2.73004H250.413L246.353 13.65H245.324Z" fill="#808080"/>
<path d="M383.898 169.5C382.895 169.5 382.048 169.278 381.357 168.835C380.667 168.387 380.144 167.769 379.789 166.98C379.435 166.191 379.257 165.281 379.257 164.25C379.257 163.219 379.435 162.309 379.789 161.52C380.144 160.731 380.667 160.115 381.357 159.672C382.048 159.224 382.895 159 383.898 159C385.07 159 386.026 159.301 386.768 159.903C387.51 160.5 388.019 161.303 388.294 162.311L387.244 162.584C387.03 161.786 386.645 161.154 386.089 160.687C385.534 160.22 384.804 159.987 383.898 159.987C383.11 159.987 382.454 160.167 381.931 160.526C381.409 160.885 381.014 161.387 380.748 162.031C380.487 162.67 380.352 163.41 380.342 164.25C380.338 165.09 380.466 165.83 380.727 166.469C380.993 167.108 381.39 167.61 381.917 167.974C382.449 168.333 383.11 168.513 383.898 168.513C384.804 168.513 385.534 168.28 386.089 167.813C386.645 167.342 387.03 166.709 387.244 165.916L388.294 166.189C388.019 167.197 387.51 168.002 386.768 168.604C386.026 169.201 385.07 169.5 383.898 169.5ZM392.996 169.5C392.244 169.5 391.603 169.33 391.071 168.989C390.539 168.648 390.13 168.177 389.846 167.575C389.561 166.973 389.419 166.282 389.419 165.503C389.419 164.71 389.563 164.014 389.853 163.417C390.142 162.82 390.553 162.355 391.085 162.024C391.621 161.688 392.258 161.52 392.996 161.52C393.752 161.52 394.396 161.69 394.928 162.031C395.464 162.367 395.873 162.836 396.153 163.438C396.437 164.035 396.58 164.724 396.58 165.503C396.58 166.296 396.437 166.994 396.153 167.596C395.868 168.193 395.457 168.66 394.921 168.996C394.384 169.332 393.742 169.5 392.996 169.5ZM392.996 168.513C393.836 168.513 394.461 168.235 394.872 167.68C395.282 167.12 395.488 166.394 395.488 165.503C395.488 164.588 395.28 163.86 394.865 163.319C394.454 162.778 393.831 162.507 392.996 162.507C392.431 162.507 391.964 162.635 391.596 162.892C391.232 163.144 390.959 163.496 390.777 163.949C390.599 164.397 390.511 164.915 390.511 165.503C390.511 166.413 390.721 167.143 391.141 167.694C391.561 168.24 392.179 168.513 392.996 168.513ZM403.584 169.29V165.433C403.584 165.013 403.544 164.628 403.465 164.278C403.385 163.923 403.257 163.615 403.08 163.354C402.907 163.088 402.681 162.883 402.401 162.738C402.125 162.593 401.789 162.521 401.393 162.521C401.029 162.521 400.707 162.584 400.427 162.71C400.151 162.836 399.918 163.018 399.727 163.256C399.54 163.489 399.398 163.774 399.3 164.11C399.202 164.446 399.153 164.829 399.153 165.258L398.425 165.097C398.425 164.322 398.56 163.671 398.831 163.144C399.101 162.617 399.475 162.218 399.951 161.947C400.427 161.676 400.973 161.541 401.589 161.541C402.041 161.541 402.436 161.611 402.772 161.751C403.112 161.891 403.399 162.08 403.633 162.318C403.871 162.556 404.062 162.829 404.207 163.137C404.351 163.44 404.456 163.765 404.522 164.11C404.587 164.451 404.62 164.791 404.62 165.132V169.29H403.584ZM398.117 169.29V161.73H399.048V163.592H399.153V169.29H398.117ZM410.552 169.29C410.128 169.379 409.708 169.414 409.292 169.395C408.882 169.376 408.513 169.288 408.186 169.129C407.864 168.97 407.619 168.723 407.451 168.387C407.316 168.107 407.241 167.825 407.227 167.54C407.218 167.251 407.213 166.922 407.213 166.553V159.63H408.235V166.511C408.235 166.828 408.238 167.094 408.242 167.309C408.252 167.519 408.301 167.706 408.389 167.869C408.557 168.182 408.823 168.368 409.187 168.429C409.556 168.49 410.011 168.476 410.552 168.387V169.29ZM405.596 162.612V161.73H410.552V162.612H405.596ZM412.042 169.29V161.73H412.966V163.55L412.784 163.312C412.868 163.088 412.977 162.883 413.113 162.696C413.248 162.505 413.395 162.348 413.554 162.227C413.75 162.054 413.978 161.924 414.24 161.835C414.501 161.742 414.765 161.688 415.031 161.674C415.297 161.655 415.539 161.674 415.759 161.73V162.696C415.483 162.626 415.182 162.61 414.856 162.647C414.529 162.684 414.228 162.815 413.953 163.039C413.701 163.235 413.512 163.471 413.386 163.746C413.26 164.017 413.176 164.306 413.134 164.614C413.092 164.917 413.071 165.218 413.071 165.517V169.29H412.042ZM420.107 169.5C419.356 169.5 418.714 169.33 418.182 168.989C417.65 168.648 417.242 168.177 416.957 167.575C416.672 166.973 416.53 166.282 416.53 165.503C416.53 164.71 416.675 164.014 416.964 163.417C417.253 162.82 417.664 162.355 418.196 162.024C418.733 161.688 419.37 161.52 420.107 161.52C420.863 161.52 421.507 161.69 422.039 162.031C422.576 162.367 422.984 162.836 423.264 163.438C423.549 164.035 423.691 164.724 423.691 165.503C423.691 166.296 423.549 166.994 423.264 167.596C422.979 168.193 422.569 168.66 422.032 168.996C421.495 169.332 420.854 169.5 420.107 169.5ZM420.107 168.513C420.947 168.513 421.572 168.235 421.983 167.68C422.394 167.12 422.599 166.394 422.599 165.503C422.599 164.588 422.391 163.86 421.976 163.319C421.565 162.778 420.942 162.507 420.107 162.507C419.542 162.507 419.076 162.635 418.707 162.892C418.343 163.144 418.07 163.496 417.888 163.949C417.711 164.397 417.622 164.915 417.622 165.503C417.622 166.413 417.832 167.143 418.252 167.694C418.672 168.24 419.29 168.513 420.107 168.513ZM425.375 169.29V159H426.404V169.29H425.375Z" fill="#808080"/>
<path d="M193.074 327.29V317.21H196.966C197.064 317.21 197.174 317.215 197.295 317.224C197.421 317.229 197.547 317.243 197.673 317.266C198.2 317.345 198.646 317.53 199.01 317.819C199.379 318.104 199.656 318.463 199.843 318.897C200.034 319.331 200.13 319.812 200.13 320.339C200.13 321.1 199.929 321.76 199.528 322.32C199.127 322.88 198.553 323.232 197.806 323.377L197.449 323.461H194.103V327.29H193.074ZM199.178 327.29L197.19 323.188L198.177 322.81L200.361 327.29H199.178ZM194.103 322.481H196.938C197.022 322.481 197.12 322.476 197.232 322.467C197.344 322.458 197.454 322.441 197.561 322.418C197.906 322.343 198.189 322.201 198.408 321.991C198.632 321.781 198.798 321.531 198.905 321.242C199.017 320.953 199.073 320.652 199.073 320.339C199.073 320.026 199.017 319.725 198.905 319.436C198.798 319.142 198.632 318.89 198.408 318.68C198.189 318.47 197.906 318.328 197.561 318.253C197.454 318.23 197.344 318.216 197.232 318.211C197.12 318.202 197.022 318.197 196.938 318.197H194.103V322.481ZM205.105 327.5C204.368 327.5 203.728 327.337 203.187 327.01C202.65 326.683 202.233 326.224 201.934 325.631C201.635 325.038 201.486 324.343 201.486 323.545C201.486 322.719 201.633 322.005 201.927 321.403C202.221 320.801 202.634 320.337 203.166 320.01C203.703 319.683 204.335 319.52 205.063 319.52C205.81 319.52 206.447 319.693 206.974 320.038C207.501 320.379 207.9 320.869 208.171 321.508C208.442 322.147 208.565 322.91 208.542 323.797H207.492V323.433C207.473 322.453 207.261 321.713 206.855 321.214C206.454 320.715 205.866 320.465 205.091 320.465C204.279 320.465 203.656 320.729 203.222 321.256C202.793 321.783 202.578 322.535 202.578 323.51C202.578 324.462 202.793 325.202 203.222 325.729C203.656 326.252 204.27 326.513 205.063 326.513C205.604 326.513 206.076 326.389 206.477 326.142C206.883 325.89 207.203 325.528 207.436 325.057L208.395 325.428C208.096 326.086 207.655 326.597 207.072 326.961C206.493 327.32 205.838 327.5 205.105 327.5ZM202.214 323.797V322.936H207.989V323.797H202.214ZM212.917 327.493C212.03 327.493 211.3 327.302 210.726 326.919C210.156 326.536 209.806 326.004 209.676 325.323L210.726 325.148C210.838 325.577 211.092 325.92 211.489 326.177C211.89 326.429 212.385 326.555 212.973 326.555C213.547 326.555 213.999 326.436 214.331 326.198C214.662 325.955 214.828 325.626 214.828 325.211C214.828 324.978 214.774 324.789 214.667 324.644C214.564 324.495 214.352 324.357 214.03 324.231C213.708 324.105 213.227 323.956 212.588 323.783C211.902 323.596 211.365 323.41 210.978 323.223C210.59 323.036 210.315 322.822 210.152 322.579C209.988 322.332 209.907 322.031 209.907 321.676C209.907 321.247 210.028 320.871 210.271 320.549C210.513 320.222 210.849 319.97 211.279 319.793C211.708 319.611 212.207 319.52 212.777 319.52C213.346 319.52 213.855 319.613 214.303 319.8C214.755 319.982 215.119 320.239 215.395 320.57C215.67 320.901 215.833 321.286 215.885 321.725L214.835 321.914C214.765 321.471 214.543 321.121 214.17 320.864C213.801 320.603 213.332 320.467 212.763 320.458C212.226 320.444 211.79 320.547 211.454 320.766C211.118 320.981 210.95 321.268 210.95 321.627C210.95 321.828 211.01 322 211.132 322.145C211.253 322.285 211.472 322.418 211.79 322.544C212.112 322.67 212.569 322.808 213.162 322.957C213.857 323.134 214.403 323.321 214.8 323.517C215.196 323.713 215.479 323.944 215.647 324.21C215.815 324.476 215.899 324.805 215.899 325.197C215.899 325.911 215.633 326.473 215.101 326.884C214.573 327.29 213.845 327.493 212.917 327.493ZM217.591 318.295V317.14H218.62V318.295H217.591ZM217.591 327.29V319.73H218.62V327.29H217.591ZM220.859 327.29V317H221.888V327.29H220.859ZM224.126 318.295V317.14H225.155V318.295H224.126ZM224.126 327.29V319.73H225.155V327.29H224.126ZM230.453 327.5C229.715 327.5 229.076 327.337 228.535 327.01C227.998 326.683 227.58 326.224 227.282 325.631C226.983 325.038 226.834 324.343 226.834 323.545C226.834 322.719 226.981 322.005 227.275 321.403C227.569 320.801 227.982 320.337 228.514 320.01C229.05 319.683 229.683 319.52 230.411 319.52C231.157 319.52 231.794 319.693 232.322 320.038C232.849 320.379 233.248 320.869 233.519 321.508C233.789 322.147 233.913 322.91 233.89 323.797H232.84V323.433C232.821 322.453 232.609 321.713 232.203 321.214C231.801 320.715 231.213 320.465 230.439 320.465C229.627 320.465 229.004 320.729 228.57 321.256C228.14 321.783 227.926 322.535 227.926 323.51C227.926 324.462 228.14 325.202 228.57 325.729C229.004 326.252 229.617 326.513 230.411 326.513C230.952 326.513 231.423 326.389 231.825 326.142C232.231 325.89 232.55 325.528 232.784 325.057L233.743 325.428C233.444 326.086 233.003 326.597 232.42 326.961C231.841 327.32 231.185 327.5 230.453 327.5ZM227.562 323.797V322.936H233.337V323.797H227.562ZM240.698 327.29V323.433C240.698 323.013 240.658 322.628 240.579 322.278C240.5 321.923 240.371 321.615 240.194 321.354C240.021 321.088 239.795 320.883 239.515 320.738C239.24 320.593 238.904 320.521 238.507 320.521C238.143 320.521 237.821 320.584 237.541 320.71C237.266 320.836 237.032 321.018 236.841 321.256C236.654 321.489 236.512 321.774 236.414 322.11C236.316 322.446 236.267 322.829 236.267 323.258L235.539 323.097C235.539 322.322 235.674 321.671 235.945 321.144C236.216 320.617 236.589 320.218 237.065 319.947C237.541 319.676 238.087 319.541 238.703 319.541C239.156 319.541 239.55 319.611 239.886 319.751C240.227 319.891 240.514 320.08 240.747 320.318C240.985 320.556 241.176 320.829 241.321 321.137C241.466 321.44 241.571 321.765 241.636 322.11C241.701 322.451 241.734 322.791 241.734 323.132V327.29H240.698ZM235.231 327.29V319.73H236.162V321.592H236.267V327.29H235.231ZM246.646 327.5C245.885 327.5 245.241 327.33 244.714 326.989C244.186 326.648 243.785 326.179 243.51 325.582C243.239 324.98 243.099 324.289 243.09 323.51C243.099 322.717 243.244 322.021 243.524 321.424C243.804 320.822 244.207 320.355 244.735 320.024C245.262 319.688 245.901 319.52 246.653 319.52C247.418 319.52 248.083 319.707 248.648 320.08C249.217 320.453 249.607 320.964 249.817 321.613L248.809 321.935C248.631 321.482 248.349 321.132 247.962 320.885C247.579 320.633 247.14 320.507 246.646 320.507C246.09 320.507 245.631 320.635 245.267 320.892C244.903 321.144 244.632 321.496 244.455 321.949C244.277 322.402 244.186 322.922 244.182 323.51C244.191 324.415 244.401 325.143 244.812 325.694C245.222 326.24 245.834 326.513 246.646 326.513C247.159 326.513 247.595 326.396 247.955 326.163C248.319 325.925 248.594 325.58 248.781 325.127L249.817 325.435C249.537 326.107 249.126 326.62 248.585 326.975C248.043 327.325 247.397 327.5 246.646 327.5ZM254.255 327.5C253.518 327.5 252.879 327.337 252.337 327.01C251.801 326.683 251.383 326.224 251.084 325.631C250.786 325.038 250.636 324.343 250.636 323.545C250.636 322.719 250.783 322.005 251.077 321.403C251.371 320.801 251.784 320.337 252.316 320.01C252.853 319.683 253.485 319.52 254.213 319.52C254.96 319.52 255.597 319.693 256.124 320.038C256.652 320.379 257.051 320.869 257.321 321.508C257.592 322.147 257.716 322.91 257.692 323.797H256.642V323.433C256.624 322.453 256.411 321.713 256.005 321.214C255.604 320.715 255.016 320.465 254.241 320.465C253.429 320.465 252.806 320.729 252.372 321.256C251.943 321.783 251.728 322.535 251.728 323.51C251.728 324.462 251.943 325.202 252.372 325.729C252.806 326.252 253.42 326.513 254.213 326.513C254.755 326.513 255.226 326.389 255.627 326.142C256.033 325.89 256.353 325.528 256.586 325.057L257.545 325.428C257.247 326.086 256.806 326.597 256.222 326.961C255.644 327.32 254.988 327.5 254.255 327.5ZM251.364 323.797V322.936H257.139V323.797H251.364Z" fill="#808080"/>
<path d="M1.24052e-06 169.29L3.472 159.21H4.837L8.309 169.29H7.238L3.941 159.784H4.347L1.071 169.29H1.24052e-06ZM1.547 166.847V165.881H6.755V166.847H1.547ZM12.464 169.479C12.0114 169.479 11.6147 169.409 11.274 169.269C10.938 169.129 10.651 168.94 10.413 168.702C10.1797 168.464 9.99071 168.193 9.84605 167.89C9.70138 167.582 9.59638 167.258 9.53105 166.917C9.46571 166.572 9.43305 166.229 9.43305 165.888V161.73H10.469V165.587C10.469 166.002 10.5087 166.387 10.588 166.742C10.6674 167.097 10.7934 167.407 10.966 167.673C11.1434 167.934 11.3697 168.137 11.645 168.282C11.925 168.427 12.2634 168.499 12.66 168.499C13.024 168.499 13.3437 168.436 13.619 168.31C13.899 168.184 14.1324 168.004 14.319 167.771C14.5104 167.533 14.655 167.246 14.753 166.91C14.851 166.569 14.9 166.187 14.9 165.762L15.628 165.923C15.628 166.698 15.4927 167.349 15.222 167.876C14.9514 168.403 14.578 168.802 14.102 169.073C13.626 169.344 13.08 169.479 12.464 169.479ZM15.005 169.29V167.428H14.9V161.73H15.929V169.29H15.005ZM22.0015 169.29C21.5769 169.379 21.1569 169.414 20.7415 169.395C20.3309 169.376 19.9622 169.288 19.6355 169.129C19.3135 168.97 19.0685 168.723 18.9005 168.387C18.7652 168.107 18.6905 167.825 18.6765 167.54C18.6672 167.251 18.6625 166.922 18.6625 166.553V159.63H19.6845V166.511C19.6845 166.828 19.6869 167.094 19.6915 167.309C19.7009 167.519 19.7499 167.706 19.8385 167.869C20.0065 168.182 20.2725 168.368 20.6365 168.429C21.0052 168.49 21.4602 168.476 22.0015 168.387V169.29ZM17.0455 162.612V161.73H22.0015V162.612H17.0455ZM26.3746 169.5C25.6232 169.5 24.9816 169.33 24.4496 168.989C23.9176 168.648 23.5092 168.177 23.2246 167.575C22.9399 166.973 22.7976 166.282 22.7976 165.503C22.7976 164.71 22.9422 164.014 23.2316 163.417C23.5209 162.82 23.9316 162.355 24.4636 162.024C25.0002 161.688 25.6372 161.52 26.3746 161.52C27.1306 161.52 27.7746 161.69 28.3066 162.031C28.8432 162.367 29.2516 162.836 29.5316 163.438C29.8162 164.035 29.9586 164.724 29.9586 165.503C29.9586 166.296 29.8162 166.994 29.5316 167.596C29.2469 168.193 28.8362 168.66 28.2996 168.996C27.7629 169.332 27.1212 169.5 26.3746 169.5ZM26.3746 168.513C27.2146 168.513 27.8399 168.235 28.2506 167.68C28.6612 167.12 28.8666 166.394 28.8666 165.503C28.8666 164.588 28.6589 163.86 28.2436 163.319C27.8329 162.778 27.2099 162.507 26.3746 162.507C25.8099 162.507 25.3432 162.635 24.9746 162.892C24.6106 163.144 24.3376 163.496 24.1556 163.949C23.9782 164.397 23.8896 164.915 23.8896 165.503C23.8896 166.413 24.0996 167.143 24.5196 167.694C24.9396 168.24 25.5579 168.513 26.3746 168.513ZM40.5187 169.29L40.5257 164.327C40.5257 163.744 40.3624 163.286 40.0357 162.955C39.7137 162.619 39.3031 162.451 38.8037 162.451C38.5191 162.451 38.2414 162.516 37.9707 162.647C37.7001 162.778 37.4761 162.988 37.2987 163.277C37.1261 163.566 37.0397 163.944 37.0397 164.411L36.4307 164.236C36.4167 163.695 36.5217 163.221 36.7457 162.815C36.9744 162.409 37.2871 162.094 37.6837 161.87C38.0851 161.641 38.5377 161.527 39.0417 161.527C39.8024 161.527 40.4114 161.763 40.8687 162.234C41.3261 162.701 41.5547 163.333 41.5547 164.131L41.5477 169.29H40.5187ZM31.4957 169.29V161.73H32.4197V163.592H32.5317V169.29H31.4957ZM36.0177 169.29L36.0247 164.397C36.0247 163.795 35.8637 163.321 35.5417 162.976C35.2244 162.626 34.8044 162.451 34.2817 162.451C33.7591 162.451 33.3367 162.631 33.0147 162.99C32.6927 163.345 32.5317 163.818 32.5317 164.411L31.9157 164.075C31.9157 163.59 32.0301 163.156 32.2587 162.773C32.4874 162.386 32.8001 162.082 33.1967 161.863C33.5934 161.639 34.0437 161.527 34.5477 161.527C35.0284 161.527 35.4554 161.63 35.8287 161.835C36.2067 162.04 36.5031 162.339 36.7177 162.731C36.9324 163.123 37.0397 163.599 37.0397 164.159L37.0327 169.29H36.0177ZM45.5329 169.5C44.9636 169.5 44.4853 169.397 44.0979 169.192C43.7153 168.987 43.4283 168.714 43.2369 168.373C43.0456 168.032 42.9499 167.661 42.9499 167.26C42.9499 166.849 43.0316 166.499 43.1949 166.21C43.3629 165.916 43.5893 165.676 43.8739 165.489C44.1633 165.302 44.4969 165.16 44.8749 165.062C45.2576 164.969 45.6799 164.887 46.1419 164.817C46.6086 164.742 47.0636 164.679 47.5069 164.628C47.9549 164.572 48.3469 164.518 48.6829 164.467L48.3189 164.691C48.3329 163.944 48.1883 163.391 47.8849 163.032C47.5816 162.673 47.0543 162.493 46.3029 162.493C45.7849 162.493 45.3463 162.61 44.9869 162.843C44.6323 163.076 44.3826 163.445 44.2379 163.949L43.2369 163.655C43.4096 162.978 43.7573 162.453 44.2799 162.08C44.8026 161.707 45.4816 161.52 46.3169 161.52C47.0076 161.52 47.5933 161.651 48.0739 161.912C48.5593 162.169 48.9023 162.542 49.1029 163.032C49.1963 163.251 49.2569 163.496 49.2849 163.767C49.3129 164.038 49.3269 164.313 49.3269 164.593V169.29H48.4099V167.393L48.6759 167.505C48.4193 168.154 48.0203 168.648 47.4789 168.989C46.9376 169.33 46.2889 169.5 45.5329 169.5ZM45.6519 168.611C46.1326 168.611 46.5526 168.525 46.9119 168.352C47.2713 168.179 47.5606 167.944 47.7799 167.645C47.9993 167.342 48.1416 167.001 48.2069 166.623C48.2629 166.38 48.2933 166.114 48.2979 165.825C48.3026 165.531 48.3049 165.312 48.3049 165.167L48.6969 165.37C48.3469 165.417 47.9666 165.463 47.5559 165.51C47.1499 165.557 46.7486 165.61 46.3519 165.671C45.9599 165.732 45.6053 165.804 45.2879 165.888C45.0733 165.949 44.8656 166.035 44.6649 166.147C44.4643 166.254 44.2986 166.399 44.1679 166.581C44.0419 166.763 43.9789 166.989 43.9789 167.26C43.9789 167.479 44.0326 167.692 44.1399 167.897C44.2519 168.102 44.4293 168.273 44.6719 168.408C44.9193 168.543 45.2459 168.611 45.6519 168.611ZM55.2652 169.29C54.8406 169.379 54.4206 169.414 54.0052 169.395C53.5946 169.376 53.2259 169.288 52.8992 169.129C52.5772 168.97 52.3322 168.723 52.1642 168.387C52.0289 168.107 51.9542 167.825 51.9402 167.54C51.9309 167.251 51.9262 166.922 51.9262 166.553V159.63H52.9482V166.511C52.9482 166.828 52.9506 167.094 52.9552 167.309C52.9646 167.519 53.0136 167.706 53.1022 167.869C53.2702 168.182 53.5362 168.368 53.9002 168.429C54.2689 168.49 54.7239 168.476 55.2652 168.387V169.29ZM50.3092 162.612V161.73H55.2652V162.612H50.3092ZM56.8947 160.295V159.14H57.9237V160.295H56.8947ZM56.8947 169.29V161.73H57.9237V169.29H56.8947ZM63.1793 169.5C62.4279 169.5 61.7863 169.33 61.2543 168.989C60.7223 168.648 60.3139 168.177 60.0293 167.575C59.7446 166.973 59.6023 166.282 59.6023 165.503C59.6023 164.71 59.7469 164.014 60.0363 163.417C60.3256 162.82 60.7363 162.355 61.2683 162.024C61.8049 161.688 62.4419 161.52 63.1793 161.52C63.9353 161.52 64.5793 161.69 65.1113 162.031C65.6479 162.367 66.0563 162.836 66.3363 163.438C66.6209 164.035 66.7633 164.724 66.7633 165.503C66.7633 166.296 66.6209 166.994 66.3363 167.596C66.0516 168.193 65.6409 168.66 65.1043 168.996C64.5676 169.332 63.9259 169.5 63.1793 169.5ZM63.1793 168.513C64.0193 168.513 64.6446 168.235 65.0553 167.68C65.4659 167.12 65.6713 166.394 65.6713 165.503C65.6713 164.588 65.4636 163.86 65.0483 163.319C64.6376 162.778 64.0146 162.507 63.1793 162.507C62.6146 162.507 62.1479 162.635 61.7793 162.892C61.4153 163.144 61.1423 163.496 60.9603 163.949C60.7829 164.397 60.6943 164.915 60.6943 165.503C60.6943 166.413 60.9043 167.143 61.3243 167.694C61.7443 168.24 62.3626 168.513 63.1793 168.513ZM73.7674 169.29V165.433C73.7674 165.013 73.7278 164.628 73.6484 164.278C73.5691 163.923 73.4408 163.615 73.2634 163.354C73.0908 163.088 72.8644 162.883 72.5844 162.738C72.3091 162.593 71.9731 162.521 71.5764 162.521C71.2124 162.521 70.8904 162.584 70.6104 162.71C70.3351 162.836 70.1018 163.018 69.9104 163.256C69.7238 163.489 69.5814 163.774 69.4834 164.11C69.3854 164.446 69.3364 164.829 69.3364 165.258L68.6084 165.097C68.6084 164.322 68.7438 163.671 69.0144 163.144C69.2851 162.617 69.6584 162.218 70.1344 161.947C70.6104 161.676 71.1564 161.541 71.7724 161.541C72.2251 161.541 72.6194 161.611 72.9554 161.751C73.2961 161.891 73.5831 162.08 73.8164 162.318C74.0544 162.556 74.2458 162.829 74.3904 163.137C74.5351 163.44 74.6401 163.765 74.7054 164.11C74.7708 164.451 74.8034 164.791 74.8034 165.132V169.29H73.7674ZM68.3004 169.29V161.73H69.2314V163.592H69.3364V169.29H68.3004Z" fill="#808080"/>
</svg>
