<svg width="384" height="384" viewBox="0 0 384 384" fill="none" xmlns="http://www.w3.org/2000/svg">
<path d="M169.105 1.87353C194.073 -1.13307 219.388 0.807544 243.606 7.58456C267.824 14.3616 290.47 25.8423 310.251 41.3712C330.031 56.9001 346.56 76.173 358.892 98.0897C371.225 120.006 379.12 144.137 382.126 169.105L268.051 182.842C266.848 172.855 263.69 163.203 258.757 154.436C253.824 145.669 247.213 137.96 239.3 131.748C231.388 125.537 222.33 120.945 212.642 118.234C202.955 115.523 192.829 114.747 182.842 115.949L169.105 1.87353Z" fill="#F6F6F6" stroke="#040213" stroke-opacity="0.08"/>
<path d="M33.892 300.047C7.42084 261.311 -3.90916 214.205 2.05208 167.668C8.01333 121.131 30.851 78.4023 66.2312 47.5892L141.692 134.236C127.54 146.561 118.405 163.653 116.021 182.267C113.636 200.882 118.168 219.724 128.757 235.219L33.892 300.047Z" fill="#F6F6F6" stroke="#040213" stroke-opacity="0.08"/>
<path d="M371.366 259.083C362.556 282.638 349.194 304.227 332.041 322.617C314.888 341.008 294.28 355.839 271.396 366.266C248.511 376.692 223.796 382.509 198.663 383.384C173.53 384.259 148.471 380.175 124.916 371.366L165.167 263.746C174.588 267.27 184.612 268.904 194.665 268.554C204.718 268.204 214.604 265.877 223.758 261.706C232.912 257.536 241.155 251.603 248.016 244.247C254.877 236.891 260.223 228.255 263.746 218.833L371.366 259.083Z" fill="#F6F6F6" stroke="#040213" stroke-opacity="0.08"/>
<circle cx="192" cy="192" r="61.5" fill="#FF2F66"/>
<path d="M158.192 188.5V178.42H164.632V179.799H159.655V182.627H163.792V184.006H159.655V187.121H164.632V188.5H158.192ZM171.619 188.5V184.783C171.619 184.489 171.593 184.188 171.542 183.88C171.495 183.567 171.402 183.278 171.262 183.012C171.127 182.746 170.933 182.531 170.681 182.368C170.434 182.205 170.109 182.123 169.708 182.123C169.447 182.123 169.199 182.167 168.966 182.256C168.733 182.34 168.527 182.478 168.35 182.669C168.177 182.86 168.04 183.112 167.937 183.425C167.839 183.738 167.79 184.118 167.79 184.566L166.88 184.223C166.88 183.537 167.008 182.933 167.265 182.41C167.522 181.883 167.89 181.472 168.371 181.178C168.852 180.884 169.433 180.737 170.114 180.737C170.637 180.737 171.075 180.821 171.43 180.989C171.785 181.157 172.072 181.379 172.291 181.654C172.515 181.925 172.685 182.221 172.802 182.543C172.919 182.865 172.998 183.18 173.04 183.488C173.082 183.796 173.103 184.067 173.103 184.3V188.5H171.619ZM166.306 188.5V180.94H167.615V183.124H167.79V188.5H166.306ZM179.252 188.5C178.776 188.593 178.31 188.633 177.852 188.619C177.395 188.605 176.987 188.516 176.627 188.353C176.268 188.19 175.997 187.933 175.815 187.583C175.652 187.27 175.563 186.953 175.549 186.631C175.54 186.304 175.535 185.936 175.535 185.525V178.84H177.005V185.455C177.005 185.758 177.008 186.022 177.012 186.246C177.022 186.47 177.071 186.659 177.159 186.813C177.327 187.102 177.593 187.268 177.957 187.31C178.326 187.347 178.758 187.331 179.252 187.261V188.5ZM174.086 182.116V180.94H179.252V182.116H174.086ZM183.857 188.71C183.106 188.71 182.446 188.547 181.876 188.22C181.312 187.889 180.871 187.429 180.553 186.841C180.241 186.248 180.084 185.562 180.084 184.783C180.084 183.957 180.238 183.241 180.546 182.634C180.859 182.027 181.293 181.558 181.848 181.227C182.404 180.896 183.05 180.73 183.787 180.73C184.557 180.73 185.213 180.91 185.754 181.269C186.296 181.624 186.699 182.13 186.965 182.788C187.236 183.446 187.343 184.228 187.287 185.133H185.824V184.601C185.815 183.724 185.647 183.075 185.32 182.655C184.998 182.235 184.506 182.025 183.843 182.025C183.111 182.025 182.56 182.256 182.191 182.718C181.823 183.18 181.638 183.847 181.638 184.72C181.638 185.551 181.823 186.195 182.191 186.652C182.56 187.105 183.092 187.331 183.787 187.331C184.245 187.331 184.639 187.228 184.97 187.023C185.306 186.813 185.568 186.514 185.754 186.127L187.189 186.582C186.895 187.259 186.45 187.784 185.852 188.157C185.255 188.526 184.59 188.71 183.857 188.71ZM181.162 185.133V183.992H186.559V185.133H181.162ZM188.858 188.5V180.94H190.16V182.774L189.978 182.536C190.071 182.293 190.193 182.072 190.342 181.871C190.491 181.666 190.664 181.498 190.86 181.367C191.051 181.227 191.264 181.12 191.497 181.045C191.735 180.966 191.978 180.919 192.225 180.905C192.472 180.886 192.71 180.898 192.939 180.94V182.312C192.692 182.247 192.416 182.228 192.113 182.256C191.814 182.284 191.539 182.38 191.287 182.543C191.049 182.697 190.86 182.884 190.72 183.103C190.585 183.322 190.487 183.567 190.426 183.838C190.365 184.104 190.335 184.386 190.335 184.685V188.5H188.858ZM197.821 188.71C197.098 188.71 196.491 188.535 196.001 188.185C195.511 187.83 195.14 187.352 194.888 186.75C194.636 186.148 194.51 185.469 194.51 184.713C194.51 183.957 194.634 183.278 194.881 182.676C195.133 182.074 195.502 181.6 195.987 181.255C196.477 180.905 197.079 180.73 197.793 180.73C198.502 180.73 199.114 180.905 199.627 181.255C200.145 181.6 200.544 182.074 200.824 182.676C201.104 183.273 201.244 183.952 201.244 184.713C201.244 185.469 201.104 186.15 200.824 186.757C200.549 187.359 200.154 187.835 199.641 188.185C199.132 188.535 198.526 188.71 197.821 188.71ZM194.265 191.86V180.94H195.567V186.379H195.735V191.86H194.265ZM197.618 187.387C198.085 187.387 198.47 187.268 198.773 187.03C199.081 186.792 199.31 186.472 199.459 186.071C199.613 185.665 199.69 185.212 199.69 184.713C199.69 184.218 199.613 183.77 199.459 183.369C199.31 182.968 199.079 182.648 198.766 182.41C198.453 182.172 198.054 182.053 197.569 182.053C197.112 182.053 196.734 182.165 196.435 182.389C196.141 182.613 195.922 182.926 195.777 183.327C195.637 183.728 195.567 184.19 195.567 184.713C195.567 185.236 195.637 185.698 195.777 186.099C195.917 186.5 196.139 186.815 196.442 187.044C196.745 187.273 197.137 187.387 197.618 187.387ZM202.79 188.5V180.94H204.092V182.774L203.91 182.536C204.003 182.293 204.124 182.072 204.274 181.871C204.423 181.666 204.596 181.498 204.792 181.367C204.983 181.227 205.195 181.12 205.429 181.045C205.667 180.966 205.909 180.919 206.157 180.905C206.404 180.886 206.642 180.898 206.871 180.94V182.312C206.623 182.247 206.348 182.228 206.045 182.256C205.746 182.284 205.471 182.38 205.219 182.543C204.981 182.697 204.792 182.884 204.652 183.103C204.516 183.322 204.418 183.567 204.358 183.838C204.297 184.104 204.267 184.386 204.267 184.685V188.5H202.79ZM208.344 179.701V178.28H209.807V179.701H208.344ZM208.344 188.5V180.94H209.807V188.5H208.344ZM214.8 188.703C213.88 188.703 213.131 188.5 212.553 188.094C211.974 187.688 211.619 187.116 211.489 186.379L212.987 186.148C213.08 186.54 213.295 186.85 213.631 187.079C213.971 187.303 214.394 187.415 214.898 187.415C215.355 187.415 215.712 187.322 215.969 187.135C216.23 186.948 216.361 186.692 216.361 186.365C216.361 186.174 216.314 186.02 216.221 185.903C216.132 185.782 215.943 185.667 215.654 185.56C215.364 185.453 214.923 185.32 214.331 185.161C213.682 184.993 213.166 184.813 212.784 184.622C212.406 184.426 212.135 184.2 211.972 183.943C211.813 183.682 211.734 183.367 211.734 182.998C211.734 182.541 211.855 182.142 212.098 181.801C212.34 181.46 212.681 181.197 213.12 181.01C213.563 180.823 214.081 180.73 214.674 180.73C215.252 180.73 215.768 180.821 216.221 181.003C216.673 181.185 217.04 181.444 217.32 181.78C217.6 182.111 217.768 182.501 217.824 182.949L216.326 183.222C216.274 182.858 216.104 182.571 215.815 182.361C215.525 182.151 215.15 182.037 214.688 182.018C214.244 181.999 213.885 182.074 213.61 182.242C213.334 182.405 213.197 182.632 213.197 182.921C213.197 183.089 213.248 183.231 213.351 183.348C213.458 183.465 213.663 183.577 213.967 183.684C214.27 183.791 214.718 183.92 215.311 184.069C215.945 184.232 216.449 184.414 216.823 184.615C217.196 184.811 217.462 185.047 217.621 185.322C217.784 185.593 217.866 185.922 217.866 186.309C217.866 187.056 217.593 187.641 217.047 188.066C216.505 188.491 215.756 188.703 214.8 188.703ZM222.768 188.71C222.016 188.71 221.356 188.547 220.787 188.22C220.222 187.889 219.781 187.429 219.464 186.841C219.151 186.248 218.995 185.562 218.995 184.783C218.995 183.957 219.149 183.241 219.457 182.634C219.769 182.027 220.203 181.558 220.759 181.227C221.314 180.896 221.96 180.73 222.698 180.73C223.468 180.73 224.123 180.91 224.665 181.269C225.206 181.624 225.61 182.13 225.876 182.788C226.146 183.446 226.254 184.228 226.198 185.133H224.735V184.601C224.725 183.724 224.557 183.075 224.231 182.655C223.909 182.235 223.416 182.025 222.754 182.025C222.021 182.025 221.47 182.256 221.102 182.718C220.733 183.18 220.549 183.847 220.549 184.72C220.549 185.551 220.733 186.195 221.102 186.652C221.47 187.105 222.002 187.331 222.698 187.331C223.155 187.331 223.549 187.228 223.881 187.023C224.217 186.813 224.478 186.514 224.665 186.127L226.1 186.582C225.806 187.259 225.36 187.784 224.763 188.157C224.165 188.526 223.5 188.71 222.768 188.71ZM220.073 185.133V183.992H225.47V185.133H220.073ZM149.752 207.71C148.744 207.71 147.886 207.491 147.176 207.052C146.467 206.609 145.923 205.993 145.545 205.204C145.172 204.415 144.985 203.501 144.985 202.46C144.985 201.419 145.172 200.505 145.545 199.716C145.923 198.927 146.467 198.314 147.176 197.875C147.886 197.432 148.744 197.21 149.752 197.21C150.914 197.21 151.876 197.504 152.636 198.092C153.402 198.68 153.934 199.471 154.232 200.465L152.748 200.864C152.552 200.159 152.202 199.606 151.698 199.205C151.199 198.804 150.55 198.603 149.752 198.603C149.038 198.603 148.443 198.764 147.967 199.086C147.491 199.408 147.132 199.858 146.889 200.437C146.651 201.016 146.532 201.69 146.532 202.46C146.528 203.23 146.644 203.904 146.882 204.483C147.125 205.062 147.484 205.512 147.96 205.834C148.441 206.156 149.038 206.317 149.752 206.317C150.55 206.317 151.199 206.116 151.698 205.715C152.202 205.309 152.552 204.756 152.748 204.056L154.232 204.455C153.934 205.449 153.402 206.24 152.636 206.828C151.876 207.416 150.914 207.71 149.752 207.71ZM156.794 210.86L158.257 206.877L158.278 208.053L154.981 199.94H156.507L158.971 206.205H158.523L160.875 199.94H162.359L158.187 210.86H156.794ZM167.005 207.71C166.281 207.71 165.675 207.535 165.185 207.185C164.695 206.83 164.324 206.352 164.072 205.75C163.82 205.148 163.694 204.469 163.694 203.713C163.694 202.957 163.817 202.278 164.065 201.676C164.317 201.074 164.685 200.6 165.171 200.255C165.661 199.905 166.263 199.73 166.977 199.73C167.686 199.73 168.297 199.905 168.811 200.255C169.329 200.6 169.728 201.074 170.008 201.676C170.288 202.273 170.428 202.952 170.428 203.713C170.428 204.469 170.288 205.15 170.008 205.757C169.732 206.359 169.338 206.835 168.825 207.185C168.316 207.535 167.709 207.71 167.005 207.71ZM163.449 207.5V197.42H164.919V202.061H164.751V207.5H163.449ZM166.802 206.387C167.268 206.387 167.653 206.268 167.957 206.03C168.265 205.792 168.493 205.472 168.643 205.071C168.797 204.665 168.874 204.212 168.874 203.713C168.874 203.218 168.797 202.77 168.643 202.369C168.493 201.968 168.262 201.648 167.95 201.41C167.637 201.172 167.238 201.053 166.753 201.053C166.295 201.053 165.917 201.165 165.619 201.389C165.325 201.613 165.105 201.926 164.961 202.327C164.821 202.728 164.751 203.19 164.751 203.713C164.751 204.236 164.821 204.698 164.961 205.099C165.101 205.5 165.322 205.815 165.626 206.044C165.929 206.273 166.321 206.387 166.802 206.387ZM175.326 207.71C174.575 207.71 173.914 207.547 173.345 207.22C172.78 206.889 172.339 206.429 172.022 205.841C171.709 205.248 171.553 204.562 171.553 203.783C171.553 202.957 171.707 202.241 172.015 201.634C172.328 201.027 172.762 200.558 173.317 200.227C173.872 199.896 174.519 199.73 175.256 199.73C176.026 199.73 176.682 199.91 177.223 200.269C177.764 200.624 178.168 201.13 178.434 201.788C178.705 202.446 178.812 203.228 178.756 204.133H177.293V203.601C177.284 202.724 177.116 202.075 176.789 201.655C176.467 201.235 175.975 201.025 175.312 201.025C174.579 201.025 174.029 201.256 173.66 201.718C173.291 202.18 173.107 202.847 173.107 203.72C173.107 204.551 173.291 205.195 173.66 205.652C174.029 206.105 174.561 206.331 175.256 206.331C175.713 206.331 176.108 206.228 176.439 206.023C176.775 205.813 177.036 205.514 177.223 205.127L178.658 205.582C178.364 206.259 177.918 206.784 177.321 207.157C176.724 207.526 176.059 207.71 175.326 207.71ZM172.631 204.133V202.992H178.028V204.133H172.631ZM180.327 207.5V199.94H181.629V201.774L181.447 201.536C181.54 201.293 181.661 201.072 181.811 200.871C181.96 200.666 182.133 200.498 182.329 200.367C182.52 200.227 182.732 200.12 182.966 200.045C183.204 199.966 183.446 199.919 183.694 199.905C183.941 199.886 184.179 199.898 184.408 199.94V201.312C184.16 201.247 183.885 201.228 183.582 201.256C183.283 201.284 183.008 201.38 182.756 201.543C182.518 201.697 182.329 201.884 182.189 202.103C182.053 202.322 181.955 202.567 181.895 202.838C181.834 203.104 181.804 203.386 181.804 203.685V207.5H180.327ZM188.358 207.703C187.439 207.703 186.69 207.5 186.111 207.094C185.533 206.688 185.178 206.116 185.047 205.379L186.545 205.148C186.639 205.54 186.853 205.85 187.189 206.079C187.53 206.303 187.952 206.415 188.456 206.415C188.914 206.415 189.271 206.322 189.527 206.135C189.789 205.948 189.919 205.692 189.919 205.365C189.919 205.174 189.873 205.02 189.779 204.903C189.691 204.782 189.502 204.667 189.212 204.56C188.923 204.453 188.482 204.32 187.889 204.161C187.241 203.993 186.725 203.813 186.342 203.622C185.964 203.426 185.694 203.2 185.53 202.943C185.372 202.682 185.292 202.367 185.292 201.998C185.292 201.541 185.414 201.142 185.656 200.801C185.899 200.46 186.24 200.197 186.678 200.01C187.122 199.823 187.64 199.73 188.232 199.73C188.811 199.73 189.327 199.821 189.779 200.003C190.232 200.185 190.598 200.444 190.878 200.78C191.158 201.111 191.326 201.501 191.382 201.949L189.884 202.222C189.833 201.858 189.663 201.571 189.373 201.361C189.084 201.151 188.708 201.037 188.246 201.018C187.803 200.999 187.444 201.074 187.168 201.242C186.893 201.405 186.755 201.632 186.755 201.921C186.755 202.089 186.807 202.231 186.909 202.348C187.017 202.465 187.222 202.577 187.525 202.684C187.829 202.791 188.277 202.92 188.869 203.069C189.504 203.232 190.008 203.414 190.381 203.615C190.755 203.811 191.021 204.047 191.179 204.322C191.343 204.593 191.424 204.922 191.424 205.309C191.424 206.056 191.151 206.641 190.605 207.066C190.064 207.491 189.315 207.703 188.358 207.703ZM196.326 207.71C195.575 207.71 194.914 207.547 194.345 207.22C193.78 206.889 193.339 206.429 193.022 205.841C192.709 205.248 192.553 204.562 192.553 203.783C192.553 202.957 192.707 202.241 193.015 201.634C193.328 201.027 193.762 200.558 194.317 200.227C194.872 199.896 195.519 199.73 196.256 199.73C197.026 199.73 197.682 199.91 198.223 200.269C198.764 200.624 199.168 201.13 199.434 201.788C199.705 202.446 199.812 203.228 199.756 204.133H198.293V203.601C198.284 202.724 198.116 202.075 197.789 201.655C197.467 201.235 196.975 201.025 196.312 201.025C195.579 201.025 195.029 201.256 194.66 201.718C194.291 202.18 194.107 202.847 194.107 203.72C194.107 204.551 194.291 205.195 194.66 205.652C195.029 206.105 195.561 206.331 196.256 206.331C196.713 206.331 197.108 206.228 197.439 206.023C197.775 205.813 198.036 205.514 198.223 205.127L199.658 205.582C199.364 206.259 198.918 206.784 198.321 207.157C197.724 207.526 197.059 207.71 196.326 207.71ZM193.631 204.133V202.992H199.028V204.133H193.631ZM204.561 207.71C203.786 207.71 203.128 207.537 202.587 207.192C202.045 206.847 201.63 206.373 201.341 205.771C201.056 205.169 200.911 204.485 200.907 203.72C200.911 202.941 201.061 202.252 201.355 201.655C201.649 201.053 202.069 200.582 202.615 200.241C203.161 199.9 203.816 199.73 204.582 199.73C205.408 199.73 206.112 199.935 206.696 200.346C207.284 200.757 207.671 201.319 207.858 202.033L206.402 202.453C206.257 202.028 206.019 201.699 205.688 201.466C205.361 201.228 204.985 201.109 204.561 201.109C204.08 201.109 203.686 201.223 203.378 201.452C203.07 201.676 202.841 201.984 202.692 202.376C202.542 202.768 202.465 203.216 202.461 203.72C202.465 204.499 202.643 205.129 202.993 205.61C203.347 206.091 203.87 206.331 204.561 206.331C205.032 206.331 205.412 206.224 205.702 206.009C205.996 205.79 206.22 205.477 206.374 205.071L207.858 205.421C207.61 206.158 207.202 206.725 206.633 207.122C206.063 207.514 205.373 207.71 204.561 207.71ZM212.133 207.703C211.61 207.703 211.171 207.619 210.817 207.451C210.462 207.283 210.173 207.064 209.949 206.793C209.729 206.518 209.561 206.219 209.445 205.897C209.328 205.575 209.249 205.26 209.207 204.952C209.165 204.644 209.144 204.373 209.144 204.14V199.94H210.628V203.657C210.628 203.951 210.651 204.254 210.698 204.567C210.749 204.875 210.842 205.162 210.978 205.428C211.118 205.694 211.311 205.909 211.559 206.072C211.811 206.235 212.137 206.317 212.539 206.317C212.8 206.317 213.047 206.275 213.281 206.191C213.514 206.102 213.717 205.962 213.89 205.771C214.067 205.58 214.205 205.328 214.303 205.015C214.405 204.702 214.457 204.322 214.457 203.874L215.367 204.217C215.367 204.903 215.238 205.51 214.982 206.037C214.725 206.56 214.356 206.968 213.876 207.262C213.395 207.556 212.814 207.703 212.133 207.703ZM214.632 207.5V205.316H214.457V199.94H215.934V207.5H214.632ZM217.897 207.5V199.94H219.199V201.774L219.017 201.536C219.11 201.293 219.232 201.072 219.381 200.871C219.53 200.666 219.703 200.498 219.899 200.367C220.09 200.227 220.303 200.12 220.536 200.045C220.774 199.966 221.017 199.919 221.264 199.905C221.511 199.886 221.749 199.898 221.978 199.94V201.312C221.731 201.247 221.455 201.228 221.152 201.256C220.853 201.284 220.578 201.38 220.326 201.543C220.088 201.697 219.899 201.884 219.759 202.103C219.624 202.322 219.526 202.567 219.465 202.838C219.404 203.104 219.374 203.386 219.374 203.685V207.5H217.897ZM223.451 198.701V197.28H224.914V198.701H223.451ZM223.451 207.5V199.94H224.914V207.5H223.451ZM231.342 207.5C230.866 207.593 230.399 207.633 229.942 207.619C229.485 207.605 229.076 207.516 228.717 207.353C228.358 207.19 228.087 206.933 227.905 206.583C227.742 206.27 227.653 205.953 227.639 205.631C227.63 205.304 227.625 204.936 227.625 204.525V197.84H229.095V204.455C229.095 204.758 229.097 205.022 229.102 205.246C229.111 205.47 229.16 205.659 229.249 205.813C229.417 206.102 229.683 206.268 230.047 206.31C230.416 206.347 230.847 206.331 231.342 206.261V207.5ZM226.176 201.116V199.94H231.342V201.116H226.176ZM233.753 210.86L235.216 206.877L235.237 208.053L231.94 199.94H233.466L235.93 206.205H235.482L237.834 199.94H239.318L235.146 210.86H233.753Z" fill="white"/>
<path d="M243.768 104.5V94.42H247.751C247.849 94.42 247.966 94.4247 248.101 94.434C248.236 94.4387 248.367 94.4527 248.493 94.476C249.039 94.56 249.496 94.7467 249.865 95.036C250.238 95.3253 250.518 95.6917 250.705 96.135C250.892 96.5737 250.985 97.0613 250.985 97.598C250.985 98.13 250.889 98.6177 250.698 99.061C250.511 99.4997 250.231 99.866 249.858 100.16C249.489 100.449 249.034 100.636 248.493 100.72C248.367 100.739 248.236 100.753 248.101 100.762C247.966 100.771 247.849 100.776 247.751 100.776H245.014V104.5H243.768ZM245.014 99.593H247.709C247.798 99.593 247.898 99.5883 248.01 99.579C248.127 99.5697 248.236 99.5533 248.339 99.53C248.661 99.4553 248.922 99.32 249.123 99.124C249.328 98.9233 249.478 98.69 249.571 98.424C249.664 98.1533 249.711 97.878 249.711 97.598C249.711 97.318 249.664 97.045 249.571 96.779C249.478 96.5083 249.328 96.2727 249.123 96.072C248.922 95.8713 248.661 95.736 248.339 95.666C248.236 95.638 248.127 95.6217 248.01 95.617C247.898 95.6077 247.798 95.603 247.709 95.603H245.014V99.593ZM252.381 104.5V96.94H253.494V98.767L253.312 98.529C253.401 98.2957 253.515 98.081 253.655 97.885C253.8 97.689 253.961 97.528 254.138 97.402C254.334 97.2433 254.556 97.122 254.803 97.038C255.051 96.954 255.303 96.905 255.559 96.891C255.816 96.8723 256.056 96.8887 256.28 96.94V98.109C256.019 98.039 255.732 98.0203 255.419 98.053C255.107 98.0857 254.817 98.2 254.551 98.396C254.309 98.5687 254.12 98.7787 253.984 99.026C253.854 99.2733 253.763 99.5417 253.711 99.831C253.66 100.116 253.634 100.407 253.634 100.706V104.5H252.381ZM260.687 104.71C259.936 104.71 259.287 104.54 258.741 104.199C258.2 103.858 257.782 103.387 257.488 102.785C257.194 102.183 257.047 101.492 257.047 100.713C257.047 99.9197 257.197 99.2243 257.495 98.627C257.794 98.0297 258.216 97.5653 258.762 97.234C259.308 96.898 259.95 96.73 260.687 96.73C261.443 96.73 262.094 96.9003 262.64 97.241C263.186 97.577 263.604 98.046 263.893 98.648C264.187 99.2453 264.334 99.9337 264.334 100.713C264.334 101.502 264.187 102.197 263.893 102.799C263.599 103.396 263.179 103.865 262.633 104.206C262.087 104.542 261.439 104.71 260.687 104.71ZM260.687 103.527C261.471 103.527 262.055 103.266 262.437 102.743C262.82 102.22 263.011 101.544 263.011 100.713C263.011 99.859 262.818 99.18 262.43 98.676C262.043 98.1673 261.462 97.913 260.687 97.913C260.16 97.913 259.726 98.032 259.385 98.27C259.045 98.508 258.79 98.837 258.622 99.257C258.454 99.677 258.37 100.162 258.37 100.713C258.37 101.562 258.566 102.244 258.958 102.757C259.35 103.27 259.927 103.527 260.687 103.527ZM270.097 104.5C269.649 104.589 269.205 104.624 268.767 104.605C268.333 104.591 267.945 104.505 267.605 104.346C267.264 104.183 267.005 103.931 266.828 103.59C266.678 103.291 266.597 102.99 266.583 102.687C266.573 102.379 266.569 102.031 266.569 101.644V94.84H267.815V101.588C267.815 101.896 267.817 102.16 267.822 102.379C267.831 102.598 267.88 102.787 267.969 102.946C268.137 103.245 268.403 103.42 268.767 103.471C269.135 103.522 269.579 103.508 270.097 103.429V104.5ZM265.036 97.969V96.94H270.097V97.969H265.036ZM274.593 104.71C273.851 104.71 273.202 104.547 272.647 104.22C272.096 103.889 271.667 103.429 271.359 102.841C271.051 102.248 270.897 101.558 270.897 100.769C270.897 99.943 271.049 99.229 271.352 98.627C271.655 98.0203 272.078 97.5537 272.619 97.227C273.165 96.8957 273.804 96.73 274.537 96.73C275.298 96.73 275.944 96.905 276.476 97.255C277.013 97.605 277.414 98.1043 277.68 98.753C277.951 99.4017 278.067 100.174 278.03 101.07H276.77V100.622C276.756 99.6933 276.567 99.0003 276.203 98.543C275.839 98.081 275.298 97.85 274.579 97.85C273.809 97.85 273.223 98.0973 272.822 98.592C272.421 99.0867 272.22 99.796 272.22 100.72C272.22 101.611 272.421 102.302 272.822 102.792C273.223 103.282 273.795 103.527 274.537 103.527C275.036 103.527 275.47 103.413 275.839 103.184C276.208 102.955 276.497 102.626 276.707 102.197L277.904 102.61C277.61 103.277 277.167 103.795 276.574 104.164C275.986 104.528 275.326 104.71 274.593 104.71ZM271.8 101.07V100.069H277.386V101.07H271.8ZM282.773 104.71C282.008 104.71 281.357 104.54 280.82 104.199C280.288 103.854 279.882 103.38 279.602 102.778C279.322 102.176 279.178 101.49 279.168 100.72C279.178 99.9313 279.325 99.2383 279.609 98.641C279.899 98.039 280.312 97.57 280.848 97.234C281.385 96.898 282.031 96.73 282.787 96.73C283.585 96.73 284.271 96.926 284.845 97.318C285.424 97.71 285.811 98.2467 286.007 98.928L284.775 99.299C284.617 98.8603 284.358 98.5197 283.998 98.277C283.644 98.0343 283.235 97.913 282.773 97.913C282.255 97.913 281.828 98.0343 281.492 98.277C281.156 98.515 280.907 98.8463 280.743 99.271C280.58 99.691 280.496 100.174 280.491 100.72C280.501 101.56 280.694 102.239 281.072 102.757C281.455 103.27 282.022 103.527 282.773 103.527C283.268 103.527 283.679 103.415 284.005 103.191C284.332 102.962 284.579 102.633 284.747 102.204L286.007 102.533C285.746 103.238 285.338 103.777 284.782 104.15C284.227 104.523 283.557 104.71 282.773 104.71ZM291.657 104.5C291.209 104.589 290.766 104.624 290.327 104.605C289.893 104.591 289.506 104.505 289.165 104.346C288.824 104.183 288.565 103.931 288.388 103.59C288.239 103.291 288.157 102.99 288.143 102.687C288.134 102.379 288.129 102.031 288.129 101.644V94.84H289.375V101.588C289.375 101.896 289.377 102.16 289.382 102.379C289.391 102.598 289.44 102.787 289.529 102.946C289.697 103.245 289.963 103.42 290.327 103.471C290.696 103.522 291.139 103.508 291.657 103.429V104.5ZM286.596 97.969V96.94H291.657V97.969H286.596Z" fill="#040213"/>
<path d="M227.921 325.5V315.42H231.029C231.132 315.42 231.312 315.422 231.568 315.427C231.825 315.432 232.07 315.45 232.303 315.483C233.083 315.586 233.734 315.87 234.256 316.337C234.784 316.799 235.18 317.387 235.446 318.101C235.712 318.815 235.845 319.601 235.845 320.46C235.845 321.319 235.712 322.105 235.446 322.819C235.18 323.533 234.784 324.123 234.256 324.59C233.734 325.052 233.083 325.334 232.303 325.437C232.07 325.465 231.823 325.484 231.561 325.493C231.305 325.498 231.127 325.5 231.029 325.5H227.921ZM229.202 324.31H231.029C231.207 324.31 231.405 324.305 231.624 324.296C231.844 324.282 232.035 324.261 232.198 324.233C232.749 324.13 233.195 323.899 233.535 323.54C233.876 323.181 234.126 322.733 234.284 322.196C234.443 321.659 234.522 321.081 234.522 320.46C234.522 319.825 234.441 319.24 234.277 318.703C234.119 318.166 233.869 317.721 233.528 317.366C233.188 317.011 232.744 316.785 232.198 316.687C232.035 316.654 231.841 316.633 231.617 316.624C231.393 316.615 231.197 316.61 231.029 316.61H229.202V324.31ZM240.727 325.71C239.985 325.71 239.336 325.547 238.781 325.22C238.23 324.889 237.801 324.429 237.493 323.841C237.185 323.248 237.031 322.558 237.031 321.769C237.031 320.943 237.182 320.229 237.486 319.627C237.789 319.02 238.211 318.554 238.753 318.227C239.299 317.896 239.938 317.73 240.671 317.73C241.431 317.73 242.078 317.905 242.61 318.255C243.146 318.605 243.548 319.104 243.814 319.753C244.084 320.402 244.201 321.174 244.164 322.07H242.904V321.622C242.89 320.693 242.701 320 242.337 319.543C241.973 319.081 241.431 318.85 240.713 318.85C239.943 318.85 239.357 319.097 238.956 319.592C238.554 320.087 238.354 320.796 238.354 321.72C238.354 322.611 238.554 323.302 238.956 323.792C239.357 324.282 239.929 324.527 240.671 324.527C241.17 324.527 241.604 324.413 241.973 324.184C242.341 323.955 242.631 323.626 242.841 323.197L244.038 323.61C243.744 324.277 243.3 324.795 242.708 325.164C242.12 325.528 241.459 325.71 240.727 325.71ZM237.934 322.07V321.069H243.52V322.07H237.934ZM249.943 325.5C249.495 325.589 249.052 325.624 248.613 325.605C248.179 325.591 247.792 325.505 247.451 325.346C247.111 325.183 246.852 324.931 246.674 324.59C246.525 324.291 246.443 323.99 246.429 323.687C246.42 323.379 246.415 323.031 246.415 322.644V315.84H247.661V322.588C247.661 322.896 247.664 323.16 247.668 323.379C247.678 323.598 247.727 323.787 247.815 323.946C247.983 324.245 248.249 324.42 248.613 324.471C248.982 324.522 249.425 324.508 249.943 324.429V325.5ZM244.882 318.969V317.94H249.943V318.969H244.882ZM254.44 325.71C253.698 325.71 253.049 325.547 252.494 325.22C251.943 324.889 251.514 324.429 251.206 323.841C250.898 323.248 250.744 322.558 250.744 321.769C250.744 320.943 250.895 320.229 251.199 319.627C251.502 319.02 251.924 318.554 252.466 318.227C253.012 317.896 253.651 317.73 254.384 317.73C255.144 317.73 255.791 317.905 256.323 318.255C256.859 318.605 257.261 319.104 257.527 319.753C257.797 320.402 257.914 321.174 257.877 322.07H256.617V321.622C256.603 320.693 256.414 320 256.05 319.543C255.686 319.081 255.144 318.85 254.426 318.85C253.656 318.85 253.07 319.097 252.669 319.592C252.267 320.087 252.067 320.796 252.067 321.72C252.067 322.611 252.267 323.302 252.669 323.792C253.07 324.282 253.642 324.527 254.384 324.527C254.883 324.527 255.317 324.413 255.686 324.184C256.054 323.955 256.344 323.626 256.554 323.197L257.751 323.61C257.457 324.277 257.013 324.795 256.421 325.164C255.833 325.528 255.172 325.71 254.44 325.71ZM251.647 322.07V321.069H257.233V322.07H251.647ZM262.62 325.71C261.855 325.71 261.204 325.54 260.667 325.199C260.135 324.854 259.729 324.38 259.449 323.778C259.169 323.176 259.024 322.49 259.015 321.72C259.024 320.931 259.171 320.238 259.456 319.641C259.745 319.039 260.158 318.57 260.695 318.234C261.232 317.898 261.878 317.73 262.634 317.73C263.432 317.73 264.118 317.926 264.692 318.318C265.271 318.71 265.658 319.247 265.854 319.928L264.622 320.299C264.463 319.86 264.204 319.52 263.845 319.277C263.49 319.034 263.082 318.913 262.62 318.913C262.102 318.913 261.675 319.034 261.339 319.277C261.003 319.515 260.753 319.846 260.59 320.271C260.427 320.691 260.343 321.174 260.338 321.72C260.347 322.56 260.541 323.239 260.919 323.757C261.302 324.27 261.869 324.527 262.62 324.527C263.115 324.527 263.525 324.415 263.852 324.191C264.179 323.962 264.426 323.633 264.594 323.204L265.854 323.533C265.593 324.238 265.184 324.777 264.629 325.15C264.074 325.523 263.404 325.71 262.62 325.71ZM271.504 325.5C271.056 325.589 270.612 325.624 270.174 325.605C269.74 325.591 269.352 325.505 269.012 325.346C268.671 325.183 268.412 324.931 268.235 324.59C268.085 324.291 268.004 323.99 267.99 323.687C267.98 323.379 267.976 323.031 267.976 322.644V315.84H269.222V322.588C269.222 322.896 269.224 323.16 269.229 323.379C269.238 323.598 269.287 323.787 269.376 323.946C269.544 324.245 269.81 324.42 270.174 324.471C270.542 324.522 270.986 324.508 271.504 324.429V325.5ZM266.443 318.969V317.94H271.504V318.969H266.443Z" fill="#040213"/>
<path d="M29.8452 192.5V182.42H33.8282C33.9262 182.42 34.0429 182.425 34.1782 182.434C34.3136 182.439 34.4442 182.453 34.5702 182.476C35.1162 182.56 35.5736 182.747 35.9422 183.036C36.3156 183.325 36.5956 183.692 36.7822 184.135C36.9689 184.574 37.0622 185.061 37.0622 185.598C37.0622 186.377 36.8592 187.054 36.4532 187.628C36.0472 188.197 35.4522 188.554 34.6682 188.699L34.1922 188.776H31.0912V192.5H29.8452ZM35.8442 192.5L33.8562 188.398L35.0882 188.02L37.2722 192.5H35.8442ZM31.0912 187.593H33.7862C33.8749 187.593 33.9752 187.588 34.0872 187.579C34.2039 187.57 34.3136 187.553 34.4162 187.53C34.7382 187.455 34.9996 187.32 35.2002 187.124C35.4056 186.923 35.5549 186.69 35.6482 186.424C35.7416 186.153 35.7882 185.878 35.7882 185.598C35.7882 185.318 35.7416 185.045 35.6482 184.779C35.5549 184.508 35.4056 184.273 35.2002 184.072C34.9996 183.871 34.7382 183.736 34.4162 183.666C34.3136 183.638 34.2039 183.622 34.0872 183.617C33.9752 183.608 33.8749 183.603 33.7862 183.603H31.0912V187.593ZM42.09 192.71C41.348 192.71 40.6993 192.547 40.144 192.22C39.5933 191.889 39.164 191.429 38.856 190.841C38.548 190.248 38.394 189.558 38.394 188.769C38.394 187.943 38.5457 187.229 38.849 186.627C39.1523 186.02 39.5747 185.554 40.116 185.227C40.662 184.896 41.3013 184.73 42.034 184.73C42.7947 184.73 43.441 184.905 43.973 185.255C44.5097 185.605 44.911 186.104 45.177 186.753C45.4477 187.402 45.5643 188.174 45.527 189.07H44.267V188.622C44.253 187.693 44.064 187 43.7 186.543C43.336 186.081 42.7947 185.85 42.076 185.85C41.306 185.85 40.7203 186.097 40.319 186.592C39.9177 187.087 39.717 187.796 39.717 188.72C39.717 189.611 39.9177 190.302 40.319 190.792C40.7203 191.282 41.292 191.527 42.034 191.527C42.5333 191.527 42.9673 191.413 43.336 191.184C43.7047 190.955 43.994 190.626 44.204 190.197L45.401 190.61C45.107 191.277 44.6637 191.795 44.071 192.164C43.483 192.528 42.8227 192.71 42.09 192.71ZM39.297 189.07V188.069H44.883V189.07H39.297ZM49.9415 192.703C49.0408 192.703 48.3011 192.507 47.7225 192.115C47.1485 191.718 46.7961 191.165 46.6655 190.456L47.9395 190.253C48.0421 190.664 48.2778 190.99 48.6465 191.233C49.0151 191.471 49.4725 191.59 50.0185 191.59C50.5365 191.59 50.9425 191.483 51.2365 191.268C51.5305 191.053 51.6775 190.762 51.6775 190.393C51.6775 190.178 51.6285 190.006 51.5305 189.875C51.4325 189.74 51.2295 189.614 50.9215 189.497C50.6181 189.38 50.1585 189.24 49.5425 189.077C48.8751 188.9 48.3501 188.715 47.9675 188.524C47.5848 188.333 47.3118 188.111 47.1485 187.859C46.9851 187.607 46.9035 187.301 46.9035 186.942C46.9035 186.499 47.0248 186.111 47.2675 185.78C47.5101 185.444 47.8485 185.185 48.2825 185.003C48.7211 184.821 49.2298 184.73 49.8085 184.73C50.3825 184.73 50.8958 184.821 51.3485 185.003C51.8011 185.185 52.1651 185.444 52.4405 185.78C52.7205 186.111 52.8861 186.499 52.9375 186.942L51.6635 187.173C51.6028 186.767 51.4068 186.447 51.0755 186.214C50.7488 185.981 50.3265 185.857 49.8085 185.843C49.3185 185.824 48.9195 185.911 48.6115 186.102C48.3081 186.293 48.1565 186.552 48.1565 186.879C48.1565 187.061 48.2125 187.217 48.3245 187.348C48.4411 187.479 48.6535 187.602 48.9615 187.719C49.2741 187.836 49.7268 187.969 50.3195 188.118C50.9868 188.286 51.5118 188.47 51.8945 188.671C52.2818 188.867 52.5571 189.1 52.7205 189.371C52.8838 189.637 52.9655 189.966 52.9655 190.358C52.9655 191.086 52.6971 191.66 52.1605 192.08C51.6238 192.495 50.8841 192.703 49.9415 192.703ZM57.9813 192.71C57.272 192.71 56.6746 192.535 56.1893 192.185C55.704 191.83 55.3353 191.352 55.0833 190.75C54.836 190.143 54.7123 189.464 54.7123 188.713C54.7123 187.952 54.836 187.271 55.0833 186.669C55.3353 186.067 55.704 185.593 56.1893 185.248C56.6793 184.903 57.279 184.73 57.9883 184.73C58.6883 184.73 59.2903 184.905 59.7943 185.255C60.303 185.6 60.6926 186.074 60.9633 186.676C61.234 187.278 61.3693 187.957 61.3693 188.713C61.3693 189.469 61.234 190.148 60.9633 190.75C60.6926 191.352 60.303 191.83 59.7943 192.185C59.2903 192.535 58.686 192.71 57.9813 192.71ZM54.5023 195.86V184.94H55.6153V190.505H55.7553V195.86H54.5023ZM57.8273 191.569C58.3266 191.569 58.7396 191.443 59.0663 191.191C59.393 190.939 59.638 190.598 59.8013 190.169C59.9646 189.735 60.0463 189.25 60.0463 188.713C60.0463 188.181 59.9646 187.7 59.8013 187.271C59.6426 186.842 59.3953 186.501 59.0593 186.249C58.728 185.997 58.3056 185.871 57.7923 185.871C57.3023 185.871 56.8963 185.992 56.5743 186.235C56.2523 186.473 56.012 186.807 55.8533 187.236C55.6946 187.661 55.6153 188.153 55.6153 188.713C55.6153 189.264 55.6923 189.756 55.8463 190.19C56.005 190.619 56.2476 190.958 56.5743 191.205C56.901 191.448 57.3186 191.569 57.8273 191.569ZM66.1238 192.71C65.3725 192.71 64.7238 192.54 64.1778 192.199C63.6365 191.858 63.2188 191.387 62.9248 190.785C62.6308 190.183 62.4838 189.492 62.4838 188.713C62.4838 187.92 62.6332 187.224 62.9318 186.627C63.2305 186.03 63.6528 185.565 64.1988 185.234C64.7448 184.898 65.3865 184.73 66.1238 184.73C66.8798 184.73 67.5308 184.9 68.0768 185.241C68.6228 185.577 69.0405 186.046 69.3298 186.648C69.6238 187.245 69.7708 187.934 69.7708 188.713C69.7708 189.502 69.6238 190.197 69.3298 190.799C69.0358 191.396 68.6158 191.865 68.0698 192.206C67.5238 192.542 66.8752 192.71 66.1238 192.71ZM66.1238 191.527C66.9078 191.527 67.4912 191.266 67.8738 190.743C68.2565 190.22 68.4478 189.544 68.4478 188.713C68.4478 187.859 68.2542 187.18 67.8668 186.676C67.4795 186.167 66.8985 185.913 66.1238 185.913C65.5965 185.913 65.1625 186.032 64.8218 186.27C64.4812 186.508 64.2268 186.837 64.0588 187.257C63.8908 187.677 63.8068 188.162 63.8068 188.713C63.8068 189.562 64.0028 190.244 64.3948 190.757C64.7868 191.27 65.3632 191.527 66.1238 191.527ZM76.695 192.5V188.713C76.695 188.354 76.6624 188.008 76.597 187.677C76.5364 187.346 76.4267 187.049 76.268 186.788C76.114 186.522 75.904 186.312 75.638 186.158C75.3767 186.004 75.0454 185.927 74.644 185.927C74.3314 185.927 74.0467 185.981 73.79 186.088C73.538 186.191 73.321 186.349 73.139 186.564C72.957 186.779 72.8147 187.049 72.712 187.376C72.614 187.698 72.565 188.078 72.565 188.517L71.746 188.265C71.746 187.532 71.8767 186.905 72.138 186.382C72.404 185.855 72.775 185.451 73.251 185.171C73.7317 184.886 74.2964 184.744 74.945 184.744C75.435 184.744 75.8527 184.821 76.198 184.975C76.5434 185.129 76.8304 185.334 77.059 185.591C77.2877 185.843 77.4674 186.128 77.598 186.445C77.7287 186.758 77.8197 187.077 77.871 187.404C77.927 187.726 77.955 188.032 77.955 188.321V192.5H76.695ZM71.305 192.5V184.94H72.425V186.963H72.565V192.5H71.305ZM82.6746 192.71C81.9699 192.71 81.3656 192.535 80.8616 192.185C80.3576 191.83 79.9679 191.352 79.6926 190.75C79.4219 190.148 79.2866 189.469 79.2866 188.713C79.2866 187.957 79.4219 187.278 79.6926 186.676C79.9679 186.074 80.3576 185.6 80.8616 185.255C81.3656 184.905 81.9676 184.73 82.6676 184.73C83.3816 184.73 83.9812 184.903 84.4666 185.248C84.9519 185.593 85.3182 186.067 85.5656 186.669C85.8176 187.271 85.9436 187.952 85.9436 188.713C85.9436 189.464 85.8176 190.143 85.5656 190.75C85.3182 191.352 84.9519 191.83 84.4666 192.185C83.9812 192.535 83.3839 192.71 82.6746 192.71ZM82.8286 191.569C83.3372 191.569 83.7549 191.448 84.0816 191.205C84.4082 190.958 84.6486 190.619 84.8026 190.19C84.9612 189.756 85.0406 189.264 85.0406 188.713C85.0406 188.153 84.9612 187.661 84.8026 187.236C84.6486 186.807 84.4106 186.473 84.0886 186.235C83.7666 185.992 83.3582 185.871 82.8636 185.871C82.3502 185.871 81.9256 185.997 81.5896 186.249C81.2582 186.501 81.0109 186.842 80.8476 187.271C80.6889 187.7 80.6096 188.181 80.6096 188.713C80.6096 189.25 80.6912 189.735 80.8546 190.169C81.0179 190.598 81.2629 190.939 81.5896 191.191C81.9209 191.443 82.3339 191.569 82.8286 191.569ZM85.0406 192.5V186.935H84.9006V182.42H86.1536V192.5H85.0406Z" fill="#040213"/>
<path fill-rule="evenodd" clip-rule="evenodd" d="M265.894 62.58C265.77 62.5267 265.635 62.4991 265.5 62.4991C265.365 62.4991 265.23 62.5267 265.106 62.58L258.712 65.322C258.352 65.4762 258.046 65.7325 257.83 66.0593C257.615 66.386 257.5 66.7687 257.5 67.16V74.02C257.5 75.254 257.826 76.4659 258.446 77.5331C259.065 78.6003 259.956 79.4848 261.027 80.097L265.004 82.369C265.155 82.4553 265.326 82.5007 265.5 82.5007C265.674 82.5007 265.845 82.4553 265.996 82.369L269.973 80.097C271.045 79.4847 271.935 78.5998 272.555 77.5323C273.174 76.4647 273.5 75.2523 273.5 74.018V67.16C273.5 66.7687 273.385 66.386 273.17 66.0593C272.954 65.7325 272.648 65.4762 272.288 65.322L265.894 62.58Z" fill="#040213"/>
<path d="M269.104 69.3496C269.256 69.3511 269.396 69.4219 269.496 69.5371C269.595 69.6517 269.649 69.8029 269.65 69.957C269.652 70.111 269.6 70.2627 269.503 70.3789L269.501 70.3809L265.095 75.4629C264.994 75.5794 264.852 75.6504 264.698 75.6504C264.545 75.6504 264.403 75.5794 264.302 75.4629L262.499 73.3838L262.497 73.3818C262.4 73.2656 262.349 73.1139 262.35 72.96C262.351 72.8058 262.405 72.6546 262.504 72.54C262.604 72.4248 262.744 72.3541 262.896 72.3525C263.047 72.351 263.188 72.4189 263.29 72.5322L263.292 72.5342L264.697 74.1553L268.708 69.5312L268.71 69.5293C268.812 69.416 268.953 69.3481 269.104 69.3496Z" fill="white" stroke="white" stroke-width="0.3"/>
<path d="M249 297.5H248.21L247.93 297.23C248.944 296.054 249.501 294.553 249.5 293C249.5 291.714 249.119 290.458 248.405 289.389C247.69 288.32 246.675 287.487 245.487 286.995C244.3 286.503 242.993 286.374 241.732 286.625C240.471 286.876 239.313 287.495 238.404 288.404C237.495 289.313 236.876 290.471 236.625 291.732C236.374 292.993 236.503 294.3 236.995 295.487C237.487 296.675 238.32 297.69 239.389 298.405C240.458 299.119 241.714 299.5 243 299.5C244.61 299.5 246.09 298.91 247.23 297.93L247.5 298.21V299L252.5 303.99L253.99 302.5L249 297.5ZM243 297.5C240.51 297.5 238.5 295.49 238.5 293C238.5 290.51 240.51 288.5 243 288.5C245.49 288.5 247.5 290.51 247.5 293C247.5 295.49 245.49 297.5 243 297.5Z" fill="#040213"/>
<path d="M56.3255 172.5C55.8755 172.5 55.4881 172.35 55.1635 172.05C54.8388 171.75 54.6428 171.383 54.5755 170.95L54.3505 169.3C54.1338 169.217 53.9298 169.117 53.7385 169C53.5471 168.883 53.3595 168.758 53.1755 168.625L51.6255 169.275C51.2088 169.458 50.7921 169.475 50.3755 169.325C49.9588 169.175 49.6338 168.908 49.4005 168.525L48.2255 166.475C47.9921 166.092 47.9255 165.683 48.0255 165.25C48.1255 164.817 48.3505 164.458 48.7005 164.175L50.0255 163.175C50.0088 163.058 50.0005 162.946 50.0005 162.837V162.162C50.0005 162.054 50.0088 161.942 50.0255 161.825L48.7005 160.825C48.3505 160.542 48.1255 160.183 48.0255 159.75C47.9255 159.317 47.9921 158.908 48.2255 158.525L49.4005 156.475C49.6338 156.092 49.9588 155.825 50.3755 155.675C50.7921 155.525 51.2088 155.542 51.6255 155.725L53.1755 156.375C53.3588 156.242 53.5505 156.117 53.7505 156C53.9505 155.883 54.1505 155.783 54.3505 155.7L54.5755 154.05C54.6421 153.617 54.8381 153.25 55.1635 152.95C55.4888 152.65 55.8761 152.5 56.3255 152.5H58.6755C59.1255 152.5 59.5131 152.65 59.8385 152.95C60.1638 153.25 60.3595 153.617 60.4255 154.05L60.6505 155.7C60.8671 155.783 61.0715 155.883 61.2635 156C61.4555 156.117 61.6428 156.242 61.8255 156.375L63.3755 155.725C63.7921 155.542 64.2088 155.525 64.6255 155.675C65.0421 155.825 65.3671 156.092 65.6005 156.475L66.7755 158.525C67.0088 158.908 67.0755 159.317 66.9755 159.75C66.8755 160.183 66.6505 160.542 66.3005 160.825L64.9755 161.825C64.9921 161.942 65.0005 162.054 65.0005 162.163V162.837C65.0005 162.946 64.9838 163.058 64.9505 163.175L66.2755 164.175C66.6255 164.458 66.8505 164.817 66.9505 165.25C67.0505 165.683 66.9838 166.092 66.7505 166.475L65.5505 168.525C65.3171 168.908 64.9921 169.175 64.5755 169.325C64.1588 169.475 63.7421 169.458 63.3255 169.275L61.8255 168.625C61.6421 168.758 61.4505 168.883 61.2505 169C61.0505 169.117 60.8505 169.217 60.6505 169.3L60.4255 170.95C60.3588 171.383 60.1631 171.75 59.8385 172.05C59.5138 172.35 59.1261 172.5 58.6755 172.5H56.3255ZM57.5505 166C58.5171 166 59.3421 165.658 60.0255 164.975C60.7088 164.292 61.0505 163.467 61.0505 162.5C61.0505 161.533 60.7088 160.708 60.0255 160.025C59.3421 159.342 58.5171 159 57.5505 159C56.5671 159 55.7378 159.342 55.0625 160.025C54.3871 160.708 54.0498 161.533 54.0505 162.5C54.0511 163.467 54.3888 164.292 55.0635 164.975C55.7381 165.658 56.5671 166 57.5505 166Z" fill="#040213"/>
</svg>
