<svg width="1440" height="348" viewBox="0 0 1440 348" fill="none" xmlns="http://www.w3.org/2000/svg">
<g style="mix-blend-mode:plus-lighter" filter="url(#filter0_f_27_730)">
<path d="M997.649 1602.84C1169.49 1538.59 1313.74 1416.75 1405.81 1258.08C1497.89 1099.4 1532.1 913.707 1502.61 732.637C1473.13 551.566 1381.77 386.321 1244.11 265.057C1106.44 143.793 930.993 74.0131 747.649 67.6074C564.306 61.2016 384.413 118.566 238.622 229.926C92.8313 341.287 -9.83625 499.753 -51.8876 678.324C-93.9389 856.896 -72.7721 1044.52 8.00632 1209.24C88.7847 1373.95 224.177 1505.56 391.113 1581.64L393.813 1575.72C228.248 1500.26 93.9679 1369.73 13.8529 1206.37C-66.2621 1043.01 -87.2551 856.922 -45.5492 679.817C-3.84317 502.712 97.9813 345.547 242.575 235.101C387.168 124.655 565.584 67.762 747.422 74.1152C929.26 80.4683 1103.27 149.675 1239.8 269.943C1376.34 390.211 1466.94 554.099 1496.19 733.683C1525.43 913.267 1491.5 1097.44 1400.18 1254.81C1308.86 1412.18 1165.8 1533.02 995.369 1596.74L997.649 1602.84Z" fill="url(#paint0_linear_27_730)" fill-opacity="0.8"/>
</g>
<path d="M997.649 1602.84C1169.49 1538.59 1313.74 1416.75 1405.81 1258.08C1497.89 1099.4 1532.1 913.707 1502.61 732.637C1473.13 551.566 1381.77 386.321 1244.11 265.057C1106.44 143.793 930.993 74.0131 747.649 67.6074C564.306 61.2016 384.413 118.566 238.622 229.926C92.8313 341.287 -9.83625 499.753 -51.8876 678.324C-93.9389 856.896 -72.7721 1044.52 8.00632 1209.24C88.7847 1373.95 224.177 1505.56 391.113 1581.64L476.204 1394.94C352.463 1338.54 252.105 1240.99 192.228 1118.89C132.352 996.799 116.662 857.721 147.832 725.356C179.003 592.991 255.104 475.529 363.171 392.983C471.237 310.438 604.582 267.917 740.485 272.665C876.388 277.413 1006.44 329.137 1108.48 419.023C1210.52 508.91 1278.24 631.397 1300.1 765.615C1321.95 899.832 1296.6 1037.48 1228.34 1155.09C1160.09 1272.71 1053.17 1363.02 925.796 1410.64L997.649 1602.84Z" fill="url(#paint1_linear_27_730)"/>
<g filter="url(#filter1_f_27_730)">
<path d="M997.649 1602.84C1169.49 1538.59 1313.74 1416.75 1405.81 1258.08C1497.89 1099.4 1532.1 913.707 1502.61 732.637C1473.13 551.566 1381.77 386.321 1244.11 265.057C1106.44 143.793 930.993 74.0131 747.649 67.6074C564.306 61.2016 384.413 118.566 238.622 229.926C92.8313 341.287 -9.83625 499.753 -51.8876 678.324C-93.9389 856.896 -72.7721 1044.52 8.00632 1209.24C88.7847 1373.95 224.177 1505.56 391.113 1581.64L453.69 1444.34C318.52 1382.73 208.891 1276.17 143.484 1142.8C78.0772 1009.43 60.9382 857.503 94.9876 712.912C129.037 568.321 212.168 440.009 330.216 349.839C448.264 259.67 593.925 213.221 742.381 218.408C890.836 223.595 1032.9 280.096 1144.37 378.285C1255.83 476.473 1329.81 610.274 1353.68 756.889C1377.56 903.504 1349.86 1053.86 1275.3 1182.34C1200.75 1310.82 1083.95 1409.48 944.808 1461.5L997.649 1602.84Z" fill="url(#paint2_radial_27_730)" fill-opacity="0.2"/>
</g>
<circle cx="719.961" cy="860.085" r="792.961" fill="url(#paint3_radial_27_730)" fill-opacity="0.01"/>
<circle cx="719.961" cy="860.085" r="792.272" stroke="url(#paint4_radial_27_730)" stroke-opacity="0.05" stroke-width="1.37944"/>
<g filter="url(#filter2_f_27_730)">
<circle cx="719.961" cy="860.085" r="791.582" stroke="url(#paint5_radial_27_730)" stroke-opacity="0.5" stroke-width="2.75888"/>
</g>
<g filter="url(#filter3_f_27_730)">
<circle cx="719.961" cy="860.085" r="792.272" stroke="url(#paint6_radial_27_730)" stroke-opacity="0.6" stroke-width="1.37944"/>
</g>
<circle cx="719.961" cy="860.085" r="791.582" stroke="url(#paint7_radial_27_730)" stroke-opacity="0.2" stroke-width="2.75888"/>
<g style="mix-blend-mode:plus-lighter">
<circle cx="719.961" cy="860.085" r="792.272" stroke="url(#paint8_radial_27_730)" stroke-opacity="0.2" stroke-width="1.37944"/>
</g>
<g style="mix-blend-mode:plus-lighter" filter="url(#filter4_f_27_730)">
<circle cx="719.961" cy="860.085" r="791.582" stroke="url(#paint9_radial_27_730)" stroke-opacity="0.8" stroke-width="2.75888"/>
</g>
<g style="mix-blend-mode:plus-lighter">
<circle cx="719.961" cy="860.085" r="791.582" stroke="url(#paint10_radial_27_730)" stroke-opacity="0.2" stroke-width="2.75888"/>
</g>
<g style="mix-blend-mode:plus-lighter" filter="url(#filter5_f_27_730)">
<circle cx="719.961" cy="860.085" r="791.582" stroke="url(#paint11_radial_27_730)" stroke-opacity="0.6" stroke-width="2.75888"/>
</g>
<g style="mix-blend-mode:plus-lighter" filter="url(#filter6_f_27_730)">
<path d="M997.649 1602.84C1169.49 1538.59 1313.74 1416.75 1405.81 1258.08C1497.89 1099.4 1532.1 913.707 1502.61 732.637C1473.13 551.566 1381.77 386.321 1244.11 265.057C1106.44 143.793 930.993 74.0131 747.649 67.6074C564.306 61.2016 384.413 118.566 238.622 229.926C92.8313 341.287 -9.83625 499.753 -51.8876 678.324C-93.9389 856.896 -72.7721 1044.52 8.00632 1209.24C88.7847 1373.95 224.177 1505.56 391.113 1581.64L398.514 1565.41C235.334 1491.04 102.989 1362.39 24.0284 1201.38C-54.9321 1040.37 -75.6226 856.968 -34.5176 682.415C6.58738 507.862 106.945 352.962 249.454 244.108C391.964 135.253 567.808 79.1799 747.026 85.4416C926.244 91.7032 1097.75 159.912 1232.31 278.447C1366.88 396.982 1456.18 558.509 1485 735.505C1513.82 912.501 1480.38 1094.01 1390.38 1249.12C1300.37 1404.22 1159.37 1523.32 991.4 1586.12L997.649 1602.84Z" fill="url(#paint12_radial_27_730)" fill-opacity="0.2"/>
</g>
<g style="mix-blend-mode:plus-lighter" filter="url(#filter7_f_27_730)">
<path d="M997.649 1602.84C1169.49 1538.59 1313.74 1416.75 1405.81 1258.08C1497.89 1099.4 1532.1 913.707 1502.61 732.637C1473.13 551.566 1381.77 386.321 1244.11 265.057C1106.44 143.793 930.993 74.0131 747.649 67.6074C564.306 61.2016 384.413 118.566 238.622 229.926C92.8313 341.287 -9.83625 499.753 -51.8876 678.324C-93.9389 856.896 -72.7721 1044.52 8.00632 1209.24C88.7847 1373.95 224.177 1505.56 391.113 1581.64L419.949 1518.37C267.652 1448.96 144.132 1328.89 70.4372 1178.62C-3.2578 1028.35 -22.5685 857.176 15.7953 694.263C54.1592 531.35 147.824 386.78 280.83 285.185C413.837 183.589 577.955 131.255 745.222 137.099C912.488 142.943 1072.55 206.604 1198.15 317.234C1323.74 427.865 1407.08 578.62 1433.98 743.812C1460.88 909.005 1429.67 1078.41 1345.67 1223.18C1261.67 1367.94 1130.07 1479.09 973.299 1537.7L997.649 1602.84Z" fill="url(#paint13_linear_27_730)" fill-opacity="0.5"/>
</g>
<g filter="url(#filter8_f_27_730)">
<path d="M997.649 1602.84C1169.49 1538.59 1313.74 1416.75 1405.81 1258.08C1497.89 1099.4 1532.1 913.707 1502.61 732.637C1473.13 551.566 1381.77 386.321 1244.11 265.057C1106.44 143.793 930.993 74.0131 747.649 67.6074C564.306 61.2016 384.413 118.566 238.622 229.926C92.8313 341.287 -9.83625 499.753 -51.8876 678.324C-93.9389 856.896 -72.7721 1044.52 8.00632 1209.24C88.7847 1373.95 224.177 1505.56 391.113 1581.64L398.525 1565.38C235.352 1491.01 103.012 1362.37 24.0543 1201.37C-54.9033 1040.37 -75.593 856.968 -34.4895 682.422C6.61389 507.875 106.967 352.981 249.472 244.131C391.976 135.28 567.814 79.209 747.025 85.4704C926.237 91.7317 1097.73 159.939 1232.29 278.469C1366.85 397 1456.15 558.52 1484.97 735.509C1513.79 912.499 1480.35 1094.01 1390.35 1249.1C1300.35 1404.2 1159.36 1523.3 991.39 1586.09L997.649 1602.84Z" fill="url(#paint14_radial_27_730)" fill-opacity="0.5"/>
</g>
<g filter="url(#filter9_f_27_730)">
<path d="M997.649 1602.84C1169.49 1538.59 1313.74 1416.75 1405.81 1258.08C1497.89 1099.4 1532.1 913.707 1502.61 732.637C1473.13 551.566 1381.77 386.321 1244.11 265.057C1106.44 143.793 930.993 74.0131 747.649 67.6074C564.306 61.2016 384.413 118.566 238.622 229.926C92.8313 341.287 -9.83625 499.753 -51.8876 678.324C-93.9389 856.896 -72.7721 1044.52 8.00632 1209.24C88.7847 1373.95 224.177 1505.56 391.113 1581.64L398.525 1565.38C235.352 1491.01 103.012 1362.37 24.0543 1201.37C-54.9033 1040.37 -75.593 856.968 -34.4895 682.422C6.61389 507.875 106.967 352.981 249.472 244.131C391.976 135.28 567.814 79.209 747.025 85.4704C926.237 91.7317 1097.73 159.939 1232.29 278.469C1366.85 397 1456.15 558.52 1484.97 735.509C1513.79 912.499 1480.35 1094.01 1390.35 1249.1C1300.35 1404.2 1159.36 1523.3 991.39 1586.09L997.649 1602.84Z" fill="url(#paint15_radial_27_730)" fill-opacity="0.5"/>
</g>
<g style="mix-blend-mode:plus-lighter" filter="url(#filter10_f_27_730)">
<path d="M997.649 1602.84C1169.49 1538.59 1313.74 1416.75 1405.81 1258.08C1497.89 1099.4 1532.1 913.707 1502.61 732.637C1473.13 551.566 1381.77 386.321 1244.11 265.057C1106.44 143.793 930.993 74.0131 747.649 67.6074C564.306 61.2016 384.413 118.566 238.622 229.926C92.8313 341.287 -9.83625 499.753 -51.8876 678.324C-93.9389 856.896 -72.7721 1044.52 8.00632 1209.24C88.7847 1373.95 224.177 1505.56 391.113 1581.64L393.813 1575.72C228.248 1500.26 93.9679 1369.73 13.8529 1206.37C-66.2621 1043.01 -87.2551 856.922 -45.5492 679.817C-3.84317 502.712 97.9813 345.547 242.575 235.101C387.168 124.655 565.584 67.762 747.422 74.1152C929.26 80.4683 1103.27 149.675 1239.8 269.943C1376.34 390.211 1466.94 554.099 1496.19 733.683C1525.43 913.267 1491.5 1097.44 1400.18 1254.81C1308.86 1412.18 1165.8 1533.02 995.369 1596.74L997.649 1602.84Z" fill="url(#paint16_linear_27_730)" fill-opacity="0.8"/>
</g>
<g style="mix-blend-mode:plus-lighter" filter="url(#filter11_f_27_730)">
<path d="M997.649 1602.84C1169.49 1538.59 1313.74 1416.75 1405.81 1258.08C1497.89 1099.4 1532.1 913.707 1502.61 732.637C1473.13 551.566 1381.77 386.321 1244.11 265.057C1106.44 143.793 930.993 74.0131 747.649 67.6074C564.306 61.2016 384.413 118.566 238.622 229.926C92.8313 341.287 -9.83625 499.753 -51.8876 678.324C-93.9389 856.896 -72.7721 1044.52 8.00632 1209.24C88.7847 1373.95 224.177 1505.56 391.113 1581.64L393.813 1575.72C228.248 1500.26 93.9679 1369.73 13.8529 1206.37C-66.2621 1043.01 -87.2551 856.922 -45.5492 679.817C-3.84317 502.712 97.9813 345.547 242.575 235.101C387.168 124.655 565.584 67.762 747.422 74.1152C929.26 80.4683 1103.27 149.675 1239.8 269.943C1376.34 390.211 1466.94 554.099 1496.19 733.683C1525.43 913.267 1491.5 1097.44 1400.18 1254.81C1308.86 1412.18 1165.8 1533.02 995.369 1596.74L997.649 1602.84Z" fill="url(#paint17_linear_27_730)" fill-opacity="0.8"/>
</g>
<defs>
<filter id="filter0_f_27_730" x="-81.13" y="58.9944" width="1602.18" height="1551.97" filterUnits="userSpaceOnUse" color-interpolation-filters="sRGB">
<feFlood flood-opacity="0" result="BackgroundImageFix"/>
<feBlend mode="normal" in="SourceGraphic" in2="BackgroundImageFix" result="shape"/>
<feGaussianBlur stdDeviation="4.06457" result="effect1_foregroundBlur_27_730"/>
</filter>
<filter id="filter1_f_27_730" x="-100.59" y="39.5347" width="1641.1" height="1590.89" filterUnits="userSpaceOnUse" color-interpolation-filters="sRGB">
<feFlood flood-opacity="0" result="BackgroundImageFix"/>
<feBlend mode="normal" in="SourceGraphic" in2="BackgroundImageFix" result="shape"/>
<feGaussianBlur stdDeviation="13.7944" result="effect1_foregroundBlur_27_730"/>
</filter>
<filter id="filter2_f_27_730" x="-100.589" y="39.535" width="1641.1" height="1641.1" filterUnits="userSpaceOnUse" color-interpolation-filters="sRGB">
<feFlood flood-opacity="0" result="BackgroundImageFix"/>
<feBlend mode="normal" in="SourceGraphic" in2="BackgroundImageFix" result="shape"/>
<feGaussianBlur stdDeviation="13.7944" result="effect1_foregroundBlur_27_730"/>
</filter>
<filter id="filter3_f_27_730" x="-121.97" y="18.1537" width="1683.86" height="1683.86" filterUnits="userSpaceOnUse" color-interpolation-filters="sRGB">
<feFlood flood-opacity="0" result="BackgroundImageFix"/>
<feBlend mode="normal" in="SourceGraphic" in2="BackgroundImageFix" result="shape"/>
<feGaussianBlur stdDeviation="24.4851" result="effect1_foregroundBlur_27_730"/>
</filter>
<filter id="filter4_f_27_730" x="-107.486" y="32.6378" width="1654.89" height="1654.89" filterUnits="userSpaceOnUse" color-interpolation-filters="sRGB">
<feFlood flood-opacity="0" result="BackgroundImageFix"/>
<feBlend mode="normal" in="SourceGraphic" in2="BackgroundImageFix" result="shape"/>
<feGaussianBlur stdDeviation="17.243" result="effect1_foregroundBlur_27_730"/>
</filter>
<filter id="filter5_f_27_730" x="-78.5178" y="61.606" width="1596.96" height="1596.96" filterUnits="userSpaceOnUse" color-interpolation-filters="sRGB">
<feFlood flood-opacity="0" result="BackgroundImageFix"/>
<feBlend mode="normal" in="SourceGraphic" in2="BackgroundImageFix" result="shape"/>
<feGaussianBlur stdDeviation="2.75888" result="effect1_foregroundBlur_27_730"/>
</filter>
<filter id="filter6_f_27_730" x="-93.1407" y="46.9837" width="1626.2" height="1575.99" filterUnits="userSpaceOnUse" color-interpolation-filters="sRGB">
<feFlood flood-opacity="0" result="BackgroundImageFix"/>
<feBlend mode="normal" in="SourceGraphic" in2="BackgroundImageFix" result="shape"/>
<feGaussianBlur stdDeviation="10.0699" result="effect1_foregroundBlur_27_730"/>
</filter>
<filter id="filter7_f_27_730" x="-131.995" y="8.12914" width="1703.91" height="1653.7" filterUnits="userSpaceOnUse" color-interpolation-filters="sRGB">
<feFlood flood-opacity="0" result="BackgroundImageFix"/>
<feBlend mode="normal" in="SourceGraphic" in2="BackgroundImageFix" result="shape"/>
<feGaussianBlur stdDeviation="29.4972" result="effect1_foregroundBlur_27_730"/>
</filter>
<filter id="filter8_f_27_730" x="-79.8981" y="60.2263" width="1599.72" height="1549.51" filterUnits="userSpaceOnUse" color-interpolation-filters="sRGB">
<feFlood flood-opacity="0" result="BackgroundImageFix"/>
<feBlend mode="normal" in="SourceGraphic" in2="BackgroundImageFix" result="shape"/>
<feGaussianBlur stdDeviation="3.4486" result="effect1_foregroundBlur_27_730"/>
</filter>
<filter id="filter9_f_27_730" x="-79.8981" y="60.2263" width="1599.72" height="1549.51" filterUnits="userSpaceOnUse" color-interpolation-filters="sRGB">
<feFlood flood-opacity="0" result="BackgroundImageFix"/>
<feBlend mode="normal" in="SourceGraphic" in2="BackgroundImageFix" result="shape"/>
<feGaussianBlur stdDeviation="3.4486" result="effect1_foregroundBlur_27_730"/>
</filter>
<filter id="filter10_f_27_730" x="-140.124" y="-7.62939e-06" width="1720.17" height="1669.96" filterUnits="userSpaceOnUse" color-interpolation-filters="sRGB">
<feFlood flood-opacity="0" result="BackgroundImageFix"/>
<feBlend mode="normal" in="SourceGraphic" in2="BackgroundImageFix" result="shape"/>
<feGaussianBlur stdDeviation="33.5618" result="effect1_foregroundBlur_27_730"/>
</filter>
<filter id="filter11_f_27_730" x="-109.466" y="30.6585" width="1658.86" height="1608.64" filterUnits="userSpaceOnUse" color-interpolation-filters="sRGB">
<feFlood flood-opacity="0" result="BackgroundImageFix"/>
<feBlend mode="normal" in="SourceGraphic" in2="BackgroundImageFix" result="shape"/>
<feGaussianBlur stdDeviation="18.2325" result="effect1_foregroundBlur_27_730"/>
</filter>
<linearGradient id="paint0_linear_27_730" x1="719.961" y1="686.517" x2="719.961" y2="67.1239" gradientUnits="userSpaceOnUse">
<stop offset="0.768281" stop-color="#FF2F66" stop-opacity="0"/>
<stop offset="1" stop-color="#FF2F66"/>
</linearGradient>
<linearGradient id="paint1_linear_27_730" x1="719.961" y1="-2947.73" x2="719.961" y2="963.455" gradientUnits="userSpaceOnUse">
<stop stop-color="#FF2F66"/>
<stop offset="0.829277" stop-color="#FF2F66" stop-opacity="0"/>
</linearGradient>
<radialGradient id="paint2_radial_27_730" cx="0" cy="0" r="1" gradientUnits="userSpaceOnUse" gradientTransform="translate(719.962 -264.368) rotate(90) scale(1917.42 6160.47)">
<stop stop-color="#FF2F66"/>
<stop offset="0.276253" stop-color="#FF2F66" stop-opacity="0"/>
</radialGradient>
<radialGradient id="paint3_radial_27_730" cx="0" cy="0" r="1" gradientUnits="userSpaceOnUse" gradientTransform="translate(719.961 67.1238) rotate(90) scale(1585.92)">
<stop stop-color="white"/>
<stop offset="0.824573" stop-color="white" stop-opacity="0"/>
</radialGradient>
<radialGradient id="paint4_radial_27_730" cx="0" cy="0" r="1" gradientUnits="userSpaceOnUse" gradientTransform="translate(719.961 67.1238) rotate(90) scale(1585.92)">
<stop stop-color="white"/>
<stop offset="0.48356" stop-color="white" stop-opacity="0"/>
</radialGradient>
<radialGradient id="paint5_radial_27_730" cx="0" cy="0" r="1" gradientUnits="userSpaceOnUse" gradientTransform="translate(719.961 67.1238) rotate(90) scale(1585.92)">
<stop stop-color="#FF2F66"/>
<stop offset="0.542681" stop-color="#FF2F66" stop-opacity="0"/>
</radialGradient>
<radialGradient id="paint6_radial_27_730" cx="0" cy="0" r="1" gradientUnits="userSpaceOnUse" gradientTransform="translate(719.961 67.1238) rotate(90) scale(1585.92)">
<stop stop-color="#FF2F66"/>
<stop offset="0.542681" stop-color="#FF2F66" stop-opacity="0"/>
</radialGradient>
<radialGradient id="paint7_radial_27_730" cx="0" cy="0" r="1" gradientUnits="userSpaceOnUse" gradientTransform="translate(719.961 67.1238) rotate(90) scale(1585.92)">
<stop stop-color="#FF2F66"/>
<stop offset="0.48356" stop-color="#FF2F66" stop-opacity="0"/>
</radialGradient>
<radialGradient id="paint8_radial_27_730" cx="0" cy="0" r="1" gradientUnits="userSpaceOnUse" gradientTransform="translate(719.961 67.1238) rotate(90) scale(1585.92)">
<stop stop-color="#FF2F66"/>
<stop offset="0.160936" stop-color="#FF2F66" stop-opacity="0"/>
</radialGradient>
<radialGradient id="paint9_radial_27_730" cx="0" cy="0" r="1" gradientUnits="userSpaceOnUse" gradientTransform="translate(719.961 67.1238) rotate(90) scale(1585.92)">
<stop stop-color="#FF2F66"/>
<stop offset="0.352992" stop-color="#00020F" stop-opacity="0"/>
</radialGradient>
<radialGradient id="paint10_radial_27_730" cx="0" cy="0" r="1" gradientUnits="userSpaceOnUse" gradientTransform="translate(719.961 67.1238) rotate(90) scale(1585.92)">
<stop stop-color="#FF2F66"/>
<stop offset="0.160936" stop-color="#00020F" stop-opacity="0"/>
</radialGradient>
<radialGradient id="paint11_radial_27_730" cx="0" cy="0" r="1" gradientUnits="userSpaceOnUse" gradientTransform="translate(719.961 67.1238) rotate(90) scale(1585.92)">
<stop stop-color="#FF2F66"/>
<stop offset="0.279569" stop-color="#00020F" stop-opacity="0"/>
</radialGradient>
<radialGradient id="paint12_radial_27_730" cx="0" cy="0" r="1" gradientUnits="userSpaceOnUse" gradientTransform="translate(719.962 -264.368) rotate(90) scale(1917.42 6160.47)">
<stop stop-color="white"/>
<stop offset="0.276253" stop-color="white" stop-opacity="0"/>
</radialGradient>
<linearGradient id="paint13_linear_27_730" x1="719.961" y1="-139.479" x2="719.961" y2="963.456" gradientUnits="userSpaceOnUse">
<stop offset="0.0947459" stop-color="#FF2F66"/>
<stop offset="0.309233" stop-color="#FF2F66" stop-opacity="0"/>
</linearGradient>
<radialGradient id="paint14_radial_27_730" cx="0" cy="0" r="1" gradientUnits="userSpaceOnUse" gradientTransform="translate(719.961 678.567) rotate(-88.2146) scale(611.74 1045.65)">
<stop offset="0.728643" stop-color="white" stop-opacity="0"/>
<stop offset="1" stop-color="white" stop-opacity="0.02"/>
</radialGradient>
<radialGradient id="paint15_radial_27_730" cx="0" cy="0" r="1" gradientUnits="userSpaceOnUse" gradientTransform="translate(719.961 994.56) rotate(-88.8227) scale(927.632)">
<stop offset="0.892566" stop-color="white" stop-opacity="0"/>
<stop offset="1" stop-color="white" stop-opacity="0.02"/>
</radialGradient>
<linearGradient id="paint16_linear_27_730" x1="719.961" y1="686.517" x2="719.961" y2="67.1239" gradientUnits="userSpaceOnUse">
<stop offset="0.768281" stop-color="#FF2F66" stop-opacity="0"/>
<stop offset="1" stop-color="#FF2F66"/>
</linearGradient>
<linearGradient id="paint17_linear_27_730" x1="719.961" y1="686.517" x2="719.961" y2="67.1239" gradientUnits="userSpaceOnUse">
<stop offset="0.768281" stop-color="#FF2F66" stop-opacity="0"/>
<stop offset="1" stop-color="#FF2F66"/>
</linearGradient>
</defs>
</svg>
