<svg width="64" height="16" viewBox="0 0 64 16" fill="none" xmlns="http://www.w3.org/2000/svg">
<path d="M25.2571 9.37138L28.7886 13.7142H26L22.8571 9.72575V13.7142H20.5714V2.28575H22.8571V9.00575L25.76 5.71425H28.6742L25.2571 9.37138ZM16.1143 5.48575C15.6138 5.49328 15.1226 5.62196 14.6828 5.8608C14.2429 6.09963 13.8675 6.44149 13.5886 6.85712V5.71425H11.4286V13.7142H13.7142V9.97713C13.6843 9.70587 13.7104 9.43135 13.7911 9.17064C13.8717 8.90994 14.0052 8.66862 14.1832 8.46172C14.3611 8.25482 14.5798 8.08675 14.8255 7.96799C15.0712 7.84922 15.3387 7.78229 15.6114 7.77138C16.9371 7.77138 17.1429 9.07425 17.1429 9.97713V13.7142H19.4286V9.47425C19.4286 6.96 18.5942 5.48575 16.16 5.48575H16.1143ZM36.5714 9.89713C36.5801 10.0647 36.5801 10.2323 36.5714 10.4H30.5714V10.48C30.6688 10.9566 30.9328 11.3829 31.3161 11.6824C31.6994 11.9819 32.1769 12.135 32.6629 12.1143C33.0484 12.131 33.4334 12.0698 33.7947 11.9343C34.156 11.7989 34.4863 11.5919 34.7658 11.3258L36.2858 12.4686C35.804 12.9603 35.2246 13.3455 34.5848 13.5994C33.945 13.8533 33.2591 13.9703 32.5714 13.9429C32.0018 13.9788 31.4312 13.8922 30.8979 13.6887C30.3647 13.4853 29.8814 13.1698 29.4806 12.7635C29.0798 12.3572 28.7708 11.8697 28.5745 11.3338C28.3782 10.7979 28.2992 10.2262 28.3429 9.65713C28.3312 9.09538 28.4353 8.53724 28.6487 8.0175C28.8622 7.49775 29.1804 7.02755 29.5836 6.63619C29.9867 6.24483 30.4662 5.94071 30.992 5.74278C31.5179 5.54485 32.0788 5.45735 32.64 5.48575C34.7886 5.48575 36.5714 7.00575 36.5714 9.89713ZM34.4458 8.91425C34.4373 8.68788 34.3829 8.4656 34.2858 8.26095C34.1887 8.05629 34.0509 7.87355 33.8809 7.72385C33.7109 7.57416 33.5122 7.46064 33.2969 7.39022C33.0816 7.3198 32.8542 7.29395 32.6286 7.31425C31.6236 7.20563 30.7135 7.9135 30.5714 8.91425H34.4458ZM2.28575 2.28575H0V13.7142H6.85712V11.4288H2.28575V2.28575ZM43.4286 2.28575H45.7142V13.7142H43.5542V12.9143C43.28 13.2522 42.9304 13.5212 42.5335 13.6998C42.1366 13.8784 41.7034 13.9617 41.2686 13.9429C40.7374 13.9292 40.2146 13.8071 39.7323 13.584C39.25 13.3608 38.8184 13.0414 38.4641 12.6454C38.1098 12.2493 37.8403 11.785 37.672 11.2809C37.5038 10.7769 37.4404 10.2437 37.4857 9.71425C37.4318 9.18404 37.4888 8.6484 37.6531 8.14142C37.8174 7.63444 38.0855 7.16721 38.4402 6.76947C38.795 6.37174 39.2286 6.0522 39.7136 5.83119C40.1986 5.61018 40.7242 5.49254 41.2571 5.48575C41.6541 5.46833 42.0505 5.5301 42.4233 5.66745C42.7961 5.80479 43.1379 6.01498 43.4286 6.28575V2.28575ZM43.6 9.71425C43.6359 9.45035 43.6149 9.18181 43.5382 8.92674C43.4616 8.67167 43.3311 8.436 43.1557 8.23563C42.9802 8.03525 42.7638 7.87483 42.5211 7.76518C42.2784 7.65554 42.015 7.59921 41.7486 7.6C40.6553 7.67937 39.8268 8.61963 39.8857 9.71425C39.8268 10.8089 40.6553 11.7492 41.7486 11.8286C42.015 11.8294 42.2784 11.7731 42.5211 11.6634C42.7639 11.5538 42.9803 11.3933 43.1557 11.193C43.3312 10.9926 43.4616 10.7569 43.5383 10.5018C43.6149 10.2467 43.636 9.97816 43.6 9.71425ZM9.14287 2.05713C8.77531 2.0623 8.4234 2.20678 8.15823 2.46137C7.89306 2.71596 7.73438 3.0617 7.71425 3.42875C7.71425 4.21763 8.35388 4.85725 9.14287 4.85725C9.93187 4.85725 10.5712 4.2175 10.5712 3.42875C10.5511 3.06174 10.3924 2.71605 10.1273 2.46149C9.86213 2.20693 9.51027 2.06246 9.14275 2.05725M8 13.7142H10.2858V5.71425H8V13.7142ZM64 1.14287V14.8571C64 15.1602 63.8796 15.4509 63.6653 15.6653C63.4509 15.8796 63.1602 16 62.8571 16H49.1429C48.8398 16 48.5491 15.8796 48.3347 15.6653C48.1204 15.4509 48 15.1602 48 14.8571V1.14287C48 0.839766 48.1204 0.549071 48.3347 0.33474C48.5491 0.12041 48.8398 0 49.1429 0L62.8571 0C63.1602 0 63.4509 0.12041 63.6653 0.33474C63.8796 0.549071 64 0.839766 64 1.14287ZM52.5714 5.71425H50.2858V13.7142H52.5714V5.71425ZM52.8571 3.42863C52.8571 2.63963 52.2175 2 51.4286 2C50.6397 2 50 2.63963 50 3.42863C50 4.2175 50.6396 4.85712 51.4286 4.85712C52.2175 4.85712 52.8571 4.2175 52.8571 3.42863ZM61.7142 9.47425C61.7142 6.96 60.88 5.48575 58.4458 5.48575C57.9375 5.48583 57.4371 5.61096 56.9886 5.85012C56.5402 6.08928 56.1575 6.43511 55.8742 6.85712V5.71425H53.7142V13.7142H56V9.97713C55.97 9.70587 55.9962 9.43135 56.0768 9.17064C56.1575 8.90994 56.291 8.66862 56.4689 8.46172C56.6469 8.25482 56.8655 8.08675 57.1112 7.96799C57.3569 7.84922 57.6244 7.78229 57.8971 7.77138C59.2229 7.77138 59.4286 9.07425 59.4286 9.97713V13.7142H61.7142V9.47425Z" fill="#0A66C2"/>
</svg>
