<svg width="400" height="400" viewBox="0 0 400 400" fill="none" xmlns="http://www.w3.org/2000/svg">
<g filter="url(#filter0_d_272_1030)">
<rect x="129" y="176" width="143" height="49" rx="8" fill="url(#paint0_linear_272_1030)" shape-rendering="crispEdges"/>
<rect x="129.5" y="176.5" width="142" height="48" rx="7.5" stroke="url(#paint1_linear_272_1030)" stroke-opacity="0.5" shape-rendering="crispEdges"/>
<path d="M151.669 207.27C150.373 207.27 149.269 206.988 148.357 206.424C147.445 205.854 146.746 205.062 146.26 204.048C145.78 203.034 145.54 201.858 145.54 200.52C145.54 199.182 145.78 198.006 146.26 196.992C146.746 195.978 147.445 195.189 148.357 194.625C149.269 194.055 150.373 193.77 151.669 193.77C153.163 193.77 154.399 194.148 155.377 194.904C156.361 195.66 157.045 196.677 157.429 197.955L155.521 198.468C155.269 197.562 154.819 196.851 154.171 196.335C153.529 195.819 152.695 195.561 151.669 195.561C150.751 195.561 149.986 195.768 149.374 196.182C148.762 196.596 148.3 197.175 147.988 197.919C147.682 198.663 147.529 199.53 147.529 200.52C147.523 201.51 147.673 202.377 147.979 203.121C148.291 203.865 148.753 204.444 149.365 204.858C149.983 205.272 150.751 205.479 151.669 205.479C152.695 205.479 153.529 205.221 154.171 204.705C154.819 204.183 155.269 203.472 155.521 202.572L157.429 203.085C157.045 204.363 156.361 205.38 155.377 206.136C154.399 206.892 153.163 207.27 151.669 207.27ZM159.408 207V197.28H161.082V199.638L160.848 199.332C160.968 199.02 161.124 198.735 161.316 198.477C161.508 198.213 161.73 197.997 161.982 197.829C162.228 197.649 162.501 197.511 162.801 197.415C163.107 197.313 163.419 197.253 163.737 197.235C164.055 197.211 164.361 197.226 164.655 197.28V199.044C164.337 198.96 163.983 198.936 163.593 198.972C163.209 199.008 162.855 199.131 162.531 199.341C162.225 199.539 161.982 199.779 161.802 200.061C161.628 200.343 161.502 200.658 161.424 201.006C161.346 201.348 161.307 201.711 161.307 202.095V207H159.408ZM168.833 207.27C168.113 207.27 167.51 207.138 167.024 206.874C166.538 206.604 166.169 206.25 165.917 205.812C165.671 205.368 165.548 204.882 165.548 204.354C165.548 203.862 165.635 203.43 165.809 203.058C165.983 202.686 166.241 202.371 166.583 202.113C166.925 201.849 167.345 201.636 167.843 201.474C168.275 201.348 168.764 201.237 169.31 201.141C169.856 201.045 170.429 200.955 171.029 200.871C171.635 200.787 172.235 200.703 172.829 200.619L172.145 200.997C172.157 200.235 171.995 199.671 171.659 199.305C171.329 198.933 170.759 198.747 169.949 198.747C169.439 198.747 168.971 198.867 168.545 199.107C168.119 199.341 167.822 199.731 167.654 200.277L165.899 199.737C166.139 198.903 166.595 198.24 167.267 197.748C167.945 197.256 168.845 197.01 169.967 197.01C170.837 197.01 171.593 197.16 172.235 197.46C172.883 197.754 173.357 198.222 173.657 198.864C173.813 199.182 173.909 199.518 173.945 199.872C173.981 200.226 173.999 200.607 173.999 201.015V207H172.334V204.777L172.658 205.065C172.256 205.809 171.743 206.364 171.119 206.73C170.501 207.09 169.739 207.27 168.833 207.27ZM169.166 205.731C169.7 205.731 170.159 205.638 170.543 205.452C170.927 205.26 171.236 205.017 171.47 204.723C171.704 204.429 171.857 204.123 171.929 203.805C172.031 203.517 172.088 203.193 172.1 202.833C172.118 202.473 172.127 202.185 172.127 201.969L172.739 202.194C172.145 202.284 171.605 202.365 171.119 202.437C170.633 202.509 170.192 202.581 169.796 202.653C169.406 202.719 169.058 202.8 168.752 202.896C168.494 202.986 168.263 203.094 168.059 203.22C167.861 203.346 167.702 203.499 167.582 203.679C167.468 203.859 167.411 204.078 167.411 204.336C167.411 204.588 167.474 204.822 167.6 205.038C167.726 205.248 167.918 205.416 168.176 205.542C168.434 205.668 168.764 205.731 169.166 205.731ZM177.227 207V196.938C177.227 196.692 177.236 196.431 177.254 196.155C177.272 195.873 177.323 195.597 177.407 195.327C177.497 195.051 177.644 194.799 177.848 194.571C178.094 194.301 178.364 194.109 178.658 193.995C178.952 193.881 179.243 193.815 179.531 193.797C179.825 193.779 180.095 193.77 180.341 193.77H181.565V195.318H180.431C179.987 195.318 179.654 195.429 179.432 195.651C179.216 195.867 179.108 196.176 179.108 196.578V207H177.227ZM175.616 198.792V197.28H181.565V198.792H175.616ZM188.56 207C187.948 207.12 187.348 207.171 186.76 207.153C186.172 207.135 185.647 207.021 185.185 206.811C184.723 206.601 184.375 206.271 184.141 205.821C183.931 205.419 183.817 205.011 183.799 204.597C183.787 204.177 183.781 203.703 183.781 203.175V194.58H185.671V203.085C185.671 203.475 185.674 203.814 185.68 204.102C185.692 204.39 185.755 204.633 185.869 204.831C186.085 205.203 186.427 205.416 186.895 205.47C187.369 205.518 187.924 205.497 188.56 205.407V207ZM181.918 198.792V197.28H188.56V198.792H181.918ZM190.79 195.687V193.86H192.671V195.687H190.79ZM190.79 207V197.28H192.671V207H190.79ZM200.935 207C200.323 207.12 199.723 207.171 199.135 207.153C198.547 207.135 198.022 207.021 197.56 206.811C197.098 206.601 196.75 206.271 196.516 205.821C196.306 205.419 196.192 205.011 196.174 204.597C196.162 204.177 196.156 203.703 196.156 203.175V194.58H198.046V203.085C198.046 203.475 198.049 203.814 198.055 204.102C198.067 204.39 198.13 204.633 198.244 204.831C198.46 205.203 198.802 205.416 199.27 205.47C199.744 205.518 200.299 205.497 200.935 205.407V207ZM194.293 198.792V197.28H200.935V198.792H194.293ZM204.035 211.32L205.916 206.199L205.943 207.711L201.704 197.28H203.666L206.834 205.335H206.258L209.282 197.28H211.19L205.826 211.32H204.035ZM216.383 207V194.04H218.264V205.227H224.132V207H216.383ZM228.405 207.27C227.685 207.27 227.082 207.138 226.596 206.874C226.11 206.604 225.741 206.25 225.489 205.812C225.243 205.368 225.12 204.882 225.12 204.354C225.12 203.862 225.207 203.43 225.381 203.058C225.555 202.686 225.813 202.371 226.155 202.113C226.497 201.849 226.917 201.636 227.415 201.474C227.847 201.348 228.336 201.237 228.882 201.141C229.428 201.045 230.001 200.955 230.601 200.871C231.207 200.787 231.807 200.703 232.401 200.619L231.717 200.997C231.729 200.235 231.567 199.671 231.231 199.305C230.901 198.933 230.331 198.747 229.521 198.747C229.011 198.747 228.543 198.867 228.117 199.107C227.691 199.341 227.394 199.731 227.226 200.277L225.471 199.737C225.711 198.903 226.167 198.24 226.839 197.748C227.517 197.256 228.417 197.01 229.539 197.01C230.409 197.01 231.165 197.16 231.807 197.46C232.455 197.754 232.929 198.222 233.229 198.864C233.385 199.182 233.481 199.518 233.517 199.872C233.553 200.226 233.571 200.607 233.571 201.015V207H231.906V204.777L232.23 205.065C231.828 205.809 231.315 206.364 230.691 206.73C230.073 207.09 229.311 207.27 228.405 207.27ZM228.738 205.731C229.272 205.731 229.731 205.638 230.115 205.452C230.499 205.26 230.808 205.017 231.042 204.723C231.276 204.429 231.429 204.123 231.501 203.805C231.603 203.517 231.66 203.193 231.672 202.833C231.69 202.473 231.699 202.185 231.699 201.969L232.311 202.194C231.717 202.284 231.177 202.365 230.691 202.437C230.205 202.509 229.764 202.581 229.368 202.653C228.978 202.719 228.63 202.8 228.324 202.896C228.066 202.986 227.835 203.094 227.631 203.22C227.433 203.346 227.274 203.499 227.154 203.679C227.04 203.859 226.983 204.078 226.983 204.336C226.983 204.588 227.046 204.822 227.172 205.038C227.298 205.248 227.49 205.416 227.748 205.542C228.006 205.668 228.336 205.731 228.738 205.731ZM240.471 207.27C239.541 207.27 238.761 207.045 238.131 206.595C237.501 206.139 237.024 205.524 236.7 204.75C236.376 203.976 236.214 203.103 236.214 202.131C236.214 201.159 236.373 200.286 236.691 199.512C237.015 198.738 237.489 198.129 238.113 197.685C238.743 197.235 239.517 197.01 240.435 197.01C241.347 197.01 242.133 197.235 242.793 197.685C243.459 198.129 243.972 198.738 244.332 199.512C244.692 200.28 244.872 201.153 244.872 202.131C244.872 203.103 244.692 203.979 244.332 204.759C243.978 205.533 243.471 206.145 242.811 206.595C242.157 207.045 241.377 207.27 240.471 207.27ZM235.899 207V194.04H237.789V200.007H237.573V207H235.899ZM240.21 205.569C240.81 205.569 241.305 205.416 241.695 205.11C242.091 204.804 242.385 204.393 242.577 203.877C242.775 203.355 242.874 202.773 242.874 202.131C242.874 201.495 242.775 200.919 242.577 200.403C242.385 199.887 242.088 199.476 241.686 199.17C241.284 198.864 240.771 198.711 240.147 198.711C239.559 198.711 239.073 198.855 238.689 199.143C238.311 199.431 238.029 199.833 237.843 200.349C237.663 200.865 237.573 201.459 237.573 202.131C237.573 202.803 237.663 203.397 237.843 203.913C238.023 204.429 238.308 204.834 238.698 205.128C239.088 205.422 239.592 205.569 240.21 205.569ZM250.401 207.261C249.219 207.261 248.256 207 247.512 206.478C246.768 205.956 246.312 205.221 246.144 204.273L248.07 203.976C248.19 204.48 248.466 204.879 248.898 205.173C249.336 205.461 249.879 205.605 250.527 205.605C251.115 205.605 251.574 205.485 251.904 205.245C252.24 205.005 252.408 204.675 252.408 204.255C252.408 204.009 252.348 203.811 252.228 203.661C252.114 203.505 251.871 203.358 251.499 203.22C251.127 203.082 250.56 202.911 249.798 202.707C248.964 202.491 248.301 202.26 247.809 202.014C247.323 201.762 246.975 201.471 246.765 201.141C246.561 200.805 246.459 200.4 246.459 199.926C246.459 199.338 246.615 198.825 246.927 198.387C247.239 197.949 247.677 197.61 248.241 197.37C248.811 197.13 249.477 197.01 250.239 197.01C250.983 197.01 251.646 197.127 252.228 197.361C252.81 197.595 253.281 197.928 253.641 198.36C254.001 198.786 254.217 199.287 254.289 199.863L252.363 200.214C252.297 199.746 252.078 199.377 251.706 199.107C251.334 198.837 250.851 198.69 250.257 198.666C249.687 198.642 249.225 198.738 248.871 198.954C248.517 199.164 248.34 199.455 248.34 199.827C248.34 200.043 248.406 200.226 248.538 200.376C248.676 200.526 248.94 200.67 249.33 200.808C249.72 200.946 250.296 201.111 251.058 201.303C251.874 201.513 252.522 201.747 253.002 202.005C253.482 202.257 253.824 202.56 254.028 202.914C254.238 203.262 254.343 203.685 254.343 204.183C254.343 205.143 253.992 205.896 253.29 206.442C252.594 206.988 251.631 207.261 250.401 207.261Z" fill="white"/>
</g>
<rect x="91" y="6" width="54" height="43" rx="16" fill="#F7F7F8"/>
<rect x="91.5" y="6.5" width="53" height="42" rx="15.5" stroke="#040213" stroke-opacity="0.1"/>
<path d="M107.557 33.21C106.843 33.21 106.199 33.0887 105.625 32.846C105.056 32.6033 104.584 32.258 104.211 31.81C103.842 31.3573 103.602 30.823 103.49 30.207L104.778 30.004C104.941 30.6387 105.28 31.1357 105.793 31.495C106.311 31.8497 106.92 32.027 107.62 32.027C108.073 32.027 108.481 31.957 108.845 31.817C109.214 31.6723 109.505 31.467 109.72 31.201C109.935 30.935 110.042 30.62 110.042 30.256C110.042 30.032 110.002 29.8407 109.923 29.682C109.848 29.5187 109.743 29.381 109.608 29.269C109.477 29.1523 109.328 29.0543 109.16 28.975C108.992 28.8957 108.817 28.8303 108.635 28.779L106.066 28.016C105.786 27.932 105.515 27.827 105.254 27.701C104.993 27.5703 104.759 27.4093 104.554 27.218C104.349 27.022 104.185 26.7887 104.064 26.518C103.943 26.2427 103.882 25.9183 103.882 25.545C103.882 24.9477 104.036 24.439 104.344 24.019C104.657 23.5943 105.079 23.27 105.611 23.046C106.143 22.822 106.743 22.7123 107.41 22.717C108.087 22.7217 108.691 22.843 109.223 23.081C109.76 23.3143 110.203 23.6503 110.553 24.089C110.908 24.5277 111.146 25.0527 111.267 25.664L109.944 25.895C109.874 25.4843 109.718 25.132 109.475 24.838C109.237 24.5393 108.938 24.3107 108.579 24.152C108.22 23.9887 107.825 23.9047 107.396 23.9C106.985 23.8953 106.614 23.9607 106.283 24.096C105.952 24.2313 105.688 24.4203 105.492 24.663C105.296 24.901 105.198 25.1763 105.198 25.489C105.198 25.797 105.287 26.0467 105.464 26.238C105.641 26.4247 105.858 26.574 106.115 26.686C106.376 26.7933 106.631 26.882 106.878 26.952L108.796 27.505C109.015 27.5657 109.267 27.6497 109.552 27.757C109.841 27.8643 110.121 28.016 110.392 28.212C110.663 28.4033 110.887 28.66 111.064 28.982C111.241 29.2993 111.33 29.7007 111.33 30.186C111.33 30.6713 111.232 31.103 111.036 31.481C110.845 31.859 110.576 32.1763 110.231 32.433C109.886 32.685 109.484 32.8763 109.027 33.007C108.57 33.1423 108.08 33.21 107.557 33.21ZM116.942 33.21C115.939 33.21 115.087 32.9883 114.387 32.545C113.687 32.1017 113.153 31.4857 112.784 30.697C112.42 29.9083 112.238 28.996 112.238 27.96C112.238 26.924 112.42 26.0117 112.784 25.223C113.153 24.4343 113.687 23.8183 114.387 23.375C115.087 22.9317 115.939 22.71 116.942 22.71C117.95 22.71 118.804 22.9317 119.504 23.375C120.204 23.8183 120.736 24.4343 121.1 25.223C121.464 26.0117 121.646 26.924 121.646 27.96C121.646 28.996 121.464 29.9083 121.1 30.697C120.736 31.4857 120.204 32.1017 119.504 32.545C118.804 32.9883 117.95 33.21 116.942 33.21ZM116.942 32.02C117.694 32.0247 118.319 31.8567 118.818 31.516C119.322 31.1707 119.698 30.6923 119.945 30.081C120.197 29.4697 120.323 28.7627 120.323 27.96C120.323 27.1527 120.197 26.4457 119.945 25.839C119.698 25.2323 119.322 24.7587 118.818 24.418C118.319 24.0773 117.694 23.9047 116.942 23.9C116.191 23.8953 115.566 24.0633 115.066 24.404C114.572 24.7447 114.198 25.2207 113.946 25.832C113.694 26.4433 113.566 27.1527 113.561 27.96C113.557 28.7627 113.68 29.4673 113.932 30.074C114.184 30.6807 114.56 31.1567 115.059 31.502C115.563 31.8427 116.191 32.0153 116.942 32.02ZM127.196 33.21C126.193 33.21 125.341 32.9883 124.641 32.545C123.941 32.1017 123.407 31.4857 123.038 30.697C122.674 29.9083 122.492 28.996 122.492 27.96C122.492 26.924 122.674 26.0117 123.038 25.223C123.407 24.4343 123.941 23.8183 124.641 23.375C125.341 22.9317 126.193 22.71 127.196 22.71C128.363 22.71 129.322 23.0063 130.073 23.599C130.829 24.1917 131.35 24.9897 131.634 25.993L130.367 26.329C130.162 25.5777 129.796 24.985 129.268 24.551C128.741 24.117 128.05 23.9 127.196 23.9C126.445 23.9 125.82 24.0703 125.32 24.411C124.821 24.7517 124.445 25.2277 124.193 25.839C123.941 26.4457 123.813 27.1527 123.808 27.96C123.804 28.7627 123.927 29.4697 124.179 30.081C124.431 30.6877 124.809 31.1637 125.313 31.509C125.817 31.8497 126.445 32.02 127.196 32.02C128.05 32.02 128.741 31.803 129.268 31.369C129.796 30.9303 130.162 30.3377 130.367 29.591L131.634 29.927C131.35 30.9257 130.829 31.7237 130.073 32.321C129.322 32.9137 128.363 33.21 127.196 33.21Z" fill="#040213"/>
<rect x="349" y="128" width="49" height="43" rx="16" fill="#F7F7F8"/>
<rect x="349.5" y="128.5" width="48" height="42" rx="15.5" stroke="#040213" stroke-opacity="0.1"/>
<path d="M362.12 155V144.92H363.366V155H362.12ZM364.766 155L368.14 144.92H369.876L373.25 155H371.955L368.798 145.648H369.19L366.061 155H364.766ZM366.39 152.641V151.472H371.626V152.641H366.39ZM374.503 155V144.92H375.637L379.445 152.949L383.232 144.92H384.38V154.993H383.197V147.657L379.774 155H379.109L375.686 147.657V155H374.503Z" fill="#040213"/>
<rect y="140" width="88" height="43" rx="16" fill="#F7F7F8"/>
<rect x="0.5" y="140.5" width="87" height="42" rx="15.5" stroke="#040213" stroke-opacity="0.1"/>
<path d="M17.124 167.21C16.1207 167.21 15.269 166.988 14.569 166.545C13.869 166.102 13.3347 165.486 12.966 164.697C12.602 163.908 12.42 162.996 12.42 161.96C12.42 160.924 12.602 160.012 12.966 159.223C13.3347 158.434 13.869 157.818 14.569 157.375C15.269 156.932 16.1207 156.71 17.124 156.71C18.2907 156.71 19.2497 157.006 20.001 157.599C20.757 158.192 21.2773 158.99 21.562 159.993L20.295 160.329C20.0897 159.578 19.7233 158.985 19.196 158.551C18.6687 158.117 17.978 157.9 17.124 157.9C16.3727 157.9 15.7473 158.07 15.248 158.411C14.7487 158.752 14.373 159.228 14.121 159.839C13.869 160.446 13.7407 161.153 13.736 161.96C13.7313 162.763 13.855 163.47 14.107 164.081C14.359 164.688 14.737 165.164 15.241 165.509C15.745 165.85 16.3727 166.02 17.124 166.02C17.978 166.02 18.6687 165.803 19.196 165.369C19.7233 164.93 20.0897 164.338 20.295 163.591L21.562 163.927C21.2773 164.926 20.757 165.724 20.001 166.321C19.2497 166.914 18.2907 167.21 17.124 167.21ZM23.2372 167V156.71H24.4832V167H23.2372ZM29.8035 167.21C29.0522 167.21 28.4035 167.04 27.8575 166.699C27.3162 166.358 26.8985 165.887 26.6045 165.285C26.3105 164.683 26.1635 163.992 26.1635 163.213C26.1635 162.42 26.3128 161.724 26.6115 161.127C26.9102 160.53 27.3325 160.065 27.8785 159.734C28.4245 159.398 29.0662 159.23 29.8035 159.23C30.5595 159.23 31.2105 159.4 31.7565 159.741C32.3025 160.077 32.7202 160.546 33.0095 161.148C33.3035 161.745 33.4505 162.434 33.4505 163.213C33.4505 164.002 33.3035 164.697 33.0095 165.299C32.7155 165.896 32.2955 166.365 31.7495 166.706C31.2035 167.042 30.5548 167.21 29.8035 167.21ZM29.8035 166.027C30.5875 166.027 31.1708 165.766 31.5535 165.243C31.9362 164.72 32.1275 164.044 32.1275 163.213C32.1275 162.359 31.9338 161.68 31.5465 161.176C31.1592 160.667 30.5782 160.413 29.8035 160.413C29.2762 160.413 28.8422 160.532 28.5015 160.77C28.1608 161.008 27.9065 161.337 27.7385 161.757C27.5705 162.177 27.4865 162.662 27.4865 163.213C27.4865 164.062 27.6825 164.744 28.0745 165.257C28.4665 165.77 29.0428 166.027 29.8035 166.027ZM37.8617 167.196C37.3764 167.196 36.9587 167.119 36.6087 166.965C36.2634 166.811 35.9764 166.606 35.7477 166.349C35.5191 166.092 35.3394 165.808 35.2087 165.495C35.0781 165.182 34.9847 164.863 34.9287 164.536C34.8774 164.209 34.8517 163.904 34.8517 163.619V159.44H36.1117V163.227C36.1117 163.582 36.1444 163.925 36.2097 164.256C36.2751 164.587 36.3847 164.886 36.5387 165.152C36.6974 165.418 36.9074 165.628 37.1687 165.782C37.4347 165.936 37.7661 166.013 38.1627 166.013C38.4754 166.013 38.7601 165.959 39.0167 165.852C39.2734 165.745 39.4927 165.586 39.6747 165.376C39.8567 165.161 39.9967 164.891 40.0947 164.564C40.1927 164.237 40.2417 163.857 40.2417 163.423L41.0607 163.675C41.0607 164.403 40.9277 165.031 40.6617 165.558C40.4004 166.085 40.0294 166.491 39.5487 166.776C39.0727 167.056 38.5104 167.196 37.8617 167.196ZM40.3817 167V164.977H40.2417V159.44H41.4947V167H40.3817ZM46.4226 167.21C45.7179 167.21 45.1136 167.035 44.6096 166.685C44.1056 166.33 43.7159 165.852 43.4406 165.25C43.1699 164.648 43.0346 163.969 43.0346 163.213C43.0346 162.457 43.1699 161.778 43.4406 161.176C43.7159 160.574 44.1056 160.1 44.6096 159.755C45.1136 159.405 45.7156 159.23 46.4156 159.23C47.1296 159.23 47.7293 159.403 48.2146 159.748C48.6999 160.093 49.0663 160.567 49.3136 161.169C49.5656 161.771 49.6916 162.452 49.6916 163.213C49.6916 163.964 49.5656 164.643 49.3136 165.25C49.0663 165.852 48.6999 166.33 48.2146 166.685C47.7293 167.035 47.1319 167.21 46.4226 167.21ZM46.5766 166.069C47.0853 166.069 47.5029 165.948 47.8296 165.705C48.1563 165.458 48.3966 165.119 48.5506 164.69C48.7093 164.256 48.7886 163.764 48.7886 163.213C48.7886 162.653 48.7093 162.161 48.5506 161.736C48.3966 161.307 48.1586 160.973 47.8366 160.735C47.5146 160.492 47.1063 160.371 46.6116 160.371C46.0983 160.371 45.6736 160.497 45.3376 160.749C45.0063 161.001 44.7589 161.342 44.5956 161.771C44.4369 162.2 44.3576 162.681 44.3576 163.213C44.3576 163.75 44.4393 164.235 44.6026 164.669C44.7659 165.098 45.0109 165.439 45.3376 165.691C45.6689 165.943 46.0819 166.069 46.5766 166.069ZM48.7886 167V161.435H48.6486V156.92H49.9016V167H48.7886ZM55.4398 167.21C54.7258 167.21 54.0818 167.089 53.5078 166.846C52.9385 166.603 52.4671 166.258 52.0938 165.81C51.7251 165.357 51.4848 164.823 51.3728 164.207L52.6608 164.004C52.8241 164.639 53.1625 165.136 53.6758 165.495C54.1938 165.85 54.8028 166.027 55.5028 166.027C55.9555 166.027 56.3638 165.957 56.7278 165.817C57.0965 165.672 57.3881 165.467 57.6028 165.201C57.8175 164.935 57.9248 164.62 57.9248 164.256C57.9248 164.032 57.8851 163.841 57.8058 163.682C57.7311 163.519 57.6261 163.381 57.4908 163.269C57.3601 163.152 57.2108 163.054 57.0428 162.975C56.8748 162.896 56.6998 162.83 56.5178 162.779L53.9488 162.016C53.6688 161.932 53.3981 161.827 53.1368 161.701C52.8755 161.57 52.6421 161.409 52.4368 161.218C52.2315 161.022 52.0681 160.789 51.9468 160.518C51.8255 160.243 51.7648 159.918 51.7648 159.545C51.7648 158.948 51.9188 158.439 52.2268 158.019C52.5395 157.594 52.9618 157.27 53.4938 157.046C54.0258 156.822 54.6255 156.712 55.2928 156.717C55.9695 156.722 56.5738 156.843 57.1058 157.081C57.6425 157.314 58.0858 157.65 58.4358 158.089C58.7905 158.528 59.0285 159.053 59.1498 159.664L57.8268 159.895C57.7568 159.484 57.6005 159.132 57.3578 158.838C57.1198 158.539 56.8211 158.311 56.4618 158.152C56.1025 157.989 55.7081 157.905 55.2788 157.9C54.8681 157.895 54.4971 157.961 54.1658 158.096C53.8345 158.231 53.5708 158.42 53.3748 158.663C53.1788 158.901 53.0808 159.176 53.0808 159.489C53.0808 159.797 53.1695 160.047 53.3468 160.238C53.5241 160.425 53.7411 160.574 53.9978 160.686C54.2591 160.793 54.5135 160.882 54.7608 160.952L56.6788 161.505C56.8981 161.566 57.1501 161.65 57.4348 161.757C57.7241 161.864 58.0041 162.016 58.2748 162.212C58.5455 162.403 58.7695 162.66 58.9468 162.982C59.1241 163.299 59.2128 163.701 59.2128 164.186C59.2128 164.671 59.1148 165.103 58.9188 165.481C58.7275 165.859 58.4591 166.176 58.1138 166.433C57.7685 166.685 57.3671 166.876 56.9098 167.007C56.4525 167.142 55.9625 167.21 55.4398 167.21ZM63.9572 167.21C63.2152 167.21 62.5665 167.047 62.0112 166.72C61.4605 166.389 61.0312 165.929 60.7232 165.341C60.4152 164.748 60.2612 164.058 60.2612 163.269C60.2612 162.443 60.4128 161.729 60.7162 161.127C61.0195 160.52 61.4418 160.054 61.9832 159.727C62.5292 159.396 63.1685 159.23 63.9012 159.23C64.6618 159.23 65.3082 159.405 65.8402 159.755C66.3768 160.105 66.7782 160.604 67.0442 161.253C67.3148 161.902 67.4315 162.674 67.3942 163.57H66.1342V163.122C66.1202 162.193 65.9312 161.5 65.5672 161.043C65.2032 160.581 64.6618 160.35 63.9432 160.35C63.1732 160.35 62.5875 160.597 62.1862 161.092C61.7848 161.587 61.5842 162.296 61.5842 163.22C61.5842 164.111 61.7848 164.802 62.1862 165.292C62.5875 165.782 63.1592 166.027 63.9012 166.027C64.4005 166.027 64.8345 165.913 65.2032 165.684C65.5718 165.455 65.8612 165.126 66.0712 164.697L67.2682 165.11C66.9742 165.777 66.5308 166.295 65.9382 166.664C65.3502 167.028 64.6898 167.21 63.9572 167.21ZM61.1642 163.57V162.569H66.7502V163.57H61.1642ZM72.1377 167.21C71.3723 167.21 70.7213 167.04 70.1847 166.699C69.6527 166.354 69.2467 165.88 68.9667 165.278C68.6867 164.676 68.542 163.99 68.5327 163.22C68.542 162.431 68.689 161.738 68.9737 161.141C69.263 160.539 69.676 160.07 70.2127 159.734C70.7493 159.398 71.3957 159.23 72.1517 159.23C72.9497 159.23 73.6357 159.426 74.2097 159.818C74.7883 160.21 75.1757 160.747 75.3717 161.428L74.1397 161.799C73.981 161.36 73.722 161.02 73.3627 160.777C73.008 160.534 72.5997 160.413 72.1377 160.413C71.6197 160.413 71.1927 160.534 70.8567 160.777C70.5207 161.015 70.271 161.346 70.1077 161.771C69.9443 162.191 69.8603 162.674 69.8557 163.22C69.865 164.06 70.0587 164.739 70.4367 165.257C70.8193 165.77 71.3863 166.027 72.1377 166.027C72.6323 166.027 73.043 165.915 73.3697 165.691C73.6963 165.462 73.9437 165.133 74.1117 164.704L75.3717 165.033C75.1103 165.738 74.702 166.277 74.1467 166.65C73.5913 167.023 72.9217 167.21 72.1377 167.21Z" fill="#040213"/>
<rect x="79" y="336" width="75" height="43" rx="16" fill="#F7F7F8"/>
<rect x="79.5" y="336.5" width="74" height="42" rx="15.5" stroke="#040213" stroke-opacity="0.1"/>
<path d="M91.28 363L94.654 352.92H96.39L99.764 363H98.469L95.312 353.648H95.704L92.575 363H91.28ZM92.904 360.641V359.472H98.14V360.641H92.904ZM104.489 363.21C103.78 363.21 103.182 363.035 102.697 362.685C102.212 362.33 101.843 361.852 101.591 361.25C101.344 360.643 101.22 359.964 101.22 359.213C101.22 358.452 101.344 357.771 101.591 357.169C101.843 356.567 102.212 356.093 102.697 355.748C103.187 355.403 103.787 355.23 104.496 355.23C105.196 355.23 105.798 355.405 106.302 355.755C106.811 356.1 107.2 356.574 107.471 357.176C107.742 357.778 107.877 358.457 107.877 359.213C107.877 359.969 107.742 360.648 107.471 361.25C107.2 361.852 106.811 362.33 106.302 362.685C105.798 363.035 105.194 363.21 104.489 363.21ZM101.01 366.36V355.44H102.123V361.005H102.263V366.36H101.01ZM104.335 362.069C104.834 362.069 105.247 361.943 105.574 361.691C105.901 361.439 106.146 361.098 106.309 360.669C106.472 360.235 106.554 359.75 106.554 359.213C106.554 358.681 106.472 358.2 106.309 357.771C106.15 357.342 105.903 357.001 105.567 356.749C105.236 356.497 104.813 356.371 104.3 356.371C103.81 356.371 103.404 356.492 103.082 356.735C102.76 356.973 102.52 357.307 102.361 357.736C102.202 358.161 102.123 358.653 102.123 359.213C102.123 359.764 102.2 360.256 102.354 360.69C102.513 361.119 102.755 361.458 103.082 361.705C103.409 361.948 103.826 362.069 104.335 362.069ZM112.884 363.21C112.174 363.21 111.577 363.035 111.092 362.685C110.606 362.33 110.238 361.852 109.986 361.25C109.738 360.643 109.615 359.964 109.615 359.213C109.615 358.452 109.738 357.771 109.986 357.169C110.238 356.567 110.606 356.093 111.092 355.748C111.582 355.403 112.181 355.23 112.891 355.23C113.591 355.23 114.193 355.405 114.697 355.755C115.205 356.1 115.595 356.574 115.866 357.176C116.136 357.778 116.272 358.457 116.272 359.213C116.272 359.969 116.136 360.648 115.866 361.25C115.595 361.852 115.205 362.33 114.697 362.685C114.193 363.035 113.588 363.21 112.884 363.21ZM109.405 366.36V355.44H110.518V361.005H110.658V366.36H109.405ZM112.73 362.069C113.229 362.069 113.642 361.943 113.969 361.691C114.295 361.439 114.54 361.098 114.704 360.669C114.867 360.235 114.949 359.75 114.949 359.213C114.949 358.681 114.867 358.2 114.704 357.771C114.545 357.342 114.298 357.001 113.962 356.749C113.63 356.497 113.208 356.371 112.695 356.371C112.205 356.371 111.799 356.492 111.477 356.735C111.155 356.973 110.914 357.307 110.756 357.736C110.597 358.161 110.518 358.653 110.518 359.213C110.518 359.764 110.595 360.256 110.749 360.69C110.907 361.119 111.15 361.458 111.477 361.705C111.803 361.948 112.221 362.069 112.73 362.069ZM121.383 363.21C120.669 363.21 120.025 363.089 119.451 362.846C118.882 362.603 118.411 362.258 118.037 361.81C117.669 361.357 117.428 360.823 117.316 360.207L118.604 360.004C118.768 360.639 119.106 361.136 119.619 361.495C120.137 361.85 120.746 362.027 121.446 362.027C121.899 362.027 122.307 361.957 122.671 361.817C123.04 361.672 123.332 361.467 123.546 361.201C123.761 360.935 123.868 360.62 123.868 360.256C123.868 360.032 123.829 359.841 123.749 359.682C123.675 359.519 123.57 359.381 123.434 359.269C123.304 359.152 123.154 359.054 122.986 358.975C122.818 358.896 122.643 358.83 122.461 358.779L119.892 358.016C119.612 357.932 119.342 357.827 119.08 357.701C118.819 357.57 118.586 357.409 118.38 357.218C118.175 357.022 118.012 356.789 117.89 356.518C117.769 356.243 117.708 355.918 117.708 355.545C117.708 354.948 117.862 354.439 118.17 354.019C118.483 353.594 118.905 353.27 119.437 353.046C119.969 352.822 120.569 352.712 121.236 352.717C121.913 352.722 122.517 352.843 123.049 353.081C123.586 353.314 124.029 353.65 124.379 354.089C124.734 354.528 124.972 355.053 125.093 355.664L123.77 355.895C123.7 355.484 123.544 355.132 123.301 354.838C123.063 354.539 122.765 354.311 122.405 354.152C122.046 353.989 121.652 353.905 121.222 353.9C120.812 353.895 120.441 353.961 120.109 354.096C119.778 354.231 119.514 354.42 119.318 354.663C119.122 354.901 119.024 355.176 119.024 355.489C119.024 355.797 119.113 356.047 119.29 356.238C119.468 356.425 119.685 356.574 119.941 356.686C120.203 356.793 120.457 356.882 120.704 356.952L122.622 357.505C122.842 357.566 123.094 357.65 123.378 357.757C123.668 357.864 123.948 358.016 124.218 358.212C124.489 358.403 124.713 358.66 124.89 358.982C125.068 359.299 125.156 359.701 125.156 360.186C125.156 360.671 125.058 361.103 124.862 361.481C124.671 361.859 124.403 362.176 124.057 362.433C123.712 362.685 123.311 362.876 122.853 363.007C122.396 363.142 121.906 363.21 121.383 363.21ZM129.901 363.21C129.159 363.21 128.51 363.047 127.955 362.72C127.404 362.389 126.975 361.929 126.667 361.341C126.359 360.748 126.205 360.058 126.205 359.269C126.205 358.443 126.356 357.729 126.66 357.127C126.963 356.52 127.385 356.054 127.927 355.727C128.473 355.396 129.112 355.23 129.845 355.23C130.605 355.23 131.252 355.405 131.784 355.755C132.32 356.105 132.722 356.604 132.988 357.253C133.258 357.902 133.375 358.674 133.338 359.57H132.078V359.122C132.064 358.193 131.875 357.5 131.511 357.043C131.147 356.581 130.605 356.35 129.887 356.35C129.117 356.35 128.531 356.597 128.13 357.092C127.728 357.587 127.528 358.296 127.528 359.22C127.528 360.111 127.728 360.802 128.13 361.292C128.531 361.782 129.103 362.027 129.845 362.027C130.344 362.027 130.778 361.913 131.147 361.684C131.515 361.455 131.805 361.126 132.015 360.697L133.212 361.11C132.918 361.777 132.474 362.295 131.882 362.664C131.294 363.028 130.633 363.21 129.901 363.21ZM127.108 359.57V358.569H132.694V359.57H127.108ZM138.081 363.21C137.316 363.21 136.665 363.04 136.128 362.699C135.596 362.354 135.19 361.88 134.91 361.278C134.63 360.676 134.485 359.99 134.476 359.22C134.485 358.431 134.632 357.738 134.917 357.141C135.206 356.539 135.619 356.07 136.156 355.734C136.693 355.398 137.339 355.23 138.095 355.23C138.893 355.23 139.579 355.426 140.153 355.818C140.732 356.21 141.119 356.747 141.315 357.428L140.083 357.799C139.924 357.36 139.665 357.02 139.306 356.777C138.951 356.534 138.543 356.413 138.081 356.413C137.563 356.413 137.136 356.534 136.8 356.777C136.464 357.015 136.214 357.346 136.051 357.771C135.888 358.191 135.804 358.674 135.799 359.22C135.808 360.06 136.002 360.739 136.38 361.257C136.763 361.77 137.33 362.027 138.081 362.027C138.576 362.027 138.986 361.915 139.313 361.691C139.64 361.462 139.887 361.133 140.055 360.704L141.315 361.033C141.054 361.738 140.645 362.277 140.09 362.65C139.535 363.023 138.865 363.21 138.081 363.21Z" fill="#040213"/>
<rect x="302" y="341" width="53" height="43" rx="16" fill="#F7F7F8"/>
<rect x="302.5" y="341.5" width="52" height="42" rx="15.5" stroke="#040213" stroke-opacity="0.1"/>
<path d="M319.061 368.21C318.37 368.21 317.74 368.089 317.171 367.846C316.602 367.603 316.112 367.256 315.701 366.803C315.29 366.346 314.973 365.795 314.749 365.151C314.53 364.502 314.42 363.772 314.42 362.96C314.42 361.887 314.611 360.958 314.994 360.174C315.377 359.39 315.916 358.786 316.611 358.361C317.306 357.932 318.123 357.717 319.061 357.717C320.19 357.717 321.1 357.981 321.791 358.508C322.482 359.031 322.958 359.747 323.219 360.657L321.959 360.916C321.749 360.305 321.404 359.817 320.923 359.453C320.442 359.089 319.843 358.907 319.124 358.907C318.373 358.902 317.747 359.07 317.248 359.411C316.753 359.747 316.38 360.221 316.128 360.832C315.876 361.443 315.748 362.153 315.743 362.96C315.738 363.763 315.862 364.467 316.114 365.074C316.366 365.681 316.742 366.157 317.241 366.502C317.745 366.843 318.373 367.015 319.124 367.02C319.773 367.025 320.319 366.901 320.762 366.649C321.205 366.397 321.548 366.033 321.791 365.557C322.034 365.081 322.181 364.509 322.232 363.842H320.09V362.813H323.548C323.562 362.906 323.569 363.018 323.569 363.149C323.574 363.275 323.576 363.361 323.576 363.408C323.576 364.327 323.403 365.151 323.058 365.879C322.717 366.602 322.211 367.172 321.539 367.587C320.872 368.002 320.046 368.21 319.061 368.21ZM324.974 368V357.92H328.957C329.055 357.92 329.172 357.925 329.307 357.934C329.442 357.939 329.573 357.953 329.699 357.976C330.245 358.06 330.702 358.247 331.071 358.536C331.444 358.825 331.724 359.192 331.911 359.635C332.098 360.074 332.191 360.561 332.191 361.098C332.191 361.877 331.988 362.554 331.582 363.128C331.176 363.697 330.581 364.054 329.797 364.199L329.321 364.276H326.22V368H324.974ZM330.973 368L328.985 363.898L330.217 363.52L332.401 368H330.973ZM326.22 363.093H328.915C329.004 363.093 329.104 363.088 329.216 363.079C329.333 363.07 329.442 363.053 329.545 363.03C329.867 362.955 330.128 362.82 330.329 362.624C330.534 362.423 330.684 362.19 330.777 361.924C330.87 361.653 330.917 361.378 330.917 361.098C330.917 360.818 330.87 360.545 330.777 360.279C330.684 360.008 330.534 359.773 330.329 359.572C330.128 359.371 329.867 359.236 329.545 359.166C329.442 359.138 329.333 359.122 329.216 359.117C329.104 359.108 329.004 359.103 328.915 359.103H326.22V363.093ZM337.882 368.21C336.878 368.21 336.027 367.988 335.327 367.545C334.627 367.102 334.092 366.486 333.724 365.697C333.36 364.908 333.178 363.996 333.178 362.96C333.178 361.924 333.36 361.012 333.724 360.223C334.092 359.434 334.627 358.818 335.327 358.375C336.027 357.932 336.878 357.71 337.882 357.71C339.048 357.71 340.007 358.006 340.759 358.599C341.515 359.192 342.035 359.99 342.32 360.993L341.053 361.329C340.847 360.578 340.481 359.985 339.954 359.551C339.426 359.117 338.736 358.9 337.882 358.9C337.13 358.9 336.505 359.07 336.006 359.411C335.506 359.752 335.131 360.228 334.879 360.839C334.627 361.446 334.498 362.153 334.494 362.96C334.489 363.763 334.613 364.47 334.865 365.081C335.117 365.688 335.495 366.164 335.999 366.509C336.503 366.85 337.13 367.02 337.882 367.02C338.736 367.02 339.426 366.803 339.954 366.369C340.481 365.93 340.847 365.338 341.053 364.591L342.32 364.927C342.035 365.926 341.515 366.724 340.759 367.321C340.007 367.914 339.048 368.21 337.882 368.21Z" fill="#040213"/>
<path d="M327.5 337.5C327.5 338.052 327.948 338.5 328.5 338.5C329.052 338.5 329.5 338.052 329.5 337.5H328.5H327.5ZM201.207 227.793C200.817 227.402 200.183 227.402 199.793 227.793L193.429 234.157C193.038 234.547 193.038 235.181 193.429 235.571C193.819 235.962 194.453 235.962 194.843 235.571L200.5 229.914L206.157 235.571C206.547 235.962 207.181 235.962 207.571 235.571C207.962 235.181 207.962 234.547 207.571 234.157L201.207 227.793ZM328.5 337.5H329.5C329.5 319.56 321.284 308.071 309.056 299.893C296.908 291.769 280.75 286.88 264.79 282.043C248.75 277.181 232.908 272.37 221.056 264.445C209.284 256.573 201.5 245.662 201.5 228.5H200.5H199.5C199.5 246.44 207.716 257.929 219.944 266.107C232.092 274.231 248.25 279.12 264.21 283.957C280.25 288.819 296.092 293.63 307.944 301.555C319.716 309.427 327.5 320.338 327.5 337.5H328.5Z" fill="#E2E2E2"/>
<path d="M115.5 332.5C115.5 333.052 115.948 333.5 116.5 333.5C117.052 333.5 117.5 333.052 117.5 332.5H116.5H115.5ZM201.207 227.793C200.817 227.402 200.183 227.402 199.793 227.793L193.429 234.157C193.038 234.547 193.038 235.181 193.429 235.571C193.819 235.962 194.453 235.962 194.843 235.571L200.5 229.914L206.157 235.571C206.547 235.962 207.181 235.962 207.571 235.571C207.962 235.181 207.962 234.547 207.571 234.157L201.207 227.793ZM116.5 332.5H117.5C117.5 305.213 137.902 293.449 158.997 281.368C179.902 269.395 201.5 257.105 201.5 228.5H200.5H199.5C199.5 255.787 179.098 267.551 158.003 279.632C137.098 291.605 115.5 303.895 115.5 332.5H116.5Z" fill="#E2E2E2"/>
<path d="M44 186.5C44 220.027 91.9727 200.5 125.5 200.5" stroke="#E2E2E2" stroke-width="2" stroke-linecap="round" stroke-linejoin="bevel"/>
<path d="M118 52.5C118 113.616 200.5 111.384 200.5 172.5" stroke="#E2E2E2" stroke-width="2" stroke-linecap="round" stroke-linejoin="bevel"/>
<path d="M373.5 174.5C373.5 216.099 317.099 200.5 275.5 200.5" stroke="#E2E2E2" stroke-width="2" stroke-linecap="round" stroke-linejoin="bevel"/>
<path d="M306 79.5C306 138.021 200.5 113.979 200.5 172.5" stroke="#E2E2E2" stroke-width="2" stroke-linecap="round" stroke-linejoin="bevel"/>
<rect x="256" y="33" width="100" height="43" rx="16" fill="#F7F7F8"/>
<rect x="256.5" y="33.5" width="99" height="42" rx="15.5" stroke="#040213" stroke-opacity="0.1"/>
<path d="M271.577 60V51.103H268.14V49.92H276.26V51.103H272.823V60H271.577ZM282.758 60V56.213C282.758 55.8537 282.725 55.5083 282.66 55.177C282.599 54.8457 282.489 54.5493 282.331 54.288C282.177 54.022 281.967 53.812 281.701 53.658C281.439 53.504 281.108 53.427 280.707 53.427C280.394 53.427 280.109 53.4807 279.853 53.588C279.601 53.6907 279.384 53.8493 279.202 54.064C279.02 54.2787 278.877 54.5493 278.775 54.876C278.677 55.198 278.628 55.5783 278.628 56.017L277.809 55.765C277.809 55.0323 277.939 54.4047 278.201 53.882C278.467 53.3547 278.838 52.951 279.314 52.671C279.794 52.3863 280.359 52.244 281.008 52.244C281.498 52.244 281.915 52.321 282.261 52.475C282.606 52.629 282.893 52.8343 283.122 53.091C283.35 53.343 283.53 53.6277 283.661 53.945C283.791 54.2577 283.882 54.5773 283.934 54.904C283.99 55.226 284.018 55.5317 284.018 55.821V60H282.758ZM277.368 60V49.92H278.488V55.485H278.628V60H277.368ZM285.837 60V52.44H286.95V54.267L286.768 54.029C286.857 53.7957 286.971 53.581 287.111 53.385C287.256 53.189 287.417 53.028 287.594 52.902C287.79 52.7433 288.012 52.622 288.259 52.538C288.507 52.454 288.759 52.405 289.015 52.391C289.272 52.3723 289.512 52.3887 289.736 52.44V53.609C289.475 53.539 289.188 53.5203 288.875 53.553C288.563 53.5857 288.273 53.7 288.007 53.896C287.765 54.0687 287.576 54.2787 287.44 54.526C287.31 54.7733 287.219 55.0417 287.167 55.331C287.116 55.6157 287.09 55.9073 287.09 56.206V60H285.837ZM294.199 60.21C293.457 60.21 292.809 60.0467 292.253 59.72C291.703 59.3887 291.273 58.929 290.965 58.341C290.657 57.7483 290.503 57.0577 290.503 56.269C290.503 55.443 290.655 54.729 290.958 54.127C291.262 53.5203 291.684 53.0537 292.225 52.727C292.771 52.3957 293.411 52.23 294.143 52.23C294.904 52.23 295.55 52.405 296.082 52.755C296.619 53.105 297.02 53.6043 297.286 54.253C297.557 54.9017 297.674 55.674 297.636 56.57H296.376V56.122C296.362 55.1933 296.173 54.5003 295.809 54.043C295.445 53.581 294.904 53.35 294.185 53.35C293.415 53.35 292.83 53.5973 292.428 54.092C292.027 54.5867 291.826 55.296 291.826 56.22C291.826 57.1113 292.027 57.802 292.428 58.292C292.83 58.782 293.401 59.027 294.143 59.027C294.643 59.027 295.077 58.9127 295.445 58.684C295.814 58.4553 296.103 58.1263 296.313 57.697L297.51 58.11C297.216 58.7773 296.773 59.2953 296.18 59.664C295.592 60.028 294.932 60.21 294.199 60.21ZM291.406 56.57V55.569H296.992V56.57H291.406ZM301.207 60.21C300.642 60.21 300.169 60.1073 299.786 59.902C299.408 59.692 299.121 59.4167 298.925 59.076C298.734 58.7353 298.638 58.362 298.638 57.956C298.638 57.5593 298.713 57.2163 298.862 56.927C299.016 56.633 299.231 56.3903 299.506 56.199C299.781 56.003 300.11 55.849 300.493 55.737C300.852 55.639 301.254 55.555 301.697 55.485C302.145 55.4103 302.598 55.3427 303.055 55.282C303.512 55.2213 303.939 55.163 304.336 55.107L303.888 55.366C303.902 54.694 303.767 54.197 303.482 53.875C303.202 53.553 302.717 53.392 302.026 53.392C301.569 53.392 301.167 53.497 300.822 53.707C300.481 53.9123 300.241 54.2483 300.101 54.715L298.918 54.358C299.1 53.6953 299.452 53.175 299.975 52.797C300.498 52.419 301.186 52.23 302.04 52.23C302.726 52.23 303.314 52.3537 303.804 52.601C304.299 52.8437 304.653 53.2123 304.868 53.707C304.975 53.9403 305.043 54.1947 305.071 54.47C305.099 54.7407 305.113 55.0253 305.113 55.324V60H304.007V58.187L304.266 58.355C303.981 58.9663 303.582 59.4283 303.069 59.741C302.56 60.0537 301.94 60.21 301.207 60.21ZM301.396 59.167C301.844 59.167 302.231 59.0877 302.558 58.929C302.889 58.7657 303.155 58.5533 303.356 58.292C303.557 58.026 303.687 57.7367 303.748 57.424C303.818 57.1907 303.855 56.9317 303.86 56.647C303.869 56.3577 303.874 56.136 303.874 55.982L304.308 56.171C303.902 56.227 303.503 56.2807 303.111 56.332C302.719 56.3833 302.348 56.4393 301.998 56.5C301.648 56.556 301.333 56.6237 301.053 56.703C300.848 56.7683 300.654 56.8523 300.472 56.955C300.295 57.0577 300.15 57.1907 300.038 57.354C299.931 57.5127 299.877 57.711 299.877 57.949C299.877 58.1543 299.928 58.3503 300.031 58.537C300.138 58.7237 300.302 58.8753 300.521 58.992C300.745 59.1087 301.037 59.167 301.396 59.167ZM311.154 60C310.706 60.0887 310.263 60.1237 309.824 60.105C309.39 60.091 309.003 60.0047 308.662 59.846C308.321 59.6827 308.062 59.4307 307.885 59.09C307.736 58.7913 307.654 58.4903 307.64 58.187C307.631 57.879 307.626 57.5313 307.626 57.144V50.34H308.872V57.088C308.872 57.396 308.874 57.6597 308.879 57.879C308.888 58.0983 308.937 58.2873 309.026 58.446C309.194 58.7447 309.46 58.9197 309.824 58.971C310.193 59.0223 310.636 59.0083 311.154 58.929V60ZM306.093 53.469V52.44H311.154V53.469H306.093ZM315.632 60V49.92H316.878V60H315.632ZM324.361 60V56.213C324.361 55.8537 324.328 55.5083 324.263 55.177C324.202 54.8457 324.093 54.5493 323.934 54.288C323.78 54.022 323.57 53.812 323.304 53.658C323.043 53.504 322.711 53.427 322.31 53.427C321.997 53.427 321.713 53.4807 321.456 53.588C321.204 53.6907 320.987 53.8493 320.805 54.064C320.623 54.2787 320.481 54.5493 320.378 54.876C320.28 55.198 320.231 55.5783 320.231 56.017L319.412 55.765C319.412 55.0323 319.543 54.4047 319.804 53.882C320.07 53.3547 320.441 52.951 320.917 52.671C321.398 52.3863 321.962 52.244 322.611 52.244C323.101 52.244 323.519 52.321 323.864 52.475C324.209 52.629 324.496 52.8343 324.725 53.091C324.954 53.343 325.133 53.6277 325.264 53.945C325.395 54.2577 325.486 54.5773 325.537 54.904C325.593 55.226 325.621 55.5317 325.621 55.821V60H324.361ZM318.971 60V52.44H320.091V54.463H320.231V60H318.971ZM331.662 60C331.214 60.0887 330.771 60.1237 330.332 60.105C329.898 60.091 329.511 60.0047 329.17 59.846C328.829 59.6827 328.57 59.4307 328.393 59.09C328.244 58.7913 328.162 58.4903 328.148 58.187C328.139 57.879 328.134 57.5313 328.134 57.144V50.34H329.38V57.088C329.38 57.396 329.382 57.6597 329.387 57.879C329.396 58.0983 329.445 58.2873 329.534 58.446C329.702 58.7447 329.968 58.9197 330.332 58.971C330.701 59.0223 331.144 59.0083 331.662 58.929V60ZM326.601 53.469V52.44H331.662V53.469H326.601ZM336.158 60.21C335.416 60.21 334.768 60.0467 334.212 59.72C333.662 59.3887 333.232 58.929 332.924 58.341C332.616 57.7483 332.462 57.0577 332.462 56.269C332.462 55.443 332.614 54.729 332.917 54.127C333.221 53.5203 333.643 53.0537 334.184 52.727C334.73 52.3957 335.37 52.23 336.102 52.23C336.863 52.23 337.509 52.405 338.041 52.755C338.578 53.105 338.979 53.6043 339.245 54.253C339.516 54.9017 339.633 55.674 339.595 56.57H338.335V56.122C338.321 55.1933 338.132 54.5003 337.768 54.043C337.404 53.581 336.863 53.35 336.144 53.35C335.374 53.35 334.789 53.5973 334.387 54.092C333.986 54.5867 333.785 55.296 333.785 56.22C333.785 57.1113 333.986 57.802 334.387 58.292C334.789 58.782 335.36 59.027 336.102 59.027C336.602 59.027 337.036 58.9127 337.404 58.684C337.773 58.4553 338.062 58.1263 338.272 57.697L339.469 58.11C339.175 58.7773 338.732 59.2953 338.139 59.664C337.551 60.028 336.891 60.21 336.158 60.21ZM333.365 56.57V55.569H338.951V56.57H333.365ZM341.294 60V49.71H342.54V60H341.294Z" fill="#040213"/>
<defs>
<filter id="filter0_d_272_1030" x="119" y="171" width="163" height="69" filterUnits="userSpaceOnUse" color-interpolation-filters="sRGB">
<feFlood flood-opacity="0" result="BackgroundImageFix"/>
<feColorMatrix in="SourceAlpha" type="matrix" values="0 0 0 0 0 0 0 0 0 0 0 0 0 0 0 0 0 0 127 0" result="hardAlpha"/>
<feOffset dy="5"/>
<feGaussianBlur stdDeviation="5"/>
<feComposite in2="hardAlpha" operator="out"/>
<feColorMatrix type="matrix" values="0 0 0 0 0 0 0 0 0 0 0 0 0 0 0 0 0 0 0.25 0"/>
<feBlend mode="normal" in2="BackgroundImageFix" result="effect1_dropShadow_272_1030"/>
<feBlend mode="normal" in="SourceGraphic" in2="effect1_dropShadow_272_1030" result="shape"/>
</filter>
<linearGradient id="paint0_linear_272_1030" x1="200.5" y1="176" x2="200.5" y2="225" gradientUnits="userSpaceOnUse">
<stop stop-color="#FF2F66"/>
<stop offset="1" stop-color="#F02258"/>
</linearGradient>
<linearGradient id="paint1_linear_272_1030" x1="200.5" y1="176" x2="200.5" y2="225" gradientUnits="userSpaceOnUse">
<stop stop-color="#040213" stop-opacity="0.3"/>
<stop offset="1" stop-color="#040213" stop-opacity="0.8"/>
</linearGradient>
</defs>
</svg>
