<svg width="32" height="32" viewBox="0 0 32 32" fill="none" xmlns="http://www.w3.org/2000/svg">
<path d="M17 6C17 6.55 16.55 7 16 7H12.5C11.67 7 11 7.67 11 8.5C11 9.33 11.67 10 12.5 10H16C16.55 10 17 10.45 17 11V15H20V12.5C20 10.57 21.57 9 23.5 9C25.43 9 27 10.57 27 12.5V15H31V5C31 2.79 29.21 1 27 1H17V6Z" fill="#FF2F66"/>
<path d="M6 15C6.55 15 7 15.45 7 16V19.5C7 20.33 7.67 21 8.5 21C9.33 21 10 20.33 10 19.5V16C10 15.45 10.45 15 11 15H15V12H12.5C10.57 12 9 10.43 9 8.5C9 6.57 10.57 5 12.5 5H15V1H5C2.79 1 1 2.79 1 5V15H6Z" fill="#FF2F66"/>
<path d="M15 26C15 25.45 15.45 25 16 25H19.5C20.33 25 21 24.33 21 23.5C21 22.67 20.33 22 19.5 22H16C15.45 22 15 21.55 15 21V17H12V19.5C12 21.43 10.43 23 8.5 23C6.57 23 5 21.43 5 19.5V17H1V27C1 29.21 2.79 31 5 31H15V26Z" fill="#FF2F66"/>
<path d="M26 17C25.45 17 25 16.55 25 16V12.5C25 11.67 24.33 11 23.5 11C22.67 11 22 11.67 22 12.5V16C22 16.55 21.55 17 21 17H17V20H19.5C21.43 20 23 21.57 23 23.5C23 25.43 21.43 27 19.5 27H17V31H27C29.21 31 31 29.21 31 27V17H26Z" fill="#FF2F66"/>
</svg>
