<svg width="32" height="32" viewBox="0 0 32 32" fill="none" xmlns="http://www.w3.org/2000/svg">
<path d="M25.5015 16.0001C25.5015 14.8678 26.7487 13.8996 28.4718 13.6042C28.1436 11.8811 27.4708 10.2893 26.519 8.87806C25.0913 9.87909 23.5323 10.076 22.7282 9.27191C21.9241 8.46781 22.1374 6.90883 23.122 5.48114C21.7272 4.52935 20.119 3.85653 18.3959 3.52832C18.0841 5.23499 17.1323 6.49858 16 6.49858C14.8677 6.49858 13.8995 5.2514 13.6041 3.52832C11.881 3.85653 10.2892 4.52935 8.87794 5.48114C9.87897 6.90883 10.0759 8.46781 9.27179 9.27191C8.46769 10.076 6.90871 9.86268 5.48102 8.87806C4.52922 10.2729 3.8564 11.8811 3.5282 13.6042C5.23486 13.916 6.49845 14.8678 6.49845 16.0001C6.49845 17.1324 5.25128 18.1006 3.5282 18.396C3.8564 20.1191 4.52922 21.7109 5.48102 23.1222C6.90871 22.1211 8.46769 21.9242 9.27179 22.7283C10.0759 23.5324 9.86256 25.0914 8.87794 26.5191C10.2728 27.4709 11.881 28.1437 13.6041 28.4719C13.9159 26.7652 14.8677 25.5017 16 25.5017C17.1323 25.5017 18.1005 26.7488 18.3959 28.4719C20.119 28.1437 21.7108 27.4709 23.122 26.5191C22.121 25.0914 21.9241 23.5324 22.7282 22.7283C23.5323 21.9242 25.0913 22.1376 26.519 23.1222C27.4708 21.7273 28.1436 20.1191 28.4718 18.396C26.7651 18.1006 25.5015 17.1324 25.5015 16.0001ZM16 21.7437C12.8328 21.7437 10.2564 19.1673 10.2564 16.0001C10.2564 12.8329 12.8328 10.2565 16 10.2565C19.1672 10.2565 21.7436 12.8329 21.7436 16.0001C21.7436 19.1673 19.1672 21.7437 16 21.7437Z" fill="#FF2F66"/>
<path d="M16 19.0359C17.6767 19.0359 19.0359 17.6767 19.0359 16C19.0359 14.3233 17.6767 12.9641 16 12.9641C14.3233 12.9641 12.9641 14.3233 12.9641 16C12.9641 17.6767 14.3233 19.0359 16 19.0359Z" fill="#FF2F66"/>
</svg>
