<svg width="32" height="32" viewBox="0 0 32 32" fill="none" xmlns="http://www.w3.org/2000/svg">
<path fill-rule="evenodd" clip-rule="evenodd" d="M22 13.6667C17.4014 13.6667 13.6667 17.4014 13.6667 22.0001C13.6667 26.5987 17.4014 30.3334 22 30.3334C26.5987 30.3334 30.3334 26.5987 30.3334 22.0001C30.3334 17.4014 26.5987 13.6667 22 13.6667ZM18.0334 22.3001L20.4787 24.7441C20.868 25.1348 21.5014 25.1348 21.892 24.7441L25.9667 20.6707C26.356 20.2801 26.356 19.6467 25.9667 19.2561C25.576 18.8654 24.9427 18.8654 24.552 19.2561L21.1854 22.6227L19.448 20.8854C19.0574 20.4947 18.424 20.4947 18.0334 20.8854C17.644 21.2761 17.644 21.9094 18.0334 22.3001Z" fill="#FF2F66"/>
<path fill-rule="evenodd" clip-rule="evenodd" d="M1.66669 10.3334V24.0001C1.66669 24.9721 2.05335 25.9054 2.74002 26.5934C3.42802 27.2801 4.36135 27.6667 5.33335 27.6667H14.1694C13.0147 26.0734 12.3334 24.1161 12.3334 22.0001C12.3334 16.6654 16.6654 12.3334 22 12.3334C25.548 12.3334 28.652 14.2494 30.3334 17.1014V10.3334H1.66669ZM1.66669 8.33342H30.3334V5.33341C30.3334 4.36141 29.9467 3.42808 29.26 2.74008C28.572 2.05341 27.6387 1.66675 26.6667 1.66675C21.5574 1.66675 10.4427 1.66675 5.33335 1.66675C4.36135 1.66675 3.42802 2.05341 2.74002 2.74008C2.05335 3.42808 1.66669 4.36141 1.66669 5.33341V8.33342ZM6.66669 7.00008H8.00002C8.55202 7.00008 9.00002 6.55208 9.00002 6.00008C9.00002 5.44808 8.55202 5.00008 8.00002 5.00008H6.66669C6.11469 5.00008 5.66669 5.44808 5.66669 6.00008C5.66669 6.55208 6.11469 7.00008 6.66669 7.00008ZM11.3334 7.00008H12.6667C13.2187 7.00008 13.6667 6.55208 13.6667 6.00008C13.6667 5.44808 13.2187 5.00008 12.6667 5.00008H11.3334C10.7814 5.00008 10.3334 5.44808 10.3334 6.00008C10.3334 6.55208 10.7814 7.00008 11.3334 7.00008Z" fill="#FF2F66"/>
</svg>
