<svg width="32" height="32" viewBox="0 0 32 32" fill="none" xmlns="http://www.w3.org/2000/svg">
<path d="M9.4719 22.8904L5.6832 25.5575C3.89144 26.7398 3.67057 29.5129 5.24871 30.9649C6.00463 31.7272 6.99929 32.0796 8.04588 31.9849C9.11616 31.8926 10.0088 31.3795 10.6271 30.501L13.292 26.715C11.698 25.8908 10.2878 24.4776 9.4719 22.8904Z" fill="#FF2F66"/>
<path d="M12.4174 13.6155C7.91413 18.0611 11.1693 25.9224 17.4934 25.8695C19.4106 25.8695 21.2132 25.1229 22.569 23.767C29.038 16.7882 19.3947 7.14684 12.4174 13.6155Z" fill="#FF2F66"/>
<path d="M8.1227 17.1869H8.56919C8.94561 14.7147 10.5756 12.2588 12.8101 10.9406V6.37473C12.8101 5.85699 12.3903 5.43726 11.8726 5.43726H8.1227C7.60496 5.43726 7.18523 5.85699 7.18523 6.37473V16.2494C7.18523 16.7672 7.60496 17.1869 8.1227 17.1869Z" fill="#FF2F66"/>
<path d="M20.3056 10.084V0.937473C20.3056 0.419738 19.8859 0 19.3681 0H15.6182C15.1005 0 14.6808 0.419738 14.6808 0.937473V10.084C16.4614 9.49578 18.525 9.49585 20.3056 10.084Z" fill="#FF2F66"/>
<path d="M26.8721 7.65601H23.1223C22.6045 7.65601 22.1848 8.07574 22.1848 8.59348V10.9458C24.4154 12.2652 26.0409 14.7177 26.4172 17.187H26.8721C27.3899 17.187 27.8096 16.7672 27.8096 16.2495V8.59348C27.8096 8.07574 27.3899 7.65601 26.8721 7.65601Z" fill="#FF2F66"/>
</svg>
