<svg width="74" height="148" viewBox="0 0 74 148" fill="none" xmlns="http://www.w3.org/2000/svg">
<g clip-path="url(#clip0_66_226)">
<path d="M116.075 30.2872C107.914 15.4931 91.9252 6.07031 74.5946 6.07031C52.5586 6.07031 33.449 21.2709 28.6138 42.0157C12.5569 43.6936 0 57.0752 0 73.2875C0 90.6279 14.3723 104.737 32.0262 104.737H32.7034C31.8703 101.068 32.3802 97.1024 34.3948 93.6371L39.4235 85.0036C42.1894 80.2487 47.3489 77.2949 52.8875 77.2949C53.6399 77.2949 54.3923 77.3513 55.1253 77.4552C57.4313 71.7202 63.0883 67.7366 69.5659 67.7366H79.6176C86.0941 67.7366 91.751 71.7146 94.0571 77.4552C94.7969 77.3513 95.5436 77.2949 96.296 77.2949C101.835 77.2949 106.993 80.2487 109.76 85.0036L114.789 93.6371C116.728 96.9669 117.244 100.753 116.542 104.305C134.973 101.685 149.189 86.1259 149.189 67.3233C149.189 48.4168 134.849 32.6358 116.075 30.2872Z" fill="#040213" fill-opacity="0.05"/>
<path d="M97.6129 113.796C97.7381 112.841 97.9054 111.89 97.9054 110.904C97.9054 109.91 97.7312 108.968 97.6129 108.011L103.214 103.806C104.464 102.869 104.812 101.154 104.028 99.8033L98.9992 91.1699C98.2161 89.8262 96.5441 89.265 95.1019 89.8691L88.6562 92.5644C87.0832 91.3742 85.4111 90.3253 83.5649 89.5608L82.7067 82.7712C82.5075 81.23 81.1894 80.0703 79.6232 80.0703H69.5716C68.0054 80.0703 66.6816 81.23 66.4881 82.7712L65.6311 89.5608C63.7849 90.3253 62.106 91.3799 60.5398 92.5644L54.094 89.8691C52.6451 89.265 50.973 89.8194 50.1899 91.1699L45.167 99.8033C44.3839 101.148 44.7322 102.862 45.9808 103.806L51.582 108.011C51.4579 108.968 51.2838 109.91 51.2838 110.904C51.2838 111.897 51.4579 112.841 51.5763 113.796L45.9751 118.002C44.7253 118.939 44.377 120.653 45.1613 122.004L50.1899 130.637C50.973 131.982 52.6451 132.542 54.0872 131.938L60.533 129.237C62.106 130.427 63.778 131.476 65.6242 132.24L66.4825 139.03C66.6816 140.578 67.9997 141.737 69.5659 141.737H79.6176C81.1837 141.737 82.5075 140.578 82.701 139.036L83.5581 132.246C85.4043 131.482 87.0832 130.427 88.6493 129.244L95.0951 131.938C96.5384 132.542 98.2104 131.988 98.9935 130.637L104.022 121.998C104.805 120.653 104.457 118.939 103.208 117.995L97.6129 113.796ZM74.5946 123.237C67.7254 123.237 62.1618 117.717 62.1618 110.904C62.1618 104.09 67.7254 98.5703 74.5946 98.5703C81.4637 98.5703 87.0274 104.09 87.0274 110.904C87.0274 117.717 81.4637 123.237 74.5946 123.237Z" fill="#040213" fill-opacity="0.05"/>
</g>
<defs>
<clipPath id="clip0_66_226">
<rect width="74" height="148" fill="white"/>
</clipPath>
</defs>
</svg>
