<svg width="74" height="148" viewBox="0 0 74 148" fill="none" xmlns="http://www.w3.org/2000/svg">
<g clip-path="url(#clip0_66_214)">
<path d="M63.6471 48H52.8243V39.8175H17.4699V48H6.64709V20.7396C6.64709 13.1624 12.7439 7 20.2405 7H50.0537C57.5503 7 63.6471 13.1624 63.6471 20.7396V48Z" fill="#040213" fill-opacity="0.05"/>
<path d="M-1.00771 137.336V122.029H70.9963V137.336C77.7064 137.336 91.0713 137.336 97.9298 137.336V88.9922H110.445V7.38652C108.622 6.39689 106.945 5.15702 105.501 3.68538C105.418 3.60291 105.339 3.5183 105.258 3.43512L90.5 7.37727C89.2306 -0.418156 84.1743 -6.96944 77.2764 -10.35L99.7582 -17.4949C102.158 -26.4619 110.046 -33.9346 121.181 -34C145.216 -33.4174 150.963 -2.87729 131.901 7.37727V88.9922H144.416V137.336H157.647V148H-14.3529V137.336C-14.3529 137.336 -3.68103 137.336 -1.00771 137.336Z" fill="#040213" fill-opacity="0.05"/>
<path d="M62.6471 99.9506L40.6471 111V83.0494L62.6471 72V99.9506Z" fill="#040213" fill-opacity="0.05"/>
<path d="M7.64709 72L29.6471 83.0494V111L7.64709 99.9506V72Z" fill="#040213" fill-opacity="0.05"/>
<path d="M13.7381 63.0477L13.6471 63L34.6471 52L55.6471 63C55.5918 63.029 34.7181 73.9626 34.6471 74L13.7381 63.0477Z" fill="#040213" fill-opacity="0.05"/>
</g>
<defs>
<clipPath id="clip0_66_214">
<rect width="74" height="148" fill="white" transform="matrix(-1 0 0 1 74 0)"/>
</clipPath>
</defs>
</svg>
