<svg width="74" height="148" viewBox="0 0 74 148" fill="none" xmlns="http://www.w3.org/2000/svg">
<g clip-path="url(#clip0_66_206)">
<path d="M73.9364 34.5902C52.2409 34.5902 34.59 52.2411 34.59 73.9365C34.59 95.632 52.2409 113.283 73.9364 113.283C95.6318 113.283 113.283 95.632 113.283 73.9365C113.283 52.2411 95.6318 34.5902 73.9364 34.5902ZM78.276 94.9984V104.314H69.5967V94.981C64.5453 93.1728 60.9174 88.3124 60.9174 82.6159H69.5967C69.5967 85.0229 71.5929 87.0568 73.9537 87.0568C76.3463 87.0568 78.2934 85.1097 78.2934 82.7171C78.2934 80.3245 76.3463 78.3775 73.9537 78.3775C66.7759 78.3775 60.9347 72.5392 60.9347 65.3585C60.9347 59.7082 64.554 54.8854 69.5967 53.0917V43.5589H78.276V53.0743C83.3274 54.8478 86.9554 59.6388 86.9554 65.2572H78.276C78.276 62.882 76.3781 61.0188 73.9537 61.0188C71.5611 61.0188 69.614 62.9659 69.614 65.3585C69.614 67.7511 71.5611 69.6981 73.9537 69.6981C81.1344 69.6981 86.9727 75.5393 86.9727 82.7171C86.9727 88.3818 83.339 93.2133 78.276 94.9984ZM78.276 0.000180483V26.1047C102.731 28.3064 121.962 48.9198 121.962 73.9365C121.962 85.616 117.77 96.3379 110.809 104.673L129.299 123.16C140.938 110.077 148 92.8372 148 73.9365C148 34.4253 117.209 2.23656 78.276 0.000180483ZM104.673 110.809C96.3377 117.77 85.6158 121.962 73.9364 121.962C62.2569 121.962 51.535 117.77 43.1999 110.809L24.713 129.299C37.7956 140.938 55.0357 148 73.9364 148C92.8399 148 110.08 140.935 123.16 129.299L104.673 110.809ZM26.1045 78.2762H0C0.989444 95.4757 7.83455 111.087 18.5767 123.16L37.0637 104.673C30.9765 97.3823 27.0043 88.2632 26.1045 78.2762ZM0 69.5969H26.1045C28.1789 46.5706 50.9274 27.0114 73.9537 24.9371V-1.16746C36.4474 0.987906 2.15537 32.1021 0 69.5969Z" fill="#040213" fill-opacity="0.05"/>
</g>
<defs>
<clipPath id="clip0_66_206">
<rect width="74" height="148" fill="white"/>
</clipPath>
</defs>
</svg>
