<svg width="75" height="148" viewBox="0 0 75 148" fill="none" xmlns="http://www.w3.org/2000/svg">
<g clip-path="url(#clip0_66_209)">
<path d="M76.3406 23.0503C75.161 23.9643 73.5058 23.9643 72.3261 23.0503C64.7492 17.1812 55.161 12.3333 44.7334 12.3333C20.2119 12.333 0.333374 30.9038 0.333374 53.812C0.333374 57.8375 0.725343 61.7167 1.45234 65.4491C1.7255 66.8522 2.97598 67.833 4.4054 67.833H31.6166C32.7844 67.833 33.8522 67.1731 34.3742 66.1287L44.1509 46.5754C45.1681 44.5412 47.2222 43.2321 49.4954 43.1688C51.7689 43.1057 53.8923 44.299 55.0205 46.2736L74.2857 79.9869C74.7173 80.7428 75.7755 80.8255 76.3195 80.1453L94.1845 57.8141C95.2803 56.4442 96.9077 55.6062 98.6589 55.5091C100.41 55.412 102.12 56.0656 103.36 57.3059L112.985 66.93C113.563 67.5081 114.347 67.833 115.165 67.833H144.261C145.691 67.833 146.941 66.8522 147.214 65.4491C147.941 61.717 148.333 57.8384 148.333 53.8132C148.333 30.905 128.455 12.333 103.933 12.333C93.5054 12.333 83.9175 17.1809 76.3406 23.0503Z" fill="#040213" fill-opacity="0.05"/>
<path d="M140.203 84.4785C141.291 82.5039 139.812 80.1662 137.557 80.1662H111.333C109.698 80.1662 108.129 79.5161 106.973 78.3599L100.485 71.8728C99.9657 71.353 99.1098 71.4004 98.6502 71.9745L79.1486 96.3517C77.8726 97.9465 75.89 98.8062 73.8538 98.6475C71.8176 98.4885 69.9922 97.3322 68.9791 95.5585L51.1722 64.3973C50.6834 63.542 49.4387 63.5767 48.9982 64.4577L42.8484 76.757C41.8037 78.8464 39.6684 80.166 37.3328 80.166H11.1099C8.85521 80.166 7.37608 82.5036 8.46469 84.4782C23.6971 112.102 56.147 128.781 68.9646 134.516C72.392 136.05 76.2747 136.05 79.7021 134.516C92.5194 128.781 124.97 112.102 140.203 84.4785Z" fill="#040213" fill-opacity="0.05"/>
</g>
<defs>
<clipPath id="clip0_66_209">
<rect width="75" height="148" fill="white"/>
</clipPath>
</defs>
</svg>
