<svg width="74" height="148" viewBox="0 0 74 148" fill="none" xmlns="http://www.w3.org/2000/svg">
<g clip-path="url(#clip0_66_222)">
<path d="M29.1669 148.625H88.7899C87.929 146.534 87.4732 144.301 87.4466 142.042V83.2077C87.4739 78.7245 89.2822 74.4341 92.4768 71.2736C95.6713 68.113 99.9924 66.3391 104.496 66.3392H117V50.9106C117.007 50.2334 116.878 49.5616 116.62 48.9346C116.363 48.3076 115.983 47.738 115.502 47.2591C115.02 46.7802 114.448 46.4016 113.818 46.1455C113.188 45.8895 112.513 45.761 111.833 45.7678H96.3332V30.3392C96.3332 23.5194 93.6115 16.9789 88.7668 12.1565C83.9222 7.33417 77.3514 4.625 70.5 4.625C63.6486 4.625 57.0778 7.33417 52.2332 12.1565C47.3885 16.9789 44.6668 23.5194 44.6668 30.3392V45.7678H29.1669C28.4865 45.761 27.8116 45.8895 27.1817 46.1455C26.5518 46.4016 25.9796 46.7802 25.4984 47.2591C25.0173 47.738 24.637 48.3076 24.3798 48.9346C24.1225 49.5616 23.9935 50.2334 24.0003 50.9106V143.482C23.9935 144.159 24.1225 144.831 24.3798 145.458C24.637 146.085 25.0173 146.655 25.4984 147.133C25.9796 147.612 26.5518 147.991 27.1817 148.247C27.8116 148.503 28.4865 148.631 29.1669 148.625ZM55.0001 30.3392C55.0001 26.2473 56.6331 22.323 59.5399 19.4296C62.4467 16.5362 66.3892 14.9107 70.5 14.9107C74.6108 14.9107 78.5533 16.5362 81.4601 19.4296C84.3669 22.323 85.9999 26.2473 85.9999 30.3392V45.7678H55.0001V30.3392Z" fill="#040213" fill-opacity="0.05"/>
</g>
<defs>
<clipPath id="clip0_66_222">
<rect width="74" height="148" fill="white"/>
</clipPath>
</defs>
</svg>
